<svg width="636" height="710" viewBox="0 0 636 710" fill="none" xmlns="http://www.w3.org/2000/svg">
<g opacity="0.21">
<g opacity="0.21">
<g opacity="0.21">
<path opacity="0.21" d="M161.551 0L0 93.2512V279.88L161.551 186.628V0Z" transform="translate(525.483 641.906) rotate(120)" fill="url(#paint0_linear)"/>
<path opacity="0.21" d="M0 0V186.628L161.677 279.88V93.2512L0 0Z" transform="translate(606.322 501.89) rotate(120)" fill="url(#paint1_linear)"/>
<path opacity="0.21" d="M323.229 93.3772L161.677 0L0 93.3772L161.677 186.628L323.229 93.3772Z" transform="translate(687.189 548.578) rotate(120)" fill="url(#paint2_linear)"/>
</g>
</g>
<g opacity="0.21">
<g opacity="0.21">
<path opacity="0.21" d="M105.727 0L0 61.1173V183.226L105.727 122.235V0Z" transform="translate(498.855 626.533) rotate(120)" fill="url(#paint3_linear)"/>
<path opacity="0.21" d="M0 0V122.235L105.853 183.226V61.1173L0 0Z" transform="translate(551.781 534.862) rotate(120)" fill="url(#paint4_linear)"/>
<path opacity="0.21" d="M211.579 60.9913L105.853 0L0 60.9913L105.853 122.109L211.579 60.9913Z" transform="translate(604.601 565.357) rotate(120)" fill="url(#paint5_linear)"/>
</g>
</g>
</g>
<g opacity="0.21">
<g opacity="0.21">
<g opacity="0.21">
<path opacity="0.21" d="M29.7396 0L0 17.1381V51.4142L29.7396 34.2761V0Z" transform="translate(465.879 165.727) rotate(120)" fill="url(#paint6_linear)"/>
<path opacity="0.21" d="M0 0V34.2761L29.6135 51.4142V17.1381L0 0Z" transform="translate(480.685 140.08) rotate(120)" fill="url(#paint7_linear)"/>
<path opacity="0.21" d="M59.3531 17.264L29.6136 0L0 17.264L29.6136 34.4021L59.3531 17.264Z" transform="translate(495.637 148.713) rotate(120)" fill="url(#paint8_linear)"/>
</g>
</g>
<g opacity="0.21">
<g opacity="0.21">
<path opacity="0.21" d="M19.5323 0L0 11.2153V33.646L19.5323 22.4307V0Z" transform="translate(460.968 162.891) rotate(120)" fill="url(#paint9_linear)"/>
<path opacity="0.21" d="M0 0V22.4307L19.4063 33.646V11.2153L0 0Z" transform="translate(470.671 146.085) rotate(120)" fill="url(#paint10_linear)"/>
<path opacity="0.21" d="M38.9387 11.3414L19.4063 0L0 11.3414L19.4063 22.5567L38.9387 11.3414Z" transform="translate(480.493 151.755) rotate(120)" fill="url(#paint11_linear)"/>
</g>
</g>
</g>
<g opacity="0.21">
<g opacity="0.21">
<g opacity="0.21">
<path opacity="0.21" d="M43.6012 0L0 25.329V75.7351L43.6012 50.5321V0Z" transform="translate(335.502 96.4192) rotate(120)" fill="url(#paint12_linear)"/>
<path opacity="0.21" d="M0 0V50.5321L43.7272 75.7351V25.329L0 0Z" transform="translate(357.365 58.5503) rotate(120)" fill="url(#paint13_linear)"/>
<path opacity="0.21" d="M87.3285 25.203L43.7272 0L0 25.203L43.7272 50.5321L87.3285 25.203Z" transform="translate(379.192 71.1517) rotate(120)" fill="url(#paint14_linear)"/>
</g>
</g>
<g opacity="0.21">
<g opacity="0.21">
<path opacity="0.21" d="M28.6054 0L0 16.508V49.6499L28.6054 33.142V0Z" transform="translate(328.299 92.2606) rotate(120)" fill="url(#paint15_linear)"/>
<path opacity="0.21" d="M0 0V33.142L28.7314 49.6499V16.508L0 0Z" transform="translate(342.664 67.3785) rotate(120)" fill="url(#paint16_linear)"/>
<path opacity="0.21" d="M57.3369 16.508L28.7314 0L0 16.508L28.7314 33.016L57.3369 16.508Z" transform="translate(356.961 75.6324) rotate(120)" fill="url(#paint17_linear)"/>
</g>
</g>
</g>
<g opacity="0.21">
<g opacity="0.21">
<g opacity="0.21">
<path opacity="0.21" d="M29.7395 0L0 17.2641V51.5402L29.7395 34.4021V0Z" transform="translate(394.004 251.405) rotate(120)" fill="url(#paint18_linear)"/>
<path opacity="0.21" d="M0 0V34.4021L29.7396 51.5402V17.2641L0 0Z" transform="translate(408.874 225.65) rotate(120)" fill="url(#paint19_linear)"/>
<path opacity="0.21" d="M59.4791 17.138L29.7396 0L0 17.138L29.7396 34.4021L59.4791 17.138Z" transform="translate(423.715 234.219) rotate(120)" fill="url(#paint20_linear)"/>
</g>
</g>
<g opacity="0.21">
<g opacity="0.21">
<path opacity="0.21" d="M19.4063 0L0 11.2154V33.7721L19.4063 22.5567V0Z" transform="translate(389.093 248.57) rotate(120)" fill="url(#paint21_linear)"/>
<path opacity="0.21" d="M0 0V22.5567L19.5323 33.7721V11.2154L0 0Z" transform="translate(398.859 231.654) rotate(120)" fill="url(#paint22_linear)"/>
<path opacity="0.21" d="M38.9387 11.2153L19.5323 0L0 11.2153L19.5323 22.4307L38.9387 11.2153Z" transform="translate(408.572 237.262) rotate(120)" fill="url(#paint23_linear)"/>
</g>
</g>
</g>
<g opacity="0.21">
<g opacity="0.21">
<g opacity="0.21">
<path opacity="0.21" d="M29.7395 0L0 17.1381V51.4142L29.7395 34.2761V0Z" transform="translate(325.401 448.105) rotate(120)" fill="url(#paint24_linear)"/>
<path opacity="0.21" d="M0 0V34.2761L29.7396 51.4142V17.1381L0 0Z" transform="translate(340.271 422.35) rotate(120)" fill="url(#paint25_linear)"/>
<path opacity="0.21" d="M59.4791 17.1381L29.7396 0L0 17.1381L29.7396 34.2761L59.4791 17.1381Z" transform="translate(355.113 430.919) rotate(120)" fill="url(#paint26_linear)"/>
</g>
</g>
<g opacity="0.21">
<g opacity="0.21">
<path opacity="0.21" d="M19.5323 0L0 11.2153V33.646L19.5323 22.4307V0Z" transform="translate(320.49 445.27) rotate(120)" fill="url(#paint27_linear)"/>
<path opacity="0.21" d="M0 0V22.4307L19.4064 33.646V11.2153L0 0Z" transform="translate(330.194 428.463) rotate(120)" fill="url(#paint28_linear)"/>
<path opacity="0.21" d="M38.9387 11.2153L19.4064 0L0 11.2153L19.4064 22.4307L38.9387 11.2153Z" transform="translate(339.906 434.071) rotate(120)" fill="url(#paint29_linear)"/>
</g>
</g>
</g>
<g opacity="0.21">
<g opacity="0.21">
<g opacity="0.21">
<path opacity="0.21" d="M50.5321 0L0 29.1095V87.4545L50.5321 58.345V0Z" transform="translate(176.549 557.73) rotate(120)" fill="url(#paint30_linear)"/>
<path opacity="0.21" d="M0 0V58.345L50.5321 87.4545V29.1095L0 0Z" transform="translate(201.815 513.969) rotate(120)" fill="url(#paint31_linear)"/>
<path opacity="0.21" d="M101.064 29.1095L50.5321 0L0 29.1095L50.5321 58.2189L101.064 29.1095Z" transform="translate(227.025 528.523) rotate(120)" fill="url(#paint32_linear)"/>
</g>
</g>
<g opacity="0.21">
<g opacity="0.21">
<path opacity="0.21" d="M33.0159 0L0 19.1543V57.3369L33.0159 38.1826V0Z" transform="translate(168.255 552.942) rotate(120)" fill="url(#paint33_linear)"/>
<path opacity="0.21" d="M0 0V38.1826L33.016 57.3369V19.1543L0 0Z" transform="translate(184.763 524.349) rotate(120)" fill="url(#paint34_linear)"/>
<path opacity="0.21" d="M66.0319 19.0282L33.016 0L0 19.0282L33.016 38.1826L66.0319 19.0282Z" transform="translate(201.242 533.863) rotate(120)" fill="url(#paint35_linear)"/>
</g>
</g>
</g>
<path d="M59.4791 0L0 34.2761V102.954L59.4791 68.5522V0Z" transform="translate(513.276 283.744) rotate(120)" fill="url(#paint36_linear)"/>
<path d="M0 0V68.5522L59.3531 102.954V34.2761L0 0Z" transform="translate(542.953 232.343) rotate(120)" fill="url(#paint37_linear)"/>
<path d="M118.832 34.2761L59.3531 0L0 34.2761L59.3531 68.5522L118.832 34.2761Z" transform="translate(572.637 249.481) rotate(120)" fill="url(#paint38_linear)"/>
<path d="M38.9387 0L0 22.4307V67.2921L38.9387 44.8614V0Z" transform="translate(503.454 278.073) rotate(120)" fill="url(#paint39_linear)"/>
<path d="M0 0V44.8614L38.8126 67.2921V22.4307L0 0Z" transform="translate(522.86 244.461) rotate(120)" fill="url(#paint40_linear)"/>
<path d="M77.7513 22.5567L38.8126 0L0 22.5567L38.8126 44.9874L77.7513 22.5567Z" transform="translate(542.395 255.739) rotate(120)" fill="url(#paint41_linear)"/>
<path d="M14.8698 0L0 8.56901V128.283L14.8698 119.714V0Z" transform="translate(615.751 342.908) rotate(120)" fill="url(#paint42_linear)"/>
<path d="M0 0V119.714L14.8698 128.283V8.56901L0 0Z" transform="translate(623.186 330.031) rotate(120)" fill="url(#paint43_linear)"/>
<path d="M29.7396 8.56903L14.8698 0L0 8.56903L14.8698 17.138L29.7396 8.56903Z" transform="translate(630.607 334.315) rotate(120)" fill="url(#paint44_linear)"/>
<path d="M102.198 79.6416L102.702 62.5035L0.504053 0L0 17.2641L102.198 79.6416Z" transform="translate(459.079 278.063) rotate(120)" fill="url(#paint45_linear)"/>
<path d="M117.194 62.5035L14.9958 0L0 8.19098L102.198 70.6945L117.194 62.5035Z" transform="translate(465.921 282.595) rotate(120)" fill="url(#paint46_linear)"/>
<path d="M0 25.329L15.1218 17.1381L15.4999 0L0.504072 8.19098L0 25.329Z" transform="translate(360.944 339.413) rotate(120)" fill="url(#paint47_linear)"/>
<path d="M59.4791 0L0 34.2761V102.954L59.4791 68.5522V0Z" transform="translate(662.132 369.686) rotate(120)" fill="url(#paint48_linear)"/>
<path d="M0 0V68.5522L59.3531 102.954V34.2761L0 0Z" transform="translate(691.809 318.285) rotate(120)" fill="url(#paint49_linear)"/>
<path d="M118.832 34.4021L59.3531 0L0 34.4021L59.3531 68.6782L118.832 34.4021Z" transform="translate(721.602 335.486) rotate(120)" fill="url(#paint50_linear)"/>
<path d="M38.9387 0L0 22.5567V67.4181L38.9387 44.9874V0Z" transform="translate(652.42 364.079) rotate(120)" fill="url(#paint51_linear)"/>
<path d="M0 0V44.9874L38.8126 67.4181V22.5567L0 0Z" transform="translate(671.826 330.466) rotate(120)" fill="url(#paint52_linear)"/>
<path d="M77.7513 22.4307L38.8126 0L0 22.4307L38.8126 44.9874L77.7513 22.4307Z" transform="translate(691.252 341.681) rotate(120)" fill="url(#paint53_linear)"/>
<path d="M59.4791 0L0 34.2761V102.954L59.4791 68.6782V0Z" transform="translate(366.509 360.523) rotate(120)" fill="url(#paint54_linear)"/>
<path d="M0 0V68.6782L59.4791 102.954V34.2761L0 0Z" transform="translate(396.248 309.013) rotate(120)" fill="url(#paint55_linear)"/>
<path d="M118.958 34.2761L59.4791 0L0 34.2761L59.4791 68.5522L118.958 34.2761Z" transform="translate(425.932 326.151) rotate(120)" fill="url(#paint56_linear)"/>
<path d="M38.9387 0L0 22.4307V67.4181L38.9387 44.8614V0Z" transform="translate(356.687 354.853) rotate(120)" fill="url(#paint57_linear)"/>
<path d="M0 0V44.8614L38.9387 67.4181V22.4307L0 0Z" transform="translate(376.156 321.131) rotate(120)" fill="url(#paint58_linear)"/>
<path d="M77.8773 22.4307L38.9387 0L0 22.4307L38.9387 44.8614L77.8773 22.4307Z" transform="translate(395.582 332.346) rotate(120)" fill="url(#paint59_linear)"/>
<path d="M168.734 0L104.719 37.3005L55.1946 8.065L0 40.8289" transform="translate(406.8 147.332) rotate(120)" stroke="url(#paint60_linear)" stroke-miterlimit="10"/>
<path d="M0 0L29.8656 16.2559" transform="translate(277.369 360.424) rotate(120)" stroke="url(#paint61_linear)" stroke-miterlimit="10"/>
<path d="M0 6.04871L10.4593 12.0975L20.9185 6.04871L10.4593 0L0 6.04871Z" transform="translate(381.36 117.802) rotate(120)" fill="white"/>
<path d="M0 6.17473L10.5853 12.2234L21.0445 6.17473L10.5853 0L0 6.17473Z" transform="translate(364.26 145.908) rotate(120)" fill="white"/>
<path d="M0 6.17477L10.5853 12.2235L21.0445 6.17477L10.5853 0L0 6.17477Z" transform="translate(229.008 276.335) rotate(120)" fill="white"/>
<path d="M0 6.04871L10.5853 12.0975L21.0445 6.04871L10.5853 0L0 6.04871Z" transform="translate(255.16 373.939) rotate(120)" fill="white"/>
<path d="M144.413 0L75.7351 42.4671L26.4632 12.9795L0 28.7314" transform="translate(379.266 166.795) rotate(120)" stroke="url(#paint62_linear)" stroke-miterlimit="10"/>
<path d="M50.5321 0L0 32.5119L73.9709 73.7188" transform="translate(315.072 258.072) rotate(120)" stroke="url(#paint63_linear)" stroke-miterlimit="10"/>
<path d="M0 35.0322L59.4791 0" transform="translate(505.254 347.793) rotate(120)" stroke="url(#paint64_linear)" stroke-miterlimit="10"/>
<path d="M0 23.3128L39.6948 0" transform="translate(531.183 330.605) rotate(120)" stroke="url(#paint65_linear)" stroke-miterlimit="10"/>
<path d="M0 35.0322L59.3531 0" transform="translate(557.204 327.877) rotate(120)" stroke="url(#paint66_linear)" stroke-miterlimit="10"/>
<path d="M10.3332 0L0 5.92273V17.8942L10.3332 11.9714V0Z" transform="translate(537.141 368.677) rotate(120)" fill="white"/>
<path d="M10.3332 0L0 6.04871V17.8941L10.3332 11.9714V0Z" transform="translate(521.644 359.729) rotate(120)" fill="white"/>
<path d="M10.3333 0L0 6.04873V17.8942L10.3333 11.9714V0Z" transform="translate(485.748 389.642) rotate(120)" fill="white"/>
<defs>
<linearGradient id="paint0_linear" x2="1" gradientUnits="userSpaceOnUse" gradientTransform="translate(-75.9826 262.03) scale(313.53) rotate(-90)">
<stop stop-color="white"/>
<stop offset="1" stop-color="#00AA8B" stop-opacity="0"/>
</linearGradient>
<linearGradient id="paint1_linear" x2="1" gradientUnits="userSpaceOnUse" gradientTransform="translate(49.3404 -102.012) scale(355.216) rotate(35.875)">
<stop stop-color="white"/>
<stop offset="1" stop-color="#00AA8B" stop-opacity="0"/>
</linearGradient>
<linearGradient id="paint2_linear" x2="1" gradientUnits="userSpaceOnUse" gradientTransform="translate(520.373 -110.936) scale(717.444) rotate(90)">
<stop stop-color="white"/>
<stop offset="1" stop-color="#00AA8B" stop-opacity="0"/>
</linearGradient>
<linearGradient id="paint3_linear" x2="1" gradientUnits="userSpaceOnUse" gradientTransform="translate(-49.7439 171.564) scale(205.234) rotate(-90)">
<stop stop-color="white"/>
<stop offset="1" stop-color="#00AA8B" stop-opacity="0"/>
</linearGradient>
<linearGradient id="paint4_linear" x2="1" gradientUnits="userSpaceOnUse" gradientTransform="translate(32.3115 -66.7353) scale(232.521) rotate(35.875)">
<stop stop-color="white"/>
<stop offset="1" stop-color="#00AA8B" stop-opacity="0"/>
</linearGradient>
<linearGradient id="paint5_linear" x2="1" gradientUnits="userSpaceOnUse" gradientTransform="translate(340.645 -72.7091) scale(469.632) rotate(90)">
<stop stop-color="white"/>
<stop offset="1" stop-color="#00AA8B" stop-opacity="0"/>
</linearGradient>
<linearGradient id="paint6_linear" x2="1" gradientUnits="userSpaceOnUse" gradientTransform="translate(-13.9195 48.1363) scale(57.6496) rotate(-90)">
<stop stop-color="white"/>
<stop offset="1" stop-color="#00AA8B" stop-opacity="0"/>
</linearGradient>
<linearGradient id="paint7_linear" x2="1" gradientUnits="userSpaceOnUse" gradientTransform="translate(9.00939 -18.8015) scale(65.3148) rotate(35.875)">
<stop stop-color="white"/>
<stop offset="1" stop-color="#00AA8B" stop-opacity="0"/>
</linearGradient>
<linearGradient id="paint8_linear" x2="1" gradientUnits="userSpaceOnUse" gradientTransform="translate(95.6198 -20.3478) scale(131.919) rotate(90)">
<stop stop-color="white"/>
<stop offset="1" stop-color="#00AA8B" stop-opacity="0"/>
</linearGradient>
<linearGradient id="paint9_linear" x2="1" gradientUnits="userSpaceOnUse" gradientTransform="translate(-9.09501 31.4849) scale(37.737) rotate(-90)">
<stop stop-color="white"/>
<stop offset="1" stop-color="#00AA8B" stop-opacity="0"/>
</linearGradient>
<linearGradient id="paint10_linear" x2="1" gradientUnits="userSpaceOnUse" gradientTransform="translate(5.93556 -12.332) scale(42.7544) rotate(35.8749)">
<stop stop-color="white"/>
<stop offset="1" stop-color="#00AA8B" stop-opacity="0"/>
</linearGradient>
<linearGradient id="paint11_linear" x2="1" gradientUnits="userSpaceOnUse" gradientTransform="translate(62.6298 -13.3035) scale(86.3524) rotate(90)">
<stop stop-color="white"/>
<stop offset="1" stop-color="#00AA8B" stop-opacity="0"/>
</linearGradient>
<linearGradient id="paint12_linear" x2="1" gradientUnits="userSpaceOnUse" gradientTransform="translate(-20.6006 70.9082) scale(84.7973) rotate(-90)">
<stop stop-color="white"/>
<stop offset="1" stop-color="#00AA8B" stop-opacity="0"/>
</linearGradient>
<linearGradient id="paint13_linear" x2="1" gradientUnits="userSpaceOnUse" gradientTransform="translate(13.2942 -27.5509) scale(96.0717) rotate(35.875)">
<stop stop-color="white"/>
<stop offset="1" stop-color="#00AA8B" stop-opacity="0"/>
</linearGradient>
<linearGradient id="paint14_linear" x2="1" gradientUnits="userSpaceOnUse" gradientTransform="translate(140.69 -30.0159) scale(194.04) rotate(90)">
<stop stop-color="white"/>
<stop offset="1" stop-color="#00AA8B" stop-opacity="0"/>
</linearGradient>
<linearGradient id="paint15_linear" x2="1" gradientUnits="userSpaceOnUse" gradientTransform="translate(-13.504 46.4396) scale(55.5074) rotate(-90)">
<stop stop-color="white"/>
<stop offset="1" stop-color="#00AA8B" stop-opacity="0"/>
</linearGradient>
<linearGradient id="paint16_linear" x2="1" gradientUnits="userSpaceOnUse" gradientTransform="translate(8.79119 -18.0108) scale(62.8876) rotate(35.8751)">
<stop stop-color="white"/>
<stop offset="1" stop-color="#00AA8B" stop-opacity="0"/>
</linearGradient>
<linearGradient id="paint17_linear" x2="1" gradientUnits="userSpaceOnUse" gradientTransform="translate(92.1829 -19.614) scale(127.016) rotate(90)">
<stop stop-color="white"/>
<stop offset="1" stop-color="#00AA8B" stop-opacity="0"/>
</linearGradient>
<linearGradient id="paint18_linear" x2="1" gradientUnits="userSpaceOnUse" gradientTransform="translate(-13.9926 48.2295) scale(57.6497) rotate(-90)">
<stop stop-color="white"/>
<stop offset="1" stop-color="#00AA8B" stop-opacity="0"/>
</linearGradient>
<linearGradient id="paint19_linear" x2="1" gradientUnits="userSpaceOnUse" gradientTransform="translate(9.06244 -18.7083) scale(65.3147) rotate(35.875)">
<stop stop-color="white"/>
<stop offset="1" stop-color="#00AA8B" stop-opacity="0"/>
</linearGradient>
<linearGradient id="paint20_linear" x2="1" gradientUnits="userSpaceOnUse" gradientTransform="translate(95.6724 -20.3804) scale(131.918) rotate(90)">
<stop stop-color="white"/>
<stop offset="1" stop-color="#00AA8B" stop-opacity="0"/>
</linearGradient>
<linearGradient id="paint21_linear" x2="1" gradientUnits="userSpaceOnUse" gradientTransform="translate(-9.1681 31.5781) scale(37.737) rotate(-90)">
<stop stop-color="white"/>
<stop offset="1" stop-color="#00AA8B" stop-opacity="0"/>
</linearGradient>
<linearGradient id="paint22_linear" x2="1" gradientUnits="userSpaceOnUse" gradientTransform="translate(5.98861 -12.2388) scale(42.7543) rotate(35.875)">
<stop stop-color="white"/>
<stop offset="1" stop-color="#00AA8B" stop-opacity="0"/>
</linearGradient>
<linearGradient id="paint23_linear" x2="1" gradientUnits="userSpaceOnUse" gradientTransform="translate(62.6829 -13.3364) scale(86.3527 86.3528) rotate(90)">
<stop stop-color="white"/>
<stop offset="1" stop-color="#00AA8B" stop-opacity="0"/>
</linearGradient>
<linearGradient id="paint24_linear" x2="1" gradientUnits="userSpaceOnUse" gradientTransform="translate(-13.9491 48.1692) scale(57.6496) rotate(-90)">
<stop stop-color="white"/>
<stop offset="1" stop-color="#00AA8B" stop-opacity="0"/>
</linearGradient>
<linearGradient id="paint25_linear" x2="1" gradientUnits="userSpaceOnUse" gradientTransform="translate(9.10579 -18.7686) scale(65.3148) rotate(35.875)">
<stop stop-color="white"/>
<stop offset="1" stop-color="#00AA8B" stop-opacity="0"/>
</linearGradient>
<linearGradient id="paint26_linear" x2="1" gradientUnits="userSpaceOnUse" gradientTransform="translate(95.7159 -20.4408) scale(131.918 131.918) rotate(90)">
<stop stop-color="white"/>
<stop offset="1" stop-color="#00AA8B" stop-opacity="0"/>
</linearGradient>
<linearGradient id="paint27_linear" x2="1" gradientUnits="userSpaceOnUse" gradientTransform="translate(-9.12463 31.5178) scale(37.737) rotate(-90)">
<stop stop-color="white"/>
<stop offset="1" stop-color="#00AA8B" stop-opacity="0"/>
</linearGradient>
<linearGradient id="paint28_linear" x2="1" gradientUnits="userSpaceOnUse" gradientTransform="translate(5.90608 -12.299) scale(42.7544) rotate(35.875)">
<stop stop-color="white"/>
<stop offset="1" stop-color="#00AA8B" stop-opacity="0"/>
</linearGradient>
<linearGradient id="paint29_linear" x2="1" gradientUnits="userSpaceOnUse" gradientTransform="translate(62.6004 -13.3968) scale(86.3528 86.3527) rotate(90)">
<stop stop-color="white"/>
<stop offset="1" stop-color="#00AA8B" stop-opacity="0"/>
</linearGradient>
<linearGradient id="paint30_linear" x2="1" gradientUnits="userSpaceOnUse" gradientTransform="translate(-23.7302 81.9022) scale(97.9897) rotate(-90)">
<stop stop-color="white"/>
<stop offset="1" stop-color="#00AA8B" stop-opacity="0"/>
</linearGradient>
<linearGradient id="paint31_linear" x2="1" gradientUnits="userSpaceOnUse" gradientTransform="translate(15.4397 -31.8746) scale(111.018) rotate(35.875)">
<stop stop-color="white"/>
<stop offset="1" stop-color="#00AA8B" stop-opacity="0"/>
</linearGradient>
<linearGradient id="paint32_linear" x2="1" gradientUnits="userSpaceOnUse" gradientTransform="translate(162.655 -34.7377) scale(224.228 224.227) rotate(90)">
<stop stop-color="white"/>
<stop offset="1" stop-color="#00AA8B" stop-opacity="0"/>
</linearGradient>
<linearGradient id="paint33_linear" x2="1" gradientUnits="userSpaceOnUse" gradientTransform="translate(-15.5297 53.6608) scale(64.1431) rotate(-90)">
<stop stop-color="white"/>
<stop offset="1" stop-color="#00AA8B" stop-opacity="0"/>
</linearGradient>
<linearGradient id="paint34_linear" x2="1" gradientUnits="userSpaceOnUse" gradientTransform="translate(10.0486 -20.8166) scale(72.6717) rotate(35.8749)">
<stop stop-color="white"/>
<stop offset="1" stop-color="#00AA8B" stop-opacity="0"/>
</linearGradient>
<linearGradient id="paint35_linear" x2="1" gradientUnits="userSpaceOnUse" gradientTransform="translate(106.414 -22.7172) scale(146.777) rotate(90)">
<stop stop-color="white"/>
<stop offset="1" stop-color="#00AA8B" stop-opacity="0"/>
</linearGradient>
<linearGradient id="paint36_linear" x2="1" gradientUnits="userSpaceOnUse" gradientTransform="translate(-27.9019 96.3483) scale(115.304) rotate(-90)">
<stop stop-color="white"/>
<stop offset="1" stop-color="#007F5A" stop-opacity="0"/>
</linearGradient>
<linearGradient id="paint37_linear" x2="1" gradientUnits="userSpaceOnUse" gradientTransform="translate(18.0815 -37.5323) scale(130.634) rotate(35.875)">
<stop stop-color="white"/>
<stop offset="1" stop-color="#007F5A" stop-opacity="0"/>
</linearGradient>
<linearGradient id="paint38_linear" x2="1" gradientUnits="userSpaceOnUse" gradientTransform="translate(191.308 -40.8782) scale(263.847) rotate(90)">
<stop stop-color="white"/>
<stop offset="1" stop-color="#007F5A" stop-opacity="0"/>
</linearGradient>
<linearGradient id="paint39_linear" x2="1" gradientUnits="userSpaceOnUse" gradientTransform="translate(-18.2523 63.0446) scale(75.4769) rotate(-90)">
<stop stop-color="white"/>
<stop offset="1" stop-color="#007F5A" stop-opacity="0"/>
</linearGradient>
<linearGradient id="paint40_linear" x2="1" gradientUnits="userSpaceOnUse" gradientTransform="translate(11.8085 -24.5924) scale(85.5121) rotate(35.875)">
<stop stop-color="white"/>
<stop offset="1" stop-color="#007F5A" stop-opacity="0"/>
</linearGradient>
<linearGradient id="paint41_linear" x2="1" gradientUnits="userSpaceOnUse" gradientTransform="translate(125.201 -26.6626) scale(172.712 172.712) rotate(90)">
<stop stop-color="white"/>
<stop offset="1" stop-color="#007F5A" stop-opacity="0"/>
</linearGradient>
<linearGradient id="paint42_linear" x2="1" gradientUnits="userSpaceOnUse" gradientTransform="translate(-64.4067 120.094) scale(143.742) rotate(-90)">
<stop stop-color="white"/>
<stop offset="1" stop-color="#007F5A" stop-opacity="0"/>
</linearGradient>
<linearGradient id="paint43_linear" x2="1" gradientUnits="userSpaceOnUse" gradientTransform="translate(-1.84171 -7.43665) scale(105.058) rotate(35.875)">
<stop stop-color="white"/>
<stop offset="1" stop-color="#007F5A" stop-opacity="0"/>
</linearGradient>
<linearGradient id="paint44_linear" x2="1" gradientUnits="userSpaceOnUse" gradientTransform="translate(47.8855 -10.2567) scale(65.9617) rotate(90)">
<stop stop-color="white"/>
<stop offset="1" stop-color="#007F5A" stop-opacity="0"/>
</linearGradient>
<linearGradient id="paint45_linear" x2="1" gradientUnits="userSpaceOnUse" gradientTransform="translate(41.0774 -50.6513) scale(143.742) rotate(31.4393)">
<stop stop-color="white"/>
<stop offset="1" stop-color="#007F5A" stop-opacity="0"/>
</linearGradient>
<linearGradient id="paint46_linear" x2="1" gradientUnits="userSpaceOnUse" gradientTransform="translate(124.502 64.7513) scale(105.055) rotate(157.314)">
<stop stop-color="white"/>
<stop offset="1" stop-color="#007F5A" stop-opacity="0"/>
</linearGradient>
<linearGradient id="paint47_linear" x2="1" gradientUnits="userSpaceOnUse" gradientTransform="translate(6.58847 50.6177) scale(65.9619) rotate(-148.561)">
<stop stop-color="white"/>
<stop offset="1" stop-color="#007F5A" stop-opacity="0"/>
</linearGradient>
<linearGradient id="paint48_linear" x2="1" gradientUnits="userSpaceOnUse" gradientTransform="translate(-27.9002 96.3106) scale(115.304) rotate(-90)">
<stop stop-color="white"/>
<stop offset="1" stop-color="#007F5A" stop-opacity="0"/>
</linearGradient>
<linearGradient id="paint49_linear" x2="1" gradientUnits="userSpaceOnUse" gradientTransform="translate(18.0832 -37.5701) scale(130.635) rotate(35.875)">
<stop stop-color="white"/>
<stop offset="1" stop-color="#007F5A" stop-opacity="0"/>
</linearGradient>
<linearGradient id="paint50_linear" x2="1" gradientUnits="userSpaceOnUse" gradientTransform="translate(191.31 -40.7898) scale(263.847) rotate(90)">
<stop stop-color="white"/>
<stop offset="1" stop-color="#007F5A" stop-opacity="0"/>
</linearGradient>
<linearGradient id="paint51_linear" x2="1" gradientUnits="userSpaceOnUse" gradientTransform="translate(-18.2508 63.1329) scale(75.4768) rotate(-90)">
<stop stop-color="white"/>
<stop offset="1" stop-color="#007F5A" stop-opacity="0"/>
</linearGradient>
<linearGradient id="paint52_linear" x2="1" gradientUnits="userSpaceOnUse" gradientTransform="translate(11.8101 -24.5041) scale(85.5121) rotate(35.875)">
<stop stop-color="white"/>
<stop offset="1" stop-color="#007F5A" stop-opacity="0"/>
</linearGradient>
<linearGradient id="paint53_linear" x2="1" gradientUnits="userSpaceOnUse" gradientTransform="translate(125.203 -26.7002) scale(172.712) rotate(90)">
<stop stop-color="white"/>
<stop offset="1" stop-color="#007F5A" stop-opacity="0"/>
</linearGradient>
<linearGradient id="paint54_linear" x2="1" gradientUnits="userSpaceOnUse" gradientTransform="translate(-27.9175 96.373) scale(115.304) rotate(-90)">
<stop stop-color="white"/>
<stop offset="1" stop-color="#007F5A" stop-opacity="0"/>
</linearGradient>
<linearGradient id="paint55_linear" x2="1" gradientUnits="userSpaceOnUse" gradientTransform="translate(18.1918 -37.5075) scale(130.634) rotate(35.875)">
<stop stop-color="white"/>
<stop offset="1" stop-color="#007F5A" stop-opacity="0"/>
</linearGradient>
<linearGradient id="paint56_linear" x2="1" gradientUnits="userSpaceOnUse" gradientTransform="translate(191.419 -40.8535) scale(263.847) rotate(90)">
<stop stop-color="white"/>
<stop offset="1" stop-color="#007F5A" stop-opacity="0"/>
</linearGradient>
<linearGradient id="paint57_linear" x2="1" gradientUnits="userSpaceOnUse" gradientTransform="translate(-18.2681 63.0693) scale(75.4769) rotate(-90)">
<stop stop-color="white"/>
<stop offset="1" stop-color="#007F5A" stop-opacity="0"/>
</linearGradient>
<linearGradient id="paint58_linear" x2="1" gradientUnits="userSpaceOnUse" gradientTransform="translate(11.9188 -24.5677) scale(85.5122) rotate(35.875)">
<stop stop-color="white"/>
<stop offset="1" stop-color="#007F5A" stop-opacity="0"/>
</linearGradient>
<linearGradient id="paint59_linear" x2="1" gradientUnits="userSpaceOnUse" gradientTransform="translate(125.312 -26.7641) scale(172.712) rotate(90)">
<stop stop-color="white"/>
<stop offset="1" stop-color="#007F5A" stop-opacity="0"/>
</linearGradient>
<linearGradient id="paint60_linear" x2="1" gradientUnits="userSpaceOnUse" gradientTransform="translate(-0.350952 -64.3213) scale(169.465 169.465)">
<stop stop-color="white"/>
<stop offset="1" stop-color="#009479" stop-opacity="0"/>
</linearGradient>
<linearGradient id="paint61_linear" x2="1" gradientUnits="userSpaceOnUse" gradientTransform="translate(-0.248628 -7.06081) scale(30.4119)">
<stop stop-color="#006A54" stop-opacity="0"/>
<stop offset="1" stop-color="white"/>
</linearGradient>
<linearGradient id="paint62_linear" x2="1" gradientUnits="userSpaceOnUse" gradientTransform="translate(-0.364436 -51.2724) scale(145.146)">
<stop stop-color="white"/>
<stop offset="1" stop-color="#009479" stop-opacity="0"/>
</linearGradient>
<linearGradient id="paint63_linear" x2="1" gradientUnits="userSpaceOnUse" gradientTransform="translate(-0.15084 78.2636) scale(75.9819) rotate(-93.0803)">
<stop stop-color="white"/>
<stop offset="1" stop-color="#009479" stop-opacity="0"/>
</linearGradient>
<linearGradient id="paint64_linear" x2="1" gradientUnits="userSpaceOnUse" gradientTransform="translate(-0.330286 -12.5047) scale(60.0738)">
<stop stop-color="white"/>
<stop offset="1" stop-color="#00554A" stop-opacity="0"/>
</linearGradient>
<linearGradient id="paint65_linear" x2="1" gradientUnits="userSpaceOnUse" gradientTransform="translate(-0.346289 -8.50734) scale(40.3013)">
<stop stop-color="white"/>
<stop offset="1" stop-color="#00554A" stop-opacity="0"/>
</linearGradient>
<linearGradient id="paint66_linear" x2="1" gradientUnits="userSpaceOnUse" gradientTransform="translate(-0.382708 -12.5017) scale(60.0737)">
<stop stop-color="white"/>
<stop offset="1" stop-color="#00554A" stop-opacity="0"/>
</linearGradient>
</defs>
</svg>
