<svg width="280" height="205" viewBox="0 0 280 205" fill="none" xmlns="http://www.w3.org/2000/svg">
<path d="M153.476 0H148.245L80.0869 68.1579H88.5606L156.276 0.44211C155.392 0.147373 154.434 0 153.476 0ZM58.2027 0.147377L1.90794 56.4421L0.213208 62.3368C-0.744687 65.579 1.61321 68.3053 5.51847 68.3053L64.3922 68.2316L132.55 0.0736887L58.2027 0.147377ZM160.403 5.37896L97.5501 68.2316H101.308L161.213 8.32633L160.403 5.37896Z" transform="translate(45.3236 134.347)" fill="url(#paint0_linear)"/>
<path fill-rule="evenodd" clip-rule="evenodd" d="M141.4 89.379H6.92632C3.09474 89.379 0 86.2842 0 82.4527V6.92631C0 3.09473 3.09474 0 6.92632 0H141.4C145.232 0 148.326 3.09473 148.326 6.92631V82.4527C148.326 86.2842 145.232 89.379 141.4 89.379Z" transform="translate(59.2421 45.1887)" fill="url(#paint1_linear)"/>
<path fill-rule="evenodd" clip-rule="evenodd" d="M141.4 0H6.92632C3.09474 0 0 3.09473 0 6.92631V7.14737C0 3.31579 3.09474 0.221055 6.92632 0.221055H141.4C145.232 0.221055 148.326 3.31579 148.326 7.14737V6.92631C148.326 3.09473 145.232 0 141.4 0Z" transform="translate(59.2421 45.1887)" fill="url(#paint2_linear)"/>
<path d="M139.853 0.0736775C142.947 0.0736775 145.526 2.57894 145.526 5.74736V80.979C145.526 84.0737 143.021 86.6526 139.853 86.6526H5.67368C2.57895 86.6526 0 84.1474 0 80.979V5.67368C0 2.57895 2.50526 0 5.67368 0H139.853" transform="translate(60.6421 46.5151)" fill="url(#paint3_linear)"/>
<path opacity="0.56" d="M138.526 0H0V74.0526H138.526V0Z" transform="translate(64.1053 50.8624)" fill="url(#paint4_linear)"/>
<path d="M138.526 0H0V0.147366H138.526V0Z" transform="translate(64.1053 50.8624)" fill="url(#paint5_linear)"/>
<path opacity="0.39" d="M170.617 68.0105L5.49088 68.3053C1.6593 68.3053 -0.698595 65.5789 0.185616 62.3368L16.6909 4.05263C17.2803 1.91579 20.2277 0.221044 23.2488 0.221044L153.375 0C156.396 0 159.344 1.69472 159.933 3.83157L175.922 62.0421C176.88 65.2842 174.522 68.0105 170.617 68.0105Z" transform="translate(45.3512 136.483)" fill="url(#paint6_linear)"/>
<path d="M170.586 4.6421L5.45958 4.93685C2.14379 4.93685 -0.0667399 2.94736 0.00694428 0.294732C-0.140424 3.02105 2.07011 5.08421 5.45958 5.08421L170.586 4.78947C173.975 4.78947 176.186 2.72632 176.112 0C176.186 2.65263 173.902 4.6421 170.586 4.6421Z" transform="translate(45.3825 199.705)" fill="url(#paint7_linear)"/>
<path opacity="0.56" d="M170.617 68.0842L5.49088 68.3053C1.6593 68.3053 -0.698595 65.579 0.185616 62.3368L16.6909 4.05263C17.2803 1.91579 20.2277 0.221066 23.2488 0.221066L153.375 0C156.396 0 159.344 1.69475 159.933 3.83159L175.922 62.0421C176.88 65.3579 174.522 68.0842 170.617 68.0842Z" transform="translate(45.3512 134.347)" fill="url(#paint8_linear)"/>
<path d="M58.2027 0.147377L1.90794 56.4421L0.213208 62.3368C-0.744687 65.579 1.61321 68.3053 5.51847 68.3053L64.3922 68.2316L132.55 0.0736887L58.2027 0.147377ZM153.476 0H148.245L80.0869 68.1579H88.5606L156.276 0.44211C155.392 0.147373 154.434 0 153.476 0ZM160.403 5.37896L97.5501 68.2316H101.308L161.213 8.32633L160.403 5.37896Z" transform="translate(45.3236 134.347)" fill="url(#paint9_linear)"/>
<path opacity="0.86" d="M170.571 6.77896C174.403 6.77896 176.761 4.05264 175.876 0.810531L175.655 0C176.54 3.24211 174.182 5.96843 170.35 5.96843L5.66585 6.26316C1.83427 6.26316 -0.523632 3.61052 0.434262 0.294732L0.213208 1.10526C-0.744687 4.34737 1.61321 7.07369 5.51847 7.07369" transform="translate(45.3973 195.652)" fill="url(#paint10_linear)"/>
<path opacity="0.9" d="M60.3474 22.2526L0 22.3263L2.21053 0.147355L58.3579 0L60.3474 22.2526Z" transform="translate(103.232 180.252)" fill="url(#paint11_linear)"/>
<path opacity="0.9" d="M60.3474 4.1263L0 4.19999L0.368421 0.0736662L59.9789 0L60.3474 4.1263Z" transform="translate(103.232 198.378)" fill="url(#paint12_linear)"/>
<path d="M59.6842 0.442087L0 0.515776V0.0736662L59.6105 0L59.6842 0.442087Z" transform="translate(103.6 198.378)" fill="url(#paint13_linear)"/>
<path d="M56.2947 0.368421L0 0.44211L0.0736775 0.0736887L56.2211 0L56.2947 0.368421Z" transform="translate(105.368 180.105)" fill="url(#paint14_linear)"/>
<path opacity="0.9" d="M131.507 30.6526L4.18099 30.8737C1.45468 30.8737 -0.534795 28.3684 0.128363 25.7158L5.581 3.31579C6.02311 1.47368 7.71784 0.147377 9.63363 0.147377L126.202 0C128.118 0 129.813 1.32631 130.255 3.2421L135.56 25.6421C136.149 28.1474 134.16 30.6526 131.507 30.6526Z" transform="translate(65.7453 138.473)" fill="url(#paint15_linear)"/>
<path d="M1.76843 0.221066C1.10527 0.221066 0.51579 0.368439 0 0.663176L120.105 0.44211C119.589 0.221057 118.926 0 118.337 0L1.76843 0.221066Z" transform="translate(73.6105 138.399)" fill="url(#paint16_linear)"/>
<path opacity="0.9" d="M138.51 5.37894L1.82555 5.6C0.646604 5.6 -0.237613 4.49474 0.057124 3.31579L0.499234 1.62104C0.720286 0.810513 1.45712 0.221044 2.26765 0.221044L138.141 0C139.026 0 139.762 0.589469 139.91 1.4L140.278 3.09472C140.573 4.27367 139.689 5.37894 138.51 5.37894Z" transform="translate(63.385 171.042)" fill="url(#paint17_linear)"/>
<path d="M0 0.663153L138.158 0.44211C137.863 0.221057 137.421 0 136.979 0L107.137 0.0736887L1.10526 0.221044C0.736842 0.221044 0.294737 0.368417 0 0.663153Z" transform="translate(64.4737 171.042)" fill="url(#paint18_linear)"/>
<path opacity="0.56" d="M45.7556 0.221044L6.03982 0C4.93456 0 4.05035 0.736838 3.82929 1.76842L0.0714055 17.8316C-0.297016 19.2316 0.808248 20.6316 2.28193 20.6316L50.103 20.8526C51.6504 20.8526 52.7556 19.4526 52.3135 17.9789L48.0398 1.91577C47.6714 0.957877 46.7872 0.221044 45.7556 0.221044Z" transform="translate(108.244 140.905)" fill="url(#paint19_linear)"/>
<path opacity="0.56" d="M18.8657 19.8211H4.3499C2.5078 19.8211 0.88674 18.5684 0.813056 16.9474L0.00252509 3.38948C-0.0711591 1.54737 1.47621 0 3.53937 0H19.6762C21.7394 0 23.2867 1.54737 23.2131 3.38948L22.4025 16.9474C22.3288 18.5684 20.7078 19.8211 18.8657 19.8211Z" transform="translate(122.608 89.1783)" fill="url(#paint20_linear)"/>
<path d="M3.53937 0.147366H19.6762C21.6657 0.147366 23.2131 1.62105 23.2131 3.46316V3.38947C23.3604 1.54736 21.7394 0 19.6762 0H3.53937C1.47621 0 -0.0711591 1.54736 0.00252509 3.38947V3.46316C0.00252509 1.62105 1.5499 0.147366 3.53937 0.147366Z" transform="translate(122.608 89.2521)" fill="url(#paint21_linear)"/>
<path opacity="0.56" d="M7.66538 3.46317C7.73906 1.54738 5.97064 0 3.8338 0C1.69696 0 -0.0714618 1.54738 0.00222246 3.46317C0.00222246 4.93685 1.10749 6.18947 2.58117 6.63158V9.28422C2.58117 9.87369 3.09695 10.3158 3.76011 10.3158C4.42327 10.3158 4.93906 9.87369 4.93906 9.28422V6.63158C6.48643 6.18947 7.59169 4.93685 7.66538 3.46317Z" transform="translate(130.419 94.3362)" fill="url(#paint22_linear)"/>
<path d="M3.8338 0.147366C5.97064 0.147366 7.59169 1.62104 7.66538 3.53683V3.46314C7.73906 1.54736 5.97064 0 3.8338 0C1.69696 0 -0.0714618 1.54736 0.00222246 3.46314V3.53683C0.00222246 1.62104 1.69696 0.147366 3.8338 0.147366Z" transform="translate(130.419 94.41)" fill="url(#paint23_linear)"/>
<path d="M9.43992 0C3.98729 0 -0.212713 4.34737 0.00833965 9.43158L0.376761 17.6105C0.450445 18.7158 1.40834 19.6 2.58729 19.6C3.76623 19.6 4.72414 18.7158 4.72414 17.6105L4.57676 9.43158C4.50307 6.77895 6.71361 4.64211 9.51361 4.64211C12.3136 4.64211 14.5241 6.85263 14.4504 9.43158L14.2294 17.6105C14.2294 18.7158 15.1136 19.6 16.2925 19.6C17.4715 19.6 18.5031 18.7158 18.5031 17.6105L18.8715 9.50527C19.0925 4.34738 14.8926 0 9.43992 0Z" transform="translate(124.813 74.5887)" fill="url(#paint24_linear)"/>
<path d="M9.43992 0.221055C14.8189 0.221055 18.9452 4.42106 18.8715 9.43158C19.0925 4.34737 14.8926 0 9.43992 0C3.98729 0 -0.212713 4.34737 0.00833965 9.43158V9.50527C-0.139029 4.49474 4.06097 0.221055 9.43992 0.221055Z" transform="translate(124.813 74.5887)" fill="url(#paint25_linear)"/>
<path d="M0 0.147366L0.147366 8.10526C0.147366 8.10526 0.147366 8.10526 0.147366 8.03158L0 0C0 0.0736842 0 0.147366 0 0.147366Z" transform="translate(129.316 84.0939)" fill="url(#paint26_linear)"/>
<path d="M0.221066 0L0 8.03159C0 8.03159 0 8.03158 0 8.10526L0.221066 0.147366C0.221066 0.073682 0.221066 0 0.221066 0Z" transform="translate(138.968 84.1676)" fill="url(#paint27_linear)"/>
<path opacity="0.56" d="M89.4526 60.2H4.86314C2.13682 60.2 0 57.9895 0 55.3368V4.86316C0 2.13684 2.21051 0 4.86314 0H89.4526C92.179 0 94.3158 2.21053 94.3158 4.86316V55.3368C94.3158 58.0632 92.1053 60.2 89.4526 60.2Z" transform="translate(185.611 0.0737305)" fill="url(#paint28_linear)"/>
<path opacity="0.56" d="M89.4526 4.86315H4.86314C2.13682 4.86315 0 2.65263 0 0V0.221055C0 2.94737 2.21051 5.08421 4.86314 5.08421H89.4526C92.179 5.08421 94.3158 2.87369 94.3158 0.221055V0C94.3158 2.72632 92.1053 4.86315 89.4526 4.86315Z" transform="translate(185.611 55.1893)" fill="url(#paint29_linear)"/>
<path d="M35.1474 0H0V2.50527H35.1474V0Z" transform="translate(194.526 51.8)" fill="url(#paint30_linear)"/>
<path d="M17.6105 0H0V1.47368H17.6105V0Z" transform="translate(251.484 51.8)" fill="url(#paint31_linear)"/>
<path d="M6.26316 0H0V1.47368H6.26316V0Z" transform="translate(270.642 15.9158)" fill="url(#paint32_linear)"/>
<path d="M6.26316 0H0V1.47368H6.26316V0Z" transform="translate(270.642 18.7158)" fill="url(#paint33_linear)"/>
<path d="M6.26316 0H0V1.47368H6.26316V0Z" transform="translate(270.642 21.7368)" fill="url(#paint34_linear)"/>
<path d="M2.13684 0H0V1.47368H2.13684V0Z" transform="translate(270.642 24.7578)" fill="url(#paint35_linear)"/>
<path d="M2.13684 0H0V1.47368H2.13684V0Z" transform="translate(270.642 28.0737)" fill="url(#paint36_linear)"/>
<path d="M17.6105 0H0V1.47368H17.6105V0Z" transform="translate(251.484 54.3053)" fill="url(#paint37_linear)"/>
<path d="M17.6105 0H0V1.47368H17.6105V0Z" transform="translate(251.484 56.8107)" fill="url(#paint38_linear)"/>
<path d="M35.1474 0H0V1.25263H35.1474V0Z" transform="translate(194.526 55.1893)" fill="url(#paint39_linear)"/>
<path opacity="0.56" d="M89.4526 0H4.86314C2.13682 0 0 2.21053 0 4.86316V10.9789H94.3895V4.86316C94.3158 2.21053 92.1053 0 89.4526 0Z" transform="translate(185.611)" fill="url(#paint40_linear)"/>
<path opacity="0.56" d="M2.3579 4.71579C3.66013 4.71579 4.71579 3.66013 4.71579 2.3579C4.71579 1.05567 3.66013 0 2.3579 0C1.05567 0 0 1.05567 0 2.3579C0 3.66013 1.05567 4.71579 2.3579 4.71579Z" transform="translate(203.074 3.16846)" fill="url(#paint41_linear)"/>
<path d="M1.4 2.8C2.17319 2.8 2.79999 2.1732 2.79999 1.4C2.79999 0.626803 2.17319 0 1.4 0C0.626797 0 0 0.626803 0 1.4C0 2.1732 0.626797 2.8 1.4 2.8Z" transform="translate(204.032 4.12634)" fill="url(#paint42_linear)"/>
<path opacity="0.56" d="M2.3579 4.71579C3.66013 4.71579 4.71579 3.66013 4.71579 2.3579C4.71579 1.05567 3.66013 0 2.3579 0C1.05567 0 0 1.05567 0 2.3579C0 3.66013 1.05567 4.71579 2.3579 4.71579Z" transform="translate(196.442 3.16846)" fill="url(#paint43_linear)"/>
<path d="M1.4 2.8C2.17319 2.8 2.79999 2.1732 2.79999 1.4C2.79999 0.626803 2.17319 0 1.4 0C0.626797 0 0 0.626803 0 1.4C0 2.1732 0.626797 2.8 1.4 2.8Z" transform="translate(197.4 4.12634)" fill="url(#paint44_linear)"/>
<path opacity="0.56" d="M2.3579 4.71579C3.66013 4.71579 4.71581 3.66013 4.71581 2.3579C4.71581 1.05567 3.66013 0 2.3579 0C1.05567 0 0 1.05567 0 2.3579C0 3.66013 1.05567 4.71579 2.3579 4.71579Z" transform="translate(189.737 3.16846)" fill="url(#paint45_linear)"/>
<path d="M1.4 2.8C2.17319 2.8 2.79999 2.1732 2.79999 1.4C2.79999 0.626803 2.17319 0 1.4 0C0.626797 0 0 0.626803 0 1.4C0 2.1732 0.626797 2.8 1.4 2.8Z" transform="translate(190.695 4.12634)" fill="url(#paint46_linear)"/>
<path d="M89.4526 0H4.86314C2.13682 0 0 2.21053 0 4.86316V5.23158C0 2.50526 2.21051 0.368421 4.86314 0.368421H89.4526C92.179 0.368421 94.3158 2.57895 94.3158 5.23158V4.86316C94.3158 2.21053 92.1053 0 89.4526 0Z" transform="translate(185.611)" fill="url(#paint47_linear)"/>
<path d="M94.3895 0H0V0.221049H94.3895V0Z" transform="translate(185.537 10.979)" fill="url(#paint48_linear)"/>
<path d="M0 34.4105H74.5684V0" transform="translate(194.526 15.9158)" stroke="url(#paint49_linear)" stroke-width="0.25" stroke-miterlimit="10" stroke-linecap="round" stroke-linejoin="round"/>
<path d="M0 28.3302H70.6632C70.6632 28.3302 60.7895 2.09864 51.7263 1.21443C42.6631 0.330218 38.8316 21.9197 30.5053 22.2881C22.1789 22.6565 26.4526 2.09864 21.5895 0.109166C16.6526 -1.88031 19.8211 23.9829 14.3684 23.9092C8.91579 23.8355 13.6316 4.01443 9.35788 4.01443C5.59999 4.01443 8.62105 20.5197 4.34736 23.9092C0.95789 26.5618 0 28.3302 0 28.3302Z" transform="translate(195.558 18.9751)" fill="url(#paint50_linear)"/>
<path opacity="0.56" d="M76.6316 67.8632H5.67368C2.57895 67.8632 0 65.3579 0 62.1895V5.67368C0 2.57895 2.50526 0 5.67368 0H76.6316C79.7263 0 82.3053 2.50526 82.3053 5.67368V62.1895C82.3053 65.2842 79.8 67.8632 76.6316 67.8632Z" transform="translate(0 82.9888)" fill="url(#paint51_linear)"/>
<path opacity="0.56" d="M76.779 5.52632H5.52632C2.50526 5.52632 0 3.02105 0 0V0.221066C0 3.24212 2.50526 5.74738 5.52632 5.74738H76.779C79.8 5.74738 82.3053 3.24212 82.3053 0.221066V0C82.3053 3.09474 79.8737 5.52632 76.779 5.52632Z" transform="translate(0 145.031)" fill="url(#paint52_linear)"/>
<path d="M15.6211 0H0V2.79999H15.6211V0Z" transform="translate(10.0947 141.199)" fill="url(#paint53_linear)"/>
<path d="M7.14737 0H0V2.79999H7.14737V0Z" transform="translate(10.0947 100.305)" fill="url(#paint54_linear)"/>
<path d="M7.14737 0H0V2.79999H7.14737V0Z" transform="translate(10.0947 104.283)" fill="url(#paint55_linear)"/>
<path d="M7.14737 0H0V0.515799H7.14737V0Z" transform="translate(10.0947 108.262)" fill="url(#paint56_linear)"/>
<path d="M7.14737 0H0V0.515799H7.14737V0Z" transform="translate(10.0947 110.178)" fill="url(#paint57_linear)"/>
<path d="M7.14737 0H0V0.515776H7.14737V0Z" transform="translate(10.0947 112.094)" fill="url(#paint58_linear)"/>
<path d="M7.14737 0H0V0.515776H7.14737V0Z" transform="translate(10.0947 114.01)" fill="url(#paint59_linear)"/>
<path d="M7.14737 0H0V0.515799H7.14737V0Z" transform="translate(10.0947 115.999)" fill="url(#paint60_linear)"/>
<path d="M7.14737 0H0V0.515799H7.14737V0Z" transform="translate(10.0947 117.915)" fill="url(#paint61_linear)"/>
<path d="M7.14737 0H0V0.515776H7.14737V0Z" transform="translate(10.0947 119.831)" fill="url(#paint62_linear)"/>
<path d="M19.8211 0H0V1.62104H19.8211V0Z" transform="translate(50.2526 141.199)" fill="url(#paint63_linear)"/>
<path d="M7 0H0V1.62106H7V0Z" transform="translate(71.8421 100.894)" fill="url(#paint64_linear)"/>
<path d="M7 0H0V1.62104H7V0Z" transform="translate(71.8421 104.062)" fill="url(#paint65_linear)"/>
<path d="M7 0H0V1.62106H7V0Z" transform="translate(71.8421 107.452)" fill="url(#paint66_linear)"/>
<path d="M2.35789 0H0V1.62106H2.35789V0Z" transform="translate(71.8421 110.841)" fill="url(#paint67_linear)"/>
<path d="M2.35789 0H0V1.62106H2.35789V0Z" transform="translate(71.8421 114.525)" fill="url(#paint68_linear)"/>
<path d="M19.8211 0H0V1.62106H19.8211V0Z" transform="translate(50.2526 143.999)" fill="url(#paint69_linear)"/>
<path d="M19.8211 0H0V1.62106H19.8211V0Z" transform="translate(50.2526 146.873)" fill="url(#paint70_linear)"/>
<path d="M15.6211 0H0V1.40002H15.6211V0Z" transform="translate(10.0947 145.031)" fill="url(#paint71_linear)"/>
<path opacity="0.56" d="M76.779 0H5.52632C2.50526 0 0 2.50526 0 5.52632V12.379H82.3053V5.52632C82.3053 2.50526 79.8737 0 76.779 0Z" transform="translate(0 82.915)" fill="url(#paint72_linear)"/>
<path opacity="0.56" d="M2.65263 5.30526C4.11764 5.30526 5.30527 4.11763 5.30527 2.65263C5.30527 1.18762 4.11764 0 2.65263 0C1.18762 0 0 1.18762 0 2.65263C0 4.11763 1.18762 5.30526 2.65263 5.30526Z" transform="translate(19.7474 86.4518)" fill="url(#paint73_linear)"/>
<path d="M1.62105 3.24211C2.51633 3.24211 3.24211 2.51633 3.24211 1.62105C3.24211 0.725768 2.51633 0 1.62105 0C0.725768 0 0 0.725768 0 1.62105C0 2.51633 0.725768 3.24211 1.62105 3.24211Z" transform="translate(20.7789 87.4833)" fill="url(#paint74_linear)"/>
<path opacity="0.56" d="M2.65263 5.30526C4.11764 5.30526 5.30526 4.11763 5.30526 2.65263C5.30526 1.18762 4.11764 0 2.65263 0C1.18762 0 0 1.18762 0 2.65263C0 4.11763 1.18762 5.30526 2.65263 5.30526Z" transform="translate(12.2316 86.4518)" fill="url(#paint75_linear)"/>
<path d="M1.62105 3.24211C2.51633 3.24211 3.2421 2.51633 3.2421 1.62105C3.2421 0.725768 2.51633 0 1.62105 0C0.725768 0 0 0.725768 0 1.62105C0 2.51633 0.725768 3.24211 1.62105 3.24211Z" transform="translate(13.2632 87.4833)" fill="url(#paint76_linear)"/>
<path opacity="0.56" d="M2.65263 5.30526C4.11764 5.30526 5.30526 4.11763 5.30526 2.65263C5.30526 1.18762 4.11764 0 2.65263 0C1.18762 0 0 1.18762 0 2.65263C0 4.11763 1.18762 5.30526 2.65263 5.30526Z" transform="translate(4.78947 86.4518)" fill="url(#paint77_linear)"/>
<path d="M1.62106 3.24211C2.51634 3.24211 3.24211 2.51633 3.24211 1.62105C3.24211 0.725768 2.51634 0 1.62106 0C0.725773 0 0 0.725768 0 1.62105C0 2.51633 0.725773 3.24211 1.62106 3.24211Z" transform="translate(5.82104 87.4833)" fill="url(#paint78_linear)"/>
<path d="M76.779 0H5.52632C2.50526 0 0 2.50526 0 5.52632V5.96843C0 2.94737 2.50526 0.44211 5.52632 0.44211H76.779C79.8 0.44211 82.3053 2.94737 82.3053 5.96843V5.52632C82.3053 2.50526 79.8737 0 76.779 0Z" transform="translate(0 82.915)" fill="url(#paint79_linear)"/>
<path d="M82.3053 0H0V0.221055H82.3053V0Z" transform="translate(0 95.2939)" fill="url(#paint80_linear)"/>
<path d="M0 38.6842H59.979V0" transform="translate(10.0947 100.894)" stroke="url(#paint81_linear)" stroke-width="0.25" stroke-miterlimit="10" stroke-linecap="round" stroke-linejoin="round"/>
<path d="M17.8316 35.6632C27.6797 35.6632 35.6632 27.6797 35.6632 17.8316C35.6632 7.98348 27.6797 0 17.8316 0C7.98347 0 0 7.98348 0 17.8316C0 27.6797 7.98347 35.6632 17.8316 35.6632Z" transform="translate(19.6737 100.82)" fill="url(#paint82_linear)"/>
<path d="M0 17.7579C0 27.5579 7.95789 35.5895 17.8316 35.5895V0C8.03158 0 0 7.9579 0 17.7579Z" transform="translate(19.6737 100.894)" fill="url(#paint83_linear)"/>
<path d="M17.8316 17.8316V0H0C0 9.87368 8.03158 17.8316 17.8316 17.8316Z" transform="translate(19.6737 118.652)" fill="url(#paint84_linear)"/>
<defs>
<linearGradient id="paint0_linear" x2="1" gradientUnits="userSpaceOnUse" gradientTransform="translate(139.768 -92.8612) scale(220.563) rotate(63.5491)">
<stop stop-color="#7600C0" stop-opacity="0"/>
<stop offset="0.2084" stop-color="#6400A3" stop-opacity="0.2084"/>
<stop offset="0.6575" stop-color="#370059" stop-opacity="0.6575"/>
<stop offset="1" stop-color="#12001D"/>
</linearGradient>
<linearGradient id="paint1_linear" x2="1" gradientUnits="userSpaceOnUse" gradientTransform="translate(29.4659 89.3673) scale(89.381) rotate(-90)">
<stop stop-color="#00BFAC"/>
<stop offset="0.2935" stop-color="#00BAA8" stop-opacity="0.7652"/>
<stop offset="0.6214" stop-color="#00AD9A" stop-opacity="0.5028"/>
<stop offset="0.9648" stop-color="#009785" stop-opacity="0.2282"/>
<stop offset="1" stop-color="#009482" stop-opacity="0.2"/>
</linearGradient>
<linearGradient id="paint2_linear" x2="1" gradientUnits="userSpaceOnUse" gradientTransform="translate(70.5967 7.10574) scale(7.11952) rotate(-90)">
<stop stop-color="#006A5F"/>
<stop offset="0.1746" stop-color="#008275"/>
<stop offset="0.7387" stop-color="#00CCB8"/>
<stop offset="1" stop-color="#00E9D2"/>
</linearGradient>
<linearGradient id="paint3_linear" x2="1" gradientUnits="userSpaceOnUse" gradientTransform="translate(29.4617 86.6451) scale(86.5893) rotate(-90)">
<stop stop-color="#002A23"/>
<stop offset="0.5133" stop-color="#004D42"/>
<stop offset="1" stop-color="#006A5C"/>
</linearGradient>
<linearGradient id="paint4_linear" x2="1" gradientUnits="userSpaceOnUse" gradientTransform="translate(30.4444 74.0739) scale(77.6976) rotate(-90)">
<stop stop-color="#009471"/>
<stop offset="0.1853" stop-color="#009B78"/>
<stop offset="0.4636" stop-color="#00B08D"/>
<stop offset="0.7987" stop-color="#00D1AE"/>
<stop offset="1" stop-color="#00E9C5"/>
</linearGradient>
<linearGradient id="paint5_linear" x2="1" gradientUnits="userSpaceOnUse" gradientTransform="translate(0.0224737 -72.5666) scale(145.389 145.386)">
<stop stop-color="#003D3F"/>
<stop offset="0.1381" stop-color="#004443"/>
<stop offset="0.3456" stop-color="#005950"/>
<stop offset="0.5968" stop-color="#007B64"/>
<stop offset="0.8799" stop-color="#00A97F"/>
<stop offset="1" stop-color="#00BF8C"/>
</linearGradient>
<linearGradient id="paint6_linear" x2="1" gradientUnits="userSpaceOnUse" gradientTransform="translate(0.0224791 -53.9298) scale(176.135)">
<stop stop-color="#006A5F"/>
<stop offset="0.3017" stop-color="#007165"/>
<stop offset="0.7537" stop-color="#008676"/>
<stop offset="1" stop-color="#009482"/>
</linearGradient>
<linearGradient id="paint7_linear" x2="1" gradientUnits="userSpaceOnUse" gradientTransform="translate(-0.00771886 -85.5346) scale(176.132 176.132)">
<stop stop-color="#00AAA2"/>
<stop offset="0.1853" stop-color="#04B1A5"/>
<stop offset="0.4636" stop-color="#0EC6AC"/>
<stop offset="0.7987" stop-color="#1EE7B8"/>
<stop offset="1" stop-color="#2AFFC0"/>
</linearGradient>
<linearGradient id="paint8_linear" x2="1" gradientUnits="userSpaceOnUse" gradientTransform="translate(120.487 0.264674) scale(64.7935) rotate(90)">
<stop stop-color="#00AA94"/>
<stop offset="0.4873" stop-color="#00B19B"/>
<stop offset="1" stop-color="#00BFA7"/>
</linearGradient>
<linearGradient id="paint9_linear" x2="1" gradientUnits="userSpaceOnUse" gradientTransform="translate(-52.8785 33.5916) scale(161.17) rotate(-37.1647)">
<stop stop-color="#002A23" stop-opacity="0"/>
<stop offset="0.1257" stop-color="#003129" stop-opacity="0.1257"/>
<stop offset="0.3146" stop-color="#004639" stop-opacity="0.3146"/>
<stop offset="0.5432" stop-color="#006853" stop-opacity="0.5432"/>
<stop offset="0.8006" stop-color="#009677" stop-opacity="0.8006"/>
<stop offset="1" stop-color="#00BF97"/>
</linearGradient>
<linearGradient id="paint10_linear" x2="1" gradientUnits="userSpaceOnUse" gradientTransform="translate(-0.0236873 -84.5938) scale(176.135 176.135)">
<stop stop-color="#007F64"/>
<stop offset="0.1396" stop-color="#018669"/>
<stop offset="0.3493" stop-color="#059B75"/>
<stop offset="0.6032" stop-color="#0ABD8A"/>
<stop offset="0.8893" stop-color="#12EBA7"/>
<stop offset="1" stop-color="#15FFB3"/>
</linearGradient>
<linearGradient id="paint11_linear" x2="1" gradientUnits="userSpaceOnUse" gradientTransform="translate(18.031 22.3268) scale(24.3169) rotate(-90)">
<stop offset="0.000538194" stop-color="#00AA7C" stop-opacity="0"/>
<stop offset="0.4389" stop-color="#00AA7F" stop-opacity="0.4386"/>
<stop offset="0.7774" stop-color="#00AA89" stop-opacity="0.7773"/>
<stop offset="1" stop-color="#00AA94"/>
</linearGradient>
<linearGradient id="paint12_linear" x2="1" gradientUnits="userSpaceOnUse" gradientTransform="translate(-0.000736842 -28.0855) scale(60.3804 60.3802)">
<stop offset="0.000538194" stop-color="#00AA7C" stop-opacity="0"/>
<stop offset="0.2643" stop-color="#00A77A" stop-opacity="0.2639"/>
<stop offset="0.4683" stop-color="#009D74" stop-opacity="0.468"/>
<stop offset="0.6522" stop-color="#008D6A" stop-opacity="0.652"/>
<stop offset="0.8243" stop-color="#00755B" stop-opacity="0.8242"/>
<stop offset="0.9868" stop-color="#005849" stop-opacity="0.9867"/>
<stop offset="1" stop-color="#005547"/>
</linearGradient>
<linearGradient id="paint13_linear" x2="1" gradientUnits="userSpaceOnUse" gradientTransform="translate(-0.00685263 -29.5806) scale(59.6877 59.6861)">
<stop stop-color="#006A39"/>
<stop offset="0.1257" stop-color="#037140"/>
<stop offset="0.3146" stop-color="#0C8652"/>
<stop offset="0.5432" stop-color="#1AA86F"/>
<stop offset="0.8006" stop-color="#2ED698"/>
<stop offset="1" stop-color="#3FFFBC"/>
</linearGradient>
<linearGradient id="paint14_linear" x2="1" gradientUnits="userSpaceOnUse" gradientTransform="translate(0.0279263 -27.8963) scale(56.2402 56.2408)">
<stop stop-color="#006A45"/>
<stop offset="0.1257" stop-color="#02714B"/>
<stop offset="0.3146" stop-color="#08865D"/>
<stop offset="0.5432" stop-color="#11A87A"/>
<stop offset="0.8006" stop-color="#1ED6A3"/>
<stop offset="1" stop-color="#2AFFC6"/>
</linearGradient>
<linearGradient id="paint15_linear" x2="1" gradientUnits="userSpaceOnUse" gradientTransform="translate(52.3771 30.8741) scale(30.933) rotate(-90)">
<stop offset="0.000538194" stop-color="#00D4A2" stop-opacity="0"/>
<stop offset="0.463" stop-color="#00D1A2" stop-opacity="0.4627"/>
<stop offset="0.8202" stop-color="#00C7A1" stop-opacity="0.8201"/>
<stop offset="1" stop-color="#00BFA1"/>
</linearGradient>
<linearGradient id="paint16_linear" x2="1" gradientUnits="userSpaceOnUse" gradientTransform="translate(0.0141474 -59.7425) scale(120.11 120.113)">
<stop stop-color="#006A59"/>
<stop offset="0.159" stop-color="#00715E"/>
<stop offset="0.3979" stop-color="#00866B"/>
<stop offset="0.6871" stop-color="#00A880"/>
<stop offset="1" stop-color="#00D49C"/>
</linearGradient>
<linearGradient id="paint17_linear" x2="1" gradientUnits="userSpaceOnUse" gradientTransform="translate(-0.0162651 -67.3812) scale(140.351 140.351)">
<stop offset="0.000538194" stop-color="#005540" stop-opacity="0"/>
<stop offset="0.2401" stop-color="#005843" stop-opacity="0.2397"/>
<stop offset="0.4254" stop-color="#00624D" stop-opacity="0.4251"/>
<stop offset="0.5924" stop-color="#00725D" stop-opacity="0.5922"/>
<stop offset="0.7488" stop-color="#008975" stop-opacity="0.7487"/>
<stop offset="0.8963" stop-color="#00A692" stop-opacity="0.8963"/>
<stop offset="1" stop-color="#00BFAC"/>
</linearGradient>
<linearGradient id="paint18_linear" x2="1" gradientUnits="userSpaceOnUse" gradientTransform="translate(-0.0129684 -68.7666) scale(138.178 138.177)">
<stop stop-color="#00554C"/>
<stop offset="0.1148" stop-color="#025C52"/>
<stop offset="0.2872" stop-color="#077161"/>
<stop offset="0.496" stop-color="#0F937A"/>
<stop offset="0.7331" stop-color="#1BC29E"/>
<stop offset="0.9912" stop-color="#29FDCA"/>
<stop offset="1" stop-color="#2AFFCC"/>
</linearGradient>
<linearGradient id="paint19_linear" x2="1" gradientUnits="userSpaceOnUse" gradientTransform="matrix(32.9763 -39.0464 39.5223 32.9881 -8.9849 14.3094)">
<stop stop-color="#007F4F"/>
<stop offset="0.1531" stop-color="#008656"/>
<stop offset="0.3831" stop-color="#009A6B"/>
<stop offset="0.6615" stop-color="#00B98D"/>
<stop offset="0.9754" stop-color="#00E5BB"/>
<stop offset="1" stop-color="#00E9BF"/>
</linearGradient>
<linearGradient id="paint20_linear" x2="1" gradientUnits="userSpaceOnUse" gradientTransform="translate(1.69041 19.869) scale(19.8611) rotate(-90)">
<stop stop-color="#005540"/>
<stop offset="1" stop-color="#00BF91"/>
</linearGradient>
<linearGradient id="paint21_linear" x2="1" gradientUnits="userSpaceOnUse" gradientTransform="translate(9.84936 3.47745) scale(3.54325) rotate(-90)">
<stop stop-color="#007F4B"/>
<stop offset="0.1396" stop-color="#028651"/>
<stop offset="0.3493" stop-color="#099B61"/>
<stop offset="0.6032" stop-color="#14BD7B"/>
<stop offset="0.8893" stop-color="#23EB9F"/>
<stop offset="1" stop-color="#2AFFAE"/>
</linearGradient>
<linearGradient id="paint22_linear" x2="1" gradientUnits="userSpaceOnUse" gradientTransform="translate(-1.36071 10.3226) scale(10.3351) rotate(-90)">
<stop stop-color="#007F41"/>
<stop offset="0.2445" stop-color="#009555" stop-opacity="0.8525"/>
<stop offset="0.7492" stop-color="#00CC8A" stop-opacity="0.5479"/>
<stop offset="0.9943" stop-color="#00E9A5" stop-opacity="0.4"/>
</linearGradient>
<linearGradient id="paint23_linear" x2="1" gradientUnits="userSpaceOnUse" gradientTransform="translate(2.01479 3.49778) scale(3.58392) rotate(-90)">
<stop stop-color="#00946D"/>
<stop offset="0.158" stop-color="#039B73"/>
<stop offset="0.3954" stop-color="#0BB083"/>
<stop offset="0.6827" stop-color="#18D29D"/>
<stop offset="1" stop-color="#2AFFC0"/>
</linearGradient>
<linearGradient id="paint24_linear" x2="1" gradientUnits="userSpaceOnUse" gradientTransform="translate(-0.347334 19.0948) scale(19.5657) rotate(-90)">
<stop stop-color="#007F61"/>
<stop offset="0.9957" stop-color="#2AFFA9" stop-opacity="0.2"/>
</linearGradient>
<linearGradient id="paint25_linear" x2="1" gradientUnits="userSpaceOnUse" gradientTransform="translate(4.69167 9.48272) scale(9.48765) rotate(-90)">
<stop stop-color="#00AA69"/>
<stop offset="0.1853" stop-color="#04B170"/>
<stop offset="0.4636" stop-color="#0EC684"/>
<stop offset="0.7987" stop-color="#1EE7A4"/>
<stop offset="1" stop-color="#2AFFBA"/>
</linearGradient>
<linearGradient id="paint26_linear" x2="1" gradientUnits="userSpaceOnUse" gradientTransform="translate(-3.92138 8.12685) scale(8.06027 8.06039) rotate(-90)">
<stop stop-color="#00AA69"/>
<stop offset="0.1853" stop-color="#04B170"/>
<stop offset="0.4636" stop-color="#0EC684"/>
<stop offset="0.7987" stop-color="#1EE7A4"/>
<stop offset="1" stop-color="#2AFFBA"/>
</linearGradient>
<linearGradient id="paint27_linear" x2="1" gradientUnits="userSpaceOnUse" gradientTransform="translate(-3.9464 8.05184) scale(8.08056 8.08006) rotate(-90)">
<stop stop-color="#00AA69"/>
<stop offset="0.1853" stop-color="#04B170"/>
<stop offset="0.4636" stop-color="#0EC684"/>
<stop offset="0.7987" stop-color="#1EE7A4"/>
<stop offset="1" stop-color="#2AFFBA"/>
</linearGradient>
<linearGradient id="paint28_linear" x2="1" gradientUnits="userSpaceOnUse" gradientTransform="translate(-33.7325 34.4789) scale(117.894) rotate(-49.817)">
<stop stop-color="#007F61"/>
<stop offset="0.202" stop-color="#008568"/>
<stop offset="0.5055" stop-color="#00977D"/>
<stop offset="0.871" stop-color="#00B39E"/>
<stop offset="1" stop-color="#00BFAC"/>
</linearGradient>
<linearGradient id="paint29_linear" x2="1" gradientUnits="userSpaceOnUse" gradientTransform="translate(-2.3198 3.82244) scale(71.9236) rotate(-49.817)">
<stop stop-color="#6B28E9"/>
<stop offset="0.1795" stop-color="#7226EA"/>
<stop offset="0.4491" stop-color="#8722EC"/>
<stop offset="0.7737" stop-color="#A81BF1"/>
<stop offset="1" stop-color="#C415F4"/>
</linearGradient>
<linearGradient id="paint30_linear" x2="1" gradientUnits="userSpaceOnUse" gradientTransform="translate(-1.76621 2.27659) scale(28.1644) rotate(-49.8171)">
<stop stop-color="#005537"/>
<stop offset="0.1884" stop-color="#005B3E"/>
<stop offset="0.4712" stop-color="#006A53"/>
<stop offset="0.812" stop-color="#008474"/>
<stop offset="1" stop-color="#00948A"/>
</linearGradient>
<linearGradient id="paint31_linear" x2="1" gradientUnits="userSpaceOnUse" gradientTransform="translate(-1.00258 1.24151) scale(14.27) rotate(-49.817)">
<stop stop-color="#005537"/>
<stop offset="0.1884" stop-color="#005B3E"/>
<stop offset="0.4712" stop-color="#006A53"/>
<stop offset="0.812" stop-color="#008474"/>
<stop offset="1" stop-color="#00948A"/>
</linearGradient>
<linearGradient id="paint32_linear" x2="1" gradientUnits="userSpaceOnUse" gradientTransform="translate(-0.925253 0.967548) scale(5.88713) rotate(-49.8169)">
<stop stop-color="#005537"/>
<stop offset="0.1884" stop-color="#005B3E"/>
<stop offset="0.4712" stop-color="#006A53"/>
<stop offset="0.812" stop-color="#008474"/>
<stop offset="1" stop-color="#00948A"/>
</linearGradient>
<linearGradient id="paint33_linear" x2="1" gradientUnits="userSpaceOnUse" gradientTransform="translate(-0.925253 0.979926) scale(5.88713) rotate(-49.8169)">
<stop stop-color="#005537"/>
<stop offset="0.1884" stop-color="#005B3E"/>
<stop offset="0.4712" stop-color="#006A53"/>
<stop offset="0.812" stop-color="#008474"/>
<stop offset="1" stop-color="#00948A"/>
</linearGradient>
<linearGradient id="paint34_linear" x2="1" gradientUnits="userSpaceOnUse" gradientTransform="translate(-0.925253 0.980663) scale(5.88713) rotate(-49.8169)">
<stop stop-color="#005537"/>
<stop offset="0.1884" stop-color="#005B3E"/>
<stop offset="0.4712" stop-color="#006A53"/>
<stop offset="0.812" stop-color="#008474"/>
<stop offset="1" stop-color="#00948A"/>
</linearGradient>
<linearGradient id="paint35_linear" x2="1" gradientUnits="userSpaceOnUse" gradientTransform="translate(-0.897214 0.868111) scale(2.84411) rotate(-49.8172)">
<stop stop-color="#005537"/>
<stop offset="0.1884" stop-color="#005B3E"/>
<stop offset="0.4712" stop-color="#006A53"/>
<stop offset="0.812" stop-color="#008474"/>
<stop offset="1" stop-color="#00948A"/>
</linearGradient>
<linearGradient id="paint36_linear" x2="1" gradientUnits="userSpaceOnUse" gradientTransform="translate(-0.897177 0.807395) scale(2.84405) rotate(-49.8162)">
<stop stop-color="#005537"/>
<stop offset="0.1884" stop-color="#005B3E"/>
<stop offset="0.4712" stop-color="#006A53"/>
<stop offset="0.812" stop-color="#008474"/>
<stop offset="1" stop-color="#00948A"/>
</linearGradient>
<linearGradient id="paint37_linear" x2="1" gradientUnits="userSpaceOnUse" gradientTransform="translate(-1.00258 1.23576) scale(14.27) rotate(-49.817)">
<stop stop-color="#005537"/>
<stop offset="0.1884" stop-color="#005B3E"/>
<stop offset="0.4712" stop-color="#006A53"/>
<stop offset="0.812" stop-color="#008474"/>
<stop offset="1" stop-color="#00948A"/>
</linearGradient>
<linearGradient id="paint38_linear" x2="1" gradientUnits="userSpaceOnUse" gradientTransform="translate(-1.00258 1.23001) scale(14.27) rotate(-49.817)">
<stop stop-color="#005537"/>
<stop offset="0.1884" stop-color="#005B3E"/>
<stop offset="0.4712" stop-color="#006A53"/>
<stop offset="0.812" stop-color="#008474"/>
<stop offset="1" stop-color="#00948A"/>
</linearGradient>
<linearGradient id="paint39_linear" x2="1" gradientUnits="userSpaceOnUse" gradientTransform="translate(-1.01622 1.61762) scale(27.071) rotate(-49.817)">
<stop stop-color="#005537"/>
<stop offset="0.1884" stop-color="#005B3E"/>
<stop offset="0.4712" stop-color="#006A53"/>
<stop offset="0.812" stop-color="#008474"/>
<stop offset="1" stop-color="#00948A"/>
</linearGradient>
<linearGradient id="paint40_linear" x2="1" gradientUnits="userSpaceOnUse" gradientTransform="translate(-5.59709 9.78873) scale(77.0486) rotate(-49.817)">
<stop offset="0.00460069" stop-color="#00BF81"/>
<stop offset="0.0324288" stop-color="#00BC80"/>
<stop offset="0.4386" stop-color="#009B6F"/>
<stop offset="0.7756" stop-color="#008665"/>
<stop offset="1" stop-color="#007F61"/>
</linearGradient>
<linearGradient id="paint41_linear" x2="1" gradientUnits="userSpaceOnUse" gradientTransform="translate(-1.4021 2.5417) scale(5.46809) rotate(-49.8165)">
<stop offset="0.00460069" stop-color="#00AA86"/>
<stop offset="0.0324288" stop-color="#00A784"/>
<stop offset="0.4386" stop-color="#008670"/>
<stop offset="0.7756" stop-color="#007164"/>
<stop offset="1" stop-color="#006A5F"/>
</linearGradient>
<linearGradient id="paint42_linear" x2="1" gradientUnits="userSpaceOnUse" gradientTransform="translate(-0.840661 1.50139) scale(3.2531) rotate(-49.8179)">
<stop stop-color="#00AA86"/>
<stop offset="1" stop-color="#00E998"/>
</linearGradient>
<linearGradient id="paint43_linear" x2="1" gradientUnits="userSpaceOnUse" gradientTransform="translate(-1.42538 2.54174) scale(5.46804) rotate(-49.8171)">
<stop offset="0.00460069" stop-color="#00AA86"/>
<stop offset="0.0324288" stop-color="#00A784"/>
<stop offset="0.4386" stop-color="#008670"/>
<stop offset="0.7756" stop-color="#007164"/>
<stop offset="1" stop-color="#006A5F"/>
</linearGradient>
<linearGradient id="paint44_linear" x2="1" gradientUnits="userSpaceOnUse" gradientTransform="translate(-0.864018 1.50139) scale(3.2531) rotate(-49.8179)">
<stop stop-color="#00AA86"/>
<stop offset="1" stop-color="#00E998"/>
</linearGradient>
<linearGradient id="paint45_linear" x2="1" gradientUnits="userSpaceOnUse" gradientTransform="translate(-1.37506 2.54174) scale(5.46807) rotate(-49.8171)">
<stop offset="0.00460069" stop-color="#00AA86"/>
<stop offset="0.0324288" stop-color="#00A784"/>
<stop offset="0.4386" stop-color="#008670"/>
<stop offset="0.7756" stop-color="#007164"/>
<stop offset="1" stop-color="#006A5F"/>
</linearGradient>
<linearGradient id="paint46_linear" x2="1" gradientUnits="userSpaceOnUse" gradientTransform="translate(-0.813692 1.50139) scale(3.2531) rotate(-49.8179)">
<stop stop-color="#00AA86"/>
<stop offset="1" stop-color="#00E998"/>
</linearGradient>
<linearGradient id="paint47_linear" x2="1" gradientUnits="userSpaceOnUse" gradientTransform="translate(-2.18485 6.76038) scale(72.0739) rotate(-49.817)">
<stop stop-color="#00AA86" stop-opacity="0.5"/>
<stop offset="0.432" stop-color="#00A37F" stop-opacity="0.716"/>
<stop offset="1" stop-color="#00946D"/>
</linearGradient>
<linearGradient id="paint48_linear" x2="1" gradientUnits="userSpaceOnUse" gradientTransform="translate(-0.754711 2.73051) scale(69.9227 69.9217) rotate(-49.817)">
<stop stop-color="#00BF91"/>
<stop offset="1" stop-color="#006A4B"/>
</linearGradient>
<linearGradient id="paint49_linear" x2="1" gradientUnits="userSpaceOnUse" gradientTransform="translate(-6.81631 28.8129) scale(74.5814) rotate(-49.817)">
<stop stop-color="#007F64"/>
<stop offset="0.2584" stop-color="#008E72"/>
<stop offset="0.7031" stop-color="#00A384"/>
<stop offset="1" stop-color="#00AA8B"/>
</linearGradient>
<linearGradient id="paint50_linear" x2="1" gradientUnits="userSpaceOnUse" gradientTransform="translate(-8.40096 24.0847) scale(63.2616) rotate(-49.817)">
<stop stop-color="#005537"/>
<stop offset="0.1884" stop-color="#005B3E"/>
<stop offset="0.4712" stop-color="#006A53"/>
<stop offset="0.812" stop-color="#008474"/>
<stop offset="1" stop-color="#00948A"/>
</linearGradient>
<linearGradient id="paint51_linear" x2="1" gradientUnits="userSpaceOnUse" gradientTransform="translate(-37.6319 38.1744) scale(114.878) rotate(-49.817)">
<stop stop-color="#00AA86"/>
<stop offset="0.1853" stop-color="#04B18B"/>
<stop offset="0.4636" stop-color="#0EC699"/>
<stop offset="0.7987" stop-color="#1EE7B0"/>
<stop offset="1" stop-color="#2AFFC0"/>
</linearGradient>
<linearGradient id="paint52_linear" x2="1" gradientUnits="userSpaceOnUse" gradientTransform="translate(-2.36246 3.67398) scale(63.2632 63.2634) rotate(-49.817)">
<stop stop-color="#007F68"/>
<stop offset="0.1853" stop-color="#00866E"/>
<stop offset="0.4636" stop-color="#009B7D"/>
<stop offset="0.7987" stop-color="#00BC96"/>
<stop offset="1" stop-color="#00D4A8"/>
</linearGradient>
<linearGradient id="paint53_linear" x2="1" gradientUnits="userSpaceOnUse" gradientTransform="translate(-1.79653 1.94931) scale(13.9989) rotate(-49.8172)">
<stop stop-color="#005547"/>
<stop offset="0.1853" stop-color="#005C4C"/>
<stop offset="0.4636" stop-color="#00715A"/>
<stop offset="0.7987" stop-color="#009271"/>
<stop offset="1" stop-color="#00AA81"/>
</linearGradient>
<linearGradient id="paint54_linear" x2="1" gradientUnits="userSpaceOnUse" gradientTransform="translate(-1.73873 1.67263) scale(7.73674) rotate(-49.8173)">
<stop offset="0.00109375" stop-color="#007F53" stop-opacity="0"/>
<stop offset="0.671" stop-color="#00D892" stop-opacity="0.6706"/>
<stop offset="1" stop-color="#00FFAD"/>
</linearGradient>
<linearGradient id="paint55_linear" x2="1" gradientUnits="userSpaceOnUse" gradientTransform="translate(-1.73869 1.68419) scale(7.73669) rotate(-49.8169)">
<stop offset="0.00109375" stop-color="#007F53" stop-opacity="0"/>
<stop offset="0.671" stop-color="#00D892" stop-opacity="0.6706"/>
<stop offset="1" stop-color="#00FFAD"/>
</linearGradient>
<linearGradient id="paint56_linear" x2="1" gradientUnits="userSpaceOnUse" gradientTransform="translate(-0.346758 0.454492) scale(5.70736 5.70746) rotate(-49.8167)">
<stop offset="0.00109375" stop-color="#007F53" stop-opacity="0"/>
<stop offset="0.671" stop-color="#00D892" stop-opacity="0.6706"/>
<stop offset="1" stop-color="#00FFAD"/>
</linearGradient>
<linearGradient id="paint57_linear" x2="1" gradientUnits="userSpaceOnUse" gradientTransform="translate(-0.346795 0.467829) scale(5.70742 5.70752) rotate(-49.8172)">
<stop offset="0.00109375" stop-color="#007F53" stop-opacity="0"/>
<stop offset="0.671" stop-color="#00D892" stop-opacity="0.6706"/>
<stop offset="1" stop-color="#00FFAD"/>
</linearGradient>
<linearGradient id="paint58_linear" x2="1" gradientUnits="userSpaceOnUse" gradientTransform="translate(-0.346758 0.481072) scale(5.70736 5.70722) rotate(-49.8167)">
<stop offset="0.00109375" stop-color="#007F53" stop-opacity="0"/>
<stop offset="0.671" stop-color="#00D892" stop-opacity="0.6706"/>
<stop offset="1" stop-color="#00FFAD"/>
</linearGradient>
<linearGradient id="paint59_linear" x2="1" gradientUnits="userSpaceOnUse" gradientTransform="translate(-0.346795 0.494408) scale(5.70742 5.70727) rotate(-49.8172)">
<stop offset="0.00109375" stop-color="#007F53" stop-opacity="0"/>
<stop offset="0.671" stop-color="#00D892" stop-opacity="0.6706"/>
<stop offset="1" stop-color="#00FFAD"/>
</linearGradient>
<linearGradient id="paint60_linear" x2="1" gradientUnits="userSpaceOnUse" gradientTransform="translate(-0.346758 0.434008) scale(5.70736 5.70746) rotate(-49.8167)">
<stop offset="0.00109375" stop-color="#007F53" stop-opacity="0"/>
<stop offset="0.671" stop-color="#00D892" stop-opacity="0.6706"/>
<stop offset="1" stop-color="#00FFAD"/>
</linearGradient>
<linearGradient id="paint61_linear" x2="1" gradientUnits="userSpaceOnUse" gradientTransform="translate(-0.346795 0.447345) scale(5.70742 5.70752) rotate(-49.8172)">
<stop offset="0.00109375" stop-color="#007F53" stop-opacity="0"/>
<stop offset="0.671" stop-color="#00D892" stop-opacity="0.6706"/>
<stop offset="1" stop-color="#00FFAD"/>
</linearGradient>
<linearGradient id="paint62_linear" x2="1" gradientUnits="userSpaceOnUse" gradientTransform="translate(-0.346758 0.460588) scale(5.70736 5.70722) rotate(-49.8167)">
<stop offset="0.00109375" stop-color="#007F53" stop-opacity="0"/>
<stop offset="0.671" stop-color="#00D892" stop-opacity="0.6706"/>
<stop offset="1" stop-color="#00FFAD"/>
</linearGradient>
<linearGradient id="paint63_linear" x2="1" gradientUnits="userSpaceOnUse" gradientTransform="translate(-1.10125 1.44357) scale(16.0653 16.0651) rotate(-49.8169)">
<stop stop-color="#005547"/>
<stop offset="0.1853" stop-color="#005C4C"/>
<stop offset="0.4636" stop-color="#00715A"/>
<stop offset="0.7987" stop-color="#009271"/>
<stop offset="1" stop-color="#00AA81"/>
</linearGradient>
<linearGradient id="paint64_linear" x2="1" gradientUnits="userSpaceOnUse" gradientTransform="translate(-1.03556 1.04186) scale(6.62778) rotate(-49.8175)">
<stop stop-color="#005547"/>
<stop offset="0.1853" stop-color="#005C4C"/>
<stop offset="0.4636" stop-color="#00715A"/>
<stop offset="0.7987" stop-color="#009271"/>
<stop offset="1" stop-color="#00AA81"/>
</linearGradient>
<linearGradient id="paint65_linear" x2="1" gradientUnits="userSpaceOnUse" gradientTransform="translate(-1.03556 1.03964) scale(6.62778) rotate(-49.8175)">
<stop stop-color="#005547"/>
<stop offset="0.1853" stop-color="#005C4C"/>
<stop offset="0.4636" stop-color="#00715A"/>
<stop offset="0.7987" stop-color="#009271"/>
<stop offset="1" stop-color="#00AA81"/>
</linearGradient>
<linearGradient id="paint66_linear" x2="1" gradientUnits="userSpaceOnUse" gradientTransform="translate(-1.03552 1.05211) scale(6.62773) rotate(-49.8171)">
<stop stop-color="#005547"/>
<stop offset="0.1853" stop-color="#005C4C"/>
<stop offset="0.4636" stop-color="#00715A"/>
<stop offset="0.7987" stop-color="#009271"/>
<stop offset="1" stop-color="#00AA81"/>
</linearGradient>
<linearGradient id="paint67_linear" x2="1" gradientUnits="userSpaceOnUse" gradientTransform="translate(-1.00395 0.936974) scale(3.20186) rotate(-49.8166)">
<stop stop-color="#005547"/>
<stop offset="0.1853" stop-color="#005C4C"/>
<stop offset="0.4636" stop-color="#00715A"/>
<stop offset="0.7987" stop-color="#009271"/>
<stop offset="1" stop-color="#00AA81"/>
</linearGradient>
<linearGradient id="paint68_linear" x2="1" gradientUnits="userSpaceOnUse" gradientTransform="translate(-1.00395 0.917374) scale(3.20186) rotate(-49.8166)">
<stop stop-color="#005547"/>
<stop offset="0.1853" stop-color="#005C4C"/>
<stop offset="0.4636" stop-color="#00715A"/>
<stop offset="0.7987" stop-color="#009271"/>
<stop offset="1" stop-color="#00AA81"/>
</linearGradient>
<linearGradient id="paint69_linear" x2="1" gradientUnits="userSpaceOnUse" gradientTransform="translate(-1.10121 1.45752) scale(16.0652) rotate(-49.8168)">
<stop stop-color="#005547"/>
<stop offset="0.1853" stop-color="#005C4C"/>
<stop offset="0.4636" stop-color="#00715A"/>
<stop offset="0.7987" stop-color="#009271"/>
<stop offset="1" stop-color="#00AA81"/>
</linearGradient>
<linearGradient id="paint70_linear" x2="1" gradientUnits="userSpaceOnUse" gradientTransform="translate(-1.10125 1.39783) scale(16.0653) rotate(-49.8169)">
<stop stop-color="#005547"/>
<stop offset="0.1853" stop-color="#005C4C"/>
<stop offset="0.4636" stop-color="#00715A"/>
<stop offset="0.7987" stop-color="#009271"/>
<stop offset="1" stop-color="#00AA81"/>
</linearGradient>
<linearGradient id="paint71_linear" x2="1" gradientUnits="userSpaceOnUse" gradientTransform="translate(-0.952221 1.19182) scale(12.768 12.7681) rotate(-49.8172)">
<stop stop-color="#005547"/>
<stop offset="0.1853" stop-color="#005C4C"/>
<stop offset="0.4636" stop-color="#00715A"/>
<stop offset="0.7987" stop-color="#009271"/>
<stop offset="1" stop-color="#00AA81"/>
</linearGradient>
<linearGradient id="paint72_linear" x2="1" gradientUnits="userSpaceOnUse" gradientTransform="translate(-6.05205 10.3741) scale(69.033) rotate(-49.817)">
<stop offset="0.00460069" stop-color="#00E9D9"/>
<stop offset="0.1918" stop-color="#00D9C3"/>
<stop offset="0.5309" stop-color="#00BFA2"/>
<stop offset="0.8125" stop-color="#00B08D"/>
<stop offset="1" stop-color="#00AA86"/>
</linearGradient>
<linearGradient id="paint73_linear" x2="1" gradientUnits="userSpaceOnUse" gradientTransform="translate(-1.58001 2.90511) scale(6.15604) rotate(-49.8167)">
<stop offset="0.00460069" stop-color="#00AA99"/>
<stop offset="0.2299" stop-color="#00907D"/>
<stop offset="0.5529" stop-color="#00705C"/>
<stop offset="0.8213" stop-color="#005C47"/>
<stop offset="1" stop-color="#005540"/>
</linearGradient>
<linearGradient id="paint74_linear" x2="1" gradientUnits="userSpaceOnUse" gradientTransform="translate(-0.901121 1.78066) scale(3.66236) rotate(-49.8173)">
<stop stop-color="#00E9CC"/>
<stop offset="0.0384277" stop-color="#00E6C8"/>
<stop offset="0.442" stop-color="#00C5A7"/>
<stop offset="0.777" stop-color="#00B192"/>
<stop offset="1" stop-color="#00AA8B"/>
</linearGradient>
<linearGradient id="paint75_linear" x2="1" gradientUnits="userSpaceOnUse" gradientTransform="translate(-1.55636 2.90515) scale(6.15599) rotate(-49.8172)">
<stop offset="0.00460069" stop-color="#00AA99"/>
<stop offset="0.2299" stop-color="#00907D"/>
<stop offset="0.5529" stop-color="#00705C"/>
<stop offset="0.8213" stop-color="#005C47"/>
<stop offset="1" stop-color="#005540"/>
</linearGradient>
<linearGradient id="paint76_linear" x2="1" gradientUnits="userSpaceOnUse" gradientTransform="translate(-0.877541 1.78062) scale(3.6624) rotate(-49.8164)">
<stop stop-color="#00E9CC"/>
<stop offset="0.0384277" stop-color="#00E6C8"/>
<stop offset="0.442" stop-color="#00C5A7"/>
<stop offset="0.777" stop-color="#00B192"/>
<stop offset="1" stop-color="#00AA8B"/>
</linearGradient>
<linearGradient id="paint77_linear" x2="1" gradientUnits="userSpaceOnUse" gradientTransform="translate(-1.60639 2.90515) scale(6.15599) rotate(-49.8172)">
<stop offset="0.00460069" stop-color="#00AA99"/>
<stop offset="0.2299" stop-color="#00907D"/>
<stop offset="0.5529" stop-color="#00705C"/>
<stop offset="0.8213" stop-color="#005C47"/>
<stop offset="1" stop-color="#005540"/>
</linearGradient>
<linearGradient id="paint78_linear" x2="1" gradientUnits="userSpaceOnUse" gradientTransform="translate(-0.927574 1.78066) scale(3.66236) rotate(-49.8173)">
<stop stop-color="#00E9CC"/>
<stop offset="0.0384277" stop-color="#00E6C8"/>
<stop offset="0.442" stop-color="#00C5A7"/>
<stop offset="0.777" stop-color="#00B192"/>
<stop offset="1" stop-color="#00AA8B"/>
</linearGradient>
<linearGradient id="paint79_linear" x2="1" gradientUnits="userSpaceOnUse" gradientTransform="translate(-2.21056 6.96471) scale(63.4325) rotate(-49.817)">
<stop stop-color="#006A5C" stop-opacity="0.5"/>
<stop offset="0.1853" stop-color="#00715F" stop-opacity="0.5926"/>
<stop offset="0.4636" stop-color="#008668" stop-opacity="0.7318"/>
<stop offset="0.7987" stop-color="#00A777" stop-opacity="0.8993"/>
<stop offset="1" stop-color="#00BF81"/>
</linearGradient>
<linearGradient id="paint80_linear" x2="1" gradientUnits="userSpaceOnUse" gradientTransform="translate(-0.683384 2.40909) scale(61.0107 61.0113) rotate(-49.817)">
<stop stop-color="#00FFD0"/>
<stop offset="0.2584" stop-color="#00F7C1"/>
<stop offset="0.7031" stop-color="#00EDAC"/>
<stop offset="1" stop-color="#00E9A5"/>
</linearGradient>
<linearGradient id="paint81_linear" x2="1" gradientUnits="userSpaceOnUse" gradientTransform="translate(-8.71629 31.4706) scale(68.477) rotate(-49.817)">
<stop stop-color="#00E99E"/>
<stop offset="0.2463" stop-color="#00DB98"/>
<stop offset="0.6983" stop-color="#00C68F"/>
<stop offset="1" stop-color="#00BF8C"/>
</linearGradient>
<linearGradient id="paint82_linear" x2="1" gradientUnits="userSpaceOnUse" gradientTransform="translate(-10.1389 19.3693) scale(40.7825) rotate(-49.8169)">
<stop stop-color="#005547"/>
<stop offset="0.1853" stop-color="#005C4C"/>
<stop offset="0.4636" stop-color="#00715A"/>
<stop offset="0.7987" stop-color="#009271"/>
<stop offset="1" stop-color="#00AA81"/>
</linearGradient>
<linearGradient id="paint83_linear" x2="1" gradientUnits="userSpaceOnUse" gradientTransform="translate(-10.6067 18.6838) scale(35.9696) rotate(-49.817)">
<stop stop-color="#005547"/>
<stop offset="0.1853" stop-color="#005C4C"/>
<stop offset="0.4636" stop-color="#00715A"/>
<stop offset="0.7987" stop-color="#009271"/>
<stop offset="1" stop-color="#00AA81"/>
</linearGradient>
<linearGradient id="paint84_linear" x2="1" gradientUnits="userSpaceOnUse" gradientTransform="translate(-25.8381 13.9594) scale(46.6262) rotate(-49.817)">
<stop stop-color="#005547"/>
<stop offset="0.1853" stop-color="#005C4C"/>
<stop offset="0.4636" stop-color="#00715A"/>
<stop offset="0.7987" stop-color="#009271"/>
<stop offset="1" stop-color="#00AA81"/>
</linearGradient>
</defs>
</svg>
