<svg width="441" height="618" viewBox="0 0 441 618" fill="none" xmlns="http://www.w3.org/2000/svg">
<g opacity="0.21">
<g opacity="0.21">
<g opacity="0.21">
<path opacity="0.21" d="M0 0V186.628L161.677 279.88V93.2512L0 0Z" transform="translate(283.225 104.793)" fill="url(#paint0_linear)"/>
<path opacity="0.21" d="M323.229 93.3772L161.677 0L0 93.3772L161.677 186.628L323.229 93.3772Z" transform="translate(283.225 11.4161)" fill="url(#paint1_linear)"/>
</g>
</g>
<g opacity="0.21">
<g opacity="0.21">
<path opacity="0.21" d="M0 0V122.235L105.853 183.226V61.1173L0 0Z" transform="translate(339.049 135.541)" fill="url(#paint2_linear)"/>
<path opacity="0.21" d="M211.579 60.9913L105.853 0L0 60.9913L105.853 122.109L211.579 60.9913Z" transform="translate(339.049 74.5496)" fill="url(#paint3_linear)"/>
</g>
</g>
</g>
<g opacity="0.21">
<g opacity="0.21">
<g opacity="0.21">
<path opacity="0.21" d="M29.7396 0L0 17.1381V51.4142L29.7396 34.2761V0Z" transform="translate(62.3201 394.502)" fill="url(#paint4_linear)"/>
<path opacity="0.21" d="M0 0V34.2761L29.6135 51.4142V17.1381L0 0Z" transform="translate(32.7066 394.502)" fill="url(#paint5_linear)"/>
<path opacity="0.21" d="M59.3531 17.264L29.6136 0L0 17.264L29.6136 34.4021L59.3531 17.264Z" transform="translate(32.7066 377.238)" fill="url(#paint6_linear)"/>
</g>
</g>
<g opacity="0.21">
<g opacity="0.21">
<path opacity="0.21" d="M19.5323 0L0 11.2153V33.646L19.5323 22.4307V0Z" transform="translate(62.3201 400.173)" fill="url(#paint7_linear)"/>
<path opacity="0.21" d="M0 0V22.4307L19.4063 33.646V11.2153L0 0Z" transform="translate(42.9138 400.173)" fill="url(#paint8_linear)"/>
<path opacity="0.21" d="M38.9387 11.3414L19.4063 0L0 11.3414L19.4063 22.5567L38.9387 11.3414Z" transform="translate(42.9138 388.831)" fill="url(#paint9_linear)"/>
</g>
</g>
</g>
<g opacity="0.21">
<g opacity="0.21">
<g opacity="0.21">
<path opacity="0.21" d="M43.6012 0L0 25.329V75.7351L43.6012 50.5321V0Z" transform="translate(67.4868 542.066)" fill="url(#paint10_linear)"/>
<path opacity="0.21" d="M0 0V50.5321L43.7272 75.7351V25.329L0 0Z" transform="translate(23.7595 542.066)" fill="url(#paint11_linear)"/>
<path opacity="0.21" d="M87.3285 25.203L43.7272 0L0 25.203L43.7272 50.5321L87.3285 25.203Z" transform="translate(23.7595 516.863)" fill="url(#paint12_linear)"/>
</g>
</g>
<g opacity="0.21">
<g opacity="0.21">
<path opacity="0.21" d="M28.6054 0L0 16.508V49.6499L28.6054 33.142V0Z" transform="translate(67.4868 550.383)" fill="url(#paint13_linear)"/>
<path opacity="0.21" d="M0 0V33.142L28.7314 49.6499V16.508L0 0Z" transform="translate(38.7553 550.383)" fill="url(#paint14_linear)"/>
<path opacity="0.21" d="M57.3369 16.508L28.7314 0L0 16.508L28.7314 33.016L57.3369 16.508Z" transform="translate(38.7553 533.875)" fill="url(#paint15_linear)"/>
</g>
</g>
</g>
<g opacity="0.21">
<g opacity="0.21">
<g opacity="0.21">
<path opacity="0.21" d="M29.7395 0L0 17.2641V51.5402L29.7395 34.4021V0Z" transform="translate(172.457 413.908)" fill="url(#paint16_linear)"/>
<path opacity="0.21" d="M0 0V34.4021L29.7396 51.5402V17.2641L0 0Z" transform="translate(142.718 413.908)" fill="url(#paint17_linear)"/>
<path opacity="0.21" d="M59.4791 17.138L29.7396 0L0 17.138L29.7396 34.4021L59.4791 17.138Z" transform="translate(142.718 396.77)" fill="url(#paint18_linear)"/>
</g>
</g>
<g opacity="0.21">
<g opacity="0.21">
<path opacity="0.21" d="M19.4063 0L0 11.2154V33.7721L19.4063 22.5567V0Z" transform="translate(172.457 419.579)" fill="url(#paint19_linear)"/>
<path opacity="0.21" d="M0 0V22.5567L19.5323 33.7721V11.2154L0 0Z" transform="translate(152.925 419.579)" fill="url(#paint20_linear)"/>
<path opacity="0.21" d="M38.9387 11.2153L19.5323 0L0 11.2153L19.5323 22.4307L38.9387 11.2153Z" transform="translate(152.925 408.364)" fill="url(#paint21_linear)"/>
</g>
</g>
</g>
<g opacity="0.21">
<g opacity="0.21">
<g opacity="0.21">
<path opacity="0.21" d="M29.7396 0L0 17.1381V51.5402L29.7396 34.2761V0Z" transform="translate(210.514 33.3427)" fill="url(#paint22_linear)"/>
<path opacity="0.21" d="M0 0V34.2761L29.7396 51.5402V17.1381L0 0Z" transform="translate(180.774 33.3427)" fill="url(#paint23_linear)"/>
<path opacity="0.21" d="M59.4791 17.1381L29.7396 0L0 17.1381L29.7396 34.2761L59.4791 17.1381Z" transform="translate(180.774 16.2046)" fill="url(#paint24_linear)"/>
</g>
</g>
<g opacity="0.21">
<g opacity="0.21">
<path opacity="0.21" d="M19.4063 0L0 11.2153V33.646L19.4063 22.4307V0Z" transform="translate(210.514 39.0133)" fill="url(#paint25_linear)"/>
<path opacity="0.21" d="M0 0V22.4307L19.5323 33.646V11.2153L0 0Z" transform="translate(190.982 39.0133)" fill="url(#paint26_linear)"/>
<path opacity="0.21" d="M38.9387 11.2153L19.5323 0L0 11.2153L19.5323 22.4307L38.9387 11.2153Z" transform="translate(190.982 27.798)" fill="url(#paint27_linear)"/>
</g>
</g>
</g>
<g opacity="0.21">
<g opacity="0.21">
<g opacity="0.21">
<path opacity="0.21" d="M29.7395 0L0 17.1381V51.4142L29.7395 34.2761V0Z" transform="translate(377.106 374.97)" fill="url(#paint28_linear)"/>
<path opacity="0.21" d="M0 0V34.2761L29.7396 51.4142V17.1381L0 0Z" transform="translate(347.366 374.97)" fill="url(#paint29_linear)"/>
<path opacity="0.21" d="M59.4791 17.1381L29.7396 0L0 17.1381L29.7396 34.2761L59.4791 17.1381Z" transform="translate(347.366 357.832)" fill="url(#paint30_linear)"/>
</g>
</g>
<g opacity="0.21">
<g opacity="0.21">
<path opacity="0.21" d="M19.5323 0L0 11.2153V33.646L19.5323 22.4307V0Z" transform="translate(377.106 380.64)" fill="url(#paint31_linear)"/>
<path opacity="0.21" d="M0 0V22.4307L19.4064 33.646V11.2153L0 0Z" transform="translate(357.699 380.64)" fill="url(#paint32_linear)"/>
<path opacity="0.21" d="M38.9387 11.2153L19.4064 0L0 11.2153L19.4064 22.4307L38.9387 11.2153Z" transform="translate(357.699 369.425)" fill="url(#paint33_linear)"/>
</g>
</g>
</g>
<path d="M59.4791 0L0 34.2761V102.954L59.4791 68.5522V0Z" transform="translate(140.828 294.446)" fill="url(#paint34_linear)"/>
<path d="M0 0V68.5522L59.3531 102.954V34.2761L0 0Z" transform="translate(81.4744 294.446)" fill="url(#paint35_linear)"/>
<path d="M118.832 34.2761L59.3531 0L0 34.2761L59.3531 68.5522L118.832 34.2761Z" transform="translate(81.4744 260.17)" fill="url(#paint36_linear)"/>
<path d="M38.9387 0L0 22.4307V67.2921L38.9387 44.8614V0Z" transform="translate(140.828 305.787)" fill="url(#paint37_linear)"/>
<path d="M0 0V44.8614L38.8126 67.2921V22.4307L0 0Z" transform="translate(102.015 305.787)" fill="url(#paint38_linear)"/>
<path d="M77.7513 22.5567L38.8126 0L0 22.5567L38.8126 44.9874L77.7513 22.5567Z" transform="translate(102.015 283.231)" fill="url(#paint39_linear)"/>
<path d="M14.8698 0L0 8.56901V128.283L14.8698 119.714V0Z" transform="translate(140.828 176.118)" fill="url(#paint40_linear)"/>
<path d="M0 0V119.714L14.8698 128.283V8.56901L0 0Z" transform="translate(125.958 176.118)" fill="url(#paint41_linear)"/>
<path d="M29.7396 8.56903L14.8698 0L0 8.56903L14.8698 17.138L29.7396 8.56903Z" transform="translate(125.958 167.549)" fill="url(#paint42_linear)"/>
<path d="M102.198 79.6416L102.702 62.5035L0.504053 0L0 17.2641L102.198 79.6416Z" transform="translate(163.006 344.222)" fill="url(#paint43_linear)"/>
<path d="M117.194 62.5035L14.9958 0L0 8.19098L102.198 70.6945L117.194 62.5035Z" transform="translate(163.51 336.031)" fill="url(#paint44_linear)"/>
<path d="M0 25.329L15.1218 17.1381L15.4999 0L0.504072 8.19098L0 25.329Z" transform="translate(265.204 398.534)" fill="url(#paint45_linear)"/>
<path d="M59.4791 0L0 34.2761V102.954L59.4791 68.5522V0Z" transform="translate(140.828 122.561)" fill="url(#paint46_linear)"/>
<path d="M0 0V68.5522L59.3531 102.954V34.2761L0 0Z" transform="translate(81.4744 122.561)" fill="url(#paint47_linear)"/>
<path d="M118.832 34.4021L59.3531 0L0 34.4021L59.3531 68.6782L118.832 34.4021Z" transform="translate(81.4744 88.1592)" fill="url(#paint48_linear)"/>
<path d="M38.9387 0L0 22.5567V67.4181L38.9387 44.9874V0Z" transform="translate(140.828 133.777)" fill="url(#paint49_linear)"/>
<path d="M0 0V44.9874L38.8126 67.4181V22.5567L0 0Z" transform="translate(102.015 133.777)" fill="url(#paint50_linear)"/>
<path d="M77.7513 22.4307L38.8126 0L0 22.4307L38.8126 44.9874L77.7513 22.4307Z" transform="translate(102.015 111.346)" fill="url(#paint51_linear)"/>
<path d="M59.4791 0L0 34.2761V102.954L59.4791 68.6782V0Z" transform="translate(280.704 383.161)" fill="url(#paint52_linear)"/>
<path d="M0 0V68.6782L59.4791 102.954V34.2761L0 0Z" transform="translate(221.225 383.161)" fill="url(#paint53_linear)"/>
<path d="M118.958 34.2761L59.4791 0L0 34.2761L59.4791 68.5522L118.958 34.2761Z" transform="translate(221.225 348.884)" fill="url(#paint54_linear)"/>
<path d="M38.9387 0L0 22.4307V67.4181L38.9387 44.8614V0Z" transform="translate(280.704 394.502)" fill="url(#paint55_linear)"/>
<path d="M0 0V44.8614L38.9387 67.4181V22.4307L0 0Z" transform="translate(241.766 394.502)" fill="url(#paint56_linear)"/>
<path d="M77.8773 22.4307L38.9387 0L0 22.4307L38.9387 44.8614L77.8773 22.4307Z" transform="translate(241.766 372.071)" fill="url(#paint57_linear)"/>
<path d="M168.734 0L104.719 37.3005L55.1946 8.065L0 40.8289" transform="translate(75.9297 454.863)" stroke="url(#paint58_linear)" stroke-miterlimit="10"/>
<path d="M0 0L29.8656 16.2559" transform="translate(325.188 460.408)" stroke="url(#paint59_linear)" stroke-miterlimit="10"/>
<path d="M0 72.8367V0" transform="translate(88.2792 45.6921)" stroke="url(#paint60_linear)" stroke-miterlimit="10"/>
<path d="M0 72.9627V0" transform="translate(111.088 33.9727)" stroke="url(#paint61_linear)" stroke-miterlimit="10"/>
<path d="M0 6.04871L10.4593 12.0975L20.9185 6.04871L10.4593 0L0 6.04871Z" transform="translate(63.0762 491.66)" fill="white"/>
<path d="M0 6.17473L10.5853 12.2234L21.0445 6.17473L10.5853 0L0 6.17473Z" transform="translate(95.9661 492.416)" fill="white"/>
<path d="M0 6.17477L10.5853 12.2235L21.0445 6.17477L10.5853 0L0 6.17477Z" transform="translate(276.546 544.334)" fill="white"/>
<path d="M0 6.04871L10.5853 12.0975L21.0445 6.04871L10.5853 0L0 6.04871Z" transform="translate(347.996 472.883)" fill="white"/>
<path d="M144.413 0L75.7351 42.4671L26.4632 12.9795L0 28.7314" transform="translate(106.551 468.977)" stroke="url(#paint62_linear)" stroke-miterlimit="10"/>
<path d="M50.5321 0L0 32.5119L73.9709 73.7188" transform="translate(217.697 478.932)" stroke="url(#paint63_linear)" stroke-miterlimit="10"/>
<path d="M0 35.0322L59.4791 0" transform="translate(200.307 269.369)" stroke="url(#paint64_linear)" stroke-miterlimit="10"/>
<path d="M0 23.3128L39.6948 0" transform="translate(172.457 255.507)" stroke="url(#paint65_linear)" stroke-miterlimit="10"/>
<path d="M0 35.0322L59.3531 0" transform="translate(157.083 234.337)" stroke="url(#paint66_linear)" stroke-miterlimit="10"/>
<path d="M10.3332 0L0 5.92271V17.8941L10.3332 11.9714V0Z" transform="translate(83.1127 36.7451)" fill="white"/>
<path d="M10.3332 0L0 5.92273V17.8942L10.3332 11.9714V0Z" transform="translate(202.449 231.312)" fill="white"/>
<path d="M10.3332 0L0 6.04871V17.8941L10.3332 11.9714V0Z" transform="translate(202.449 249.206)" fill="white"/>
<path d="M10.3333 0L0 6.04873V17.8942L10.3333 11.9714V0Z" transform="translate(246.302 265.336)" fill="white"/>
<path d="M10.3332 0L0 6.04872V17.8941L10.3332 11.9714V0Z" transform="translate(105.921 23.7655)" fill="white"/>
<defs>
<linearGradient id="paint0_linear" x2="1" gradientUnits="userSpaceOnUse" gradientTransform="translate(49.3404 -102.012) scale(355.216) rotate(35.875)">
<stop stop-color="white"/>
<stop offset="1" stop-color="#00AA8B" stop-opacity="0"/>
</linearGradient>
<linearGradient id="paint1_linear" x2="1" gradientUnits="userSpaceOnUse" gradientTransform="translate(520.373 -110.936) scale(717.444) rotate(90)">
<stop stop-color="white"/>
<stop offset="1" stop-color="#00AA8B" stop-opacity="0"/>
</linearGradient>
<linearGradient id="paint2_linear" x2="1" gradientUnits="userSpaceOnUse" gradientTransform="translate(32.3115 -66.7353) scale(232.521) rotate(35.875)">
<stop stop-color="white"/>
<stop offset="1" stop-color="#00AA8B" stop-opacity="0"/>
</linearGradient>
<linearGradient id="paint3_linear" x2="1" gradientUnits="userSpaceOnUse" gradientTransform="translate(340.645 -72.7091) scale(469.632) rotate(90)">
<stop stop-color="white"/>
<stop offset="1" stop-color="#00AA8B" stop-opacity="0"/>
</linearGradient>
<linearGradient id="paint4_linear" x2="1" gradientUnits="userSpaceOnUse" gradientTransform="translate(-13.9195 48.1363) scale(57.6496) rotate(-90)">
<stop stop-color="white"/>
<stop offset="1" stop-color="#00AA8B" stop-opacity="0"/>
</linearGradient>
<linearGradient id="paint5_linear" x2="1" gradientUnits="userSpaceOnUse" gradientTransform="translate(9.00939 -18.8015) scale(65.3148) rotate(35.875)">
<stop stop-color="white"/>
<stop offset="1" stop-color="#00AA8B" stop-opacity="0"/>
</linearGradient>
<linearGradient id="paint6_linear" x2="1" gradientUnits="userSpaceOnUse" gradientTransform="translate(95.6198 -20.3478) scale(131.919) rotate(90)">
<stop stop-color="white"/>
<stop offset="1" stop-color="#00AA8B" stop-opacity="0"/>
</linearGradient>
<linearGradient id="paint7_linear" x2="1" gradientUnits="userSpaceOnUse" gradientTransform="translate(-9.09501 31.4849) scale(37.737) rotate(-90)">
<stop stop-color="white"/>
<stop offset="1" stop-color="#00AA8B" stop-opacity="0"/>
</linearGradient>
<linearGradient id="paint8_linear" x2="1" gradientUnits="userSpaceOnUse" gradientTransform="translate(5.93556 -12.332) scale(42.7544) rotate(35.8749)">
<stop stop-color="white"/>
<stop offset="1" stop-color="#00AA8B" stop-opacity="0"/>
</linearGradient>
<linearGradient id="paint9_linear" x2="1" gradientUnits="userSpaceOnUse" gradientTransform="translate(62.6298 -13.3035) scale(86.3524) rotate(90)">
<stop stop-color="white"/>
<stop offset="1" stop-color="#00AA8B" stop-opacity="0"/>
</linearGradient>
<linearGradient id="paint10_linear" x2="1" gradientUnits="userSpaceOnUse" gradientTransform="translate(-20.6006 70.9082) scale(84.7973) rotate(-90)">
<stop stop-color="white"/>
<stop offset="1" stop-color="#00AA8B" stop-opacity="0"/>
</linearGradient>
<linearGradient id="paint11_linear" x2="1" gradientUnits="userSpaceOnUse" gradientTransform="translate(13.2942 -27.5509) scale(96.0717) rotate(35.875)">
<stop stop-color="white"/>
<stop offset="1" stop-color="#00AA8B" stop-opacity="0"/>
</linearGradient>
<linearGradient id="paint12_linear" x2="1" gradientUnits="userSpaceOnUse" gradientTransform="translate(140.69 -30.0159) scale(194.04) rotate(90)">
<stop stop-color="white"/>
<stop offset="1" stop-color="#00AA8B" stop-opacity="0"/>
</linearGradient>
<linearGradient id="paint13_linear" x2="1" gradientUnits="userSpaceOnUse" gradientTransform="translate(-13.504 46.4396) scale(55.5074) rotate(-90)">
<stop stop-color="white"/>
<stop offset="1" stop-color="#00AA8B" stop-opacity="0"/>
</linearGradient>
<linearGradient id="paint14_linear" x2="1" gradientUnits="userSpaceOnUse" gradientTransform="translate(8.79119 -18.0108) scale(62.8876) rotate(35.8751)">
<stop stop-color="white"/>
<stop offset="1" stop-color="#00AA8B" stop-opacity="0"/>
</linearGradient>
<linearGradient id="paint15_linear" x2="1" gradientUnits="userSpaceOnUse" gradientTransform="translate(92.1829 -19.614) scale(127.016) rotate(90)">
<stop stop-color="white"/>
<stop offset="1" stop-color="#00AA8B" stop-opacity="0"/>
</linearGradient>
<linearGradient id="paint16_linear" x2="1" gradientUnits="userSpaceOnUse" gradientTransform="translate(-13.9926 48.2295) scale(57.6497) rotate(-90)">
<stop stop-color="white"/>
<stop offset="1" stop-color="#00AA8B" stop-opacity="0"/>
</linearGradient>
<linearGradient id="paint17_linear" x2="1" gradientUnits="userSpaceOnUse" gradientTransform="translate(9.06244 -18.7083) scale(65.3147) rotate(35.875)">
<stop stop-color="white"/>
<stop offset="1" stop-color="#00AA8B" stop-opacity="0"/>
</linearGradient>
<linearGradient id="paint18_linear" x2="1" gradientUnits="userSpaceOnUse" gradientTransform="translate(95.6724 -20.3804) scale(131.918) rotate(90)">
<stop stop-color="white"/>
<stop offset="1" stop-color="#00AA8B" stop-opacity="0"/>
</linearGradient>
<linearGradient id="paint19_linear" x2="1" gradientUnits="userSpaceOnUse" gradientTransform="translate(-9.1681 31.5781) scale(37.737) rotate(-90)">
<stop stop-color="white"/>
<stop offset="1" stop-color="#00AA8B" stop-opacity="0"/>
</linearGradient>
<linearGradient id="paint20_linear" x2="1" gradientUnits="userSpaceOnUse" gradientTransform="translate(5.98861 -12.2388) scale(42.7543) rotate(35.875)">
<stop stop-color="white"/>
<stop offset="1" stop-color="#00AA8B" stop-opacity="0"/>
</linearGradient>
<linearGradient id="paint21_linear" x2="1" gradientUnits="userSpaceOnUse" gradientTransform="translate(62.6829 -13.3364) scale(86.3527 86.3528) rotate(90)">
<stop stop-color="white"/>
<stop offset="1" stop-color="#00AA8B" stop-opacity="0"/>
</linearGradient>
<linearGradient id="paint22_linear" x2="1" gradientUnits="userSpaceOnUse" gradientTransform="translate(-13.9853 48.2039) scale(57.6498) rotate(-90)">
<stop stop-color="white"/>
<stop offset="1" stop-color="#00AA8B" stop-opacity="0"/>
</linearGradient>
<linearGradient id="paint23_linear" x2="1" gradientUnits="userSpaceOnUse" gradientTransform="translate(9.06969 -18.7337) scale(65.3146) rotate(35.875)">
<stop stop-color="white"/>
<stop offset="1" stop-color="#00AA8B" stop-opacity="0"/>
</linearGradient>
<linearGradient id="paint24_linear" x2="1" gradientUnits="userSpaceOnUse" gradientTransform="translate(95.6797 -20.406) scale(131.918) rotate(90)">
<stop stop-color="white"/>
<stop offset="1" stop-color="#00AA8B" stop-opacity="0"/>
</linearGradient>
<linearGradient id="paint25_linear" x2="1" gradientUnits="userSpaceOnUse" gradientTransform="translate(-9.16079 31.5525) scale(37.737) rotate(-90)">
<stop stop-color="white"/>
<stop offset="1" stop-color="#00AA8B" stop-opacity="0"/>
</linearGradient>
<linearGradient id="paint26_linear" x2="1" gradientUnits="userSpaceOnUse" gradientTransform="translate(5.99586 -12.2644) scale(42.7545) rotate(35.875)">
<stop stop-color="white"/>
<stop offset="1" stop-color="#00AA8B" stop-opacity="0"/>
</linearGradient>
<linearGradient id="paint27_linear" x2="1" gradientUnits="userSpaceOnUse" gradientTransform="translate(62.69 -13.362) scale(86.3527) rotate(90)">
<stop stop-color="white"/>
<stop offset="1" stop-color="#00AA8B" stop-opacity="0"/>
</linearGradient>
<linearGradient id="paint28_linear" x2="1" gradientUnits="userSpaceOnUse" gradientTransform="translate(-13.9491 48.1692) scale(57.6496) rotate(-90)">
<stop stop-color="white"/>
<stop offset="1" stop-color="#00AA8B" stop-opacity="0"/>
</linearGradient>
<linearGradient id="paint29_linear" x2="1" gradientUnits="userSpaceOnUse" gradientTransform="translate(9.10579 -18.7686) scale(65.3148) rotate(35.875)">
<stop stop-color="white"/>
<stop offset="1" stop-color="#00AA8B" stop-opacity="0"/>
</linearGradient>
<linearGradient id="paint30_linear" x2="1" gradientUnits="userSpaceOnUse" gradientTransform="translate(95.7159 -20.4408) scale(131.918 131.918) rotate(90)">
<stop stop-color="white"/>
<stop offset="1" stop-color="#00AA8B" stop-opacity="0"/>
</linearGradient>
<linearGradient id="paint31_linear" x2="1" gradientUnits="userSpaceOnUse" gradientTransform="translate(-9.12463 31.5178) scale(37.737) rotate(-90)">
<stop stop-color="white"/>
<stop offset="1" stop-color="#00AA8B" stop-opacity="0"/>
</linearGradient>
<linearGradient id="paint32_linear" x2="1" gradientUnits="userSpaceOnUse" gradientTransform="translate(5.90608 -12.299) scale(42.7544) rotate(35.875)">
<stop stop-color="white"/>
<stop offset="1" stop-color="#00AA8B" stop-opacity="0"/>
</linearGradient>
<linearGradient id="paint33_linear" x2="1" gradientUnits="userSpaceOnUse" gradientTransform="translate(62.6004 -13.3968) scale(86.3528 86.3527) rotate(90)">
<stop stop-color="white"/>
<stop offset="1" stop-color="#00AA8B" stop-opacity="0"/>
</linearGradient>
<linearGradient id="paint34_linear" x2="1" gradientUnits="userSpaceOnUse" gradientTransform="translate(-27.9019 96.3483) scale(115.304) rotate(-90)">
<stop stop-color="white"/>
<stop offset="1" stop-color="#007F5A" stop-opacity="0"/>
</linearGradient>
<linearGradient id="paint35_linear" x2="1" gradientUnits="userSpaceOnUse" gradientTransform="translate(18.0815 -37.5323) scale(130.634) rotate(35.875)">
<stop stop-color="white"/>
<stop offset="1" stop-color="#007F5A" stop-opacity="0"/>
</linearGradient>
<linearGradient id="paint36_linear" x2="1" gradientUnits="userSpaceOnUse" gradientTransform="translate(191.308 -40.8782) scale(263.847) rotate(90)">
<stop stop-color="white"/>
<stop offset="1" stop-color="#007F5A" stop-opacity="0"/>
</linearGradient>
<linearGradient id="paint37_linear" x2="1" gradientUnits="userSpaceOnUse" gradientTransform="translate(-18.2523 63.0446) scale(75.4769) rotate(-90)">
<stop stop-color="white"/>
<stop offset="1" stop-color="#007F5A" stop-opacity="0"/>
</linearGradient>
<linearGradient id="paint38_linear" x2="1" gradientUnits="userSpaceOnUse" gradientTransform="translate(11.8085 -24.5924) scale(85.5121) rotate(35.875)">
<stop stop-color="white"/>
<stop offset="1" stop-color="#007F5A" stop-opacity="0"/>
</linearGradient>
<linearGradient id="paint39_linear" x2="1" gradientUnits="userSpaceOnUse" gradientTransform="translate(125.201 -26.6626) scale(172.712 172.712) rotate(90)">
<stop stop-color="white"/>
<stop offset="1" stop-color="#007F5A" stop-opacity="0"/>
</linearGradient>
<linearGradient id="paint40_linear" x2="1" gradientUnits="userSpaceOnUse" gradientTransform="translate(-64.4067 120.094) scale(143.742) rotate(-90)">
<stop stop-color="white"/>
<stop offset="1" stop-color="#007F5A" stop-opacity="0"/>
</linearGradient>
<linearGradient id="paint41_linear" x2="1" gradientUnits="userSpaceOnUse" gradientTransform="translate(-1.84171 -7.43665) scale(105.058) rotate(35.875)">
<stop stop-color="white"/>
<stop offset="1" stop-color="#007F5A" stop-opacity="0"/>
</linearGradient>
<linearGradient id="paint42_linear" x2="1" gradientUnits="userSpaceOnUse" gradientTransform="translate(47.8855 -10.2567) scale(65.9617) rotate(90)">
<stop stop-color="white"/>
<stop offset="1" stop-color="#007F5A" stop-opacity="0"/>
</linearGradient>
<linearGradient id="paint43_linear" x2="1" gradientUnits="userSpaceOnUse" gradientTransform="translate(41.0774 -50.6513) scale(143.742) rotate(31.4393)">
<stop stop-color="white"/>
<stop offset="1" stop-color="#007F5A" stop-opacity="0"/>
</linearGradient>
<linearGradient id="paint44_linear" x2="1" gradientUnits="userSpaceOnUse" gradientTransform="translate(124.502 64.7513) scale(105.055) rotate(157.314)">
<stop stop-color="white"/>
<stop offset="1" stop-color="#007F5A" stop-opacity="0"/>
</linearGradient>
<linearGradient id="paint45_linear" x2="1" gradientUnits="userSpaceOnUse" gradientTransform="translate(6.58847 50.6177) scale(65.9619) rotate(-148.561)">
<stop stop-color="white"/>
<stop offset="1" stop-color="#007F5A" stop-opacity="0"/>
</linearGradient>
<linearGradient id="paint46_linear" x2="1" gradientUnits="userSpaceOnUse" gradientTransform="translate(-27.9002 96.3106) scale(115.304) rotate(-90)">
<stop stop-color="white"/>
<stop offset="1" stop-color="#007F5A" stop-opacity="0"/>
</linearGradient>
<linearGradient id="paint47_linear" x2="1" gradientUnits="userSpaceOnUse" gradientTransform="translate(18.0832 -37.5701) scale(130.635) rotate(35.875)">
<stop stop-color="white"/>
<stop offset="1" stop-color="#007F5A" stop-opacity="0"/>
</linearGradient>
<linearGradient id="paint48_linear" x2="1" gradientUnits="userSpaceOnUse" gradientTransform="translate(191.31 -40.7898) scale(263.847) rotate(90)">
<stop stop-color="white"/>
<stop offset="1" stop-color="#007F5A" stop-opacity="0"/>
</linearGradient>
<linearGradient id="paint49_linear" x2="1" gradientUnits="userSpaceOnUse" gradientTransform="translate(-18.2508 63.1329) scale(75.4768) rotate(-90)">
<stop stop-color="white"/>
<stop offset="1" stop-color="#007F5A" stop-opacity="0"/>
</linearGradient>
<linearGradient id="paint50_linear" x2="1" gradientUnits="userSpaceOnUse" gradientTransform="translate(11.8101 -24.5041) scale(85.5121) rotate(35.875)">
<stop stop-color="white"/>
<stop offset="1" stop-color="#007F5A" stop-opacity="0"/>
</linearGradient>
<linearGradient id="paint51_linear" x2="1" gradientUnits="userSpaceOnUse" gradientTransform="translate(125.203 -26.7002) scale(172.712) rotate(90)">
<stop stop-color="white"/>
<stop offset="1" stop-color="#007F5A" stop-opacity="0"/>
</linearGradient>
<linearGradient id="paint52_linear" x2="1" gradientUnits="userSpaceOnUse" gradientTransform="translate(-27.9175 96.373) scale(115.304) rotate(-90)">
<stop stop-color="white"/>
<stop offset="1" stop-color="#007F5A" stop-opacity="0"/>
</linearGradient>
<linearGradient id="paint53_linear" x2="1" gradientUnits="userSpaceOnUse" gradientTransform="translate(18.1918 -37.5075) scale(130.634) rotate(35.875)">
<stop stop-color="white"/>
<stop offset="1" stop-color="#007F5A" stop-opacity="0"/>
</linearGradient>
<linearGradient id="paint54_linear" x2="1" gradientUnits="userSpaceOnUse" gradientTransform="translate(191.419 -40.8535) scale(263.847) rotate(90)">
<stop stop-color="white"/>
<stop offset="1" stop-color="#007F5A" stop-opacity="0"/>
</linearGradient>
<linearGradient id="paint55_linear" x2="1" gradientUnits="userSpaceOnUse" gradientTransform="translate(-18.2681 63.0693) scale(75.4769) rotate(-90)">
<stop stop-color="white"/>
<stop offset="1" stop-color="#007F5A" stop-opacity="0"/>
</linearGradient>
<linearGradient id="paint56_linear" x2="1" gradientUnits="userSpaceOnUse" gradientTransform="translate(11.9188 -24.5677) scale(85.5122) rotate(35.875)">
<stop stop-color="white"/>
<stop offset="1" stop-color="#007F5A" stop-opacity="0"/>
</linearGradient>
<linearGradient id="paint57_linear" x2="1" gradientUnits="userSpaceOnUse" gradientTransform="translate(125.312 -26.7641) scale(172.712) rotate(90)">
<stop stop-color="white"/>
<stop offset="1" stop-color="#007F5A" stop-opacity="0"/>
</linearGradient>
<linearGradient id="paint58_linear" x2="1" gradientUnits="userSpaceOnUse" gradientTransform="translate(-0.350952 -64.3213) scale(169.465 169.465)">
<stop stop-color="white"/>
<stop offset="1" stop-color="#009479" stop-opacity="0"/>
</linearGradient>
<linearGradient id="paint59_linear" x2="1" gradientUnits="userSpaceOnUse" gradientTransform="translate(-0.248628 -7.06081) scale(30.4119)">
<stop stop-color="#006A54" stop-opacity="0"/>
<stop offset="1" stop-color="white"/>
</linearGradient>
<linearGradient id="paint60_linear" x2="1" gradientUnits="userSpaceOnUse" gradientTransform="scale(1 72.8367)">
<stop stop-color="white"/>
<stop offset="1" stop-color="#006A5C" stop-opacity="0"/>
</linearGradient>
<linearGradient id="paint61_linear" x2="1" gradientUnits="userSpaceOnUse" gradientTransform="scale(1 72.9627)">
<stop stop-color="white"/>
<stop offset="1" stop-color="#006A5C" stop-opacity="0"/>
</linearGradient>
<linearGradient id="paint62_linear" x2="1" gradientUnits="userSpaceOnUse" gradientTransform="translate(-0.364436 -51.2724) scale(145.146)">
<stop stop-color="white"/>
<stop offset="1" stop-color="#009479" stop-opacity="0"/>
</linearGradient>
<linearGradient id="paint63_linear" x2="1" gradientUnits="userSpaceOnUse" gradientTransform="translate(-0.15084 78.2636) scale(75.9819) rotate(-93.0803)">
<stop stop-color="white"/>
<stop offset="1" stop-color="#009479" stop-opacity="0"/>
</linearGradient>
<linearGradient id="paint64_linear" x2="1" gradientUnits="userSpaceOnUse" gradientTransform="translate(-0.330286 -12.5047) scale(60.0738)">
<stop stop-color="white"/>
<stop offset="1" stop-color="#00554A" stop-opacity="0"/>
</linearGradient>
<linearGradient id="paint65_linear" x2="1" gradientUnits="userSpaceOnUse" gradientTransform="translate(-0.346289 -8.50734) scale(40.3013)">
<stop stop-color="white"/>
<stop offset="1" stop-color="#00554A" stop-opacity="0"/>
</linearGradient>
<linearGradient id="paint66_linear" x2="1" gradientUnits="userSpaceOnUse" gradientTransform="translate(-0.382708 -12.5017) scale(60.0737)">
<stop stop-color="white"/>
<stop offset="1" stop-color="#00554A" stop-opacity="0"/>
</linearGradient>
</defs>
</svg>
