<svg width="320" height="551" viewBox="0 0 320 551" fill="none" xmlns="http://www.w3.org/2000/svg">
<g opacity="0.21">
<g opacity="0.21">
<g opacity="0.21">
<path opacity="0.21" d="M106.567 0L0 61.5129V184.622L106.567 123.109V0Z" transform="translate(186.349 423.322) rotate(120)" fill="url(#paint0_linear)"/>
<path opacity="0.21" d="M0 0V123.109L106.65 184.622V61.5129L0 0Z" transform="translate(239.674 330.961) rotate(120)" fill="url(#paint1_linear)"/>
<path opacity="0.21" d="M213.217 61.596L106.65 0L0 61.596L106.65 123.109L213.217 61.596Z" transform="translate(293.018 361.759) rotate(120)" fill="url(#paint2_linear)"/>
</g>
</g>
<g opacity="0.21">
<g opacity="0.21">
<path opacity="0.21" d="M69.7423 0L0 40.3159V120.864L69.7423 80.6317V0Z" transform="translate(168.784 413.181) rotate(120)" fill="url(#paint3_linear)"/>
<path opacity="0.21" d="M0 0V80.6317L69.8254 120.864V40.3159L0 0Z" transform="translate(203.697 352.71) rotate(120)" fill="url(#paint4_linear)"/>
<path opacity="0.21" d="M139.568 40.2327L69.8254 0L0 40.2327L69.8254 80.5486L139.568 40.2327Z" transform="translate(238.539 372.827) rotate(120)" fill="url(#paint5_linear)"/>
</g>
</g>
</g>
<g opacity="0.21">
<g opacity="0.21">
<g opacity="0.21">
<path opacity="0.21" d="M19.6176 0L0 11.3051V33.9152L19.6176 22.6101V0Z" transform="translate(147.032 109.212) rotate(120)" fill="url(#paint6_linear)"/>
<path opacity="0.21" d="M0 0V22.6101L19.5345 33.9152V11.3051L0 0Z" transform="translate(156.799 92.2949) rotate(120)" fill="url(#paint7_linear)"/>
<path opacity="0.21" d="M39.1521 11.3882L19.5345 0L0 11.3882L19.5345 22.6932L39.1521 11.3882Z" transform="translate(166.661 97.9883) rotate(120)" fill="url(#paint8_linear)"/>
</g>
</g>
<g opacity="0.21">
<g opacity="0.21">
<path opacity="0.21" d="M12.8844 0L0 7.39816V22.1945L12.8844 14.7964V0Z" transform="translate(143.792 107.342) rotate(120)" fill="url(#paint9_linear)"/>
<path opacity="0.21" d="M0 0V14.7964L12.8013 22.1945V7.39816L0 0Z" transform="translate(150.193 96.2554) rotate(120)" fill="url(#paint10_linear)"/>
<path opacity="0.21" d="M25.6858 7.48129L12.8013 0L0 7.48129L12.8013 14.8795L25.6858 7.48129Z" transform="translate(156.672 99.9956) rotate(120)" fill="url(#paint11_linear)"/>
</g>
</g>
</g>
<g opacity="0.21">
<g opacity="0.21">
<g opacity="0.21">
<path opacity="0.21" d="M28.7614 0L0 16.7082V49.9584L28.7614 33.3333V0Z" transform="translate(61.0288 63.4932) rotate(120)" fill="url(#paint12_linear)"/>
<path opacity="0.21" d="M0 0V33.3333L28.8445 49.9584V16.7082L0 0Z" transform="translate(75.4511 38.5137) rotate(120)" fill="url(#paint13_linear)"/>
<path opacity="0.21" d="M57.606 16.6251L28.8445 0L0 16.6251L28.8445 33.3333L57.606 16.6251Z" transform="translate(89.8488 46.8262) rotate(120)" fill="url(#paint14_linear)"/>
</g>
</g>
<g opacity="0.21">
<g opacity="0.21">
<path opacity="0.21" d="M18.8695 0L0 10.8894V32.7514L18.8695 21.862V0Z" transform="translate(56.2776 60.7505) rotate(120)" fill="url(#paint15_linear)"/>
<path opacity="0.21" d="M0 0V21.862L18.9526 32.7514V10.8894L0 0Z" transform="translate(65.7539 44.3369) rotate(120)" fill="url(#paint16_linear)"/>
<path opacity="0.21" d="M37.8221 10.8894L18.9526 0L0 10.8894L18.9526 21.7789L37.8221 10.8894Z" transform="translate(75.1844 49.7812) rotate(120)" fill="url(#paint17_linear)"/>
</g>
</g>
</g>
<g opacity="0.21">
<g opacity="0.21">
<g opacity="0.21">
<path opacity="0.21" d="M19.6176 0L0 11.3882V33.9983L19.6176 22.6933V0Z" transform="translate(99.6197 165.729) rotate(120)" fill="url(#paint18_linear)"/>
<path opacity="0.21" d="M0 0V22.6933L19.6176 33.9983V11.3882L0 0Z" transform="translate(109.428 148.74) rotate(120)" fill="url(#paint19_linear)"/>
<path opacity="0.21" d="M39.2352 11.305L19.6176 0L0 11.305L19.6176 22.6932L39.2352 11.305Z" transform="translate(119.219 154.393) rotate(120)" fill="url(#paint20_linear)"/>
</g>
</g>
<g opacity="0.21">
<g opacity="0.21">
<path opacity="0.21" d="M12.8013 0L0 7.39819V22.2776L12.8013 14.8795V0Z" transform="translate(96.3802 163.859) rotate(120)" fill="url(#paint21_linear)"/>
<path opacity="0.21" d="M0 0V14.8795L12.8844 22.2776V7.39819L0 0Z" transform="translate(102.822 152.701) rotate(120)" fill="url(#paint22_linear)"/>
<path opacity="0.21" d="M25.6858 7.39816L12.8844 0L0 7.39816L12.8844 14.7964L25.6858 7.39816Z" transform="translate(109.229 156.4) rotate(120)" fill="url(#paint23_linear)"/>
</g>
</g>
</g>
<g opacity="0.21">
<g opacity="0.21">
<g opacity="0.21">
<path opacity="0.21" d="M19.6176 0L0 11.3051V33.9983L19.6176 22.6101V0Z" transform="translate(304.474 312.99) rotate(120)" fill="url(#paint24_linear)"/>
<path opacity="0.21" d="M0 0V22.6101L19.6176 33.9983V11.3051L0 0Z" transform="translate(314.283 296) rotate(120)" fill="url(#paint25_linear)"/>
<path opacity="0.21" d="M39.2352 11.3051L19.6176 0L0 11.3051L19.6176 22.6101L39.2352 11.3051Z" transform="translate(324.073 301.653) rotate(120)" fill="url(#paint26_linear)"/>
</g>
</g>
<g opacity="0.21">
<g opacity="0.21">
<path opacity="0.21" d="M12.8013 0L0 7.39817V22.1945L12.8013 14.7963V0Z" transform="translate(301.234 311.119) rotate(120)" fill="url(#paint27_linear)"/>
<path opacity="0.21" d="M0 0V14.7963L12.8844 22.1945V7.39817L0 0Z" transform="translate(307.677 299.961) rotate(120)" fill="url(#paint28_linear)"/>
<path opacity="0.21" d="M25.6858 7.39817L12.8844 0L0 7.39817L12.8844 14.7963L25.6858 7.39817Z" transform="translate(314.084 303.66) rotate(120)" fill="url(#paint29_linear)"/>
</g>
</g>
</g>
<g opacity="0.21">
<g opacity="0.21">
<g opacity="0.21">
<path opacity="0.21" d="M19.6176 0L0 11.3051V33.9152L19.6176 22.6101V0Z" transform="translate(54.3663 295.482) rotate(120)" fill="url(#paint30_linear)"/>
<path opacity="0.21" d="M0 0V22.6101L19.6176 33.9152V11.3051L0 0Z" transform="translate(64.1751 278.493) rotate(120)" fill="url(#paint31_linear)"/>
<path opacity="0.21" d="M39.2352 11.3051L19.6176 0L0 11.3051L19.6176 22.6101L39.2352 11.3051Z" transform="translate(73.9656 284.146) rotate(120)" fill="url(#paint32_linear)"/>
</g>
</g>
<g opacity="0.21">
<g opacity="0.21">
<path opacity="0.21" d="M12.8844 0L0 7.39816V22.1945L12.8844 14.7964V0Z" transform="translate(51.1268 293.612) rotate(120)" fill="url(#paint33_linear)"/>
<path opacity="0.21" d="M0 0V14.7964L12.8013 22.1945V7.39816L0 0Z" transform="translate(57.5275 282.525) rotate(120)" fill="url(#paint34_linear)"/>
<path opacity="0.21" d="M25.6858 7.39816L12.8013 0L0 7.39816L12.8013 14.7963L25.6858 7.39816Z" transform="translate(63.9345 286.225) rotate(120)" fill="url(#paint35_linear)"/>
</g>
</g>
</g>
<path d="M39.2352 0L0 22.6101V67.9135L39.2352 45.2203V0Z" transform="translate(178.297 187.062) rotate(120)" fill="url(#paint36_linear)"/>
<path d="M0 0V45.2203L39.1521 67.9135V22.6101L0 0Z" transform="translate(197.873 153.155) rotate(120)" fill="url(#paint37_linear)"/>
<path d="M78.3873 22.6101L39.1521 0L0 22.6101L39.1521 45.2203L78.3873 22.6101Z" transform="translate(217.454 164.46) rotate(120)" fill="url(#paint38_linear)"/>
<path d="M25.6858 0L0 14.7963V44.389L25.6858 29.5927V0Z" transform="translate(171.818 183.321) rotate(120)" fill="url(#paint39_linear)"/>
<path d="M0 0V29.5927L25.6026 44.389V14.7963L0 0Z" transform="translate(184.62 161.148) rotate(120)" fill="url(#paint40_linear)"/>
<path d="M51.2884 14.8795L25.6026 0L0 14.8795L25.6026 29.6758L51.2884 14.8795Z" transform="translate(197.506 168.588) rotate(120)" fill="url(#paint41_linear)"/>
<path d="M9.80881 0L0 5.65252V84.6217L9.80881 78.9692V0Z" transform="translate(245.895 226.089) rotate(120)" fill="url(#paint42_linear)"/>
<path d="M0 0V78.9692L9.8088 84.6217V5.65252L0 0Z" transform="translate(250.799 217.594) rotate(120)" fill="url(#paint43_linear)"/>
<path d="M19.6176 5.65253L9.8088 0L0 5.65253L9.8088 11.3051L19.6176 5.65253Z" transform="translate(255.694 220.42) rotate(120)" fill="url(#paint44_linear)"/>
<path d="M67.4148 52.5353L67.7473 41.2302L0.332497 0L0 11.3882L67.4148 52.5353Z" transform="translate(142.547 183.314) rotate(120)" fill="url(#paint45_linear)"/>
<path d="M77.3067 41.2302L9.89194 0L0 5.40316L67.4148 46.6334L77.3067 41.2302Z" transform="translate(147.06 186.304) rotate(120)" fill="url(#paint46_linear)"/>
<path d="M0 16.7082L9.97506 11.3051L10.2244 0L0.33251 5.40316L0 16.7082Z" transform="translate(77.8121 223.784) rotate(120)" fill="url(#paint47_linear)"/>
<path d="M39.2352 0L0 22.6101V67.9135L39.2352 45.2203V0Z" transform="translate(276.49 243.753) rotate(120)" fill="url(#paint48_linear)"/>
<path d="M0 0V45.2203L39.1521 67.9135V22.6101L0 0Z" transform="translate(296.066 209.847) rotate(120)" fill="url(#paint49_linear)"/>
<path d="M78.3873 22.6933L39.1521 0L0 22.6933L39.1521 45.3034L78.3873 22.6933Z" transform="translate(315.719 221.193) rotate(120)" fill="url(#paint50_linear)"/>
<path d="M25.6858 0L0 14.8795V44.4721L25.6858 29.6758V0Z" transform="translate(270.083 240.054) rotate(120)" fill="url(#paint51_linear)"/>
<path d="M0 0V29.6758L25.6026 44.4721V14.8795L0 0Z" transform="translate(282.884 217.881) rotate(120)" fill="url(#paint52_linear)"/>
<path d="M51.2884 14.7963L25.6026 0L0 14.7963L25.6026 29.6758L51.2884 14.7963Z" transform="translate(295.698 225.28) rotate(120)" fill="url(#paint53_linear)"/>
<path d="M39.2352 0L0 22.6101V67.9135L39.2352 45.3034V0Z" transform="translate(81.4825 237.709) rotate(120)" fill="url(#paint54_linear)"/>
<path d="M0 0V45.3034L39.2352 67.9135V22.6101L0 0Z" transform="translate(101.1 203.73) rotate(120)" fill="url(#paint55_linear)"/>
<path d="M78.4705 22.6101L39.2352 0L0 22.6101L39.2352 45.2203L78.4705 22.6101Z" transform="translate(120.681 215.035) rotate(120)" fill="url(#paint56_linear)"/>
<path d="M25.6858 0L0 14.7964V44.4721L25.6858 29.5927V0Z" transform="translate(75.0035 233.969) rotate(120)" fill="url(#paint57_linear)"/>
<path d="M0 0V29.5927L25.6858 44.4721V14.7964L0 0Z" transform="translate(87.8464 211.724) rotate(120)" fill="url(#paint58_linear)"/>
<path d="M51.3716 14.7963L25.6858 0L0 14.7963L25.6858 29.5927L51.3716 14.7963Z" transform="translate(100.66 219.122) rotate(120)" fill="url(#paint59_linear)"/>
<path d="M111.305 0L69.0773 24.6052L36.409 5.32005L0 26.9327" transform="translate(108.06 97.0781) rotate(120)" stroke="url(#paint60_linear)" stroke-miterlimit="10"/>
<path d="M0 0L19.7007 10.7232" transform="translate(22.6817 237.643) rotate(120)" stroke="url(#paint61_linear)" stroke-miterlimit="10"/>
<path d="M0 48.0465V0" transform="translate(337.735 239.087) rotate(120)" stroke="url(#paint62_linear)" stroke-miterlimit="10"/>
<path d="M0 48.1297V0" transform="translate(336.907 255.982) rotate(120)" stroke="url(#paint63_linear)" stroke-miterlimit="10"/>
<path d="M0 3.99001L6.89941 7.98005L13.7988 3.99001L6.89941 0L0 3.99001Z" transform="translate(91.279 77.5991) rotate(120)" fill="white"/>
<path d="M0 4.07314L6.98254 8.06316L13.882 4.07314L6.98254 0L0 4.07314Z" transform="translate(79.9992 96.1392) rotate(120)" fill="white"/>
<path d="M0 3.99001L6.98254 7.98005L13.8819 3.99001L6.98254 0L0 3.99001Z" transform="translate(8.032 246.558) rotate(120)" fill="white"/>
<path d="M95.2618 0L49.9584 28.0133L17.4564 8.56192L0 18.9526" transform="translate(89.8978 109.917) rotate(120)" stroke="url(#paint64_linear)" stroke-miterlimit="10"/>
<path d="M33.3333 0L0 21.4464L48.7947 48.6284" transform="translate(47.5524 170.127) rotate(120)" stroke="url(#paint65_linear)" stroke-miterlimit="10"/>
<path d="M0 23.1089L39.2352 0" transform="translate(173.005 229.312) rotate(120)" stroke="url(#paint66_linear)" stroke-miterlimit="10"/>
<path d="M0 15.3782L26.1845 0" transform="translate(190.11 217.974) rotate(120)" stroke="url(#paint67_linear)" stroke-miterlimit="10"/>
<path d="M0 23.1089L39.1521 0" transform="translate(207.274 216.174) rotate(120)" stroke="url(#paint68_linear)" stroke-miterlimit="10"/>
<path d="M6.81629 0L0 3.90691V11.8038L6.81629 7.89692V0Z" transform="translate(194.039 243.087) rotate(120)" fill="white"/>
<path d="M6.81629 0L0 3.99001V11.8038L6.81629 7.89692V0Z" transform="translate(183.817 237.186) rotate(120)" fill="white"/>
<path d="M6.8163 0L0 3.99003V11.8038L6.8163 7.89692V0Z" transform="translate(160.139 256.917) rotate(120)" fill="white"/>
<defs>
<linearGradient id="paint0_linear" x2="1" gradientUnits="userSpaceOnUse" gradientTransform="translate(-50.1217 172.848) scale(206.819) rotate(-90)">
<stop stop-color="white"/>
<stop offset="1" stop-color="#00AA8B" stop-opacity="0"/>
</linearGradient>
<linearGradient id="paint1_linear" x2="1" gradientUnits="userSpaceOnUse" gradientTransform="translate(32.5472 -67.2922) scale(234.317) rotate(35.875)">
<stop stop-color="white"/>
<stop offset="1" stop-color="#00AA8B" stop-opacity="0"/>
</linearGradient>
<linearGradient id="paint2_linear" x2="1" gradientUnits="userSpaceOnUse" gradientTransform="translate(343.262 -73.1784) scale(473.26) rotate(90)">
<stop stop-color="white"/>
<stop offset="1" stop-color="#00AA8B" stop-opacity="0"/>
</linearGradient>
<linearGradient id="paint3_linear" x2="1" gradientUnits="userSpaceOnUse" gradientTransform="translate(-32.8134 113.172) scale(135.382) rotate(-90)">
<stop stop-color="white"/>
<stop offset="1" stop-color="#00AA8B" stop-opacity="0"/>
</linearGradient>
<linearGradient id="paint4_linear" x2="1" gradientUnits="userSpaceOnUse" gradientTransform="translate(21.3142 -44.0218) scale(153.382) rotate(35.875)">
<stop stop-color="white"/>
<stop offset="1" stop-color="#00AA8B" stop-opacity="0"/>
</linearGradient>
<linearGradient id="paint5_linear" x2="1" gradientUnits="userSpaceOnUse" gradientTransform="translate(224.705 -47.9623) scale(309.791) rotate(90)">
<stop stop-color="white"/>
<stop offset="1" stop-color="#00AA8B" stop-opacity="0"/>
</linearGradient>
<linearGradient id="paint6_linear" x2="1" gradientUnits="userSpaceOnUse" gradientTransform="translate(-9.18196 31.7529) scale(38.0284) rotate(-90)">
<stop stop-color="white"/>
<stop offset="1" stop-color="#00AA8B" stop-opacity="0"/>
</linearGradient>
<linearGradient id="paint7_linear" x2="1" gradientUnits="userSpaceOnUse" gradientTransform="translate(5.94302 -12.4024) scale(43.0847) rotate(35.875)">
<stop stop-color="white"/>
<stop offset="1" stop-color="#00AA8B" stop-opacity="0"/>
</linearGradient>
<linearGradient id="paint8_linear" x2="1" gradientUnits="userSpaceOnUse" gradientTransform="translate(63.0753 -13.4223) scale(87.02) rotate(90)">
<stop stop-color="white"/>
<stop offset="1" stop-color="#00AA8B" stop-opacity="0"/>
</linearGradient>
<linearGradient id="paint9_linear" x2="1" gradientUnits="userSpaceOnUse" gradientTransform="translate(-5.9995 20.7689) scale(24.8931) rotate(-90)">
<stop stop-color="white"/>
<stop offset="1" stop-color="#00AA8B" stop-opacity="0"/>
</linearGradient>
<linearGradient id="paint10_linear" x2="1" gradientUnits="userSpaceOnUse" gradientTransform="translate(3.91538 -8.13475) scale(28.2028) rotate(35.8749)">
<stop stop-color="white"/>
<stop offset="1" stop-color="#00AA8B" stop-opacity="0"/>
</linearGradient>
<linearGradient id="paint11_linear" x2="1" gradientUnits="userSpaceOnUse" gradientTransform="translate(41.3135 -8.77564) scale(56.9621) rotate(90)">
<stop stop-color="white"/>
<stop offset="1" stop-color="#00AA8B" stop-opacity="0"/>
</linearGradient>
<linearGradient id="paint12_linear" x2="1" gradientUnits="userSpaceOnUse" gradientTransform="translate(-13.5891 46.7744) scale(55.9363) rotate(-90)">
<stop stop-color="white"/>
<stop offset="1" stop-color="#00AA8B" stop-opacity="0"/>
</linearGradient>
<linearGradient id="paint13_linear" x2="1" gradientUnits="userSpaceOnUse" gradientTransform="translate(8.76949 -18.1739) scale(63.3734) rotate(35.875)">
<stop stop-color="white"/>
<stop offset="1" stop-color="#00AA8B" stop-opacity="0"/>
</linearGradient>
<linearGradient id="paint14_linear" x2="1" gradientUnits="userSpaceOnUse" gradientTransform="translate(92.8054 -19.7999) scale(127.998) rotate(90)">
<stop stop-color="white"/>
<stop offset="1" stop-color="#00AA8B" stop-opacity="0"/>
</linearGradient>
<linearGradient id="paint15_linear" x2="1" gradientUnits="userSpaceOnUse" gradientTransform="translate(-8.90789 30.6337) scale(36.6153) rotate(-90)">
<stop stop-color="white"/>
<stop offset="1" stop-color="#00AA8B" stop-opacity="0"/>
</linearGradient>
<linearGradient id="paint16_linear" x2="1" gradientUnits="userSpaceOnUse" gradientTransform="translate(5.79908 -11.8808) scale(41.4836) rotate(35.8751)">
<stop stop-color="white"/>
<stop offset="1" stop-color="#00AA8B" stop-opacity="0"/>
</linearGradient>
<linearGradient id="paint17_linear" x2="1" gradientUnits="userSpaceOnUse" gradientTransform="translate(60.8082 -12.9383) scale(83.786) rotate(90)">
<stop stop-color="white"/>
<stop offset="1" stop-color="#00AA8B" stop-opacity="0"/>
</linearGradient>
<linearGradient id="paint18_linear" x2="1" gradientUnits="userSpaceOnUse" gradientTransform="translate(-9.23021 31.8145) scale(38.0285) rotate(-90)">
<stop stop-color="white"/>
<stop offset="1" stop-color="#00AA8B" stop-opacity="0"/>
</linearGradient>
<linearGradient id="paint19_linear" x2="1" gradientUnits="userSpaceOnUse" gradientTransform="translate(5.97801 -12.3409) scale(43.0847) rotate(35.875)">
<stop stop-color="white"/>
<stop offset="1" stop-color="#00AA8B" stop-opacity="0"/>
</linearGradient>
<linearGradient id="paint20_linear" x2="1" gradientUnits="userSpaceOnUse" gradientTransform="translate(63.11 -13.4439) scale(87.0196) rotate(90)">
<stop stop-color="white"/>
<stop offset="1" stop-color="#00AA8B" stop-opacity="0"/>
</linearGradient>
<linearGradient id="paint21_linear" x2="1" gradientUnits="userSpaceOnUse" gradientTransform="translate(-6.04771 20.8304) scale(24.8931) rotate(-90)">
<stop stop-color="white"/>
<stop offset="1" stop-color="#00AA8B" stop-opacity="0"/>
</linearGradient>
<linearGradient id="paint22_linear" x2="1" gradientUnits="userSpaceOnUse" gradientTransform="translate(3.95037 -8.07328) scale(28.2027) rotate(35.875)">
<stop stop-color="white"/>
<stop offset="1" stop-color="#00AA8B" stop-opacity="0"/>
</linearGradient>
<linearGradient id="paint23_linear" x2="1" gradientUnits="userSpaceOnUse" gradientTransform="translate(41.3486 -8.79735) scale(56.9623) rotate(90)">
<stop stop-color="white"/>
<stop offset="1" stop-color="#00AA8B" stop-opacity="0"/>
</linearGradient>
<linearGradient id="paint24_linear" x2="1" gradientUnits="userSpaceOnUse" gradientTransform="translate(-9.22539 31.7976) scale(38.0285) rotate(-90)">
<stop stop-color="white"/>
<stop offset="1" stop-color="#00AA8B" stop-opacity="0"/>
</linearGradient>
<linearGradient id="paint25_linear" x2="1" gradientUnits="userSpaceOnUse" gradientTransform="translate(5.98279 -12.3576) scale(43.0846) rotate(35.875)">
<stop stop-color="white"/>
<stop offset="1" stop-color="#00AA8B" stop-opacity="0"/>
</linearGradient>
<linearGradient id="paint26_linear" x2="1" gradientUnits="userSpaceOnUse" gradientTransform="translate(63.1149 -13.4608) scale(87.0196) rotate(90)">
<stop stop-color="white"/>
<stop offset="1" stop-color="#00AA8B" stop-opacity="0"/>
</linearGradient>
<linearGradient id="paint27_linear" x2="1" gradientUnits="userSpaceOnUse" gradientTransform="translate(-6.04289 20.8135) scale(24.8931) rotate(-90)">
<stop stop-color="white"/>
<stop offset="1" stop-color="#00AA8B" stop-opacity="0"/>
</linearGradient>
<linearGradient id="paint28_linear" x2="1" gradientUnits="userSpaceOnUse" gradientTransform="translate(3.95515 -8.09019) scale(28.2029) rotate(35.875)">
<stop stop-color="white"/>
<stop offset="1" stop-color="#00AA8B" stop-opacity="0"/>
</linearGradient>
<linearGradient id="paint29_linear" x2="1" gradientUnits="userSpaceOnUse" gradientTransform="translate(41.3533 -8.81421) scale(56.9623) rotate(90)">
<stop stop-color="white"/>
<stop offset="1" stop-color="#00AA8B" stop-opacity="0"/>
</linearGradient>
<linearGradient id="paint30_linear" x2="1" gradientUnits="userSpaceOnUse" gradientTransform="translate(-9.20148 31.7746) scale(38.0284) rotate(-90)">
<stop stop-color="white"/>
<stop offset="1" stop-color="#00AA8B" stop-opacity="0"/>
</linearGradient>
<linearGradient id="paint31_linear" x2="1" gradientUnits="userSpaceOnUse" gradientTransform="translate(6.00661 -12.3807) scale(43.0847) rotate(35.875)">
<stop stop-color="white"/>
<stop offset="1" stop-color="#00AA8B" stop-opacity="0"/>
</linearGradient>
<linearGradient id="paint32_linear" x2="1" gradientUnits="userSpaceOnUse" gradientTransform="translate(63.1387 -13.4837) scale(87.0195) rotate(90)">
<stop stop-color="white"/>
<stop offset="1" stop-color="#00AA8B" stop-opacity="0"/>
</linearGradient>
<linearGradient id="paint33_linear" x2="1" gradientUnits="userSpaceOnUse" gradientTransform="translate(-6.01903 20.7906) scale(24.8931) rotate(-90)">
<stop stop-color="white"/>
<stop offset="1" stop-color="#00AA8B" stop-opacity="0"/>
</linearGradient>
<linearGradient id="paint34_linear" x2="1" gradientUnits="userSpaceOnUse" gradientTransform="translate(3.89593 -8.11301) scale(28.2028) rotate(35.875)">
<stop stop-color="white"/>
<stop offset="1" stop-color="#00AA8B" stop-opacity="0"/>
</linearGradient>
<linearGradient id="paint35_linear" x2="1" gradientUnits="userSpaceOnUse" gradientTransform="translate(41.2942 -8.83715) scale(56.9624) rotate(90)">
<stop stop-color="white"/>
<stop offset="1" stop-color="#00AA8B" stop-opacity="0"/>
</linearGradient>
<linearGradient id="paint36_linear" x2="1" gradientUnits="userSpaceOnUse" gradientTransform="translate(-18.4054 63.5558) scale(76.0598) rotate(-90)">
<stop stop-color="white"/>
<stop offset="1" stop-color="#007F5A" stop-opacity="0"/>
</linearGradient>
<linearGradient id="paint37_linear" x2="1" gradientUnits="userSpaceOnUse" gradientTransform="translate(11.9274 -24.7581) scale(86.1726) rotate(35.875)">
<stop stop-color="white"/>
<stop offset="1" stop-color="#007F5A" stop-opacity="0"/>
</linearGradient>
<linearGradient id="paint38_linear" x2="1" gradientUnits="userSpaceOnUse" gradientTransform="translate(126.196 -26.9652) scale(174.046) rotate(90)">
<stop stop-color="white"/>
<stop offset="1" stop-color="#007F5A" stop-opacity="0"/>
</linearGradient>
<linearGradient id="paint39_linear" x2="1" gradientUnits="userSpaceOnUse" gradientTransform="translate(-12.0401 41.5872) scale(49.7881) rotate(-90)">
<stop stop-color="white"/>
<stop offset="1" stop-color="#007F5A" stop-opacity="0"/>
</linearGradient>
<linearGradient id="paint40_linear" x2="1" gradientUnits="userSpaceOnUse" gradientTransform="translate(7.78944 -16.2223) scale(56.4078) rotate(35.875)">
<stop stop-color="white"/>
<stop offset="1" stop-color="#007F5A" stop-opacity="0"/>
</linearGradient>
<linearGradient id="paint41_linear" x2="1" gradientUnits="userSpaceOnUse" gradientTransform="translate(82.5887 -17.5879) scale(113.929) rotate(90)">
<stop stop-color="white"/>
<stop offset="1" stop-color="#007F5A" stop-opacity="0"/>
</linearGradient>
<linearGradient id="paint42_linear" x2="1" gradientUnits="userSpaceOnUse" gradientTransform="translate(-42.4857 79.2196) scale(94.8193) rotate(-90)">
<stop stop-color="white"/>
<stop offset="1" stop-color="#007F5A" stop-opacity="0"/>
</linearGradient>
<linearGradient id="paint43_linear" x2="1" gradientUnits="userSpaceOnUse" gradientTransform="translate(-1.21488 -4.90557) scale(69.3012) rotate(35.875)">
<stop stop-color="white"/>
<stop offset="1" stop-color="#007F5A" stop-opacity="0"/>
</linearGradient>
<linearGradient id="paint44_linear" x2="1" gradientUnits="userSpaceOnUse" gradientTransform="translate(31.5876 -6.76583) scale(43.5114) rotate(90)">
<stop stop-color="white"/>
<stop offset="1" stop-color="#007F5A" stop-opacity="0"/>
</linearGradient>
<linearGradient id="paint45_linear" x2="1" gradientUnits="userSpaceOnUse" gradientTransform="translate(27.0966 -33.412) scale(94.819) rotate(31.4393)">
<stop stop-color="white"/>
<stop offset="1" stop-color="#007F5A" stop-opacity="0"/>
</linearGradient>
<linearGradient id="paint46_linear" x2="1" gradientUnits="userSpaceOnUse" gradientTransform="translate(82.1275 42.713) scale(69.2989) rotate(157.314)">
<stop stop-color="white"/>
<stop offset="1" stop-color="#007F5A" stop-opacity="0"/>
</linearGradient>
<linearGradient id="paint47_linear" x2="1" gradientUnits="userSpaceOnUse" gradientTransform="translate(4.34607 33.3898) scale(43.5116) rotate(-148.561)">
<stop stop-color="white"/>
<stop offset="1" stop-color="#007F5A" stop-opacity="0"/>
</linearGradient>
<linearGradient id="paint48_linear" x2="1" gradientUnits="userSpaceOnUse" gradientTransform="translate(-18.4043 63.531) scale(76.0598) rotate(-90)">
<stop stop-color="white"/>
<stop offset="1" stop-color="#007F5A" stop-opacity="0"/>
</linearGradient>
<linearGradient id="paint49_linear" x2="1" gradientUnits="userSpaceOnUse" gradientTransform="translate(11.9285 -24.783) scale(86.1727) rotate(35.875)">
<stop stop-color="white"/>
<stop offset="1" stop-color="#007F5A" stop-opacity="0"/>
</linearGradient>
<linearGradient id="paint50_linear" x2="1" gradientUnits="userSpaceOnUse" gradientTransform="translate(126.197 -26.9069) scale(174.046) rotate(90)">
<stop stop-color="white"/>
<stop offset="1" stop-color="#007F5A" stop-opacity="0"/>
</linearGradient>
<linearGradient id="paint51_linear" x2="1" gradientUnits="userSpaceOnUse" gradientTransform="translate(-12.0391 41.6455) scale(49.788) rotate(-90)">
<stop stop-color="white"/>
<stop offset="1" stop-color="#007F5A" stop-opacity="0"/>
</linearGradient>
<linearGradient id="paint52_linear" x2="1" gradientUnits="userSpaceOnUse" gradientTransform="translate(7.79052 -16.164) scale(56.4078) rotate(35.875)">
<stop stop-color="white"/>
<stop offset="1" stop-color="#007F5A" stop-opacity="0"/>
</linearGradient>
<linearGradient id="paint53_linear" x2="1" gradientUnits="userSpaceOnUse" gradientTransform="translate(82.5896 -17.6127) scale(113.929) rotate(90)">
<stop stop-color="white"/>
<stop offset="1" stop-color="#007F5A" stop-opacity="0"/>
</linearGradient>
<linearGradient id="paint54_linear" x2="1" gradientUnits="userSpaceOnUse" gradientTransform="translate(-18.4157 63.5721) scale(76.0598) rotate(-90)">
<stop stop-color="white"/>
<stop offset="1" stop-color="#007F5A" stop-opacity="0"/>
</linearGradient>
<linearGradient id="paint55_linear" x2="1" gradientUnits="userSpaceOnUse" gradientTransform="translate(12.0002 -24.7417) scale(86.1725) rotate(35.875)">
<stop stop-color="white"/>
<stop offset="1" stop-color="#007F5A" stop-opacity="0"/>
</linearGradient>
<linearGradient id="paint56_linear" x2="1" gradientUnits="userSpaceOnUse" gradientTransform="translate(126.269 -26.9489) scale(174.046) rotate(90)">
<stop stop-color="white"/>
<stop offset="1" stop-color="#007F5A" stop-opacity="0"/>
</linearGradient>
<linearGradient id="paint57_linear" x2="1" gradientUnits="userSpaceOnUse" gradientTransform="translate(-12.0505 41.6035) scale(49.7881) rotate(-90)">
<stop stop-color="white"/>
<stop offset="1" stop-color="#007F5A" stop-opacity="0"/>
</linearGradient>
<linearGradient id="paint58_linear" x2="1" gradientUnits="userSpaceOnUse" gradientTransform="translate(7.86222 -16.206) scale(56.4079) rotate(35.875)">
<stop stop-color="white"/>
<stop offset="1" stop-color="#007F5A" stop-opacity="0"/>
</linearGradient>
<linearGradient id="paint59_linear" x2="1" gradientUnits="userSpaceOnUse" gradientTransform="translate(82.6615 -17.6549) scale(113.929) rotate(90)">
<stop stop-color="white"/>
<stop offset="1" stop-color="#007F5A" stop-opacity="0"/>
</linearGradient>
<linearGradient id="paint60_linear" x2="1" gradientUnits="userSpaceOnUse" gradientTransform="translate(-0.231504 -42.4294) scale(111.787)">
<stop stop-color="white"/>
<stop offset="1" stop-color="#009479" stop-opacity="0"/>
</linearGradient>
<linearGradient id="paint61_linear" x2="1" gradientUnits="userSpaceOnUse" gradientTransform="translate(-0.164007 -4.65764) scale(20.0611)">
<stop stop-color="#006A54" stop-opacity="0"/>
<stop offset="1" stop-color="white"/>
</linearGradient>
<linearGradient id="paint62_linear" x2="1" gradientUnits="userSpaceOnUse" gradientTransform="scale(1 48.0465)">
<stop stop-color="white"/>
<stop offset="1" stop-color="#006A5C" stop-opacity="0"/>
</linearGradient>
<linearGradient id="paint63_linear" x2="1" gradientUnits="userSpaceOnUse" gradientTransform="scale(1 48.1297)">
<stop stop-color="white"/>
<stop offset="1" stop-color="#006A5C" stop-opacity="0"/>
</linearGradient>
<linearGradient id="paint64_linear" x2="1" gradientUnits="userSpaceOnUse" gradientTransform="translate(-0.240399 -33.8217) scale(95.7453)">
<stop stop-color="white"/>
<stop offset="1" stop-color="#009479" stop-opacity="0"/>
</linearGradient>
<linearGradient id="paint65_linear" x2="1" gradientUnits="userSpaceOnUse" gradientTransform="translate(-0.0995011 51.6263) scale(50.1213) rotate(-93.0803)">
<stop stop-color="white"/>
<stop offset="1" stop-color="#009479" stop-opacity="0"/>
</linearGradient>
<linearGradient id="paint66_linear" x2="1" gradientUnits="userSpaceOnUse" gradientTransform="translate(-0.217872 -8.24866) scale(39.6275)">
<stop stop-color="white"/>
<stop offset="1" stop-color="#00554A" stop-opacity="0"/>
</linearGradient>
<linearGradient id="paint67_linear" x2="1" gradientUnits="userSpaceOnUse" gradientTransform="translate(-0.228429 -5.61184) scale(26.5846)">
<stop stop-color="white"/>
<stop offset="1" stop-color="#00554A" stop-opacity="0"/>
</linearGradient>
<linearGradient id="paint68_linear" x2="1" gradientUnits="userSpaceOnUse" gradientTransform="translate(-0.252452 -8.24671) scale(39.6274)">
<stop stop-color="white"/>
<stop offset="1" stop-color="#00554A" stop-opacity="0"/>
</linearGradient>
</defs>
</svg>
