<svg width="333" height="279" viewBox="0 0 333 279" fill="none" xmlns="http://www.w3.org/2000/svg">
<path d="M208.289 0H201.189L108.689 92.5H120.189L212.089 0.600006C210.889 0.200006 209.589 0 208.289 0ZM78.9893 0.200012L2.58934 76.6L0.289353 84.6C-1.01065 89 2.18935 92.7 7.48935 92.7L87.3893 92.6L179.889 0.100006L78.9893 0.200012ZM217.689 7.30002L132.389 92.6H137.489L218.789 11.3L217.689 7.30002Z" transform="translate(62.1327 183.1)" fill="url(#paint0_linear)"/>
<path fill-rule="evenodd" clip-rule="evenodd" d="M191.9 121.3H9.40001C4.20001 121.3 0 117.1 0 111.9V9.39999C0 4.19999 4.20001 0 9.40001 0H191.9C197.1 0 201.3 4.19999 201.3 9.39999V111.9C201.3 117.1 197.1 121.3 191.9 121.3Z" transform="translate(81.0221 62.1)" fill="url(#paint1_linear)"/>
<path fill-rule="evenodd" clip-rule="evenodd" d="M191.9 0H9.40001C4.20001 0 0 4.19999 0 9.39999V9.7C0 4.5 4.20001 0.300003 9.40001 0.300003H191.9C197.1 0.300003 201.3 4.5 201.3 9.7V9.39999C201.3 4.19999 197.1 0 191.9 0Z" transform="translate(81.0221 62.1)" fill="url(#paint2_linear)"/>
<path d="M189.8 0.0999908C194 0.0999908 197.5 3.49999 197.5 7.79999V109.9C197.5 114.1 194.1 117.6 189.8 117.6H7.7C3.5 117.6 0 114.2 0 109.9V7.7C0 3.5 3.4 0 7.7 0H189.8" transform="translate(82.9221 63.9)" fill="url(#paint3_linear)"/>
<path opacity="0.56" d="M188 0H0V100.5H188V0Z" transform="translate(87.6221 69.8)" fill="url(#paint4_linear)"/>
<path d="M188 0H0V0.199997H188V0Z" transform="translate(87.6221 69.8)" fill="url(#paint5_linear)"/>
<path opacity="0.39" d="M231.552 92.3L7.4519 92.7C2.2519 92.7 -0.948093 89 0.251908 84.6L22.6519 5.5C23.4519 2.6 27.4519 0.299988 31.5519 0.299988L208.152 0C212.252 0 216.252 2.29998 217.052 5.19998L238.752 84.2C240.052 88.6 236.852 92.3 231.552 92.3Z" transform="translate(62.1702 186)" fill="url(#paint6_linear)"/>
<path d="M231.509 6.29999L7.40943 6.70001C2.90943 6.70001 -0.0905756 3.99999 0.00942438 0.399994C-0.190576 4.09999 2.80943 6.89999 7.40943 6.89999L231.509 6.5C236.109 6.5 239.109 3.7 239.009 0C239.109 3.6 236.009 6.29999 231.509 6.29999Z" transform="translate(62.2126 271.8)" fill="url(#paint7_linear)"/>
<path opacity="0.56" d="M231.552 92.4L7.4519 92.7C2.2519 92.7 -0.948093 89 0.251908 84.6L22.6519 5.5C23.4519 2.6 27.4519 0.300018 31.5519 0.300018L208.152 0C212.252 0 216.252 2.30001 217.052 5.20001L238.752 84.2C240.052 88.7 236.852 92.4 231.552 92.4Z" transform="translate(62.1702 183.1)" fill="url(#paint8_linear)"/>
<path d="M78.9893 0.200012L2.58934 76.6L0.289353 84.6C-1.01065 89 2.18935 92.7 7.48935 92.7L87.3893 92.6L179.889 0.100006L78.9893 0.200012ZM208.289 0H201.189L108.689 92.5H120.189L212.089 0.600006C210.889 0.200006 209.589 0 208.289 0ZM217.689 7.30002L132.389 92.6H137.489L218.789 11.3L217.689 7.30002Z" transform="translate(62.1327 183.1)" fill="url(#paint9_linear)"/>
<path opacity="0.86" d="M231.489 9.20001C236.689 9.20001 239.889 5.50001 238.689 1.10001L238.389 0C239.589 4.4 236.389 8.10001 231.189 8.10001L7.68936 8.5C2.48936 8.5 -0.710644 4.89999 0.589356 0.399994L0.289353 1.5C-1.01065 5.9 2.18935 9.60001 7.48935 9.60001" transform="translate(62.2327 266.3)" fill="url(#paint10_linear)"/>
<path opacity="0.9" d="M81.9 30.2L0 30.3L3 0.199982L79.2 0L81.9 30.2Z" transform="translate(140.722 245.4)" fill="url(#paint11_linear)"/>
<path opacity="0.9" d="M81.9 5.59998L0 5.69998L0.5 0.0999756L81.4 0L81.9 5.59998Z" transform="translate(140.722 270)" fill="url(#paint12_linear)"/>
<path d="M81 0.599976L0 0.699982V0.0999756L80.9 0L81 0.599976Z" transform="translate(141.222 270)" fill="url(#paint13_linear)"/>
<path d="M76.4 0.5L0 0.600006L0.0999908 0.100006L76.3 0L76.4 0.5Z" transform="translate(143.622 245.2)" fill="url(#paint14_linear)"/>
<path opacity="0.9" d="M178.474 41.6L5.67421 41.9C1.97421 41.9 -0.725793 38.5 0.174207 34.9L7.57422 4.5C8.17422 2 10.4742 0.200012 13.0742 0.200012L171.274 0C173.874 0 176.174 1.79999 176.774 4.39999L183.974 34.8C184.774 38.2 182.074 41.6 178.474 41.6Z" transform="translate(89.8478 188.7)" fill="url(#paint15_linear)"/>
<path d="M2.40001 0.300018C1.50001 0.300018 0.7 0.500024 0 0.900024L163 0.600006C162.3 0.300006 161.4 0 160.6 0L2.40001 0.300018Z" transform="translate(100.522 188.6)" fill="url(#paint16_linear)"/>
<path opacity="0.9" d="M187.978 7.29999L2.47753 7.60001C0.877535 7.60001 -0.322475 6.1 0.0775255 4.5L0.677532 2.19998C0.977532 1.09998 1.97753 0.299988 3.07753 0.299988L187.478 0C188.678 0 189.678 0.799994 189.878 1.89999L190.378 4.19998C190.778 5.79998 189.578 7.29999 187.978 7.29999Z" transform="translate(86.6445 232.9)" fill="url(#paint17_linear)"/>
<path d="M0 0.899994L187.5 0.600006C187.1 0.300006 186.5 0 185.9 0L145.4 0.100006L1.5 0.299988C1 0.299988 0.4 0.499994 0 0.899994Z" transform="translate(88.1221 232.9)" fill="url(#paint18_linear)"/>
<path opacity="0.56" d="M62.0969 0.299988L8.1969 0C6.6969 0 5.4969 0.999994 5.1969 2.39999L0.0969074 24.2C-0.403093 26.1 1.09691 28 3.09691 28L67.9969 28.3C70.0969 28.3 71.5969 26.4 70.9969 24.4L65.1969 2.59998C64.6969 1.29998 63.4969 0.299988 62.0969 0.299988Z" transform="translate(147.525 192)" fill="url(#paint19_linear)"/>
<path opacity="0.56" d="M25.6034 26.9H5.90344C3.40344 26.9 1.20343 25.2 1.10343 23L0.0034269 4.60001C-0.0965731 2.10001 2.00343 0 4.80343 0H26.7034C29.5034 0 31.6034 2.10001 31.5034 4.60001L30.4034 23C30.3034 25.2 28.1034 26.9 25.6034 26.9Z" transform="translate(167.019 121.8)" fill="url(#paint20_linear)"/>
<path d="M4.80343 0.199997H26.7034C29.4034 0.199997 31.5034 2.2 31.5034 4.7V4.59999C31.7034 2.09999 29.5034 0 26.7034 0H4.80343C2.00343 0 -0.0965731 2.09999 0.0034269 4.59999V4.7C0.0034269 2.2 2.10343 0.199997 4.80343 0.199997Z" transform="translate(167.019 121.9)" fill="url(#paint21_linear)"/>
<path opacity="0.56" d="M10.403 4.70001C10.503 2.10001 8.10301 0 5.20301 0C2.30301 0 -0.0969838 2.10001 0.0030162 4.70001C0.0030162 6.70001 1.50302 8.4 3.50302 9V12.6C3.50302 13.4 4.20301 14 5.10301 14C6.00301 14 6.70301 13.4 6.70301 12.6V9C8.80301 8.4 10.303 6.70001 10.403 4.70001Z" transform="translate(177.619 128.8)" fill="url(#paint22_linear)"/>
<path d="M5.20301 0.199997C8.10301 0.199997 10.303 2.19999 10.403 4.79999V4.69998C10.503 2.09998 8.10301 0 5.20301 0C2.30301 0 -0.0969838 2.09998 0.0030162 4.69998V4.79999C0.0030162 2.19999 2.30301 0.199997 5.20301 0.199997Z" transform="translate(177.619 128.9)" fill="url(#paint23_linear)"/>
<path d="M12.8113 0C5.41132 0 -0.288682 5.9 0.0113181 12.8L0.511318 23.9C0.611318 25.4 1.91132 26.6 3.51132 26.6C5.11132 26.6 6.41133 25.4 6.41133 23.9L6.21132 12.8C6.11132 9.2 9.11133 6.3 12.9113 6.3C16.7113 6.3 19.7113 9.3 19.6113 12.8L19.3113 23.9C19.3113 25.4 20.5113 26.6 22.1113 26.6C23.7113 26.6 25.1113 25.4 25.1113 23.9L25.6113 12.9C25.9113 5.90001 20.2113 0 12.8113 0Z" transform="translate(170.011 102)" fill="url(#paint24_linear)"/>
<path d="M12.8113 0.300003C20.1113 0.300003 25.7113 6 25.6113 12.8C25.9113 5.9 20.2113 0 12.8113 0C5.41132 0 -0.288682 5.9 0.0113181 12.8V12.9C-0.188682 6.10001 5.51132 0.300003 12.8113 0.300003Z" transform="translate(170.011 102)" fill="url(#paint25_linear)"/>
<path d="M0 0.199997L0.199997 11C0.199997 11 0.199997 11 0.199997 10.9L0 0C0 0.1 0 0.199997 0 0.199997Z" transform="translate(176.122 114.9)" fill="url(#paint26_linear)"/>
<path d="M0.300018 0L0 10.9C0 10.9 0 10.9 0 11L0.300018 0.199997C0.300018 0.0999969 0.300018 0 0.300018 0Z" transform="translate(189.222 115)" fill="url(#paint27_linear)"/>
<path opacity="0.56" d="M121.4 81.7H6.59998C2.89998 81.7 0 78.7 0 75.1V6.6C0 2.9 2.99998 0 6.59998 0H121.4C125.1 0 128 3 128 6.6V75.1C128 78.8 125 81.7 121.4 81.7Z" transform="translate(252.522 0.872314)" fill="url(#paint28_linear)"/>
<path opacity="0.56" d="M121.4 6.59999H6.59998C2.89998 6.59999 0 3.6 0 0V0.300003C0 4 2.99998 6.89999 6.59998 6.89999H121.4C125.1 6.89999 128 3.9 128 0.300003V0C128 3.7 125 6.59999 121.4 6.59999Z" transform="translate(252.522 75.6723)" fill="url(#paint29_linear)"/>
<path d="M47.7 0H0V3.40001H47.7V0Z" transform="translate(264.622 71.0723)" fill="url(#paint30_linear)"/>
<path d="M47.7 0H0V1.7H47.7V0Z" transform="translate(264.622 75.6723)" fill="url(#paint31_linear)"/>
<path opacity="0.56" d="M121.4 0H6.59998C2.89998 0 0 3 0 6.6V14.9H128.1V6.6C128 3 125 0 121.4 0Z" transform="translate(252.522 0.772308)" fill="url(#paint32_linear)"/>
<path opacity="0.56" d="M3.20001 6.4C4.96732 6.4 6.39999 4.96732 6.39999 3.2C6.39999 1.43269 4.96732 0 3.20001 0C1.4327 0 0 1.43269 0 3.2C0 4.96732 1.4327 6.4 3.20001 6.4Z" transform="translate(276.222 5.0723)" fill="url(#paint33_linear)"/>
<path d="M1.89999 3.8C2.94934 3.8 3.79999 2.94934 3.79999 1.9C3.79999 0.85066 2.94934 0 1.89999 0C0.850653 0 0 0.85066 0 1.9C0 2.94934 0.850653 3.8 1.89999 3.8Z" transform="translate(277.522 6.37231)" fill="url(#paint34_linear)"/>
<path opacity="0.56" d="M3.20001 6.4C4.96732 6.4 6.39999 4.96732 6.39999 3.2C6.39999 1.43269 4.96732 0 3.20001 0C1.4327 0 0 1.43269 0 3.2C0 4.96732 1.4327 6.4 3.20001 6.4Z" transform="translate(267.222 5.0723)" fill="url(#paint35_linear)"/>
<path d="M1.89999 3.8C2.94934 3.8 3.79999 2.94934 3.79999 1.9C3.79999 0.85066 2.94934 0 1.89999 0C0.850653 0 0 0.85066 0 1.9C0 2.94934 0.850653 3.8 1.89999 3.8Z" transform="translate(268.522 6.37231)" fill="url(#paint36_linear)"/>
<path opacity="0.56" d="M3.20001 6.4C4.96732 6.4 6.40002 4.96732 6.40002 3.2C6.40002 1.43269 4.96732 0 3.20001 0C1.4327 0 0 1.43269 0 3.2C0 4.96732 1.4327 6.4 3.20001 6.4Z" transform="translate(258.122 5.0723)" fill="url(#paint37_linear)"/>
<path d="M1.89999 3.8C2.94934 3.8 3.79999 2.94934 3.79999 1.9C3.79999 0.85066 2.94934 0 1.89999 0C0.850653 0 0 0.85066 0 1.9C0 2.94934 0.850653 3.8 1.89999 3.8Z" transform="translate(259.422 6.37231)" fill="url(#paint38_linear)"/>
<path d="M121.4 0H6.59998C2.89998 0 0 3 0 6.6V7.1C0 3.4 2.99998 0.5 6.59998 0.5H121.4C125.1 0.5 128 3.5 128 7.1V6.6C128 3 125 0 121.4 0Z" transform="translate(252.522 0.772308)" fill="url(#paint39_linear)"/>
<path d="M128.1 0H0V0.299995H128.1V0Z" transform="translate(252.422 15.6723)" fill="url(#paint40_linear)"/>
<path d="M0 46.7H101.2V0" transform="translate(264.622 22.3723)" stroke="url(#paint41_linear)" stroke-width="0.25" stroke-miterlimit="10" stroke-linecap="round" stroke-linejoin="round"/>
<path d="M0 38.4482H95.9C95.9 38.4482 82.5 2.84815 70.2 1.64815C57.9 0.448153 52.7 29.7481 41.4 30.2481C30.1 30.7481 35.9 2.84815 29.3 0.148153C22.6 -2.55185 26.9 32.5482 19.5 32.4482C12.1 32.3482 18.5 5.44815 12.7 5.44815C7.59998 5.44815 11.7 27.8482 5.89999 32.4482C1.29999 36.0482 0 38.4482 0 38.4482Z" transform="translate(266.022 26.5242)" fill="url(#paint42_linear)"/>
<path opacity="0.56" d="M104 92.1H7.7C3.5 92.1 0 88.7 0 84.4V7.7C0 3.5 3.4 0 7.7 0H104C108.2 0 111.7 3.4 111.7 7.7V84.4C111.7 88.6 108.3 92.1 104 92.1Z" transform="translate(0.62207 113.4)" fill="url(#paint43_linear)"/>
<path opacity="0.56" d="M104.2 7.5H7.5C3.4 7.5 0 4.1 0 0V0.300018C0 4.40002 3.4 7.80002 7.5 7.80002H104.2C108.3 7.80002 111.7 4.40002 111.7 0.300018V0C111.7 4.2 108.4 7.5 104.2 7.5Z" transform="translate(0.62207 197.6)" fill="url(#paint44_linear)"/>
<path d="M21.2 0H0V3.79999H21.2V0Z" transform="translate(14.3221 192.4)" fill="url(#paint45_linear)"/>
<path d="M9.7 0H0V3.79999H9.7V0Z" transform="translate(14.3221 136.9)" fill="url(#paint46_linear)"/>
<path d="M9.7 0H0V3.79999H9.7V0Z" transform="translate(14.3221 142.3)" fill="url(#paint47_linear)"/>
<path d="M9.7 0H0V0.700012H9.7V0Z" transform="translate(14.3221 147.7)" fill="url(#paint48_linear)"/>
<path d="M9.7 0H0V0.700012H9.7V0Z" transform="translate(14.3221 150.3)" fill="url(#paint49_linear)"/>
<path d="M9.7 0H0V0.699982H9.7V0Z" transform="translate(14.3221 152.9)" fill="url(#paint50_linear)"/>
<path d="M9.7 0H0V0.699982H9.7V0Z" transform="translate(14.3221 155.5)" fill="url(#paint51_linear)"/>
<path d="M9.7 0H0V0.700012H9.7V0Z" transform="translate(14.3221 158.2)" fill="url(#paint52_linear)"/>
<path d="M9.7 0H0V0.700012H9.7V0Z" transform="translate(14.3221 160.8)" fill="url(#paint53_linear)"/>
<path d="M9.7 0H0V0.699982H9.7V0Z" transform="translate(14.3221 163.4)" fill="url(#paint54_linear)"/>
<path d="M26.9 0H0V2.19998H26.9V0Z" transform="translate(68.8221 192.4)" fill="url(#paint55_linear)"/>
<path d="M9.5 0H0V2.20001H9.5V0Z" transform="translate(98.1221 137.7)" fill="url(#paint56_linear)"/>
<path d="M9.5 0H0V2.19998H9.5V0Z" transform="translate(98.1221 142)" fill="url(#paint57_linear)"/>
<path d="M9.5 0H0V2.20001H9.5V0Z" transform="translate(98.1221 146.6)" fill="url(#paint58_linear)"/>
<path d="M3.2 0H0V2.20001H3.2V0Z" transform="translate(98.1221 151.2)" fill="url(#paint59_linear)"/>
<path d="M3.2 0H0V2.20001H3.2V0Z" transform="translate(98.1221 156.2)" fill="url(#paint60_linear)"/>
<path d="M26.9 0H0V2.20001H26.9V0Z" transform="translate(68.8221 196.2)" fill="url(#paint61_linear)"/>
<path d="M26.9 0H0V2.20001H26.9V0Z" transform="translate(68.8221 200.1)" fill="url(#paint62_linear)"/>
<path d="M21.2 0H0V1.90002H21.2V0Z" transform="translate(14.3221 197.6)" fill="url(#paint63_linear)"/>
<path opacity="0.56" d="M104.2 0H7.5C3.4 0 0 3.4 0 7.5V16.8H111.7V7.5C111.7 3.4 108.4 0 104.2 0Z" transform="translate(0.62207 113.3)" fill="url(#paint64_linear)"/>
<path opacity="0.56" d="M3.6 7.2C5.58822 7.2 7.2 5.58822 7.2 3.59999C7.2 1.61177 5.58822 0 3.6 0C1.61177 0 0 1.61177 0 3.59999C0 5.58822 1.61177 7.2 3.6 7.2Z" transform="translate(27.4221 118.1)" fill="url(#paint65_linear)"/>
<path d="M2.2 4.40001C3.41502 4.40001 4.4 3.41502 4.4 2.2C4.4 0.98497 3.41502 0 2.2 0C0.98497 0 0 0.98497 0 2.2C0 3.41502 0.98497 4.40001 2.2 4.40001Z" transform="translate(28.8221 119.5)" fill="url(#paint66_linear)"/>
<path opacity="0.56" d="M3.6 7.2C5.58822 7.2 7.2 5.58822 7.2 3.59999C7.2 1.61177 5.58822 0 3.6 0C1.61177 0 0 1.61177 0 3.59999C0 5.58822 1.61177 7.2 3.6 7.2Z" transform="translate(17.2221 118.1)" fill="url(#paint67_linear)"/>
<path d="M2.2 4.40001C3.41502 4.40001 4.39999 3.41502 4.39999 2.2C4.39999 0.98497 3.41502 0 2.2 0C0.98497 0 0 0.98497 0 2.2C0 3.41502 0.98497 4.40001 2.2 4.40001Z" transform="translate(18.6221 119.5)" fill="url(#paint68_linear)"/>
<path opacity="0.56" d="M3.6 7.2C5.58822 7.2 7.2 5.58822 7.2 3.59999C7.2 1.61177 5.58822 0 3.6 0C1.61177 0 0 1.61177 0 3.59999C0 5.58822 1.61177 7.2 3.6 7.2Z" transform="translate(7.12207 118.1)" fill="url(#paint69_linear)"/>
<path d="M2.2 4.40001C3.41503 4.40001 4.4 3.41502 4.4 2.2C4.4 0.98497 3.41503 0 2.2 0C0.984978 0 0 0.98497 0 2.2C0 3.41502 0.984978 4.40001 2.2 4.40001Z" transform="translate(8.52206 119.5)" fill="url(#paint70_linear)"/>
<path d="M104.2 0H7.5C3.4 0 0 3.4 0 7.5V8.10001C0 4.00001 3.4 0.600006 7.5 0.600006H104.2C108.3 0.600006 111.7 4.00001 111.7 8.10001V7.5C111.7 3.4 108.4 0 104.2 0Z" transform="translate(0.62207 113.3)" fill="url(#paint71_linear)"/>
<path d="M111.7 0H0V0.300003H111.7V0Z" transform="translate(0.62207 130.1)" fill="url(#paint72_linear)"/>
<path d="M0 52.5H81.4V0" transform="translate(14.3221 137.7)" stroke="url(#paint73_linear)" stroke-width="0.25" stroke-miterlimit="10" stroke-linecap="round" stroke-linejoin="round"/>
<path d="M24.2 48.4C37.5653 48.4 48.4 37.5653 48.4 24.2C48.4 10.8347 37.5653 0 24.2 0C10.8347 0 0 10.8347 0 24.2C0 37.5653 10.8347 48.4 24.2 48.4Z" transform="translate(27.3221 137.6)" fill="url(#paint74_linear)"/>
<path d="M0 24.1C0 37.4 10.8 48.3 24.2 48.3V0C10.9 0 0 10.8 0 24.1Z" transform="translate(27.3221 137.7)" fill="url(#paint75_linear)"/>
<path d="M24.2 24.2V0H0C0 13.4 10.9 24.2 24.2 24.2Z" transform="translate(27.3221 161.8)" fill="url(#paint76_linear)"/>
<defs>
<linearGradient id="paint0_linear" x2="1" gradientUnits="userSpaceOnUse" gradientTransform="translate(189.685 -126.026) scale(299.336) rotate(63.5491)">
<stop stop-color="#7600C0" stop-opacity="0"/>
<stop offset="0.2084" stop-color="#6400A3" stop-opacity="0.2084"/>
<stop offset="0.6575" stop-color="#370059" stop-opacity="0.6575"/>
<stop offset="1" stop-color="#12001D"/>
</linearGradient>
<linearGradient id="paint1_linear" x2="1" gradientUnits="userSpaceOnUse" gradientTransform="translate(39.9894 121.284) scale(121.303) rotate(-90)">
<stop stop-color="#00BFAC"/>
<stop offset="0.2935" stop-color="#00BAA8" stop-opacity="0.7652"/>
<stop offset="0.6214" stop-color="#00AD9A" stop-opacity="0.5028"/>
<stop offset="0.9648" stop-color="#009785" stop-opacity="0.2282"/>
<stop offset="1" stop-color="#009482" stop-opacity="0.2"/>
</linearGradient>
<linearGradient id="paint2_linear" x2="1" gradientUnits="userSpaceOnUse" gradientTransform="translate(95.8098 9.6435) scale(9.6622) rotate(-90)">
<stop stop-color="#006A5F"/>
<stop offset="0.1746" stop-color="#008275"/>
<stop offset="0.7387" stop-color="#00CCB8"/>
<stop offset="1" stop-color="#00E9D2"/>
</linearGradient>
<linearGradient id="paint3_linear" x2="1" gradientUnits="userSpaceOnUse" gradientTransform="translate(39.9838 117.59) scale(117.514) rotate(-90)">
<stop stop-color="#002A23"/>
<stop offset="0.5133" stop-color="#004D42"/>
<stop offset="1" stop-color="#006A5C"/>
</linearGradient>
<linearGradient id="paint4_linear" x2="1" gradientUnits="userSpaceOnUse" gradientTransform="translate(41.3174 100.529) scale(105.447) rotate(-90)">
<stop stop-color="#009471"/>
<stop offset="0.1853" stop-color="#009B78"/>
<stop offset="0.4636" stop-color="#00B08D"/>
<stop offset="0.7987" stop-color="#00D1AE"/>
<stop offset="1" stop-color="#00E9C5"/>
</linearGradient>
<linearGradient id="paint5_linear" x2="1" gradientUnits="userSpaceOnUse" gradientTransform="translate(0.0305 -98.4832) scale(197.313 197.31)">
<stop stop-color="#003D3F"/>
<stop offset="0.1381" stop-color="#004443"/>
<stop offset="0.3456" stop-color="#005950"/>
<stop offset="0.5968" stop-color="#007B64"/>
<stop offset="0.8799" stop-color="#00A97F"/>
<stop offset="1" stop-color="#00BF8C"/>
</linearGradient>
<linearGradient id="paint6_linear" x2="1" gradientUnits="userSpaceOnUse" gradientTransform="translate(0.0305074 -73.1905) scale(239.04)">
<stop stop-color="#006A5F"/>
<stop offset="0.3017" stop-color="#007165"/>
<stop offset="0.7537" stop-color="#008676"/>
<stop offset="1" stop-color="#009482"/>
</linearGradient>
<linearGradient id="paint7_linear" x2="1" gradientUnits="userSpaceOnUse" gradientTransform="translate(-0.0104756 -116.083) scale(239.036 239.036)">
<stop stop-color="#00AAA2"/>
<stop offset="0.1853" stop-color="#04B1A5"/>
<stop offset="0.4636" stop-color="#0EC6AC"/>
<stop offset="0.7987" stop-color="#1EE7B8"/>
<stop offset="1" stop-color="#2AFFC0"/>
</linearGradient>
<linearGradient id="paint8_linear" x2="1" gradientUnits="userSpaceOnUse" gradientTransform="translate(163.517 0.3592) scale(87.934) rotate(90)">
<stop stop-color="#00AA94"/>
<stop offset="0.4873" stop-color="#00B19B"/>
<stop offset="1" stop-color="#00BFA7"/>
</linearGradient>
<linearGradient id="paint9_linear" x2="1" gradientUnits="userSpaceOnUse" gradientTransform="translate(-71.7636 45.5886) scale(218.731) rotate(-37.1647)">
<stop stop-color="#002A23" stop-opacity="0"/>
<stop offset="0.1257" stop-color="#003129" stop-opacity="0.1257"/>
<stop offset="0.3146" stop-color="#004639" stop-opacity="0.3146"/>
<stop offset="0.5432" stop-color="#006853" stop-opacity="0.5432"/>
<stop offset="0.8006" stop-color="#009677" stop-opacity="0.8006"/>
<stop offset="1" stop-color="#00BF97"/>
</linearGradient>
<linearGradient id="paint10_linear" x2="1" gradientUnits="userSpaceOnUse" gradientTransform="translate(-0.0321471 -114.806) scale(239.04 239.04)">
<stop stop-color="#007F64"/>
<stop offset="0.1396" stop-color="#018669"/>
<stop offset="0.3493" stop-color="#059B75"/>
<stop offset="0.6032" stop-color="#0ABD8A"/>
<stop offset="0.8893" stop-color="#12EBA7"/>
<stop offset="1" stop-color="#15FFB3"/>
</linearGradient>
<linearGradient id="paint11_linear" x2="1" gradientUnits="userSpaceOnUse" gradientTransform="translate(24.4706 30.3006) scale(33.0015) rotate(-90)">
<stop offset="0.000538194" stop-color="#00AA7C" stop-opacity="0"/>
<stop offset="0.4389" stop-color="#00AA7F" stop-opacity="0.4386"/>
<stop offset="0.7774" stop-color="#00AA89" stop-opacity="0.7773"/>
<stop offset="1" stop-color="#00AA94"/>
</linearGradient>
<linearGradient id="paint12_linear" x2="1" gradientUnits="userSpaceOnUse" gradientTransform="translate(-0.001 -38.1161) scale(81.9448 81.9445)">
<stop offset="0.000538194" stop-color="#00AA7C" stop-opacity="0"/>
<stop offset="0.2643" stop-color="#00A77A" stop-opacity="0.2639"/>
<stop offset="0.4683" stop-color="#009D74" stop-opacity="0.468"/>
<stop offset="0.6522" stop-color="#008D6A" stop-opacity="0.652"/>
<stop offset="0.8243" stop-color="#00755B" stop-opacity="0.8242"/>
<stop offset="0.9868" stop-color="#005849" stop-opacity="0.9867"/>
<stop offset="1" stop-color="#005547"/>
</linearGradient>
<linearGradient id="paint13_linear" x2="1" gradientUnits="userSpaceOnUse" gradientTransform="translate(-0.0093 -40.1451) scale(81.0047 81.0026)">
<stop stop-color="#006A39"/>
<stop offset="0.1257" stop-color="#037140"/>
<stop offset="0.3146" stop-color="#0C8652"/>
<stop offset="0.5432" stop-color="#1AA86F"/>
<stop offset="0.8006" stop-color="#2ED698"/>
<stop offset="1" stop-color="#3FFFBC"/>
</linearGradient>
<linearGradient id="paint14_linear" x2="1" gradientUnits="userSpaceOnUse" gradientTransform="translate(0.0379 -37.8593) scale(76.326 76.3268)">
<stop stop-color="#006A45"/>
<stop offset="0.1257" stop-color="#02714B"/>
<stop offset="0.3146" stop-color="#08865D"/>
<stop offset="0.5432" stop-color="#11A87A"/>
<stop offset="0.8006" stop-color="#1ED6A3"/>
<stop offset="1" stop-color="#2AFFC6"/>
</linearGradient>
<linearGradient id="paint15_linear" x2="1" gradientUnits="userSpaceOnUse" gradientTransform="translate(71.0833 41.9005) scale(41.9805) rotate(-90)">
<stop offset="0.000538194" stop-color="#00D4A2" stop-opacity="0"/>
<stop offset="0.463" stop-color="#00D1A2" stop-opacity="0.4627"/>
<stop offset="0.8202" stop-color="#00C7A1" stop-opacity="0.8201"/>
<stop offset="1" stop-color="#00BFA1"/>
</linearGradient>
<linearGradient id="paint16_linear" x2="1" gradientUnits="userSpaceOnUse" gradientTransform="translate(0.0192 -81.0791) scale(163.006 163.011)">
<stop stop-color="#006A59"/>
<stop offset="0.159" stop-color="#00715E"/>
<stop offset="0.3979" stop-color="#00866B"/>
<stop offset="0.6871" stop-color="#00A880"/>
<stop offset="1" stop-color="#00D49C"/>
</linearGradient>
<linearGradient id="paint17_linear" x2="1" gradientUnits="userSpaceOnUse" gradientTransform="translate(-0.0220741 -91.4459) scale(190.476 190.477)">
<stop offset="0.000538194" stop-color="#005540" stop-opacity="0"/>
<stop offset="0.2401" stop-color="#005843" stop-opacity="0.2397"/>
<stop offset="0.4254" stop-color="#00624D" stop-opacity="0.4251"/>
<stop offset="0.5924" stop-color="#00725D" stop-opacity="0.5922"/>
<stop offset="0.7488" stop-color="#008975" stop-opacity="0.7487"/>
<stop offset="0.8963" stop-color="#00A692" stop-opacity="0.8963"/>
<stop offset="1" stop-color="#00BFAC"/>
</linearGradient>
<linearGradient id="paint18_linear" x2="1" gradientUnits="userSpaceOnUse" gradientTransform="translate(-0.0176 -93.3261) scale(187.528 187.526)">
<stop stop-color="#00554C"/>
<stop offset="0.1148" stop-color="#025C52"/>
<stop offset="0.2872" stop-color="#077161"/>
<stop offset="0.496" stop-color="#0F937A"/>
<stop offset="0.7331" stop-color="#1BC29E"/>
<stop offset="0.9912" stop-color="#29FDCA"/>
<stop offset="1" stop-color="#2AFFCC"/>
</linearGradient>
<linearGradient id="paint19_linear" x2="1" gradientUnits="userSpaceOnUse" gradientTransform="matrix(44.7535 -52.9916 53.6375 44.7696 -12.1938 19.4199)">
<stop stop-color="#007F4F"/>
<stop offset="0.1531" stop-color="#008656"/>
<stop offset="0.3831" stop-color="#009A6B"/>
<stop offset="0.6615" stop-color="#00B98D"/>
<stop offset="0.9754" stop-color="#00E5BB"/>
<stop offset="1" stop-color="#00E9BF"/>
</linearGradient>
<linearGradient id="paint20_linear" x2="1" gradientUnits="userSpaceOnUse" gradientTransform="translate(2.29413 26.9651) scale(26.9544) rotate(-90)">
<stop stop-color="#005540"/>
<stop offset="1" stop-color="#00BF91"/>
</linearGradient>
<linearGradient id="paint21_linear" x2="1" gradientUnits="userSpaceOnUse" gradientTransform="translate(13.367 4.7194) scale(4.8087) rotate(-90)">
<stop stop-color="#007F4B"/>
<stop offset="0.1396" stop-color="#028651"/>
<stop offset="0.3493" stop-color="#099B61"/>
<stop offset="0.6032" stop-color="#14BD7B"/>
<stop offset="0.8893" stop-color="#23EB9F"/>
<stop offset="1" stop-color="#2AFFAE"/>
</linearGradient>
<linearGradient id="paint22_linear" x2="1" gradientUnits="userSpaceOnUse" gradientTransform="translate(-1.84668 14.0093) scale(14.0262) rotate(-90)">
<stop stop-color="#007F41"/>
<stop offset="0.2445" stop-color="#009555" stop-opacity="0.8525"/>
<stop offset="0.7492" stop-color="#00CC8A" stop-opacity="0.5479"/>
<stop offset="0.9943" stop-color="#00E9A5" stop-opacity="0.4"/>
</linearGradient>
<linearGradient id="paint23_linear" x2="1" gradientUnits="userSpaceOnUse" gradientTransform="translate(2.73436 4.74699) scale(4.8639) rotate(-90)">
<stop stop-color="#00946D"/>
<stop offset="0.158" stop-color="#039B73"/>
<stop offset="0.3954" stop-color="#0BB083"/>
<stop offset="0.6827" stop-color="#18D29D"/>
<stop offset="1" stop-color="#2AFFC0"/>
</linearGradient>
<linearGradient id="paint24_linear" x2="1" gradientUnits="userSpaceOnUse" gradientTransform="translate(-0.471382 25.9143) scale(26.5534) rotate(-90)">
<stop stop-color="#007F61"/>
<stop offset="0.9957" stop-color="#2AFFA9" stop-opacity="0.2"/>
</linearGradient>
<linearGradient id="paint25_linear" x2="1" gradientUnits="userSpaceOnUse" gradientTransform="translate(6.36727 12.8694) scale(12.8761) rotate(-90)">
<stop stop-color="#00AA69"/>
<stop offset="0.1853" stop-color="#04B170"/>
<stop offset="0.4636" stop-color="#0EC684"/>
<stop offset="0.7987" stop-color="#1EE7A4"/>
<stop offset="1" stop-color="#2AFFBA"/>
</linearGradient>
<linearGradient id="paint26_linear" x2="1" gradientUnits="userSpaceOnUse" gradientTransform="translate(-5.32187 11.0293) scale(10.9389 10.9391) rotate(-90)">
<stop stop-color="#00AA69"/>
<stop offset="0.1853" stop-color="#04B170"/>
<stop offset="0.4636" stop-color="#0EC684"/>
<stop offset="0.7987" stop-color="#1EE7A4"/>
<stop offset="1" stop-color="#2AFFBA"/>
</linearGradient>
<linearGradient id="paint27_linear" x2="1" gradientUnits="userSpaceOnUse" gradientTransform="translate(-5.35583 10.9275) scale(10.9665 10.9658) rotate(-90)">
<stop stop-color="#00AA69"/>
<stop offset="0.1853" stop-color="#04B170"/>
<stop offset="0.4636" stop-color="#0EC684"/>
<stop offset="0.7987" stop-color="#1EE7A4"/>
<stop offset="1" stop-color="#2AFFBA"/>
</linearGradient>
<linearGradient id="paint28_linear" x2="1" gradientUnits="userSpaceOnUse" gradientTransform="translate(-45.7797 46.7927) scale(159.999) rotate(-49.817)">
<stop stop-color="#007F61"/>
<stop offset="0.202" stop-color="#008568"/>
<stop offset="0.5055" stop-color="#00977D"/>
<stop offset="0.871" stop-color="#00B39E"/>
<stop offset="1" stop-color="#00BFAC"/>
</linearGradient>
<linearGradient id="paint29_linear" x2="1" gradientUnits="userSpaceOnUse" gradientTransform="translate(-3.1483 5.1876) scale(97.6105) rotate(-49.817)">
<stop stop-color="#6B28E9"/>
<stop offset="0.1795" stop-color="#7226EA"/>
<stop offset="0.4491" stop-color="#8722EC"/>
<stop offset="0.7737" stop-color="#A81BF1"/>
<stop offset="1" stop-color="#C415F4"/>
</linearGradient>
<linearGradient id="paint30_linear" x2="1" gradientUnits="userSpaceOnUse" gradientTransform="translate(-2.397 3.08966) scale(38.2231) rotate(-49.8171)">
<stop stop-color="#005537"/>
<stop offset="0.1884" stop-color="#005B3E"/>
<stop offset="0.4712" stop-color="#006A53"/>
<stop offset="0.812" stop-color="#008474"/>
<stop offset="1" stop-color="#00948A"/>
</linearGradient>
<linearGradient id="paint31_linear" x2="1" gradientUnits="userSpaceOnUse" gradientTransform="translate(-1.37915 2.19535) scale(36.7392) rotate(-49.817)">
<stop stop-color="#005537"/>
<stop offset="0.1884" stop-color="#005B3E"/>
<stop offset="0.4712" stop-color="#006A53"/>
<stop offset="0.812" stop-color="#008474"/>
<stop offset="1" stop-color="#00948A"/>
</linearGradient>
<linearGradient id="paint32_linear" x2="1" gradientUnits="userSpaceOnUse" gradientTransform="translate(-7.59605 13.2847) scale(104.566) rotate(-49.817)">
<stop offset="0.00460069" stop-color="#00BF81"/>
<stop offset="0.0324288" stop-color="#00BC80"/>
<stop offset="0.4386" stop-color="#009B6F"/>
<stop offset="0.7756" stop-color="#008665"/>
<stop offset="1" stop-color="#007F61"/>
</linearGradient>
<linearGradient id="paint33_linear" x2="1" gradientUnits="userSpaceOnUse" gradientTransform="translate(-1.90285 3.44945) scale(7.42098) rotate(-49.8165)">
<stop offset="0.00460069" stop-color="#00AA86"/>
<stop offset="0.0324288" stop-color="#00A784"/>
<stop offset="0.4386" stop-color="#008670"/>
<stop offset="0.7756" stop-color="#007164"/>
<stop offset="1" stop-color="#006A5F"/>
</linearGradient>
<linearGradient id="paint34_linear" x2="1" gradientUnits="userSpaceOnUse" gradientTransform="translate(-1.1409 2.0376) scale(4.41492) rotate(-49.8179)">
<stop stop-color="#00AA86"/>
<stop offset="1" stop-color="#00E998"/>
</linearGradient>
<linearGradient id="paint35_linear" x2="1" gradientUnits="userSpaceOnUse" gradientTransform="translate(-1.93445 3.4495) scale(7.42092) rotate(-49.8171)">
<stop offset="0.00460069" stop-color="#00AA86"/>
<stop offset="0.0324288" stop-color="#00A784"/>
<stop offset="0.4386" stop-color="#008670"/>
<stop offset="0.7756" stop-color="#007164"/>
<stop offset="1" stop-color="#006A5F"/>
</linearGradient>
<linearGradient id="paint36_linear" x2="1" gradientUnits="userSpaceOnUse" gradientTransform="translate(-1.1726 2.0376) scale(4.41492) rotate(-49.8179)">
<stop stop-color="#00AA86"/>
<stop offset="1" stop-color="#00E998"/>
</linearGradient>
<linearGradient id="paint37_linear" x2="1" gradientUnits="userSpaceOnUse" gradientTransform="translate(-1.86616 3.4495) scale(7.42095) rotate(-49.8171)">
<stop offset="0.00460069" stop-color="#00AA86"/>
<stop offset="0.0324288" stop-color="#00A784"/>
<stop offset="0.4386" stop-color="#008670"/>
<stop offset="0.7756" stop-color="#007164"/>
<stop offset="1" stop-color="#006A5F"/>
</linearGradient>
<linearGradient id="paint38_linear" x2="1" gradientUnits="userSpaceOnUse" gradientTransform="translate(-1.1043 2.0376) scale(4.41492) rotate(-49.8179)">
<stop stop-color="#00AA86"/>
<stop offset="1" stop-color="#00E998"/>
</linearGradient>
<linearGradient id="paint39_linear" x2="1" gradientUnits="userSpaceOnUse" gradientTransform="translate(-2.96515 9.1748) scale(97.8146) rotate(-49.817)">
<stop stop-color="#00AA86" stop-opacity="0.5"/>
<stop offset="0.432" stop-color="#00A37F" stop-opacity="0.716"/>
<stop offset="1" stop-color="#00946D"/>
</linearGradient>
<linearGradient id="paint40_linear" x2="1" gradientUnits="userSpaceOnUse" gradientTransform="translate(-1.02425 3.70569) scale(94.8951 94.8937) rotate(-49.817)">
<stop stop-color="#00BF91"/>
<stop offset="1" stop-color="#006A4B"/>
</linearGradient>
<linearGradient id="paint41_linear" x2="1" gradientUnits="userSpaceOnUse" gradientTransform="translate(-9.2507 39.1032) scale(101.218) rotate(-49.817)">
<stop stop-color="#007F64"/>
<stop offset="0.2584" stop-color="#008E72"/>
<stop offset="0.7031" stop-color="#00A384"/>
<stop offset="1" stop-color="#00AA8B"/>
</linearGradient>
<linearGradient id="paint42_linear" x2="1" gradientUnits="userSpaceOnUse" gradientTransform="translate(-11.4013 32.6864) scale(85.8551) rotate(-49.817)">
<stop stop-color="#005537"/>
<stop offset="0.1884" stop-color="#005B3E"/>
<stop offset="0.4712" stop-color="#006A53"/>
<stop offset="0.812" stop-color="#008474"/>
<stop offset="1" stop-color="#00948A"/>
</linearGradient>
<linearGradient id="paint43_linear" x2="1" gradientUnits="userSpaceOnUse" gradientTransform="translate(-51.0718 51.8082) scale(155.906) rotate(-49.817)">
<stop stop-color="#00AA86"/>
<stop offset="0.1853" stop-color="#04B18B"/>
<stop offset="0.4636" stop-color="#0EC699"/>
<stop offset="0.7987" stop-color="#1EE7B0"/>
<stop offset="1" stop-color="#2AFFC0"/>
</linearGradient>
<linearGradient id="paint44_linear" x2="1" gradientUnits="userSpaceOnUse" gradientTransform="translate(-3.2062 4.98611) scale(85.8572 85.8574) rotate(-49.817)">
<stop stop-color="#007F68"/>
<stop offset="0.1853" stop-color="#00866E"/>
<stop offset="0.4636" stop-color="#009B7D"/>
<stop offset="0.7987" stop-color="#00BC96"/>
<stop offset="1" stop-color="#00D4A8"/>
</linearGradient>
<linearGradient id="paint45_linear" x2="1" gradientUnits="userSpaceOnUse" gradientTransform="translate(-2.43815 2.64549) scale(18.9985) rotate(-49.8172)">
<stop stop-color="#005547"/>
<stop offset="0.1853" stop-color="#005C4C"/>
<stop offset="0.4636" stop-color="#00715A"/>
<stop offset="0.7987" stop-color="#009271"/>
<stop offset="1" stop-color="#00AA81"/>
</linearGradient>
<linearGradient id="paint46_linear" x2="1" gradientUnits="userSpaceOnUse" gradientTransform="translate(-2.3597 2.26999) scale(10.4999) rotate(-49.8173)">
<stop offset="0.00109375" stop-color="#007F53" stop-opacity="0"/>
<stop offset="0.671" stop-color="#00D892" stop-opacity="0.6706"/>
<stop offset="1" stop-color="#00FFAD"/>
</linearGradient>
<linearGradient id="paint47_linear" x2="1" gradientUnits="userSpaceOnUse" gradientTransform="translate(-2.35965 2.28569) scale(10.4998) rotate(-49.8169)">
<stop offset="0.00109375" stop-color="#007F53" stop-opacity="0"/>
<stop offset="0.671" stop-color="#00D892" stop-opacity="0.6706"/>
<stop offset="1" stop-color="#00FFAD"/>
</linearGradient>
<linearGradient id="paint48_linear" x2="1" gradientUnits="userSpaceOnUse" gradientTransform="translate(-0.4706 0.616811) scale(7.74571 7.74584) rotate(-49.8167)">
<stop offset="0.00109375" stop-color="#007F53" stop-opacity="0"/>
<stop offset="0.671" stop-color="#00D892" stop-opacity="0.6706"/>
<stop offset="1" stop-color="#00FFAD"/>
</linearGradient>
<linearGradient id="paint49_linear" x2="1" gradientUnits="userSpaceOnUse" gradientTransform="translate(-0.47065 0.634911) scale(7.74578 7.74592) rotate(-49.8172)">
<stop offset="0.00109375" stop-color="#007F53" stop-opacity="0"/>
<stop offset="0.671" stop-color="#00D892" stop-opacity="0.6706"/>
<stop offset="1" stop-color="#00FFAD"/>
</linearGradient>
<linearGradient id="paint50_linear" x2="1" gradientUnits="userSpaceOnUse" gradientTransform="translate(-0.4706 0.652883) scale(7.74571 7.74551) rotate(-49.8167)">
<stop offset="0.00109375" stop-color="#007F53" stop-opacity="0"/>
<stop offset="0.671" stop-color="#00D892" stop-opacity="0.6706"/>
<stop offset="1" stop-color="#00FFAD"/>
</linearGradient>
<linearGradient id="paint51_linear" x2="1" gradientUnits="userSpaceOnUse" gradientTransform="translate(-0.47065 0.670982) scale(7.74578 7.74558) rotate(-49.8172)">
<stop offset="0.00109375" stop-color="#007F53" stop-opacity="0"/>
<stop offset="0.671" stop-color="#00D892" stop-opacity="0.6706"/>
<stop offset="1" stop-color="#00FFAD"/>
</linearGradient>
<linearGradient id="paint52_linear" x2="1" gradientUnits="userSpaceOnUse" gradientTransform="translate(-0.4706 0.58901) scale(7.74571 7.74584) rotate(-49.8167)">
<stop offset="0.00109375" stop-color="#007F53" stop-opacity="0"/>
<stop offset="0.671" stop-color="#00D892" stop-opacity="0.6706"/>
<stop offset="1" stop-color="#00FFAD"/>
</linearGradient>
<linearGradient id="paint53_linear" x2="1" gradientUnits="userSpaceOnUse" gradientTransform="translate(-0.47065 0.607111) scale(7.74578 7.74592) rotate(-49.8172)">
<stop offset="0.00109375" stop-color="#007F53" stop-opacity="0"/>
<stop offset="0.671" stop-color="#00D892" stop-opacity="0.6706"/>
<stop offset="1" stop-color="#00FFAD"/>
</linearGradient>
<linearGradient id="paint54_linear" x2="1" gradientUnits="userSpaceOnUse" gradientTransform="translate(-0.4706 0.625084) scale(7.74571 7.74551) rotate(-49.8167)">
<stop offset="0.00109375" stop-color="#007F53" stop-opacity="0"/>
<stop offset="0.671" stop-color="#00D892" stop-opacity="0.6706"/>
<stop offset="1" stop-color="#00FFAD"/>
</linearGradient>
<linearGradient id="paint55_linear" x2="1" gradientUnits="userSpaceOnUse" gradientTransform="translate(-1.49455 1.95913) scale(21.8029 21.8027) rotate(-49.8169)">
<stop stop-color="#005547"/>
<stop offset="0.1853" stop-color="#005C4C"/>
<stop offset="0.4636" stop-color="#00715A"/>
<stop offset="0.7987" stop-color="#009271"/>
<stop offset="1" stop-color="#00AA81"/>
</linearGradient>
<linearGradient id="paint56_linear" x2="1" gradientUnits="userSpaceOnUse" gradientTransform="translate(-1.4054 1.41396) scale(8.99485) rotate(-49.8175)">
<stop stop-color="#005547"/>
<stop offset="0.1853" stop-color="#005C4C"/>
<stop offset="0.4636" stop-color="#00715A"/>
<stop offset="0.7987" stop-color="#009271"/>
<stop offset="1" stop-color="#00AA81"/>
</linearGradient>
<linearGradient id="paint57_linear" x2="1" gradientUnits="userSpaceOnUse" gradientTransform="translate(-1.4054 1.41094) scale(8.99485) rotate(-49.8175)">
<stop stop-color="#005547"/>
<stop offset="0.1853" stop-color="#005C4C"/>
<stop offset="0.4636" stop-color="#00715A"/>
<stop offset="0.7987" stop-color="#009271"/>
<stop offset="1" stop-color="#00AA81"/>
</linearGradient>
<linearGradient id="paint58_linear" x2="1" gradientUnits="userSpaceOnUse" gradientTransform="translate(-1.40535 1.42786) scale(8.99477) rotate(-49.8171)">
<stop stop-color="#005547"/>
<stop offset="0.1853" stop-color="#005C4C"/>
<stop offset="0.4636" stop-color="#00715A"/>
<stop offset="0.7987" stop-color="#009271"/>
<stop offset="1" stop-color="#00AA81"/>
</linearGradient>
<linearGradient id="paint59_linear" x2="1" gradientUnits="userSpaceOnUse" gradientTransform="translate(-1.3625 1.27161) scale(4.34538) rotate(-49.8166)">
<stop stop-color="#005547"/>
<stop offset="0.1853" stop-color="#005C4C"/>
<stop offset="0.4636" stop-color="#00715A"/>
<stop offset="0.7987" stop-color="#009271"/>
<stop offset="1" stop-color="#00AA81"/>
</linearGradient>
<linearGradient id="paint60_linear" x2="1" gradientUnits="userSpaceOnUse" gradientTransform="translate(-1.3625 1.24501) scale(4.34538) rotate(-49.8166)">
<stop stop-color="#005547"/>
<stop offset="0.1853" stop-color="#005C4C"/>
<stop offset="0.4636" stop-color="#00715A"/>
<stop offset="0.7987" stop-color="#009271"/>
<stop offset="1" stop-color="#00AA81"/>
</linearGradient>
<linearGradient id="paint61_linear" x2="1" gradientUnits="userSpaceOnUse" gradientTransform="translate(-1.4945 1.97806) scale(21.8028 21.8029) rotate(-49.8168)">
<stop stop-color="#005547"/>
<stop offset="0.1853" stop-color="#005C4C"/>
<stop offset="0.4636" stop-color="#00715A"/>
<stop offset="0.7987" stop-color="#009271"/>
<stop offset="1" stop-color="#00AA81"/>
</linearGradient>
<linearGradient id="paint62_linear" x2="1" gradientUnits="userSpaceOnUse" gradientTransform="translate(-1.49455 1.89706) scale(21.8029 21.803) rotate(-49.8169)">
<stop stop-color="#005547"/>
<stop offset="0.1853" stop-color="#005C4C"/>
<stop offset="0.4636" stop-color="#00715A"/>
<stop offset="0.7987" stop-color="#009271"/>
<stop offset="1" stop-color="#00AA81"/>
</linearGradient>
<linearGradient id="paint63_linear" x2="1" gradientUnits="userSpaceOnUse" gradientTransform="translate(-1.2923 1.61747) scale(17.328 17.3282) rotate(-49.8172)">
<stop stop-color="#005547"/>
<stop offset="0.1853" stop-color="#005C4C"/>
<stop offset="0.4636" stop-color="#00715A"/>
<stop offset="0.7987" stop-color="#009271"/>
<stop offset="1" stop-color="#00AA81"/>
</linearGradient>
<linearGradient id="paint64_linear" x2="1" gradientUnits="userSpaceOnUse" gradientTransform="translate(-8.2135 14.0791) scale(93.6877) rotate(-49.817)">
<stop offset="0.00460069" stop-color="#00E9D9"/>
<stop offset="0.1918" stop-color="#00D9C3"/>
<stop offset="0.5309" stop-color="#00BFA2"/>
<stop offset="0.8125" stop-color="#00B08D"/>
<stop offset="1" stop-color="#00AA86"/>
</linearGradient>
<linearGradient id="paint65_linear" x2="1" gradientUnits="userSpaceOnUse" gradientTransform="translate(-2.1443 3.94265) scale(8.35463) rotate(-49.8167)">
<stop offset="0.00460069" stop-color="#00AA99"/>
<stop offset="0.2299" stop-color="#00907D"/>
<stop offset="0.5529" stop-color="#00705C"/>
<stop offset="0.8213" stop-color="#005C47"/>
<stop offset="1" stop-color="#005540"/>
</linearGradient>
<linearGradient id="paint66_linear" x2="1" gradientUnits="userSpaceOnUse" gradientTransform="translate(-1.22295 2.4166) scale(4.97035) rotate(-49.8173)">
<stop stop-color="#00E9CC"/>
<stop offset="0.0384277" stop-color="#00E6C8"/>
<stop offset="0.442" stop-color="#00C5A7"/>
<stop offset="0.777" stop-color="#00B192"/>
<stop offset="1" stop-color="#00AA8B"/>
</linearGradient>
<linearGradient id="paint67_linear" x2="1" gradientUnits="userSpaceOnUse" gradientTransform="translate(-2.1122 3.9427) scale(8.35456) rotate(-49.8172)">
<stop offset="0.00460069" stop-color="#00AA99"/>
<stop offset="0.2299" stop-color="#00907D"/>
<stop offset="0.5529" stop-color="#00705C"/>
<stop offset="0.8213" stop-color="#005C47"/>
<stop offset="1" stop-color="#005540"/>
</linearGradient>
<linearGradient id="paint68_linear" x2="1" gradientUnits="userSpaceOnUse" gradientTransform="translate(-1.19095 2.41655) scale(4.9704) rotate(-49.8164)">
<stop stop-color="#00E9CC"/>
<stop offset="0.0384277" stop-color="#00E6C8"/>
<stop offset="0.442" stop-color="#00C5A7"/>
<stop offset="0.777" stop-color="#00B192"/>
<stop offset="1" stop-color="#00AA8B"/>
</linearGradient>
<linearGradient id="paint69_linear" x2="1" gradientUnits="userSpaceOnUse" gradientTransform="translate(-2.1801 3.9427) scale(8.35456) rotate(-49.8172)">
<stop offset="0.00460069" stop-color="#00AA99"/>
<stop offset="0.2299" stop-color="#00907D"/>
<stop offset="0.5529" stop-color="#00705C"/>
<stop offset="0.8213" stop-color="#005C47"/>
<stop offset="1" stop-color="#005540"/>
</linearGradient>
<linearGradient id="paint70_linear" x2="1" gradientUnits="userSpaceOnUse" gradientTransform="translate(-1.25885 2.4166) scale(4.97035) rotate(-49.8173)">
<stop stop-color="#00E9CC"/>
<stop offset="0.0384277" stop-color="#00E6C8"/>
<stop offset="0.442" stop-color="#00C5A7"/>
<stop offset="0.777" stop-color="#00B192"/>
<stop offset="1" stop-color="#00AA8B"/>
</linearGradient>
<linearGradient id="paint71_linear" x2="1" gradientUnits="userSpaceOnUse" gradientTransform="translate(-3.00005 9.45211) scale(86.0869) rotate(-49.817)">
<stop stop-color="#006A5C" stop-opacity="0.5"/>
<stop offset="0.1853" stop-color="#00715F" stop-opacity="0.5926"/>
<stop offset="0.4636" stop-color="#008668" stop-opacity="0.7318"/>
<stop offset="0.7987" stop-color="#00A777" stop-opacity="0.8993"/>
<stop offset="1" stop-color="#00BF81"/>
</linearGradient>
<linearGradient id="paint72_linear" x2="1" gradientUnits="userSpaceOnUse" gradientTransform="translate(-0.92745 3.26948) scale(82.8002 82.8011) rotate(-49.817)">
<stop stop-color="#00FFD0"/>
<stop offset="0.2584" stop-color="#00F7C1"/>
<stop offset="0.7031" stop-color="#00EDAC"/>
<stop offset="1" stop-color="#00E9A5"/>
</linearGradient>
<linearGradient id="paint73_linear" x2="1" gradientUnits="userSpaceOnUse" gradientTransform="translate(-11.8292 42.7102) scale(92.9331) rotate(-49.817)">
<stop stop-color="#00E99E"/>
<stop offset="0.2463" stop-color="#00DB98"/>
<stop offset="0.6983" stop-color="#00C68F"/>
<stop offset="1" stop-color="#00BF8C"/>
</linearGradient>
<linearGradient id="paint74_linear" x2="1" gradientUnits="userSpaceOnUse" gradientTransform="translate(-13.7599 26.287) scale(55.3477) rotate(-49.8169)">
<stop stop-color="#005547"/>
<stop offset="0.1853" stop-color="#005C4C"/>
<stop offset="0.4636" stop-color="#00715A"/>
<stop offset="0.7987" stop-color="#009271"/>
<stop offset="1" stop-color="#00AA81"/>
</linearGradient>
<linearGradient id="paint75_linear" x2="1" gradientUnits="userSpaceOnUse" gradientTransform="translate(-14.3948 25.3566) scale(48.8158) rotate(-49.817)">
<stop stop-color="#005547"/>
<stop offset="0.1853" stop-color="#005C4C"/>
<stop offset="0.4636" stop-color="#00715A"/>
<stop offset="0.7987" stop-color="#009271"/>
<stop offset="1" stop-color="#00AA81"/>
</linearGradient>
<linearGradient id="paint76_linear" x2="1" gradientUnits="userSpaceOnUse" gradientTransform="translate(-35.0659 18.9449) scale(63.2784) rotate(-49.817)">
<stop stop-color="#005547"/>
<stop offset="0.1853" stop-color="#005C4C"/>
<stop offset="0.4636" stop-color="#00715A"/>
<stop offset="0.7987" stop-color="#009271"/>
<stop offset="1" stop-color="#00AA81"/>
</linearGradient>
</defs>
</svg>
