<svg width="333" height="279" fill="none" xmlns="http://www.w3.org/2000/svg"><path d="M208.289 0h-7.1l-92.5 92.5h11.5l91.9-91.9c-1.2-.4-2.5-.6-3.8-.6zm-129.3.2L2.59 76.6l-2.3 8c-1.3 4.4 1.9 8.1 7.2 8.1l79.9-.1L179.89.1 78.99.2zm138.7 7.1l-85.3 85.3h5.1l81.3-81.3-1.1-4z" transform="translate(62.133 183.1)" fill="url(#paint0_linear)"/><path fill-rule="evenodd" clip-rule="evenodd" d="M191.9 121.3H9.4c-5.2 0-9.4-4.2-9.4-9.4V9.4C0 4.2 4.2 0 9.4 0h182.5c5.2 0 9.4 4.2 9.4 9.4v102.5c0 5.2-4.2 9.4-9.4 9.4z" transform="translate(81.022 62.1)" fill="url(#paint1_linear)"/><path fill-rule="evenodd" clip-rule="evenodd" d="M191.9 0H9.4C4.2 0 0 4.2 0 9.4v.3C0 4.5 4.2.3 9.4.3h182.5c5.2 0 9.4 4.2 9.4 9.4v-.3c0-5.2-4.2-9.4-9.4-9.4z" transform="translate(81.022 62.1)" fill="url(#paint2_linear)"/><path d="M189.8.1c4.2 0 7.7 3.4 7.7 7.7v102.1c0 4.2-3.4 7.7-7.7 7.7H7.7c-4.2 0-7.7-3.4-7.7-7.7V7.7C0 3.5 3.4 0 7.7 0h182.1" transform="translate(82.922 63.9)" fill="url(#paint3_linear)"/><path opacity=".56" d="M188 0H0v100.5h188V0z" transform="translate(87.622 69.8)" fill="url(#paint4_linear)"/><path d="M188 0H0v.2h188V0z" transform="translate(87.622 69.8)" fill="url(#paint5_linear)"/><path opacity=".39" d="M231.552 92.3l-224.1.4c-5.2 0-8.4-3.7-7.2-8.1l22.4-79.1c.8-2.9 4.8-5.2 8.9-5.2l176.6-.3c4.1 0 8.1 2.3 8.9 5.2l21.7 79c1.3 4.4-1.9 8.1-7.2 8.1z" transform="translate(62.17 186)" fill="url(#paint6_linear)"/><path d="M231.509 6.3l-224.1.4C2.91 6.7-.09 4 .01.4c-.2 3.7 2.8 6.5 7.4 6.5l224.1-.4c4.6 0 7.6-2.8 7.5-6.5.1 3.6-3 6.3-7.5 6.3z" transform="translate(62.213 271.8)" fill="url(#paint7_linear)"/><path opacity=".56" d="M231.552 92.4l-224.1.3c-5.2 0-8.4-3.7-7.2-8.1l22.4-79.1c.8-2.9 4.8-5.2 8.9-5.2l176.6-.3c4.1 0 8.1 2.3 8.9 5.2l21.7 79c1.3 4.5-1.9 8.2-7.2 8.2z" transform="translate(62.17 183.1)" fill="url(#paint8_linear)"/><path d="M78.99.2L2.59 76.6l-2.3 8c-1.3 4.4 1.9 8.1 7.2 8.1l79.9-.1L179.888.1l-100.9.1zM208.288 0h-7.1l-92.5 92.5h11.5l91.9-91.9c-1.2-.4-2.5-.6-3.8-.6zm9.4 7.3l-85.3 85.3h5.1l81.3-81.3-1.1-4z" transform="translate(62.133 183.1)" fill="url(#paint9_linear)"/><path opacity=".86" d="M231.489 9.2c5.2 0 8.4-3.7 7.2-8.1l-.3-1.1c1.2 4.4-2 8.1-7.2 8.1l-223.5.4C2.49 8.5-.71 4.9.59.4l-.3 1.1c-1.3 4.4 1.9 8.1 7.2 8.1" transform="translate(62.233 266.3)" fill="url(#paint10_linear)"/><path opacity=".9" d="M81.9 30.2L0 30.3 3 .2 79.2 0l2.7 30.2z" transform="translate(140.722 245.4)" fill="url(#paint11_linear)"/><path opacity=".9" d="M81.9 5.6L0 5.7.5.1 81.4 0l.5 5.6z" transform="translate(140.722 270)" fill="url(#paint12_linear)"/><path d="M81 .6L0 .7V.1L80.9 0l.1.6z" transform="translate(141.222 270)" fill="url(#paint13_linear)"/><path d="M76.4.5L0 .6.1.1 76.3 0l.1.5z" transform="translate(143.622 245.2)" fill="url(#paint14_linear)"/><path opacity=".9" d="M178.474 41.6l-172.8.3c-3.7 0-6.4-3.4-5.5-7l7.4-30.4c.6-2.5 2.9-4.3 5.5-4.3l158.2-.2c2.6 0 4.9 1.8 5.5 4.4l7.2 30.4c.8 3.4-1.9 6.8-5.5 6.8z" transform="translate(89.848 188.7)" fill="url(#paint15_linear)"/><path d="M2.4.3C1.5.3.7.5 0 .9l163-.3c-.7-.3-1.6-.6-2.4-.6L2.4.3z" transform="translate(100.522 188.6)" fill="url(#paint16_linear)"/><path opacity=".9" d="M187.978 7.3l-185.5.3c-1.6 0-2.8-1.5-2.4-3.1l.6-2.3c.3-1.1 1.3-1.9 2.4-1.9l184.4-.3c1.2 0 2.2.8 2.4 1.9l.5 2.3c.4 1.6-.8 3.1-2.4 3.1z" transform="translate(86.644 232.9)" fill="url(#paint17_linear)"/><path d="M0 .9L187.5.6c-.4-.3-1-.6-1.6-.6l-40.5.1L1.5.3C1 .3.4.5 0 .9z" transform="translate(88.122 232.9)" fill="url(#paint18_linear)"/><path opacity=".56" d="M62.097.3L8.197 0c-1.5 0-2.7 1-3 2.4l-5.1 21.8c-.5 1.9 1 3.8 3 3.8l64.9.3c2.1 0 3.6-1.9 3-3.9l-5.8-21.8c-.5-1.3-1.7-2.3-3.1-2.3z" transform="translate(147.525 192)" fill="url(#paint19_linear)"/><path opacity=".56" d="M25.603 26.9h-19.7c-2.5 0-4.7-1.7-4.8-3.9L.003 4.6c-.1-2.5 2-4.6 4.8-4.6h21.9c2.8 0 4.9 2.1 4.8 4.6l-1.1 18.4c-.1 2.2-2.3 3.9-4.8 3.9z" transform="translate(167.019 121.8)" fill="url(#paint20_linear)"/><path d="M4.803.2h21.9c2.7 0 4.8 2 4.8 4.5v-.1c.2-2.5-2-4.6-4.8-4.6h-21.9c-2.8 0-4.9 2.1-4.8 4.6v.1c0-2.5 2.1-4.5 4.8-4.5z" transform="translate(167.019 121.9)" fill="url(#paint21_linear)"/><path opacity=".56" d="M10.403 4.7c.1-2.6-2.3-4.7-5.2-4.7-2.9 0-5.3 2.1-5.2 4.7 0 2 1.5 3.7 3.5 4.3v3.6c0 .8.7 1.4 1.6 1.4.9 0 1.6-.6 1.6-1.4V9c2.1-.6 3.6-2.3 3.7-4.3z" transform="translate(177.619 128.8)" fill="url(#paint22_linear)"/><path d="M5.203.2c2.9 0 5.1 2 5.2 4.6v-.1c.1-2.6-2.3-4.7-5.2-4.7-2.9 0-5.3 2.1-5.2 4.7v.1c0-2.6 2.3-4.6 5.2-4.6z" transform="translate(177.619 128.9)" fill="url(#paint23_linear)"/><path d="M12.811 0c-7.4 0-13.1 5.9-12.8 12.8l.5 11.1c.1 1.5 1.4 2.7 3 2.7s2.9-1.2 2.9-2.7l-.2-11.1c-.1-3.6 2.9-6.5 6.7-6.5 3.8 0 6.8 3 6.7 6.5l-.3 11.1c0 1.5 1.2 2.7 2.8 2.7 1.6 0 3-1.2 3-2.7l.5-11c.3-7-5.4-12.9-12.8-12.9z" transform="translate(170.011 102)" fill="url(#paint24_linear)"/><path d="M12.811.3c7.3 0 12.9 5.7 12.8 12.5.3-6.9-5.4-12.8-12.8-12.8S-.289 5.9.011 12.8v.1c-.2-6.8 5.5-12.6 12.8-12.6z" transform="translate(170.011 102)" fill="url(#paint25_linear)"/><path d="M0 .2L.2 11v-.1L0 0v.2z" transform="translate(176.122 114.9)" fill="url(#paint26_linear)"/><path d="M.3 0L0 10.9v.1L.3.2V0z" transform="translate(189.222 115)" fill="url(#paint27_linear)"/><path opacity=".56" d="M121.4 81.7H6.6c-3.7 0-6.6-3-6.6-6.6V6.6C0 2.9 3 0 6.6 0h114.8c3.7 0 6.6 3 6.6 6.6v68.5c0 3.7-3 6.6-6.6 6.6z" transform="translate(252.522 .872)" fill="url(#paint28_linear)"/><path opacity=".56" d="M121.4 6.6H6.6C2.9 6.6 0 3.6 0 0v.3C0 4 3 6.9 6.6 6.9h114.8c3.7 0 6.6-3 6.6-6.6V0c0 3.7-3 6.6-6.6 6.6z" transform="translate(252.522 75.672)" fill="url(#paint29_linear)"/><path d="M47.7 0H0v3.4h47.7V0z" transform="translate(264.622 71.072)" fill="url(#paint30_linear)"/><path d="M47.7 0H0v1.7h47.7V0z" transform="translate(264.622 75.672)" fill="url(#paint31_linear)"/><path opacity=".56" d="M121.4 0H6.6C2.9 0 0 3 0 6.6v8.3h128.1V6.6C128 3 125 0 121.4 0z" transform="translate(252.522 .772)" fill="url(#paint32_linear)"/><path opacity=".56" d="M3.2 6.4a3.2 3.2 0 1 0 0-6.4 3.2 3.2 0 0 0 0 6.4z" transform="translate(276.222 5.072)" fill="url(#paint33_linear)"/><path d="M1.9 3.8a1.9 1.9 0 1 0 0-3.8 1.9 1.9 0 0 0 0 3.8z" transform="translate(277.522 6.372)" fill="url(#paint34_linear)"/><path opacity=".56" d="M3.2 6.4a3.2 3.2 0 1 0 0-6.4 3.2 3.2 0 0 0 0 6.4z" transform="translate(267.222 5.072)" fill="url(#paint35_linear)"/><path d="M1.9 3.8a1.9 1.9 0 1 0 0-3.8 1.9 1.9 0 0 0 0 3.8z" transform="translate(268.522 6.372)" fill="url(#paint36_linear)"/><path opacity=".56" d="M3.2 6.4a3.2 3.2 0 1 0 0-6.4 3.2 3.2 0 0 0 0 6.4z" transform="translate(258.122 5.072)" fill="url(#paint37_linear)"/><path d="M1.9 3.8a1.9 1.9 0 1 0 0-3.8 1.9 1.9 0 0 0 0 3.8z" transform="translate(259.422 6.372)" fill="url(#paint38_linear)"/><path d="M121.4 0H6.6C2.9 0 0 3 0 6.6v.5C0 3.4 3 .5 6.6.5h114.8c3.7 0 6.6 3 6.6 6.6v-.5c0-3.6-3-6.6-6.6-6.6z" transform="translate(252.522 .772)" fill="url(#paint39_linear)"/><path d="M128.1 0H0v.3h128.1V0z" transform="translate(252.422 15.672)" fill="url(#paint40_linear)"/><path d="M0 46.7h101.2V0" transform="translate(264.622 22.372)" stroke="url(#paint41_linear)" stroke-width=".25" stroke-miterlimit="10" stroke-linecap="round" stroke-linejoin="round"/><path d="M0 38.448h95.9s-13.4-35.6-25.7-36.8c-12.3-1.2-17.5 28.1-28.8 28.6s-5.5-27.4-12.1-30.1c-6.7-2.7-2.4 32.4-9.8 32.3-7.4-.1-1-27-6.8-27-5.1 0-1 22.4-6.8 27-4.6 3.6-5.9 6-5.9 6z" transform="translate(266.022 26.524)" fill="url(#paint42_linear)"/><path opacity=".56" d="M104 92.1H7.7c-4.2 0-7.7-3.4-7.7-7.7V7.7C0 3.5 3.4 0 7.7 0H104c4.2 0 7.7 3.4 7.7 7.7v76.7c0 4.2-3.4 7.7-7.7 7.7z" transform="translate(.622 113.4)" fill="url(#paint43_linear)"/><path opacity=".56" d="M104.2 7.5H7.5C3.4 7.5 0 4.1 0 0v.3c0 4.1 3.4 7.5 7.5 7.5h96.7c4.1 0 7.5-3.4 7.5-7.5V0c0 4.2-3.3 7.5-7.5 7.5z" transform="translate(.622 197.6)" fill="url(#paint44_linear)"/><path d="M21.2 0H0v3.8h21.2V0z" transform="translate(14.322 192.4)" fill="url(#paint45_linear)"/><path d="M9.7 0H0v3.8h9.7V0z" transform="translate(14.322 136.9)" fill="url(#paint46_linear)"/><path d="M9.7 0H0v3.8h9.7V0z" transform="translate(14.322 142.3)" fill="url(#paint47_linear)"/><path d="M9.7 0H0v.7h9.7V0z" transform="translate(14.322 147.7)" fill="url(#paint48_linear)"/><path d="M9.7 0H0v.7h9.7V0z" transform="translate(14.322 150.3)" fill="url(#paint49_linear)"/><path d="M9.7 0H0v.7h9.7V0z" transform="translate(14.322 152.9)" fill="url(#paint50_linear)"/><path d="M9.7 0H0v.7h9.7V0z" transform="translate(14.322 155.5)" fill="url(#paint51_linear)"/><path d="M9.7 0H0v.7h9.7V0z" transform="translate(14.322 158.2)" fill="url(#paint52_linear)"/><path d="M9.7 0H0v.7h9.7V0z" transform="translate(14.322 160.8)" fill="url(#paint53_linear)"/><path d="M9.7 0H0v.7h9.7V0z" transform="translate(14.322 163.4)" fill="url(#paint54_linear)"/><path d="M26.9 0H0v2.2h26.9V0z" transform="translate(68.822 192.4)" fill="url(#paint55_linear)"/><path d="M9.5 0H0v2.2h9.5V0z" transform="translate(98.122 137.7)" fill="url(#paint56_linear)"/><path d="M9.5 0H0v2.2h9.5V0z" transform="translate(98.122 142)" fill="url(#paint57_linear)"/><path d="M9.5 0H0v2.2h9.5V0z" transform="translate(98.122 146.6)" fill="url(#paint58_linear)"/><path d="M3.2 0H0v2.2h3.2V0z" transform="translate(98.122 151.2)" fill="url(#paint59_linear)"/><path d="M3.2 0H0v2.2h3.2V0z" transform="translate(98.122 156.2)" fill="url(#paint60_linear)"/><path d="M26.9 0H0v2.2h26.9V0z" transform="translate(68.822 196.2)" fill="url(#paint61_linear)"/><path d="M26.9 0H0v2.2h26.9V0z" transform="translate(68.822 200.1)" fill="url(#paint62_linear)"/><path d="M21.2 0H0v1.9h21.2V0z" transform="translate(14.322 197.6)" fill="url(#paint63_linear)"/><path opacity=".56" d="M104.2 0H7.5C3.4 0 0 3.4 0 7.5v9.3h111.7V7.5c0-4.1-3.3-7.5-7.5-7.5z" transform="translate(.622 113.3)" fill="url(#paint64_linear)"/><path opacity=".56" d="M3.6 7.2a3.6 3.6 0 1 0 0-7.2 3.6 3.6 0 0 0 0 7.2z" transform="translate(27.422 118.1)" fill="url(#paint65_linear)"/><path d="M2.2 4.4a2.2 2.2 0 1 0 0-4.4 2.2 2.2 0 0 0 0 4.4z" transform="translate(28.822 119.5)" fill="url(#paint66_linear)"/><path opacity=".56" d="M3.6 7.2a3.6 3.6 0 1 0 0-7.2 3.6 3.6 0 0 0 0 7.2z" transform="translate(17.222 118.1)" fill="url(#paint67_linear)"/><path d="M2.2 4.4a2.2 2.2 0 1 0 0-4.4 2.2 2.2 0 0 0 0 4.4z" transform="translate(18.622 119.5)" fill="url(#paint68_linear)"/><path opacity=".56" d="M3.6 7.2a3.6 3.6 0 1 0 0-7.2 3.6 3.6 0 0 0 0 7.2z" transform="translate(7.122 118.1)" fill="url(#paint69_linear)"/><path d="M2.2 4.4a2.2 2.2 0 1 0 0-4.4 2.2 2.2 0 0 0 0 4.4z" transform="translate(8.522 119.5)" fill="url(#paint70_linear)"/><path d="M104.2 0H7.5C3.4 0 0 3.4 0 7.5v.6C0 4 3.4.6 7.5.6h96.7c4.1 0 7.5 3.4 7.5 7.5v-.6c0-4.1-3.3-7.5-7.5-7.5z" transform="translate(.622 113.3)" fill="url(#paint71_linear)"/><path d="M111.7 0H0v.3h111.7V0z" transform="translate(.622 130.1)" fill="url(#paint72_linear)"/><path d="M0 52.5h81.4V0" transform="translate(14.322 137.7)" stroke="url(#paint73_linear)" stroke-width=".25" stroke-miterlimit="10" stroke-linecap="round" stroke-linejoin="round"/><path d="M24.2 48.4c13.365 0 24.2-10.835 24.2-24.2C48.4 10.835 37.565 0 24.2 0 10.835 0 0 10.835 0 24.2c0 13.365 10.835 24.2 24.2 24.2z" transform="translate(27.322 137.6)" fill="url(#paint74_linear)"/><path d="M0 24.1c0 13.3 10.8 24.2 24.2 24.2V0C10.9 0 0 10.8 0 24.1z" transform="translate(27.322 137.7)" fill="url(#paint75_linear)"/><path d="M24.2 24.2V0H0c0 13.4 10.9 24.2 24.2 24.2z" transform="translate(27.322 161.8)" fill="url(#paint76_linear)"/><defs><linearGradient id="paint0_linear" x2="1" gradientUnits="userSpaceOnUse" gradientTransform="rotate(63.549 196.573 90.104) scale(299.336)"><stop stop-color="#7600C0" stop-opacity="0"/><stop offset=".208" stop-color="#6400A3" stop-opacity=".208"/><stop offset=".657" stop-color="#370059" stop-opacity=".657"/><stop offset="1" stop-color="#12001D"/></linearGradient><linearGradient id="paint1_linear" x2="1" gradientUnits="userSpaceOnUse" gradientTransform="rotate(-90 80.637 40.647) scale(121.303)"><stop stop-color="#00BFAC"/><stop offset=".293" stop-color="#00BAA8" stop-opacity=".765"/><stop offset=".621" stop-color="#00AD9A" stop-opacity=".503"/><stop offset=".965" stop-color="#009785" stop-opacity=".228"/><stop offset="1" stop-color="#009482" stop-opacity=".2"/></linearGradient><linearGradient id="paint2_linear" x2="1" gradientUnits="userSpaceOnUse" gradientTransform="matrix(0 -9.6622 9.6622 0 95.81 9.643)"><stop stop-color="#006A5F"/><stop offset=".175" stop-color="#008275"/><stop offset=".739" stop-color="#00CCB8"/><stop offset="1" stop-color="#00E9D2"/></linearGradient><linearGradient id="paint3_linear" x2="1" gradientUnits="userSpaceOnUse" gradientTransform="rotate(-90 78.787 38.803) scale(117.514)"><stop stop-color="#002A23"/><stop offset=".513" stop-color="#004D42"/><stop offset="1" stop-color="#006A5C"/></linearGradient><linearGradient id="paint4_linear" x2="1" gradientUnits="userSpaceOnUse" gradientTransform="rotate(-90 70.923 29.606) scale(105.447)"><stop stop-color="#009471"/><stop offset=".185" stop-color="#009B78"/><stop offset=".464" stop-color="#00B08D"/><stop offset=".799" stop-color="#00D1AE"/><stop offset="1" stop-color="#00E9C5"/></linearGradient><linearGradient id="paint5_linear" x2="1" gradientUnits="userSpaceOnUse" gradientTransform="matrix(197.313 0 0 197.31 .03 -98.483)"><stop stop-color="#003D3F"/><stop offset=".138" stop-color="#004443"/><stop offset=".346" stop-color="#005950"/><stop offset=".597" stop-color="#007B64"/><stop offset=".88" stop-color="#00A97F"/><stop offset="1" stop-color="#00BF8C"/></linearGradient><linearGradient id="paint6_linear" x2="1" gradientUnits="userSpaceOnUse" gradientTransform="translate(.03 -73.19) scale(239.04)"><stop stop-color="#006A5F"/><stop offset=".302" stop-color="#007165"/><stop offset=".754" stop-color="#008676"/><stop offset="1" stop-color="#009482"/></linearGradient><linearGradient id="paint7_linear" x2="1" gradientUnits="userSpaceOnUse" gradientTransform="translate(-.01 -116.083) scale(239.036)"><stop stop-color="#00AAA2"/><stop offset=".185" stop-color="#04B1A5"/><stop offset=".464" stop-color="#0EC6AC"/><stop offset=".799" stop-color="#1EE7B8"/><stop offset="1" stop-color="#2AFFC0"/></linearGradient><linearGradient id="paint8_linear" x2="1" gradientUnits="userSpaceOnUse" gradientTransform="rotate(90 81.579 81.938) scale(87.934)"><stop stop-color="#00AA94"/><stop offset=".487" stop-color="#00B19B"/><stop offset="1" stop-color="#00BFA7"/></linearGradient><linearGradient id="paint9_linear" x2="1" gradientUnits="userSpaceOnUse" gradientTransform="rotate(-37.165 31.92 129.524) scale(218.731)"><stop stop-color="#002A23" stop-opacity="0"/><stop offset=".126" stop-color="#003129" stop-opacity=".126"/><stop offset=".315" stop-color="#004639" stop-opacity=".315"/><stop offset=".543" stop-color="#006853" stop-opacity=".543"/><stop offset=".801" stop-color="#009677" stop-opacity=".801"/><stop offset="1" stop-color="#00BF97"/></linearGradient><linearGradient id="paint10_linear" x2="1" gradientUnits="userSpaceOnUse" gradientTransform="translate(-.032 -114.806) scale(239.04)"><stop stop-color="#007F64"/><stop offset=".14" stop-color="#018669"/><stop offset=".349" stop-color="#059B75"/><stop offset=".603" stop-color="#0ABD8A"/><stop offset=".889" stop-color="#12EBA7"/><stop offset="1" stop-color="#15FFB3"/></linearGradient><linearGradient id="paint11_linear" x2="1" gradientUnits="userSpaceOnUse" gradientTransform="rotate(-90 27.386 2.915) scale(33.0015)"><stop offset=".001" stop-color="#00AA7C" stop-opacity="0"/><stop offset=".439" stop-color="#00AA7F" stop-opacity=".439"/><stop offset=".777" stop-color="#00AA89" stop-opacity=".777"/><stop offset="1" stop-color="#00AA94"/></linearGradient><linearGradient id="paint12_linear" x2="1" gradientUnits="userSpaceOnUse" gradientTransform="matrix(81.9448 0 0 81.9445 -.001 -38.116)"><stop offset=".001" stop-color="#00AA7C" stop-opacity="0"/><stop offset=".264" stop-color="#00A77A" stop-opacity=".264"/><stop offset=".468" stop-color="#009D74" stop-opacity=".468"/><stop offset=".652" stop-color="#008D6A" stop-opacity=".652"/><stop offset=".824" stop-color="#00755B" stop-opacity=".824"/><stop offset=".987" stop-color="#005849" stop-opacity=".987"/><stop offset="1" stop-color="#005547"/></linearGradient><linearGradient id="paint13_linear" x2="1" gradientUnits="userSpaceOnUse" gradientTransform="matrix(81.0047 0 0 81.0026 -.01 -40.145)"><stop stop-color="#006A39"/><stop offset=".126" stop-color="#037140"/><stop offset=".315" stop-color="#0C8652"/><stop offset=".543" stop-color="#1AA86F"/><stop offset=".801" stop-color="#2ED698"/><stop offset="1" stop-color="#3FFFBC"/></linearGradient><linearGradient id="paint14_linear" x2="1" gradientUnits="userSpaceOnUse" gradientTransform="matrix(76.326 0 0 76.3268 .038 -37.86)"><stop stop-color="#006A45"/><stop offset=".126" stop-color="#02714B"/><stop offset=".315" stop-color="#08865D"/><stop offset=".543" stop-color="#11A87A"/><stop offset=".801" stop-color="#1ED6A3"/><stop offset="1" stop-color="#2AFFC6"/></linearGradient><linearGradient id="paint15_linear" x2="1" gradientUnits="userSpaceOnUse" gradientTransform="matrix(0 -41.9805 41.9805 0 71.083 41.9)"><stop offset=".001" stop-color="#00D4A2" stop-opacity="0"/><stop offset=".463" stop-color="#00D1A2" stop-opacity=".463"/><stop offset=".82" stop-color="#00C7A1" stop-opacity=".82"/><stop offset="1" stop-color="#00BFA1"/></linearGradient><linearGradient id="paint16_linear" x2="1" gradientUnits="userSpaceOnUse" gradientTransform="matrix(163.006 0 0 163.011 .02 -81.08)"><stop stop-color="#006A59"/><stop offset=".159" stop-color="#00715E"/><stop offset=".398" stop-color="#00866B"/><stop offset=".687" stop-color="#00A880"/><stop offset="1" stop-color="#00D49C"/></linearGradient><linearGradient id="paint17_linear" x2="1" gradientUnits="userSpaceOnUse" gradientTransform="matrix(190.476 0 0 190.477 -.022 -91.446)"><stop offset=".001" stop-color="#005540" stop-opacity="0"/><stop offset=".24" stop-color="#005843" stop-opacity=".24"/><stop offset=".425" stop-color="#00624D" stop-opacity=".425"/><stop offset=".592" stop-color="#00725D" stop-opacity=".592"/><stop offset=".749" stop-color="#008975" stop-opacity=".749"/><stop offset=".896" stop-color="#00A692" stop-opacity=".896"/><stop offset="1" stop-color="#00BFAC"/></linearGradient><linearGradient id="paint18_linear" x2="1" gradientUnits="userSpaceOnUse" gradientTransform="matrix(187.528 0 0 187.526 -.018 -93.326)"><stop stop-color="#00554C"/><stop offset=".115" stop-color="#025C52"/><stop offset=".287" stop-color="#077161"/><stop offset=".496" stop-color="#0F937A"/><stop offset=".733" stop-color="#1BC29E"/><stop offset=".991" stop-color="#29FDCA"/><stop offset="1" stop-color="#2AFFCC"/></linearGradient><linearGradient id="paint19_linear" x2="1" gradientUnits="userSpaceOnUse" gradientTransform="matrix(44.7535 -52.9916 53.6375 44.7696 -12.194 19.42)"><stop stop-color="#007F4F"/><stop offset=".153" stop-color="#008656"/><stop offset=".383" stop-color="#009A6B"/><stop offset=".661" stop-color="#00B98D"/><stop offset=".975" stop-color="#00E5BB"/><stop offset="1" stop-color="#00E9BF"/></linearGradient><linearGradient id="paint20_linear" x2="1" gradientUnits="userSpaceOnUse" gradientTransform="rotate(-90 14.63 12.335) scale(26.9544)"><stop stop-color="#005540"/><stop offset="1" stop-color="#00BF91"/></linearGradient><linearGradient id="paint21_linear" x2="1" gradientUnits="userSpaceOnUse" gradientTransform="rotate(-90 9.043 -4.324) scale(4.8087)"><stop stop-color="#007F4B"/><stop offset=".14" stop-color="#028651"/><stop offset=".349" stop-color="#099B61"/><stop offset=".603" stop-color="#14BD7B"/><stop offset=".889" stop-color="#23EB9F"/><stop offset="1" stop-color="#2AFFAE"/></linearGradient><linearGradient id="paint22_linear" x2="1" gradientUnits="userSpaceOnUse" gradientTransform="rotate(-90 6.081 7.928) scale(14.0262)"><stop stop-color="#007F41"/><stop offset=".244" stop-color="#009555" stop-opacity=".853"/><stop offset=".749" stop-color="#00CC8A" stop-opacity=".548"/><stop offset=".994" stop-color="#00E9A5" stop-opacity=".4"/></linearGradient><linearGradient id="paint23_linear" x2="1" gradientUnits="userSpaceOnUse" gradientTransform="rotate(-90 3.74 1.006) scale(4.8639)"><stop stop-color="#00946D"/><stop offset=".158" stop-color="#039B73"/><stop offset=".395" stop-color="#0BB083"/><stop offset=".683" stop-color="#18D29D"/><stop offset="1" stop-color="#2AFFC0"/></linearGradient><linearGradient id="paint24_linear" x2="1" gradientUnits="userSpaceOnUse" gradientTransform="rotate(-90 12.721 13.193) scale(26.5534)"><stop stop-color="#007F61"/><stop offset=".996" stop-color="#2AFFA9" stop-opacity=".2"/></linearGradient><linearGradient id="paint25_linear" x2="1" gradientUnits="userSpaceOnUse" gradientTransform="rotate(-90 9.618 3.251) scale(12.8761)"><stop stop-color="#00AA69"/><stop offset=".185" stop-color="#04B170"/><stop offset=".464" stop-color="#0EC684"/><stop offset=".799" stop-color="#1EE7A4"/><stop offset="1" stop-color="#2AFFBA"/></linearGradient><linearGradient id="paint26_linear" x2="1" gradientUnits="userSpaceOnUse" gradientTransform="matrix(0 -10.9391 10.9389 0 -5.322 11.03)"><stop stop-color="#00AA69"/><stop offset=".185" stop-color="#04B170"/><stop offset=".464" stop-color="#0EC684"/><stop offset=".799" stop-color="#1EE7A4"/><stop offset="1" stop-color="#2AFFBA"/></linearGradient><linearGradient id="paint27_linear" x2="1" gradientUnits="userSpaceOnUse" gradientTransform="matrix(0 -10.9658 10.9665 0 -5.356 10.928)"><stop stop-color="#00AA69"/><stop offset=".185" stop-color="#04B170"/><stop offset=".464" stop-color="#0EC684"/><stop offset=".799" stop-color="#1EE7A4"/><stop offset="1" stop-color="#2AFFBA"/></linearGradient><linearGradient id="paint28_linear" x2="1" gradientUnits="userSpaceOnUse" gradientTransform="rotate(-49.817 27.494 72.69) scale(159.999)"><stop stop-color="#007F61"/><stop offset=".202" stop-color="#008568"/><stop offset=".505" stop-color="#00977D"/><stop offset=".871" stop-color="#00B39E"/><stop offset="1" stop-color="#00BFAC"/></linearGradient><linearGradient id="paint29_linear" x2="1" gradientUnits="userSpaceOnUse" gradientTransform="rotate(-49.817 4.012 5.984) scale(97.6105)"><stop stop-color="#6B28E9"/><stop offset=".179" stop-color="#7226EA"/><stop offset=".449" stop-color="#8722EC"/><stop offset=".774" stop-color="#A81BF1"/><stop offset="1" stop-color="#C415F4"/></linearGradient><linearGradient id="paint30_linear" x2="1" gradientUnits="userSpaceOnUse" gradientTransform="rotate(-49.817 2.128 4.126) scale(38.2231)"><stop stop-color="#005537"/><stop offset=".188" stop-color="#005B3E"/><stop offset=".471" stop-color="#006A53"/><stop offset=".812" stop-color="#008474"/><stop offset="1" stop-color="#00948A"/></linearGradient><linearGradient id="paint31_linear" x2="1" gradientUnits="userSpaceOnUse" gradientTransform="rotate(-49.817 1.674 2.583) scale(36.7392)"><stop stop-color="#005537"/><stop offset=".188" stop-color="#005B3E"/><stop offset=".471" stop-color="#006A53"/><stop offset=".812" stop-color="#008474"/><stop offset="1" stop-color="#00948A"/></linearGradient><linearGradient id="paint32_linear" x2="1" gradientUnits="userSpaceOnUse" gradientTransform="rotate(-49.817 10.506 14.821) scale(104.566)"><stop offset=".005" stop-color="#00BF81"/><stop offset=".032" stop-color="#00BC80"/><stop offset=".439" stop-color="#009B6F"/><stop offset=".776" stop-color="#008665"/><stop offset="1" stop-color="#007F61"/></linearGradient><linearGradient id="paint33_linear" x2="1" gradientUnits="userSpaceOnUse" gradientTransform="rotate(-49.817 2.763 3.774) scale(7.42098)"><stop offset=".005" stop-color="#00AA86"/><stop offset=".032" stop-color="#00A784"/><stop offset=".439" stop-color="#008670"/><stop offset=".776" stop-color="#007164"/><stop offset="1" stop-color="#006A5F"/></linearGradient><linearGradient id="paint34_linear" x2="1" gradientUnits="userSpaceOnUse" gradientTransform="rotate(-49.818 1.623 2.247) scale(4.41492)"><stop stop-color="#00AA86"/><stop offset="1" stop-color="#00E998"/></linearGradient><linearGradient id="paint35_linear" x2="1" gradientUnits="userSpaceOnUse" gradientTransform="rotate(-49.817 2.747 3.808) scale(7.42092)"><stop offset=".005" stop-color="#00AA86"/><stop offset=".032" stop-color="#00A784"/><stop offset=".439" stop-color="#008670"/><stop offset=".776" stop-color="#007164"/><stop offset="1" stop-color="#006A5F"/></linearGradient><linearGradient id="paint36_linear" x2="1" gradientUnits="userSpaceOnUse" gradientTransform="rotate(-49.818 1.608 2.281) scale(4.41492)"><stop stop-color="#00AA86"/><stop offset="1" stop-color="#00E998"/></linearGradient><linearGradient id="paint37_linear" x2="1" gradientUnits="userSpaceOnUse" gradientTransform="rotate(-49.817 2.781 3.734) scale(7.42095)"><stop offset=".005" stop-color="#00AA86"/><stop offset=".032" stop-color="#00A784"/><stop offset=".439" stop-color="#008670"/><stop offset=".776" stop-color="#007164"/><stop offset="1" stop-color="#006A5F"/></linearGradient><linearGradient id="paint38_linear" x2="1" gradientUnits="userSpaceOnUse" gradientTransform="rotate(-49.818 1.642 2.208) scale(4.41492)"><stop stop-color="#00AA86"/><stop offset="1" stop-color="#00E998"/></linearGradient><linearGradient id="paint39_linear" x2="1" gradientUnits="userSpaceOnUse" gradientTransform="rotate(-49.817 8.396 7.78) scale(97.8146)"><stop stop-color="#00AA86" stop-opacity=".5"/><stop offset=".432" stop-color="#00A37F" stop-opacity=".716"/><stop offset="1" stop-color="#00946D"/></linearGradient><linearGradient id="paint40_linear" x2="1" gradientUnits="userSpaceOnUse" gradientTransform="matrix(61.22926 -72.4976 72.49867 61.22836 -1.024 3.706)"><stop stop-color="#00BF91"/><stop offset="1" stop-color="#006A4B"/></linearGradient><linearGradient id="paint41_linear" x2="1" gradientUnits="userSpaceOnUse" gradientTransform="rotate(-49.817 37.479 29.512) scale(101.218)"><stop stop-color="#007F64"/><stop offset=".258" stop-color="#008E72"/><stop offset=".703" stop-color="#00A384"/><stop offset="1" stop-color="#00AA8B"/></linearGradient><linearGradient id="paint42_linear" x2="1" gradientUnits="userSpaceOnUse" gradientTransform="rotate(-49.817 29.494 28.62) scale(85.8551)"><stop stop-color="#005537"/><stop offset=".188" stop-color="#005B3E"/><stop offset=".471" stop-color="#006A53"/><stop offset=".812" stop-color="#008474"/><stop offset="1" stop-color="#00948A"/></linearGradient><linearGradient id="paint43_linear" x2="1" gradientUnits="userSpaceOnUse" gradientTransform="rotate(-49.817 30.248 80.895) scale(155.906)"><stop stop-color="#00AA86"/><stop offset=".185" stop-color="#04B18B"/><stop offset=".464" stop-color="#0EC699"/><stop offset=".799" stop-color="#1EE7B0"/><stop offset="1" stop-color="#2AFFC0"/></linearGradient><linearGradient id="paint44_linear" x2="1" gradientUnits="userSpaceOnUse" gradientTransform="scale(85.8572 85.8574) rotate(-49.817 .044 .07)"><stop stop-color="#007F68"/><stop offset=".185" stop-color="#00866E"/><stop offset=".464" stop-color="#009B7D"/><stop offset=".799" stop-color="#00BC96"/><stop offset="1" stop-color="#00D4A8"/></linearGradient><linearGradient id="paint45_linear" x2="1" gradientUnits="userSpaceOnUse" gradientTransform="rotate(-49.817 1.63 3.948) scale(18.9985)"><stop stop-color="#005547"/><stop offset=".185" stop-color="#005C4C"/><stop offset=".464" stop-color="#00715A"/><stop offset=".799" stop-color="#009271"/><stop offset="1" stop-color="#00AA81"/></linearGradient><linearGradient id="paint46_linear" x2="1" gradientUnits="userSpaceOnUse" gradientTransform="rotate(-49.817 1.264 3.676) scale(10.4999)"><stop offset=".001" stop-color="#007F53" stop-opacity="0"/><stop offset=".671" stop-color="#00D892" stop-opacity=".671"/><stop offset="1" stop-color="#00FFAD"/></linearGradient><linearGradient id="paint47_linear" x2="1" gradientUnits="userSpaceOnUse" gradientTransform="rotate(-49.817 1.281 3.684) scale(10.4998)"><stop offset=".001" stop-color="#007F53" stop-opacity="0"/><stop offset=".671" stop-color="#00D892" stop-opacity=".671"/><stop offset="1" stop-color="#00FFAD"/></linearGradient><linearGradient id="paint48_linear" x2="1" gradientUnits="userSpaceOnUse" gradientTransform="matrix(4.9978 -5.9177 5.9176 4.99789 -.47 .617)"><stop offset=".001" stop-color="#007F53" stop-opacity="0"/><stop offset=".671" stop-color="#00D892" stop-opacity=".671"/><stop offset="1" stop-color="#00FFAD"/></linearGradient><linearGradient id="paint49_linear" x2="1" gradientUnits="userSpaceOnUse" gradientTransform="matrix(4.9978 -5.9178 5.9177 4.99789 -.47 .635)"><stop offset=".001" stop-color="#007F53" stop-opacity="0"/><stop offset=".671" stop-color="#00D892" stop-opacity=".671"/><stop offset="1" stop-color="#00FFAD"/></linearGradient><linearGradient id="paint50_linear" x2="1" gradientUnits="userSpaceOnUse" gradientTransform="matrix(4.9978 -5.91745 5.9176 4.99767 -.47 .653)"><stop offset=".001" stop-color="#007F53" stop-opacity="0"/><stop offset=".671" stop-color="#00D892" stop-opacity=".671"/><stop offset="1" stop-color="#00FFAD"/></linearGradient><linearGradient id="paint51_linear" x2="1" gradientUnits="userSpaceOnUse" gradientTransform="matrix(4.9978 -5.91754 5.9177 4.99767 -.47 .671)"><stop offset=".001" stop-color="#007F53" stop-opacity="0"/><stop offset=".671" stop-color="#00D892" stop-opacity=".671"/><stop offset="1" stop-color="#00FFAD"/></linearGradient><linearGradient id="paint52_linear" x2="1" gradientUnits="userSpaceOnUse" gradientTransform="matrix(4.9978 -5.9177 5.9176 4.99789 -.47 .589)"><stop offset=".001" stop-color="#007F53" stop-opacity="0"/><stop offset=".671" stop-color="#00D892" stop-opacity=".671"/><stop offset="1" stop-color="#00FFAD"/></linearGradient><linearGradient id="paint53_linear" x2="1" gradientUnits="userSpaceOnUse" gradientTransform="matrix(4.9978 -5.9178 5.9177 4.99789 -.47 .607)"><stop offset=".001" stop-color="#007F53" stop-opacity="0"/><stop offset=".671" stop-color="#00D892" stop-opacity=".671"/><stop offset="1" stop-color="#00FFAD"/></linearGradient><linearGradient id="paint54_linear" x2="1" gradientUnits="userSpaceOnUse" gradientTransform="matrix(4.9978 -5.91745 5.9176 4.99767 -.47 .625)"><stop offset=".001" stop-color="#007F53" stop-opacity="0"/><stop offset=".671" stop-color="#00D892" stop-opacity=".671"/><stop offset="1" stop-color="#00FFAD"/></linearGradient><linearGradient id="paint55_linear" x2="1" gradientUnits="userSpaceOnUse" gradientTransform="scale(21.8029 21.8027) rotate(-49.817 .062 .119)"><stop stop-color="#005547"/><stop offset=".185" stop-color="#005C4C"/><stop offset=".464" stop-color="#00715A"/><stop offset=".799" stop-color="#009271"/><stop offset="1" stop-color="#00AA81"/></linearGradient><linearGradient id="paint56_linear" x2="1" gradientUnits="userSpaceOnUse" gradientTransform="rotate(-49.817 .82 2.22) scale(8.99485)"><stop stop-color="#005547"/><stop offset=".185" stop-color="#005C4C"/><stop offset=".464" stop-color="#00715A"/><stop offset=".799" stop-color="#009271"/><stop offset="1" stop-color="#00AA81"/></linearGradient><linearGradient id="paint57_linear" x2="1" gradientUnits="userSpaceOnUse" gradientTransform="rotate(-49.817 .816 2.219) scale(8.99485)"><stop stop-color="#005547"/><stop offset=".185" stop-color="#005C4C"/><stop offset=".464" stop-color="#00715A"/><stop offset=".799" stop-color="#009271"/><stop offset="1" stop-color="#00AA81"/></linearGradient><linearGradient id="paint58_linear" x2="1" gradientUnits="userSpaceOnUse" gradientTransform="rotate(-49.817 .835 2.227) scale(8.99477)"><stop stop-color="#005547"/><stop offset=".185" stop-color="#005C4C"/><stop offset=".464" stop-color="#00715A"/><stop offset=".799" stop-color="#009271"/><stop offset="1" stop-color="#00AA81"/></linearGradient><linearGradient id="paint59_linear" x2="1" gradientUnits="userSpaceOnUse" gradientTransform="rotate(-49.817 .688 2.103) scale(4.34538)"><stop stop-color="#005547"/><stop offset=".185" stop-color="#005C4C"/><stop offset=".464" stop-color="#00715A"/><stop offset=".799" stop-color="#009271"/><stop offset="1" stop-color="#00AA81"/></linearGradient><linearGradient id="paint60_linear" x2="1" gradientUnits="userSpaceOnUse" gradientTransform="rotate(-49.817 .66 2.09) scale(4.34538)"><stop stop-color="#005547"/><stop offset=".185" stop-color="#005C4C"/><stop offset=".464" stop-color="#00715A"/><stop offset=".799" stop-color="#009271"/><stop offset="1" stop-color="#00AA81"/></linearGradient><linearGradient id="paint61_linear" x2="1" gradientUnits="userSpaceOnUse" gradientTransform="matrix(14.06784 -16.65714 16.65707 14.0679 -1.512 1.978)"><stop stop-color="#005547"/><stop offset=".185" stop-color="#005C4C"/><stop offset=".464" stop-color="#00715A"/><stop offset=".799" stop-color="#009271"/><stop offset="1" stop-color="#00AA81"/></linearGradient><linearGradient id="paint62_linear" x2="1" gradientUnits="userSpaceOnUse" gradientTransform="matrix(14.0679 -16.65722 16.65714 14.06797 -1.485 1.904)"><stop stop-color="#005547"/><stop offset=".185" stop-color="#005C4C"/><stop offset=".464" stop-color="#00715A"/><stop offset=".799" stop-color="#009271"/><stop offset="1" stop-color="#00AA81"/></linearGradient><linearGradient id="paint63_linear" x2="1" gradientUnits="userSpaceOnUse" gradientTransform="matrix(11.18052 -13.23857 13.23841 11.18065 -1.292 1.617)"><stop stop-color="#005547"/><stop offset=".185" stop-color="#005C4C"/><stop offset=".464" stop-color="#00715A"/><stop offset=".799" stop-color="#009271"/><stop offset="1" stop-color="#00AA81"/></linearGradient><linearGradient id="paint64_linear" x2="1" gradientUnits="userSpaceOnUse" gradientTransform="rotate(-49.817 11.053 15.883) scale(93.6877)"><stop offset=".005" stop-color="#00E9D9"/><stop offset=".192" stop-color="#00D9C3"/><stop offset=".531" stop-color="#00BFA2"/><stop offset=".813" stop-color="#00B08D"/><stop offset="1" stop-color="#00AA86"/></linearGradient><linearGradient id="paint65_linear" x2="1" gradientUnits="userSpaceOnUse" gradientTransform="rotate(-49.817 3.173 4.28) scale(8.35463)"><stop offset=".005" stop-color="#0A9"/><stop offset=".23" stop-color="#00907D"/><stop offset=".553" stop-color="#00705C"/><stop offset=".821" stop-color="#005C47"/><stop offset="1" stop-color="#005540"/></linearGradient><linearGradient id="paint66_linear" x2="1" gradientUnits="userSpaceOnUse" gradientTransform="rotate(-49.817 1.99 2.525) scale(4.97035)"><stop stop-color="#00E9CC"/><stop offset=".038" stop-color="#00E6C8"/><stop offset=".442" stop-color="#00C5A7"/><stop offset=".777" stop-color="#00B192"/><stop offset="1" stop-color="#00AA8B"/></linearGradient><linearGradient id="paint67_linear" x2="1" gradientUnits="userSpaceOnUse" gradientTransform="rotate(-49.817 3.19 4.246) scale(8.35456)"><stop offset=".005" stop-color="#0A9"/><stop offset=".23" stop-color="#00907D"/><stop offset=".553" stop-color="#00705C"/><stop offset=".821" stop-color="#005C47"/><stop offset="1" stop-color="#005540"/></linearGradient><linearGradient id="paint68_linear" x2="1" gradientUnits="userSpaceOnUse" gradientTransform="rotate(-49.816 2.007 2.49) scale(4.9704)"><stop stop-color="#00E9CC"/><stop offset=".038" stop-color="#00E6C8"/><stop offset=".442" stop-color="#00C5A7"/><stop offset=".777" stop-color="#00B192"/><stop offset="1" stop-color="#00AA8B"/></linearGradient><linearGradient id="paint69_linear" x2="1" gradientUnits="userSpaceOnUse" gradientTransform="rotate(-49.817 3.155 4.319) scale(8.35456)"><stop offset=".005" stop-color="#0A9"/><stop offset=".23" stop-color="#00907D"/><stop offset=".553" stop-color="#00705C"/><stop offset=".821" stop-color="#005C47"/><stop offset="1" stop-color="#005540"/></linearGradient><linearGradient id="paint70_linear" x2="1" gradientUnits="userSpaceOnUse" gradientTransform="rotate(-49.817 1.973 2.564) scale(4.97035)"><stop stop-color="#00E9CC"/><stop offset=".038" stop-color="#00E6C8"/><stop offset=".442" stop-color="#00C5A7"/><stop offset=".777" stop-color="#00B192"/><stop offset="1" stop-color="#00AA8B"/></linearGradient><linearGradient id="paint71_linear" x2="1" gradientUnits="userSpaceOnUse" gradientTransform="rotate(-49.817 8.677 7.956) scale(86.0869)"><stop stop-color="#006A5C" stop-opacity=".5"/><stop offset=".185" stop-color="#00715F" stop-opacity=".593"/><stop offset=".464" stop-color="#008668" stop-opacity=".732"/><stop offset=".799" stop-color="#00A777" stop-opacity=".899"/><stop offset="1" stop-color="#00BF81"/></linearGradient><linearGradient id="paint72_linear" x2="1" gradientUnits="userSpaceOnUse" gradientTransform="matrix(53.42526 -63.259 63.25832 53.42584 -.927 3.27)"><stop stop-color="#00FFD0"/><stop offset=".258" stop-color="#00F7C1"/><stop offset=".703" stop-color="#00EDAC"/><stop offset="1" stop-color="#00E9A5"/></linearGradient><linearGradient id="paint73_linear" x2="1" gradientUnits="userSpaceOnUse" gradientTransform="rotate(-49.817 40.073 34.092) scale(92.9331)"><stop stop-color="#00E99E"/><stop offset=".246" stop-color="#00DB98"/><stop offset=".698" stop-color="#00C68F"/><stop offset="1" stop-color="#00BF8C"/></linearGradient><linearGradient id="paint74_linear" x2="1" gradientUnits="userSpaceOnUse" gradientTransform="rotate(-49.817 21.424 27.96) scale(55.3477)"><stop stop-color="#005547"/><stop offset=".185" stop-color="#005C4C"/><stop offset=".464" stop-color="#00715A"/><stop offset=".799" stop-color="#009271"/><stop offset="1" stop-color="#00AA81"/></linearGradient><linearGradient id="paint75_linear" x2="1" gradientUnits="userSpaceOnUse" gradientTransform="rotate(-49.817 20.105 28.178) scale(48.8158)"><stop stop-color="#005547"/><stop offset=".185" stop-color="#005C4C"/><stop offset=".464" stop-color="#00715A"/><stop offset=".799" stop-color="#009271"/><stop offset="1" stop-color="#00AA81"/></linearGradient><linearGradient id="paint76_linear" x2="1" gradientUnits="userSpaceOnUse" gradientTransform="rotate(-49.817 2.866 47.23) scale(63.2784)"><stop stop-color="#005547"/><stop offset=".185" stop-color="#005C4C"/><stop offset=".464" stop-color="#00715A"/><stop offset=".799" stop-color="#009271"/><stop offset="1" stop-color="#00AA81"/></linearGradient></defs></svg>