<svg width="441" height="618" fill="none" xmlns="http://www.w3.org/2000/svg"><g opacity=".21"><g opacity=".21"><path opacity=".21" d="M0 0v186.628l161.677 93.252V93.251L0 0z" transform="translate(283.225 104.793)" fill="url(#paint0_linear)"/><path opacity=".21" d="M323.229 93.377L161.677 0 0 93.377l161.677 93.251 161.552-93.25z" transform="translate(283.225 11.416)" fill="url(#paint1_linear)"/></g><g opacity=".21"><path opacity=".21" d="M0 0v122.235l105.853 60.991V61.117L0 0z" transform="translate(339.049 135.541)" fill="url(#paint2_linear)"/><path opacity=".21" d="M211.579 60.991L105.853 0 0 60.991l105.853 61.118 105.726-61.118z" transform="translate(339.049 74.55)" fill="url(#paint3_linear)"/></g></g><g opacity=".21"><g opacity=".21"><path opacity=".21" d="M29.74 0L0 17.138v34.276l29.74-17.138V0z" transform="translate(62.32 394.502)" fill="url(#paint4_linear)"/><path opacity=".21" d="M0 0v34.276l29.613 17.138V17.138L0 0z" transform="translate(32.707 394.502)" fill="url(#paint5_linear)"/><path opacity=".21" d="M59.353 17.264L29.613 0 0 17.264l29.614 17.138 29.74-17.138z" transform="translate(32.707 377.238)" fill="url(#paint6_linear)"/></g><g opacity=".21"><path opacity=".21" d="M19.532 0L0 11.215v22.431l19.532-11.215V0z" transform="translate(62.32 400.173)" fill="url(#paint7_linear)"/><path opacity=".21" d="M0 0v22.43l19.406 11.216v-22.43L0 0z" transform="translate(42.914 400.173)" fill="url(#paint8_linear)"/><path opacity=".21" d="M38.939 11.341L19.406 0 0 11.341l19.406 11.216L38.94 11.34z" transform="translate(42.914 388.831)" fill="url(#paint9_linear)"/></g></g><g opacity=".21"><g opacity=".21"><path opacity=".21" d="M43.601 0L0 25.329v50.406l43.601-25.203V0z" transform="translate(67.487 542.066)" fill="url(#paint10_linear)"/><path opacity=".21" d="M0 0v50.532l43.727 25.203V25.33L0 0z" transform="translate(23.76 542.066)" fill="url(#paint11_linear)"/><path opacity=".21" d="M87.329 25.203L43.727 0 0 25.203l43.727 25.33 43.602-25.33z" transform="translate(23.76 516.863)" fill="url(#paint12_linear)"/></g><g opacity=".21"><path opacity=".21" d="M28.605 0L0 16.508V49.65l28.605-16.508V0z" transform="translate(67.487 550.383)" fill="url(#paint13_linear)"/><path opacity=".21" d="M0 0v33.142L28.731 49.65V16.508L0 0z" transform="translate(38.755 550.383)" fill="url(#paint14_linear)"/><path opacity=".21" d="M57.337 16.508L28.73 0 0 16.508l28.731 16.508 28.606-16.508z" transform="translate(38.755 533.875)" fill="url(#paint15_linear)"/></g></g><g opacity=".21"><g opacity=".21"><path opacity=".21" d="M29.74 0L0 17.264V51.54l29.74-17.138V0z" transform="translate(172.457 413.908)" fill="url(#paint16_linear)"/><path opacity=".21" d="M0 0v34.402L29.74 51.54V17.264L0 0z" transform="translate(142.718 413.908)" fill="url(#paint17_linear)"/><path opacity=".21" d="M59.48 17.138L29.74 0 0 17.138l29.74 17.264 29.74-17.264z" transform="translate(142.718 396.77)" fill="url(#paint18_linear)"/></g><g opacity=".21"><path opacity=".21" d="M19.406 0L0 11.215v22.557l19.406-11.215V0z" transform="translate(172.457 419.579)" fill="url(#paint19_linear)"/><path opacity=".21" d="M0 0v22.557l19.532 11.215V11.215L0 0z" transform="translate(152.925 419.579)" fill="url(#paint20_linear)"/><path opacity=".21" d="M38.939 11.215L19.532 0 0 11.215l19.532 11.216L38.94 11.215z" transform="translate(152.925 408.364)" fill="url(#paint21_linear)"/></g></g><g opacity=".21"><g opacity=".21"><path opacity=".21" d="M29.74 0L0 17.138V51.54l29.74-17.264V0z" transform="translate(210.514 33.343)" fill="url(#paint22_linear)"/><path opacity=".21" d="M0 0v34.276L29.74 51.54V17.138L0 0z" transform="translate(180.774 33.343)" fill="url(#paint23_linear)"/><path opacity=".21" d="M59.48 17.138L29.74 0 0 17.138l29.74 17.138 29.74-17.138z" transform="translate(180.774 16.205)" fill="url(#paint24_linear)"/></g><g opacity=".21"><path opacity=".21" d="M19.406 0L0 11.215v22.431l19.406-11.215V0z" transform="translate(210.514 39.013)" fill="url(#paint25_linear)"/><path opacity=".21" d="M0 0v22.43l19.532 11.216v-22.43L0 0z" transform="translate(190.982 39.013)" fill="url(#paint26_linear)"/><path opacity=".21" d="M38.939 11.215L19.532 0 0 11.215l19.532 11.216L38.94 11.215z" transform="translate(190.982 27.798)" fill="url(#paint27_linear)"/></g></g><g opacity=".21"><g opacity=".21"><path opacity=".21" d="M29.74 0L0 17.138v34.276l29.74-17.138V0z" transform="translate(377.106 374.97)" fill="url(#paint28_linear)"/><path opacity=".21" d="M0 0v34.276l29.74 17.138V17.138L0 0z" transform="translate(347.366 374.97)" fill="url(#paint29_linear)"/><path opacity=".21" d="M59.48 17.138L29.74 0 0 17.138l29.74 17.138 29.74-17.138z" transform="translate(347.366 357.832)" fill="url(#paint30_linear)"/></g><g opacity=".21"><path opacity=".21" d="M19.532 0L0 11.215v22.431l19.532-11.215V0z" transform="translate(377.106 380.64)" fill="url(#paint31_linear)"/><path opacity=".21" d="M0 0v22.43l19.406 11.216v-22.43L0 0z" transform="translate(357.699 380.64)" fill="url(#paint32_linear)"/><path opacity=".21" d="M38.939 11.215L19.406 0 0 11.215l19.406 11.216L38.94 11.215z" transform="translate(357.699 369.425)" fill="url(#paint33_linear)"/></g></g><path d="M59.48 0L0 34.276v68.678l59.48-34.402V0z" transform="translate(140.828 294.446)" fill="url(#paint34_linear)"/><path d="M0 0v68.552l59.353 34.402V34.276L0 0z" transform="translate(81.474 294.446)" fill="url(#paint35_linear)"/><path d="M118.832 34.276L59.353 0 0 34.276l59.353 34.276 59.479-34.276z" transform="translate(81.474 260.17)" fill="url(#paint36_linear)"/><path d="M38.939 0L0 22.43v44.862l38.939-22.43V0z" transform="translate(140.828 305.787)" fill="url(#paint37_linear)"/><path d="M0 0v44.861l38.813 22.431V22.431L0 0z" transform="translate(102.015 305.787)" fill="url(#paint38_linear)"/><path d="M77.751 22.557L38.813 0 0 22.557l38.813 22.43 38.938-22.43z" transform="translate(102.015 283.231)" fill="url(#paint39_linear)"/><path d="M14.87 0L0 8.569v119.714l14.87-8.569V0z" transform="translate(140.828 176.118)" fill="url(#paint40_linear)"/><path d="M0 0v119.714l14.87 8.569V8.569L0 0z" transform="translate(125.958 176.118)" fill="url(#paint41_linear)"/><path d="M29.74 8.569L14.87 0 0 8.569l14.87 8.569 14.87-8.569z" transform="translate(125.958 167.549)" fill="url(#paint42_linear)"/><path d="M102.198 79.642l.504-17.138L.504 0 0 17.264l102.198 62.378z" transform="translate(163.006 344.222)" fill="url(#paint43_linear)"/><path d="M117.194 62.504L14.996 0 0 8.191l102.198 62.504 14.996-8.191z" transform="translate(163.51 336.031)" fill="url(#paint44_linear)"/><path d="M0 25.329l15.122-8.19L15.5 0 .504 8.191 0 25.329z" transform="translate(265.204 398.534)" fill="url(#paint45_linear)"/><path d="M59.48 0L0 34.276v68.678l59.48-34.402V0z" transform="translate(140.828 122.561)" fill="url(#paint46_linear)"/><path d="M0 0v68.552l59.353 34.402V34.276L0 0z" transform="translate(81.474 122.561)" fill="url(#paint47_linear)"/><path d="M118.832 34.402L59.353 0 0 34.402l59.353 34.276 59.479-34.276z" transform="translate(81.474 88.16)" fill="url(#paint48_linear)"/><path d="M38.939 0L0 22.557v44.861l38.939-22.43V0z" transform="translate(140.828 133.777)" fill="url(#paint49_linear)"/><path d="M0 0v44.987l38.813 22.431V22.557L0 0z" transform="translate(102.015 133.777)" fill="url(#paint50_linear)"/><path d="M77.751 22.43L38.813 0 0 22.43l38.813 22.557L77.75 22.431z" transform="translate(102.015 111.346)" fill="url(#paint51_linear)"/><path d="M59.48 0L0 34.276v68.678l59.48-34.276V0z" transform="translate(280.704 383.161)" fill="url(#paint52_linear)"/><path d="M0 0v68.678l59.48 34.276V34.276L0 0z" transform="translate(221.225 383.161)" fill="url(#paint53_linear)"/><path d="M118.958 34.276L59.479 0 0 34.276l59.48 34.276 59.478-34.276z" transform="translate(221.225 348.884)" fill="url(#paint54_linear)"/><path d="M38.939 0L0 22.43v44.988l38.939-22.557V0z" transform="translate(280.704 394.502)" fill="url(#paint55_linear)"/><path d="M0 0v44.861l38.939 22.557V22.431L0 0z" transform="translate(241.766 394.502)" fill="url(#paint56_linear)"/><path d="M77.877 22.43L38.94 0 0 22.43l38.939 22.431 38.938-22.43z" transform="translate(241.766 372.071)" fill="url(#paint57_linear)"/><path d="M168.734 0l-64.015 37.3L55.195 8.066 0 40.829" transform="translate(75.93 454.863)" stroke="url(#paint58_linear)" stroke-miterlimit="10"/><path d="M0 0l29.866 16.256" transform="translate(325.188 460.408)" stroke="url(#paint59_linear)" stroke-miterlimit="10"/><path d="M0 72.837V0" transform="translate(88.28 45.692)" stroke="url(#paint60_linear)" stroke-miterlimit="10"/><path d="M0 72.963V0" transform="translate(111.088 33.973)" stroke="url(#paint61_linear)" stroke-miterlimit="10"/><path d="M63.076 497.709l10.46 6.048 10.459-6.048-10.46-6.049-10.459 6.049zm32.89.881l10.585 6.05 10.46-6.05-10.46-6.174-10.585 6.175zm180.58 51.919l10.585 6.048 10.46-6.048-10.46-6.175-10.585 6.175zm71.45-71.577l10.585 6.048 10.46-6.048-10.46-6.049-10.585 6.049z" fill="#fff"/><path d="M144.413 0L75.735 42.467 26.463 12.98 0 28.73" transform="translate(106.551 468.977)" stroke="url(#paint62_linear)" stroke-miterlimit="10"/><path d="M50.532 0L0 32.512l73.97 41.207" transform="translate(217.697 478.932)" stroke="url(#paint63_linear)" stroke-miterlimit="10"/><path d="M0 35.032L59.48 0" transform="translate(200.307 269.369)" stroke="url(#paint64_linear)" stroke-miterlimit="10"/><path d="M0 23.313L39.695 0" transform="translate(172.457 255.507)" stroke="url(#paint65_linear)" stroke-miterlimit="10"/><path d="M0 35.032L59.353 0" transform="translate(157.083 234.337)" stroke="url(#paint66_linear)" stroke-miterlimit="10"/><path d="M93.446 36.745l-10.333 5.923v11.971l10.333-5.923v-11.97zm119.336 194.567l-10.333 5.923v11.971l10.333-5.923v-11.971zm0 17.894l-10.333 6.049V267.1l10.333-5.923v-11.971zm43.853 16.13l-10.333 6.049v11.845l10.333-5.923v-11.971zM116.254 23.765l-10.333 6.05V41.66l10.333-5.923V23.765z" fill="#fff"/><defs><linearGradient id="paint0_linear" x2="1" gradientUnits="userSpaceOnUse" gradientTransform="rotate(35.875 182.235 25.204) scale(355.216)"><stop stop-color="#fff"/><stop offset="1" stop-color="#00AA8B" stop-opacity="0"/></linearGradient><linearGradient id="paint1_linear" x2="1" gradientUnits="userSpaceOnUse" gradientTransform="rotate(90 315.655 204.719) scale(717.444)"><stop stop-color="#fff"/><stop offset="1" stop-color="#00AA8B" stop-opacity="0"/></linearGradient><linearGradient id="paint2_linear" x2="1" gradientUnits="userSpaceOnUse" gradientTransform="rotate(35.875 119.233 16.54) scale(232.521)"><stop stop-color="#fff"/><stop offset="1" stop-color="#00AA8B" stop-opacity="0"/></linearGradient><linearGradient id="paint3_linear" x2="1" gradientUnits="userSpaceOnUse" gradientTransform="rotate(90 206.677 133.968) scale(469.632)"><stop stop-color="#fff"/><stop offset="1" stop-color="#00AA8B" stop-opacity="0"/></linearGradient><linearGradient id="paint4_linear" x2="1" gradientUnits="userSpaceOnUse" gradientTransform="rotate(-90 17.108 31.028) scale(57.6496)"><stop stop-color="#fff"/><stop offset="1" stop-color="#00AA8B" stop-opacity="0"/></linearGradient><linearGradient id="paint5_linear" x2="1" gradientUnits="userSpaceOnUse" gradientTransform="rotate(35.875 33.545 4.515) scale(65.3148)"><stop stop-color="#fff"/><stop offset="1" stop-color="#00AA8B" stop-opacity="0"/></linearGradient><linearGradient id="paint6_linear" x2="1" gradientUnits="userSpaceOnUse" gradientTransform="rotate(90 57.984 37.636) scale(131.919)"><stop stop-color="#fff"/><stop offset="1" stop-color="#00AA8B" stop-opacity="0"/></linearGradient><linearGradient id="paint7_linear" x2="1" gradientUnits="userSpaceOnUse" gradientTransform="rotate(-90 11.195 20.29) scale(37.737)"><stop stop-color="#fff"/><stop offset="1" stop-color="#00AA8B" stop-opacity="0"/></linearGradient><linearGradient id="paint8_linear" x2="1" gradientUnits="userSpaceOnUse" gradientTransform="rotate(35.875 22.016 3.002) scale(42.7544)"><stop stop-color="#fff"/><stop offset="1" stop-color="#00AA8B" stop-opacity="0"/></linearGradient><linearGradient id="paint9_linear" x2="1" gradientUnits="userSpaceOnUse" gradientTransform="rotate(90 37.967 24.663) scale(86.3524)"><stop stop-color="#fff"/><stop offset="1" stop-color="#00AA8B" stop-opacity="0"/></linearGradient><linearGradient id="paint10_linear" x2="1" gradientUnits="userSpaceOnUse" gradientTransform="rotate(-90 25.154 45.754) scale(84.7973)"><stop stop-color="#fff"/><stop offset="1" stop-color="#00AA8B" stop-opacity="0"/></linearGradient><linearGradient id="paint11_linear" x2="1" gradientUnits="userSpaceOnUse" gradientTransform="rotate(35.875 49.201 6.758) scale(96.0717)"><stop stop-color="#fff"/><stop offset="1" stop-color="#00AA8B" stop-opacity="0"/></linearGradient><linearGradient id="paint12_linear" x2="1" gradientUnits="userSpaceOnUse" gradientTransform="rotate(90 85.353 55.337) scale(194.04)"><stop stop-color="#fff"/><stop offset="1" stop-color="#00AA8B" stop-opacity="0"/></linearGradient><linearGradient id="paint13_linear" x2="1" gradientUnits="userSpaceOnUse" gradientTransform="rotate(-90 16.468 29.972) scale(55.5074)"><stop stop-color="#fff"/><stop offset="1" stop-color="#00AA8B" stop-opacity="0"/></linearGradient><linearGradient id="paint14_linear" x2="1" gradientUnits="userSpaceOnUse" gradientTransform="rotate(35.875 32.215 4.573) scale(62.8876)"><stop stop-color="#fff"/><stop offset="1" stop-color="#00AA8B" stop-opacity="0"/></linearGradient><linearGradient id="paint15_linear" x2="1" gradientUnits="userSpaceOnUse" gradientTransform="rotate(90 55.898 36.284) scale(127.016)"><stop stop-color="#fff"/><stop offset="1" stop-color="#00AA8B" stop-opacity="0"/></linearGradient><linearGradient id="paint16_linear" x2="1" gradientUnits="userSpaceOnUse" gradientTransform="rotate(-90 17.118 31.111) scale(57.6497)"><stop stop-color="#fff"/><stop offset="1" stop-color="#00AA8B" stop-opacity="0"/></linearGradient><linearGradient id="paint17_linear" x2="1" gradientUnits="userSpaceOnUse" gradientTransform="rotate(35.875 33.428 4.643) scale(65.3147)"><stop stop-color="#fff"/><stop offset="1" stop-color="#00AA8B" stop-opacity="0"/></linearGradient><linearGradient id="paint18_linear" x2="1" gradientUnits="userSpaceOnUse" gradientTransform="rotate(90 58.026 37.646) scale(131.918)"><stop stop-color="#fff"/><stop offset="1" stop-color="#00AA8B" stop-opacity="0"/></linearGradient><linearGradient id="paint19_linear" x2="1" gradientUnits="userSpaceOnUse" gradientTransform="rotate(-90 11.205 20.373) scale(37.737)"><stop stop-color="#fff"/><stop offset="1" stop-color="#00AA8B" stop-opacity="0"/></linearGradient><linearGradient id="paint20_linear" x2="1" gradientUnits="userSpaceOnUse" gradientTransform="rotate(35.875 21.898 3.13) scale(42.7543)"><stop stop-color="#fff"/><stop offset="1" stop-color="#00AA8B" stop-opacity="0"/></linearGradient><linearGradient id="paint21_linear" x2="1" gradientUnits="userSpaceOnUse" gradientTransform="matrix(0 86.3528 -86.3527 0 62.692 -13.298)"><stop stop-color="#fff"/><stop offset="1" stop-color="#00AA8B" stop-opacity="0"/></linearGradient><linearGradient id="paint22_linear" x2="1" gradientUnits="userSpaceOnUse" gradientTransform="rotate(-90 17.11 31.095) scale(57.6498)"><stop stop-color="#fff"/><stop offset="1" stop-color="#00AA8B" stop-opacity="0"/></linearGradient><linearGradient id="paint23_linear" x2="1" gradientUnits="userSpaceOnUse" gradientTransform="rotate(35.875 33.47 4.642) scale(65.3146)"><stop stop-color="#fff"/><stop offset="1" stop-color="#00AA8B" stop-opacity="0"/></linearGradient><linearGradient id="paint24_linear" x2="1" gradientUnits="userSpaceOnUse" gradientTransform="rotate(90 58.043 37.637) scale(131.918)"><stop stop-color="#fff"/><stop offset="1" stop-color="#00AA8B" stop-opacity="0"/></linearGradient><linearGradient id="paint25_linear" x2="1" gradientUnits="userSpaceOnUse" gradientTransform="rotate(-90 11.196 20.357) scale(37.737)"><stop stop-color="#fff"/><stop offset="1" stop-color="#00AA8B" stop-opacity="0"/></linearGradient><linearGradient id="paint26_linear" x2="1" gradientUnits="userSpaceOnUse" gradientTransform="rotate(35.875 21.941 3.129) scale(42.7545)"><stop stop-color="#fff"/><stop offset="1" stop-color="#00AA8B" stop-opacity="0"/></linearGradient><linearGradient id="paint27_linear" x2="1" gradientUnits="userSpaceOnUse" gradientTransform="rotate(90 38.026 24.664) scale(86.3527)"><stop stop-color="#fff"/><stop offset="1" stop-color="#00AA8B" stop-opacity="0"/></linearGradient><linearGradient id="paint28_linear" x2="1" gradientUnits="userSpaceOnUse" gradientTransform="rotate(-90 17.11 31.06) scale(57.6496)"><stop stop-color="#fff"/><stop offset="1" stop-color="#00AA8B" stop-opacity="0"/></linearGradient><linearGradient id="paint29_linear" x2="1" gradientUnits="userSpaceOnUse" gradientTransform="rotate(35.875 33.542 4.68) scale(65.3148)"><stop stop-color="#fff"/><stop offset="1" stop-color="#00AA8B" stop-opacity="0"/></linearGradient><linearGradient id="paint30_linear" x2="1" gradientUnits="userSpaceOnUse" gradientTransform="rotate(90 58.078 37.638) scale(131.918)"><stop stop-color="#fff"/><stop offset="1" stop-color="#00AA8B" stop-opacity="0"/></linearGradient><linearGradient id="paint31_linear" x2="1" gradientUnits="userSpaceOnUse" gradientTransform="rotate(-90 11.197 20.321) scale(37.737)"><stop stop-color="#fff"/><stop offset="1" stop-color="#00AA8B" stop-opacity="0"/></linearGradient><linearGradient id="paint32_linear" x2="1" gradientUnits="userSpaceOnUse" gradientTransform="rotate(35.875 21.95 2.973) scale(42.7544)"><stop stop-color="#fff"/><stop offset="1" stop-color="#00AA8B" stop-opacity="0"/></linearGradient><linearGradient id="paint33_linear" x2="1" gradientUnits="userSpaceOnUse" gradientTransform="matrix(0 86.3527 -86.3528 0 62.6 -13.397)"><stop stop-color="#fff"/><stop offset="1" stop-color="#00AA8B" stop-opacity="0"/></linearGradient><linearGradient id="paint34_linear" x2="1" gradientUnits="userSpaceOnUse" gradientTransform="rotate(-90 34.223 62.125) scale(115.304)"><stop stop-color="#fff"/><stop offset="1" stop-color="#007F5A" stop-opacity="0"/></linearGradient><linearGradient id="paint35_linear" x2="1" gradientUnits="userSpaceOnUse" gradientTransform="rotate(35.875 67.012 9.162) scale(130.634)"><stop stop-color="#fff"/><stop offset="1" stop-color="#007F5A" stop-opacity="0"/></linearGradient><linearGradient id="paint36_linear" x2="1" gradientUnits="userSpaceOnUse" gradientTransform="rotate(90 116.093 75.215) scale(263.847)"><stop stop-color="#fff"/><stop offset="1" stop-color="#007F5A" stop-opacity="0"/></linearGradient><linearGradient id="paint37_linear" x2="1" gradientUnits="userSpaceOnUse" gradientTransform="rotate(-90 22.396 40.648) scale(75.4769)"><stop stop-color="#fff"/><stop offset="1" stop-color="#007F5A" stop-opacity="0"/></linearGradient><linearGradient id="paint38_linear" x2="1" gradientUnits="userSpaceOnUse" gradientTransform="rotate(35.875 43.889 5.943) scale(85.5121)"><stop stop-color="#fff"/><stop offset="1" stop-color="#007F5A" stop-opacity="0"/></linearGradient><linearGradient id="paint39_linear" x2="1" gradientUnits="userSpaceOnUse" gradientTransform="rotate(90 75.932 49.27) scale(172.712)"><stop stop-color="#fff"/><stop offset="1" stop-color="#007F5A" stop-opacity="0"/></linearGradient><linearGradient id="paint40_linear" x2="1" gradientUnits="userSpaceOnUse" gradientTransform="rotate(-90 27.844 92.25) scale(143.742)"><stop stop-color="#fff"/><stop offset="1" stop-color="#007F5A" stop-opacity="0"/></linearGradient><linearGradient id="paint41_linear" x2="1" gradientUnits="userSpaceOnUse" gradientTransform="rotate(35.875 10.566 -6.563) scale(105.058)"><stop stop-color="#fff"/><stop offset="1" stop-color="#007F5A" stop-opacity="0"/></linearGradient><linearGradient id="paint42_linear" x2="1" gradientUnits="userSpaceOnUse" gradientTransform="rotate(90 29.071 18.814) scale(65.9617)"><stop stop-color="#fff"/><stop offset="1" stop-color="#007F5A" stop-opacity="0"/></linearGradient><linearGradient id="paint43_linear" x2="1" gradientUnits="userSpaceOnUse" gradientTransform="rotate(31.439 110.52 47.647) scale(143.742)"><stop stop-color="#fff"/><stop offset="1" stop-color="#007F5A" stop-opacity="0"/></linearGradient><linearGradient id="paint44_linear" x2="1" gradientUnits="userSpaceOnUse" gradientTransform="rotate(157.314 55.756 44.863) scale(105.055)"><stop stop-color="#fff"/><stop offset="1" stop-color="#007F5A" stop-opacity="0"/></linearGradient><linearGradient id="paint45_linear" x2="1" gradientUnits="userSpaceOnUse" gradientTransform="rotate(-148.561 10.418 24.382) scale(65.9619)"><stop stop-color="#fff"/><stop offset="1" stop-color="#007F5A" stop-opacity="0"/></linearGradient><linearGradient id="paint46_linear" x2="1" gradientUnits="userSpaceOnUse" gradientTransform="rotate(-90 34.205 62.105) scale(115.304)"><stop stop-color="#fff"/><stop offset="1" stop-color="#007F5A" stop-opacity="0"/></linearGradient><linearGradient id="paint47_linear" x2="1" gradientUnits="userSpaceOnUse" gradientTransform="rotate(35.875 67.071 9.146) scale(130.635)"><stop stop-color="#fff"/><stop offset="1" stop-color="#007F5A" stop-opacity="0"/></linearGradient><linearGradient id="paint48_linear" x2="1" gradientUnits="userSpaceOnUse" gradientTransform="rotate(90 116.05 75.26) scale(263.847)"><stop stop-color="#fff"/><stop offset="1" stop-color="#007F5A" stop-opacity="0"/></linearGradient><linearGradient id="paint49_linear" x2="1" gradientUnits="userSpaceOnUse" gradientTransform="rotate(-90 22.441 40.692) scale(75.4768)"><stop stop-color="#fff"/><stop offset="1" stop-color="#007F5A" stop-opacity="0"/></linearGradient><linearGradient id="paint50_linear" x2="1" gradientUnits="userSpaceOnUse" gradientTransform="rotate(35.875 43.753 5.99) scale(85.5121)"><stop stop-color="#fff"/><stop offset="1" stop-color="#007F5A" stop-opacity="0"/></linearGradient><linearGradient id="paint51_linear" x2="1" gradientUnits="userSpaceOnUse" gradientTransform="rotate(90 75.952 49.251) scale(172.712)"><stop stop-color="#fff"/><stop offset="1" stop-color="#007F5A" stop-opacity="0"/></linearGradient><linearGradient id="paint52_linear" x2="1" gradientUnits="userSpaceOnUse" gradientTransform="rotate(-90 34.228 62.145) scale(115.304)"><stop stop-color="#fff"/><stop offset="1" stop-color="#007F5A" stop-opacity="0"/></linearGradient><linearGradient id="paint53_linear" x2="1" gradientUnits="userSpaceOnUse" gradientTransform="rotate(35.875 67.029 9.345) scale(130.634)"><stop stop-color="#fff"/><stop offset="1" stop-color="#007F5A" stop-opacity="0"/></linearGradient><linearGradient id="paint54_linear" x2="1" gradientUnits="userSpaceOnUse" gradientTransform="rotate(90 116.136 75.283) scale(263.847)"><stop stop-color="#fff"/><stop offset="1" stop-color="#007F5A" stop-opacity="0"/></linearGradient><linearGradient id="paint55_linear" x2="1" gradientUnits="userSpaceOnUse" gradientTransform="rotate(-90 22.4 40.669) scale(75.4769)"><stop stop-color="#fff"/><stop offset="1" stop-color="#007F5A" stop-opacity="0"/></linearGradient><linearGradient id="paint56_linear" x2="1" gradientUnits="userSpaceOnUse" gradientTransform="rotate(35.875 43.906 6.126) scale(85.5122)"><stop stop-color="#fff"/><stop offset="1" stop-color="#007F5A" stop-opacity="0"/></linearGradient><linearGradient id="paint57_linear" x2="1" gradientUnits="userSpaceOnUse" gradientTransform="rotate(90 76.038 49.274) scale(172.712)"><stop stop-color="#fff"/><stop offset="1" stop-color="#007F5A" stop-opacity="0"/></linearGradient><linearGradient id="paint58_linear" x2="1" gradientUnits="userSpaceOnUse" gradientTransform="translate(-.351 -64.321) scale(169.465)"><stop stop-color="#fff"/><stop offset="1" stop-color="#009479" stop-opacity="0"/></linearGradient><linearGradient id="paint59_linear" x2="1" gradientUnits="userSpaceOnUse" gradientTransform="translate(-.249 -7.06) scale(30.4119)"><stop stop-color="#006A54" stop-opacity="0"/><stop offset="1" stop-color="#fff"/></linearGradient><linearGradient id="paint60_linear" x2="1" gradientUnits="userSpaceOnUse" gradientTransform="scale(1 72.8367)"><stop stop-color="#fff"/><stop offset="1" stop-color="#006A5C" stop-opacity="0"/></linearGradient><linearGradient id="paint61_linear" x2="1" gradientUnits="userSpaceOnUse" gradientTransform="scale(1 72.9627)"><stop stop-color="#fff"/><stop offset="1" stop-color="#006A5C" stop-opacity="0"/></linearGradient><linearGradient id="paint62_linear" x2="1" gradientUnits="userSpaceOnUse" gradientTransform="translate(-.364 -51.272) scale(145.146)"><stop stop-color="#fff"/><stop offset="1" stop-color="#009479" stop-opacity="0"/></linearGradient><linearGradient id="paint63_linear" x2="1" gradientUnits="userSpaceOnUse" gradientTransform="rotate(-93.08 37.007 39.203) scale(75.9819)"><stop stop-color="#fff"/><stop offset="1" stop-color="#009479" stop-opacity="0"/></linearGradient><linearGradient id="paint64_linear" x2="1" gradientUnits="userSpaceOnUse" gradientTransform="translate(-.33 -12.505) scale(60.0738)"><stop stop-color="#fff"/><stop offset="1" stop-color="#00554A" stop-opacity="0"/></linearGradient><linearGradient id="paint65_linear" x2="1" gradientUnits="userSpaceOnUse" gradientTransform="translate(-.346 -8.507) scale(40.3013)"><stop stop-color="#fff"/><stop offset="1" stop-color="#00554A" stop-opacity="0"/></linearGradient><linearGradient id="paint66_linear" x2="1" gradientUnits="userSpaceOnUse" gradientTransform="translate(-.383 -12.502) scale(60.0737)"><stop stop-color="#fff"/><stop offset="1" stop-color="#00554A" stop-opacity="0"/></linearGradient></defs></svg>