<svg width="636" height="710" fill="none" xmlns="http://www.w3.org/2000/svg"><g opacity=".21"><g opacity=".21"><path opacity=".21" d="M161.551 0L0 93.251V279.88l161.551-93.252V0z" transform="rotate(120 77.44 472.647)" fill="url(#paint0_linear)"/><path opacity=".21" d="M0 0v186.628l161.677 93.252V93.251L0 0z" transform="rotate(120 158.278 425.975)" fill="url(#paint1_linear)"/><path opacity=".21" d="M323.229 93.377L161.677 0 0 93.377l161.677 93.251 161.552-93.25z" transform="rotate(120 185.234 472.663)" fill="url(#paint2_linear)"/></g><g opacity=".21"><path opacity=".21" d="M105.727 0L0 61.117v122.109l105.727-60.991V0z" transform="rotate(120 68.563 457.274)" fill="url(#paint3_linear)"/><path opacity=".21" d="M0 0v122.235l105.853 60.991V61.117L0 0z" transform="rotate(120 121.49 426.716)" fill="url(#paint4_linear)"/><path opacity=".21" d="M211.579 60.991L105.853 0 0 60.991l105.853 61.118 105.726-61.118z" transform="rotate(120 139.096 457.212)" fill="url(#paint5_linear)"/></g></g><g opacity=".21"><g opacity=".21"><path opacity=".21" d="M29.74 0L0 17.138v34.276l29.74-17.138V0z" transform="rotate(120 185.098 217.351)" fill="url(#paint6_linear)"/><path opacity=".21" d="M0 0v34.276l29.613 17.138V17.138L0 0z" transform="rotate(120 199.905 208.802)" fill="url(#paint7_linear)"/><path opacity=".21" d="M59.353 17.264L29.613 0 0 17.264l29.614 17.138 29.74-17.138z" transform="rotate(120 204.889 217.435)" fill="url(#paint8_linear)"/></g><g opacity=".21"><path opacity=".21" d="M19.532 0L0 11.215v22.431l19.532-11.215V0z" transform="rotate(120 183.461 214.515)" fill="url(#paint9_linear)"/><path opacity=".21" d="M0 0v22.43l19.406 11.216v-22.43L0 0z" transform="rotate(120 193.164 208.914)" fill="url(#paint10_linear)"/><path opacity=".21" d="M38.939 11.341L19.406 0 0 11.341l19.406 11.216L38.94 11.34z" transform="rotate(120 196.439 214.584)" fill="url(#paint11_linear)"/></g></g><g opacity=".21"><g opacity=".21"><path opacity=".21" d="M43.601 0L0 25.329v50.406l43.601-25.203V0z" transform="rotate(120 139.917 145.06)" fill="url(#paint12_linear)"/><path opacity=".21" d="M0 0v50.532l43.727 25.203V25.33L0 0z" transform="rotate(120 161.78 132.438)" fill="url(#paint13_linear)"/><path opacity=".21" d="M87.329 25.203L43.727 0 0 25.203l43.727 25.33 43.602-25.33z" transform="rotate(120 169.056 145.04)" fill="url(#paint14_linear)"/></g><g opacity=".21"><path opacity=".21" d="M28.605 0L0 16.508V49.65l28.605-16.508V0z" transform="rotate(120 137.516 140.902)" fill="url(#paint15_linear)"/><path opacity=".21" d="M0 0v33.142L28.731 49.65V16.508L0 0z" transform="rotate(120 151.882 132.608)" fill="url(#paint16_linear)"/><path opacity=".21" d="M57.337 16.508L28.73 0 0 16.508l28.731 16.508 28.606-16.508z" transform="rotate(120 156.647 140.862)" fill="url(#paint17_linear)"/></g></g><g opacity=".21"><g opacity=".21"><path opacity=".21" d="M29.74 0L0 17.264V51.54l29.74-17.138V0z" transform="rotate(120 124.428 239.442)" fill="url(#paint18_linear)"/><path opacity=".21" d="M0 0v34.402L29.74 51.54V17.264L0 0z" transform="rotate(120 139.297 230.857)" fill="url(#paint19_linear)"/><path opacity=".21" d="M59.48 17.138L29.74 0 0 17.138l29.74 17.264 29.74-17.264z" transform="rotate(120 144.244 239.425)" fill="url(#paint20_linear)"/></g><g opacity=".21"><path opacity=".21" d="M19.406 0L0 11.215v22.557l19.406-11.215V0z" transform="rotate(120 122.79 236.606)" fill="url(#paint21_linear)"/><path opacity=".21" d="M0 0v22.557l19.532 11.215V11.215L0 0z" transform="rotate(120 132.557 230.968)" fill="url(#paint22_linear)"/><path opacity=".21" d="M38.939 11.215L19.532 0 0 11.215l19.532 11.216L38.94 11.215z" transform="rotate(120 135.794 236.576)" fill="url(#paint23_linear)"/></g></g><g opacity=".21"><g opacity=".21"><path opacity=".21" d="M29.74 0L0 17.138v34.276l29.74-17.138V0z" transform="rotate(120 33.344 317.988)" fill="url(#paint24_linear)"/><path opacity=".21" d="M0 0v34.276l29.74 17.138V17.138L0 0z" transform="rotate(120 48.214 309.403)" fill="url(#paint25_linear)"/><path opacity=".21" d="M59.48 17.138L29.74 0 0 17.138l29.74 17.138 29.74-17.138z" transform="rotate(120 53.16 317.972)" fill="url(#paint26_linear)"/></g><g opacity=".21"><path opacity=".21" d="M19.532 0L0 11.215v22.431l19.532-11.215V0z" transform="rotate(120 31.707 315.152)" fill="url(#paint27_linear)"/><path opacity=".21" d="M0 0v22.43l19.406 11.216v-22.43L0 0z" transform="rotate(120 41.41 309.55)" fill="url(#paint28_linear)"/><path opacity=".21" d="M38.939 11.215L19.406 0 0 11.215l19.406 11.216L38.94 11.215z" transform="rotate(120 44.647 315.158)" fill="url(#paint29_linear)"/></g></g><g opacity=".21"><g opacity=".21"><path opacity=".21" d="M50.532 0L0 29.11v58.344l50.532-29.109V0z" transform="rotate(120 -72.728 329.83)" fill="url(#paint30_linear)"/><path opacity=".21" d="M0 0v58.345l50.532 29.11V29.108L0 0z" transform="rotate(120 -47.463 315.243)" fill="url(#paint31_linear)"/><path opacity=".21" d="M101.064 29.11L50.532 0 0 29.11l50.532 29.109 50.532-29.11z" transform="rotate(120 -39.059 329.798)" fill="url(#paint32_linear)"/></g><g opacity=".21"><path opacity=".21" d="M33.016 0L0 19.154v38.183l33.016-19.154V0z" transform="rotate(120 -75.493 325.042)" fill="url(#paint33_linear)"/><path opacity=".21" d="M0 0v38.183l33.016 19.154V19.154L0 0z" transform="rotate(120 -58.985 315.511)" fill="url(#paint34_linear)"/><path opacity=".21" d="M66.032 19.028L33.016 0 0 19.028l33.016 19.155 33.016-19.155z" transform="rotate(120 -53.492 325.025)" fill="url(#paint35_linear)"/></g></g><path d="M59.48 0L0 34.276v68.678l59.48-34.402V0z" transform="rotate(120 174.728 290.042)" fill="url(#paint36_linear)"/><path d="M0 0v68.552l59.353 34.402V34.276L0 0z" transform="rotate(120 204.405 272.909)" fill="url(#paint37_linear)"/><path d="M118.832 34.276L59.353 0 0 34.276l59.353 34.276 59.479-34.276z" transform="rotate(120 214.3 290.047)" fill="url(#paint38_linear)"/><path d="M38.939 0L0 22.43v44.862l38.939-22.43V0z" transform="rotate(120 171.454 284.371)" fill="url(#paint39_linear)"/><path d="M0 0v44.861l38.813 22.431V22.431L0 0z" transform="rotate(120 190.86 273.167)" fill="url(#paint40_linear)"/><path d="M77.751 22.557L38.813 0 0 22.557l38.813 22.43 38.938-22.43z" transform="rotate(120 197.372 284.445)" fill="url(#paint41_linear)"/><path d="M14.87 0L0 8.569v119.714l14.87-8.569V0z" transform="rotate(120 208.886 349.206)" fill="url(#paint42_linear)"/><path d="M0 0v119.714l14.87 8.569V8.569L0 0z" transform="rotate(120 216.321 344.914)" fill="url(#paint43_linear)"/><path d="M29.74 8.569L14.87 0 0 8.569l14.87 8.569 14.87-8.569z" transform="rotate(120 218.795 349.198)" fill="url(#paint44_linear)"/><path d="M102.198 79.642l.504-17.138L.504 0 0 17.264l102.198 62.378z" transform="rotate(120 149.27 271.556)" fill="url(#paint45_linear)"/><path d="M117.194 62.504L14.996 0 0 8.191l102.198 62.504 14.996-8.191z" transform="rotate(120 151.382 275.797)" fill="url(#paint46_linear)"/><path d="M0 25.329l15.122-8.19L15.5 0 .504 8.191 0 25.329z" transform="rotate(120 82.492 273.902)" fill="url(#paint47_linear)"/><path d="M59.48 0L0 34.276v68.678l59.48-34.402V0z" transform="rotate(120 224.347 375.984)" fill="url(#paint48_linear)"/><path d="M0 0v68.552l59.353 34.402V34.276L0 0z" transform="rotate(120 254.024 358.85)" fill="url(#paint49_linear)"/><path d="M118.832 34.402L59.353 0 0 34.402l59.353 34.276 59.479-34.276z" transform="rotate(120 263.955 376.052)" fill="url(#paint50_linear)"/><path d="M38.939 0L0 22.557v44.861l38.939-22.43V0z" transform="rotate(120 221.11 370.377)" fill="url(#paint51_linear)"/><path d="M0 0v44.987l38.813 22.431V22.557L0 0z" transform="rotate(120 240.516 359.172)" fill="url(#paint52_linear)"/><path d="M77.751 22.43L38.813 0 0 22.43l38.813 22.557L77.75 22.431z" transform="rotate(120 246.991 370.388)" fill="url(#paint53_linear)"/><path d="M59.48 0L0 34.276v68.678l59.48-34.276V0z" transform="rotate(120 79.18 286.064)" fill="url(#paint54_linear)"/><path d="M0 0v68.678l59.48 34.276V34.276L0 0z" transform="rotate(120 108.92 268.893)" fill="url(#paint55_linear)"/><path d="M118.958 34.276L59.479 0 0 34.276l59.48 34.276 59.478-34.276z" transform="rotate(120 118.814 286.031)" fill="url(#paint56_linear)"/><path d="M38.939 0L0 22.43v44.988l38.939-22.557V0z" transform="rotate(120 75.906 280.393)" fill="url(#paint57_linear)"/><path d="M0 0v44.861l38.939 22.557V22.431L0 0z" transform="rotate(120 95.375 269.152)" fill="url(#paint58_linear)"/><path d="M77.877 22.43L38.94 0 0 22.43l38.939 22.431 38.938-22.43z" transform="rotate(120 101.851 280.368)" fill="url(#paint59_linear)"/><path d="M168.734 0l-64.015 37.3L55.195 8.066 0 40.829" transform="rotate(120 160.869 191.099)" stroke="url(#paint60_linear)" stroke-miterlimit="10"/><path d="M0 0l29.866 16.256" transform="rotate(120 34.64 260.282)" stroke="url(#paint61_linear)" stroke-miterlimit="10"/><path d="M376.122 114.778l-10.468 6.033.008 12.083 10.468-6.034-.008-12.082zm-17.209 28.042l-10.531 6.143.008 12.083 10.577-5.97-.054-12.255zM223.66 273.248l-10.53 6.142.008 12.083 10.577-5.97-.055-12.255zm26.262 97.667l-10.531 6.142.008 12.083 10.468-6.034.055-12.191z" fill="#fff"/><path d="M144.413 0L75.735 42.467 26.463 12.98 0 28.73" transform="rotate(120 141.483 192.882)" stroke="url(#paint62_linear)" stroke-miterlimit="10"/><path d="M50.532 0L0 32.512l73.97 41.207" transform="rotate(120 83.037 219.99)" stroke="url(#paint63_linear)" stroke-miterlimit="10"/><path d="M0 35.032L59.48 0" transform="rotate(120 152.228 319.75)" stroke="url(#paint64_linear)" stroke-miterlimit="10"/><path d="M0 23.313L39.695 0" transform="rotate(120 170.154 318.642)" stroke="url(#paint65_linear)" stroke-miterlimit="10"/><path d="M0 35.032L59.353 0" transform="rotate(120 183.952 324.79)" stroke="url(#paint66_linear)" stroke-miterlimit="10"/><path d="M531.974 377.626l.038-11.91-10.368-5.986-.037 11.91 10.367 5.986zm-15.497-8.948l-.071-11.973-10.259-5.923-.037 11.91 10.367 5.986zm-35.896 29.912l-.071-11.972-10.259-5.923-.037 11.91 10.367 5.986z" fill="#fff"/><defs><linearGradient id="paint0_linear" x2="1" gradientUnits="userSpaceOnUse" gradientTransform="rotate(-90 93.024 169.006) scale(313.53)"><stop stop-color="#fff"/><stop offset="1" stop-color="#00AA8B" stop-opacity="0"/></linearGradient><linearGradient id="paint1_linear" x2="1" gradientUnits="userSpaceOnUse" gradientTransform="rotate(35.875 182.235 25.204) scale(355.216)"><stop stop-color="#fff"/><stop offset="1" stop-color="#00AA8B" stop-opacity="0"/></linearGradient><linearGradient id="paint2_linear" x2="1" gradientUnits="userSpaceOnUse" gradientTransform="rotate(90 315.655 204.719) scale(717.444)"><stop stop-color="#fff"/><stop offset="1" stop-color="#00AA8B" stop-opacity="0"/></linearGradient><linearGradient id="paint3_linear" x2="1" gradientUnits="userSpaceOnUse" gradientTransform="rotate(-90 60.91 110.654) scale(205.234)"><stop stop-color="#fff"/><stop offset="1" stop-color="#00AA8B" stop-opacity="0"/></linearGradient><linearGradient id="paint4_linear" x2="1" gradientUnits="userSpaceOnUse" gradientTransform="rotate(35.875 119.233 16.54) scale(232.521)"><stop stop-color="#fff"/><stop offset="1" stop-color="#00AA8B" stop-opacity="0"/></linearGradient><linearGradient id="paint5_linear" x2="1" gradientUnits="userSpaceOnUse" gradientTransform="rotate(90 206.677 133.968) scale(469.632)"><stop stop-color="#fff"/><stop offset="1" stop-color="#00AA8B" stop-opacity="0"/></linearGradient><linearGradient id="paint6_linear" x2="1" gradientUnits="userSpaceOnUse" gradientTransform="rotate(-90 17.108 31.028) scale(57.6496)"><stop stop-color="#fff"/><stop offset="1" stop-color="#00AA8B" stop-opacity="0"/></linearGradient><linearGradient id="paint7_linear" x2="1" gradientUnits="userSpaceOnUse" gradientTransform="rotate(35.875 33.545 4.515) scale(65.3148)"><stop stop-color="#fff"/><stop offset="1" stop-color="#00AA8B" stop-opacity="0"/></linearGradient><linearGradient id="paint8_linear" x2="1" gradientUnits="userSpaceOnUse" gradientTransform="rotate(90 57.984 37.636) scale(131.919)"><stop stop-color="#fff"/><stop offset="1" stop-color="#00AA8B" stop-opacity="0"/></linearGradient><linearGradient id="paint9_linear" x2="1" gradientUnits="userSpaceOnUse" gradientTransform="rotate(-90 11.195 20.29) scale(37.737)"><stop stop-color="#fff"/><stop offset="1" stop-color="#00AA8B" stop-opacity="0"/></linearGradient><linearGradient id="paint10_linear" x2="1" gradientUnits="userSpaceOnUse" gradientTransform="rotate(35.875 22.016 3.002) scale(42.7544)"><stop stop-color="#fff"/><stop offset="1" stop-color="#00AA8B" stop-opacity="0"/></linearGradient><linearGradient id="paint11_linear" x2="1" gradientUnits="userSpaceOnUse" gradientTransform="rotate(90 37.967 24.663) scale(86.3524)"><stop stop-color="#fff"/><stop offset="1" stop-color="#00AA8B" stop-opacity="0"/></linearGradient><linearGradient id="paint12_linear" x2="1" gradientUnits="userSpaceOnUse" gradientTransform="rotate(-90 25.154 45.754) scale(84.7973)"><stop stop-color="#fff"/><stop offset="1" stop-color="#00AA8B" stop-opacity="0"/></linearGradient><linearGradient id="paint13_linear" x2="1" gradientUnits="userSpaceOnUse" gradientTransform="rotate(35.875 49.201 6.758) scale(96.0717)"><stop stop-color="#fff"/><stop offset="1" stop-color="#00AA8B" stop-opacity="0"/></linearGradient><linearGradient id="paint14_linear" x2="1" gradientUnits="userSpaceOnUse" gradientTransform="rotate(90 85.353 55.337) scale(194.04)"><stop stop-color="#fff"/><stop offset="1" stop-color="#00AA8B" stop-opacity="0"/></linearGradient><linearGradient id="paint15_linear" x2="1" gradientUnits="userSpaceOnUse" gradientTransform="rotate(-90 16.468 29.972) scale(55.5074)"><stop stop-color="#fff"/><stop offset="1" stop-color="#00AA8B" stop-opacity="0"/></linearGradient><linearGradient id="paint16_linear" x2="1" gradientUnits="userSpaceOnUse" gradientTransform="rotate(35.875 32.215 4.573) scale(62.8876)"><stop stop-color="#fff"/><stop offset="1" stop-color="#00AA8B" stop-opacity="0"/></linearGradient><linearGradient id="paint17_linear" x2="1" gradientUnits="userSpaceOnUse" gradientTransform="rotate(90 55.898 36.284) scale(127.016)"><stop stop-color="#fff"/><stop offset="1" stop-color="#00AA8B" stop-opacity="0"/></linearGradient><linearGradient id="paint18_linear" x2="1" gradientUnits="userSpaceOnUse" gradientTransform="rotate(-90 17.118 31.111) scale(57.6497)"><stop stop-color="#fff"/><stop offset="1" stop-color="#00AA8B" stop-opacity="0"/></linearGradient><linearGradient id="paint19_linear" x2="1" gradientUnits="userSpaceOnUse" gradientTransform="rotate(35.875 33.428 4.643) scale(65.3147)"><stop stop-color="#fff"/><stop offset="1" stop-color="#00AA8B" stop-opacity="0"/></linearGradient><linearGradient id="paint20_linear" x2="1" gradientUnits="userSpaceOnUse" gradientTransform="rotate(90 58.026 37.646) scale(131.918)"><stop stop-color="#fff"/><stop offset="1" stop-color="#00AA8B" stop-opacity="0"/></linearGradient><linearGradient id="paint21_linear" x2="1" gradientUnits="userSpaceOnUse" gradientTransform="rotate(-90 11.205 20.373) scale(37.737)"><stop stop-color="#fff"/><stop offset="1" stop-color="#00AA8B" stop-opacity="0"/></linearGradient><linearGradient id="paint22_linear" x2="1" gradientUnits="userSpaceOnUse" gradientTransform="rotate(35.875 21.898 3.13) scale(42.7543)"><stop stop-color="#fff"/><stop offset="1" stop-color="#00AA8B" stop-opacity="0"/></linearGradient><linearGradient id="paint23_linear" x2="1" gradientUnits="userSpaceOnUse" gradientTransform="matrix(0 86.3528 -86.3527 0 62.692 -13.298)"><stop stop-color="#fff"/><stop offset="1" stop-color="#00AA8B" stop-opacity="0"/></linearGradient><linearGradient id="paint24_linear" x2="1" gradientUnits="userSpaceOnUse" gradientTransform="rotate(-90 17.11 31.06) scale(57.6496)"><stop stop-color="#fff"/><stop offset="1" stop-color="#00AA8B" stop-opacity="0"/></linearGradient><linearGradient id="paint25_linear" x2="1" gradientUnits="userSpaceOnUse" gradientTransform="rotate(35.875 33.542 4.68) scale(65.3148)"><stop stop-color="#fff"/><stop offset="1" stop-color="#00AA8B" stop-opacity="0"/></linearGradient><linearGradient id="paint26_linear" x2="1" gradientUnits="userSpaceOnUse" gradientTransform="rotate(90 58.078 37.638) scale(131.918)"><stop stop-color="#fff"/><stop offset="1" stop-color="#00AA8B" stop-opacity="0"/></linearGradient><linearGradient id="paint27_linear" x2="1" gradientUnits="userSpaceOnUse" gradientTransform="rotate(-90 11.197 20.321) scale(37.737)"><stop stop-color="#fff"/><stop offset="1" stop-color="#00AA8B" stop-opacity="0"/></linearGradient><linearGradient id="paint28_linear" x2="1" gradientUnits="userSpaceOnUse" gradientTransform="rotate(35.875 21.95 2.973) scale(42.7544)"><stop stop-color="#fff"/><stop offset="1" stop-color="#00AA8B" stop-opacity="0"/></linearGradient><linearGradient id="paint29_linear" x2="1" gradientUnits="userSpaceOnUse" gradientTransform="matrix(0 86.3527 -86.3528 0 62.6 -13.397)"><stop stop-color="#fff"/><stop offset="1" stop-color="#00AA8B" stop-opacity="0"/></linearGradient><linearGradient id="paint30_linear" x2="1" gradientUnits="userSpaceOnUse" gradientTransform="rotate(-90 29.086 52.816) scale(97.9897)"><stop stop-color="#fff"/><stop offset="1" stop-color="#00AA8B" stop-opacity="0"/></linearGradient><linearGradient id="paint31_linear" x2="1" gradientUnits="userSpaceOnUse" gradientTransform="rotate(35.875 56.952 7.91) scale(111.018)"><stop stop-color="#fff"/><stop offset="1" stop-color="#00AA8B" stop-opacity="0"/></linearGradient><linearGradient id="paint32_linear" x2="1" gradientUnits="userSpaceOnUse" gradientTransform="scale(224.228 224.227) rotate(90 .44 .285)"><stop stop-color="#fff"/><stop offset="1" stop-color="#00AA8B" stop-opacity="0"/></linearGradient><linearGradient id="paint33_linear" x2="1" gradientUnits="userSpaceOnUse" gradientTransform="rotate(-90 19.066 34.595) scale(64.1431)"><stop stop-color="#fff"/><stop offset="1" stop-color="#00AA8B" stop-opacity="0"/></linearGradient><linearGradient id="paint34_linear" x2="1" gradientUnits="userSpaceOnUse" gradientTransform="rotate(35.875 37.177 5.113) scale(72.6717)"><stop stop-color="#fff"/><stop offset="1" stop-color="#00AA8B" stop-opacity="0"/></linearGradient><linearGradient id="paint35_linear" x2="1" gradientUnits="userSpaceOnUse" gradientTransform="rotate(90 64.566 41.848) scale(146.777)"><stop stop-color="#fff"/><stop offset="1" stop-color="#00AA8B" stop-opacity="0"/></linearGradient><linearGradient id="paint36_linear" x2="1" gradientUnits="userSpaceOnUse" gradientTransform="rotate(-90 34.223 62.125) scale(115.304)"><stop stop-color="#fff"/><stop offset="1" stop-color="#007F5A" stop-opacity="0"/></linearGradient><linearGradient id="paint37_linear" x2="1" gradientUnits="userSpaceOnUse" gradientTransform="rotate(35.875 67.012 9.162) scale(130.634)"><stop stop-color="#fff"/><stop offset="1" stop-color="#007F5A" stop-opacity="0"/></linearGradient><linearGradient id="paint38_linear" x2="1" gradientUnits="userSpaceOnUse" gradientTransform="rotate(90 116.093 75.215) scale(263.847)"><stop stop-color="#fff"/><stop offset="1" stop-color="#007F5A" stop-opacity="0"/></linearGradient><linearGradient id="paint39_linear" x2="1" gradientUnits="userSpaceOnUse" gradientTransform="rotate(-90 22.396 40.648) scale(75.4769)"><stop stop-color="#fff"/><stop offset="1" stop-color="#007F5A" stop-opacity="0"/></linearGradient><linearGradient id="paint40_linear" x2="1" gradientUnits="userSpaceOnUse" gradientTransform="rotate(35.875 43.889 5.943) scale(85.5121)"><stop stop-color="#fff"/><stop offset="1" stop-color="#007F5A" stop-opacity="0"/></linearGradient><linearGradient id="paint41_linear" x2="1" gradientUnits="userSpaceOnUse" gradientTransform="rotate(90 75.932 49.27) scale(172.712)"><stop stop-color="#fff"/><stop offset="1" stop-color="#007F5A" stop-opacity="0"/></linearGradient><linearGradient id="paint42_linear" x2="1" gradientUnits="userSpaceOnUse" gradientTransform="rotate(-90 27.844 92.25) scale(143.742)"><stop stop-color="#fff"/><stop offset="1" stop-color="#007F5A" stop-opacity="0"/></linearGradient><linearGradient id="paint43_linear" x2="1" gradientUnits="userSpaceOnUse" gradientTransform="rotate(35.875 10.566 -6.563) scale(105.058)"><stop stop-color="#fff"/><stop offset="1" stop-color="#007F5A" stop-opacity="0"/></linearGradient><linearGradient id="paint44_linear" x2="1" gradientUnits="userSpaceOnUse" gradientTransform="rotate(90 29.071 18.814) scale(65.9617)"><stop stop-color="#fff"/><stop offset="1" stop-color="#007F5A" stop-opacity="0"/></linearGradient><linearGradient id="paint45_linear" x2="1" gradientUnits="userSpaceOnUse" gradientTransform="rotate(31.439 110.52 47.647) scale(143.742)"><stop stop-color="#fff"/><stop offset="1" stop-color="#007F5A" stop-opacity="0"/></linearGradient><linearGradient id="paint46_linear" x2="1" gradientUnits="userSpaceOnUse" gradientTransform="rotate(157.314 55.756 44.863) scale(105.055)"><stop stop-color="#fff"/><stop offset="1" stop-color="#007F5A" stop-opacity="0"/></linearGradient><linearGradient id="paint47_linear" x2="1" gradientUnits="userSpaceOnUse" gradientTransform="rotate(-148.561 10.418 24.382) scale(65.9619)"><stop stop-color="#fff"/><stop offset="1" stop-color="#007F5A" stop-opacity="0"/></linearGradient><linearGradient id="paint48_linear" x2="1" gradientUnits="userSpaceOnUse" gradientTransform="rotate(-90 34.205 62.105) scale(115.304)"><stop stop-color="#fff"/><stop offset="1" stop-color="#007F5A" stop-opacity="0"/></linearGradient><linearGradient id="paint49_linear" x2="1" gradientUnits="userSpaceOnUse" gradientTransform="rotate(35.875 67.071 9.146) scale(130.635)"><stop stop-color="#fff"/><stop offset="1" stop-color="#007F5A" stop-opacity="0"/></linearGradient><linearGradient id="paint50_linear" x2="1" gradientUnits="userSpaceOnUse" gradientTransform="rotate(90 116.05 75.26) scale(263.847)"><stop stop-color="#fff"/><stop offset="1" stop-color="#007F5A" stop-opacity="0"/></linearGradient><linearGradient id="paint51_linear" x2="1" gradientUnits="userSpaceOnUse" gradientTransform="rotate(-90 22.441 40.692) scale(75.4768)"><stop stop-color="#fff"/><stop offset="1" stop-color="#007F5A" stop-opacity="0"/></linearGradient><linearGradient id="paint52_linear" x2="1" gradientUnits="userSpaceOnUse" gradientTransform="rotate(35.875 43.753 5.99) scale(85.5121)"><stop stop-color="#fff"/><stop offset="1" stop-color="#007F5A" stop-opacity="0"/></linearGradient><linearGradient id="paint53_linear" x2="1" gradientUnits="userSpaceOnUse" gradientTransform="rotate(90 75.952 49.251) scale(172.712)"><stop stop-color="#fff"/><stop offset="1" stop-color="#007F5A" stop-opacity="0"/></linearGradient><linearGradient id="paint54_linear" x2="1" gradientUnits="userSpaceOnUse" gradientTransform="rotate(-90 34.228 62.145) scale(115.304)"><stop stop-color="#fff"/><stop offset="1" stop-color="#007F5A" stop-opacity="0"/></linearGradient><linearGradient id="paint55_linear" x2="1" gradientUnits="userSpaceOnUse" gradientTransform="rotate(35.875 67.029 9.345) scale(130.634)"><stop stop-color="#fff"/><stop offset="1" stop-color="#007F5A" stop-opacity="0"/></linearGradient><linearGradient id="paint56_linear" x2="1" gradientUnits="userSpaceOnUse" gradientTransform="rotate(90 116.136 75.283) scale(263.847)"><stop stop-color="#fff"/><stop offset="1" stop-color="#007F5A" stop-opacity="0"/></linearGradient><linearGradient id="paint57_linear" x2="1" gradientUnits="userSpaceOnUse" gradientTransform="rotate(-90 22.4 40.669) scale(75.4769)"><stop stop-color="#fff"/><stop offset="1" stop-color="#007F5A" stop-opacity="0"/></linearGradient><linearGradient id="paint58_linear" x2="1" gradientUnits="userSpaceOnUse" gradientTransform="rotate(35.875 43.906 6.126) scale(85.5122)"><stop stop-color="#fff"/><stop offset="1" stop-color="#007F5A" stop-opacity="0"/></linearGradient><linearGradient id="paint59_linear" x2="1" gradientUnits="userSpaceOnUse" gradientTransform="rotate(90 76.038 49.274) scale(172.712)"><stop stop-color="#fff"/><stop offset="1" stop-color="#007F5A" stop-opacity="0"/></linearGradient><linearGradient id="paint60_linear" x2="1" gradientUnits="userSpaceOnUse" gradientTransform="translate(-.351 -64.321) scale(169.465)"><stop stop-color="#fff"/><stop offset="1" stop-color="#009479" stop-opacity="0"/></linearGradient><linearGradient id="paint61_linear" x2="1" gradientUnits="userSpaceOnUse" gradientTransform="translate(-.249 -7.06) scale(30.4119)"><stop stop-color="#006A54" stop-opacity="0"/><stop offset="1" stop-color="#fff"/></linearGradient><linearGradient id="paint62_linear" x2="1" gradientUnits="userSpaceOnUse" gradientTransform="translate(-.364 -51.272) scale(145.146)"><stop stop-color="#fff"/><stop offset="1" stop-color="#009479" stop-opacity="0"/></linearGradient><linearGradient id="paint63_linear" x2="1" gradientUnits="userSpaceOnUse" gradientTransform="rotate(-93.08 37.007 39.203) scale(75.9819)"><stop stop-color="#fff"/><stop offset="1" stop-color="#009479" stop-opacity="0"/></linearGradient><linearGradient id="paint64_linear" x2="1" gradientUnits="userSpaceOnUse" gradientTransform="translate(-.33 -12.505) scale(60.0738)"><stop stop-color="#fff"/><stop offset="1" stop-color="#00554A" stop-opacity="0"/></linearGradient><linearGradient id="paint65_linear" x2="1" gradientUnits="userSpaceOnUse" gradientTransform="translate(-.346 -8.507) scale(40.3013)"><stop stop-color="#fff"/><stop offset="1" stop-color="#00554A" stop-opacity="0"/></linearGradient><linearGradient id="paint66_linear" x2="1" gradientUnits="userSpaceOnUse" gradientTransform="translate(-.383 -12.502) scale(60.0737)"><stop stop-color="#fff"/><stop offset="1" stop-color="#00554A" stop-opacity="0"/></linearGradient></defs></svg>