<svg width="280" height="205" fill="none" xmlns="http://www.w3.org/2000/svg"><path d="M153.476 0h-5.231L80.087 68.158h8.474L156.276.442a8.906 8.906 0 0 0-2.8-.442zM58.203.147L1.908 56.442.213 62.337c-.958 3.242 1.4 5.968 5.305 5.968l58.874-.073L132.55.074 58.203.147zm102.2 5.232L97.55 68.232h3.758l59.905-59.906-.81-2.947z" transform="translate(45.324 134.347)" fill="url(#paint0_linear)"/><path fill-rule="evenodd" clip-rule="evenodd" d="M141.4 89.379H6.926A6.918 6.918 0 0 1 0 82.453V6.926A6.918 6.918 0 0 1 6.926 0H141.4a6.918 6.918 0 0 1 6.926 6.926v75.527a6.918 6.918 0 0 1-6.926 6.926z" transform="translate(59.242 45.189)" fill="url(#paint1_linear)"/><path fill-rule="evenodd" clip-rule="evenodd" d="M141.4 0H6.926A6.918 6.918 0 0 0 0 6.926v.221A6.918 6.918 0 0 1 6.926.221H141.4a6.918 6.918 0 0 1 6.926 6.926v-.22A6.918 6.918 0 0 0 141.4 0z" transform="translate(59.242 45.189)" fill="url(#paint2_linear)"/><path d="M139.853.074c3.094 0 5.673 2.505 5.673 5.673V80.98c0 3.095-2.505 5.674-5.673 5.674H5.673C2.58 86.653 0 84.147 0 80.979V5.674C0 2.579 2.505 0 5.674 0h134.179" transform="translate(60.642 46.515)" fill="url(#paint3_linear)"/><path opacity=".56" d="M138.526 0H0v74.053h138.526V0z" transform="translate(64.105 50.862)" fill="url(#paint4_linear)"/><path d="M138.526 0H0v.147h138.526V0z" transform="translate(64.105 50.862)" fill="url(#paint5_linear)"/><path opacity=".39" d="M170.617 68.01l-165.126.295c-3.832 0-6.19-2.726-5.305-5.968L16.69 4.053C17.28 1.916 20.228.22 23.249.22L153.375 0c3.021 0 5.969 1.695 6.558 3.832l15.989 58.21c.958 3.242-1.4 5.968-5.305 5.968z" transform="translate(45.351 136.483)" fill="url(#paint6_linear)"/><path d="M170.586 4.642L5.46 4.937C2.144 4.937-.067 2.947.007.295-.14 3.02 2.07 5.085 5.46 5.085l165.126-.296c3.389 0 5.6-2.063 5.526-4.789.074 2.653-2.21 4.642-5.526 4.642z" transform="translate(45.383 199.705)" fill="url(#paint7_linear)"/><path opacity=".56" d="M170.617 68.084l-165.126.221c-3.832 0-6.19-2.726-5.305-5.968L16.69 4.053C17.28 1.916 20.228.22 23.249.22L153.375 0c3.021 0 5.969 1.695 6.558 3.832l15.989 58.21c.958 3.316-1.4 6.042-5.305 6.042z" transform="translate(45.351 134.347)" fill="url(#paint8_linear)"/><path d="M58.203.147L1.908 56.442.213 62.337c-.958 3.242 1.4 5.968 5.305 5.968l58.874-.073L132.55.074 58.203.147zM153.476 0h-5.231L80.087 68.158h8.474L156.276.442a8.906 8.906 0 0 0-2.8-.442zm6.927 5.379L97.55 68.232h3.758l59.905-59.906-.81-2.947z" transform="translate(45.324 134.347)" fill="url(#paint9_linear)"/><path opacity=".86" d="M170.571 6.779c3.832 0 6.19-2.726 5.305-5.968L175.655 0c.885 3.242-1.473 5.968-5.305 5.968L5.666 6.263C1.834 6.263-.524 3.611.434.295l-.22.81c-.959 3.242 1.4 5.969 5.304 5.969" transform="translate(45.397 195.652)" fill="url(#paint10_linear)"/><path opacity=".9" d="M60.347 22.253L0 22.326 2.21.147 58.359 0l1.99 22.253z" transform="translate(103.232 180.252)" fill="url(#paint11_linear)"/><path opacity=".9" d="M60.347 4.126L0 4.2.368.074 59.978 0l.37 4.126z" transform="translate(103.232 198.378)" fill="url(#paint12_linear)"/><path d="M59.684.442L0 .516V.074L59.61 0l.074.442z" transform="translate(103.6 198.378)" fill="url(#paint13_linear)"/><path d="M56.295.368L0 .442.074.074 56.22 0l.074.368z" transform="translate(105.368 180.105)" fill="url(#paint14_linear)"/><path opacity=".9" d="M131.507 30.653l-127.326.22c-2.726 0-4.716-2.505-4.053-5.157l5.453-22.4C6.023 1.474 7.718.147 9.634.147L126.202 0a4.168 4.168 0 0 1 4.053 3.242l5.305 22.4c.589 2.505-1.4 5.01-4.053 5.01z" transform="translate(65.745 138.473)" fill="url(#paint15_linear)"/><path d="M1.768.221C1.105.221.516.368 0 .663l120.105-.22C119.589.22 118.926 0 118.337 0L1.768.221z" transform="translate(73.61 138.399)" fill="url(#paint16_linear)"/><path opacity=".9" d="M138.51 5.379L1.826 5.6A1.828 1.828 0 0 1 .057 3.316L.5 1.62C.721.81 1.458.22 2.269.22L138.14 0c.885 0 1.621.59 1.769 1.4l.368 1.695a1.827 1.827 0 0 1-1.768 2.284z" transform="translate(63.385 171.042)" fill="url(#paint17_linear)"/><path d="M0 .663l138.158-.22C137.863.22 137.421 0 136.979 0l-29.842.074L1.105.22C.737.221.295.368 0 .663z" transform="translate(64.474 171.042)" fill="url(#paint18_linear)"/><path opacity=".56" d="M45.756.221L6.04 0C4.935 0 4.05.737 3.83 1.768L.07 17.832c-.368 1.4.737 2.8 2.21 2.8l47.822.22c1.547 0 2.653-1.4 2.21-2.873L48.04 1.916C47.67.958 46.787.22 45.756.22z" transform="translate(108.244 140.905)" fill="url(#paint19_linear)"/><path opacity=".56" d="M18.866 19.821H4.35c-1.842 0-3.463-1.253-3.537-2.874L.003 3.39C-.071 1.547 1.476 0 3.539 0h16.137c2.063 0 3.61 1.547 3.537 3.39l-.81 13.557c-.074 1.621-1.695 2.874-3.537 2.874z" transform="translate(122.608 89.178)" fill="url(#paint20_linear)"/><path d="M3.54.147h16.136c1.99 0 3.537 1.474 3.537 3.316V3.39C23.36 1.547 21.74 0 19.676 0H3.54C1.476 0-.07 1.547.003 3.39v.073C.003 1.621 1.55.147 3.539.147z" transform="translate(122.608 89.252)" fill="url(#paint21_linear)"/><path opacity=".56" d="M7.665 3.463C7.74 1.547 5.971 0 3.834 0S-.071 1.547.002 3.463c0 1.474 1.105 2.726 2.58 3.169v2.652c0 .59.515 1.032 1.178 1.032.663 0 1.18-.442 1.18-1.032V6.632c1.546-.443 2.652-1.695 2.725-3.169z" transform="translate(130.419 94.336)" fill="url(#paint22_linear)"/><path d="M3.834.147c2.137 0 3.758 1.474 3.831 3.39v-.074C7.74 1.547 5.971 0 3.834 0S-.071 1.547.002 3.463v.074c0-1.916 1.695-3.39 3.832-3.39z" transform="translate(130.419 94.41)" fill="url(#paint23_linear)"/><path d="M9.44 0C3.987 0-.213 4.347.008 9.432l.369 8.178c.073 1.106 1.031 1.99 2.21 1.99 1.18 0 2.137-.884 2.137-1.99l-.147-8.178c-.074-2.653 2.137-4.79 4.937-4.79 2.8 0 5.01 2.21 4.936 4.79l-.22 8.178c0 1.106.884 1.99 2.063 1.99 1.178 0 2.21-.884 2.21-1.99l.369-8.105C19.091 4.347 14.892 0 9.44 0z" transform="translate(124.813 74.589)" fill="url(#paint24_linear)"/><path d="M9.44.221c5.379 0 9.505 4.2 9.432 9.21C19.091 4.348 14.892 0 9.44 0 3.987 0-.213 4.347.008 9.432v.073C-.139 4.495 4.061.221 9.44.221z" transform="translate(124.813 74.589)" fill="url(#paint25_linear)"/><path d="M0 .147l.147 7.958v-.073L0 0v.147z" transform="translate(129.316 84.094)" fill="url(#paint26_linear)"/><path d="M.221 0L0 8.032v.073L.221.147V0z" transform="translate(138.968 84.168)" fill="url(#paint27_linear)"/><path opacity=".56" d="M89.453 60.2H4.863A4.858 4.858 0 0 1 0 55.337V4.863A4.858 4.858 0 0 1 4.863 0h84.59a4.858 4.858 0 0 1 4.863 4.863v50.474a4.858 4.858 0 0 1-4.863 4.863z" transform="translate(185.611 .074)" fill="url(#paint28_linear)"/><path opacity=".56" d="M89.453 4.863H4.863A4.858 4.858 0 0 1 0 0v.221a4.858 4.858 0 0 0 4.863 4.863h84.59A4.858 4.858 0 0 0 94.316.221V0a4.858 4.858 0 0 1-4.863 4.863z" transform="translate(185.611 55.19)" fill="url(#paint29_linear)"/><path d="M35.147 0H0v2.505h35.147V0z" transform="translate(194.526 51.8)" fill="url(#paint30_linear)"/><path d="M17.61 0H0v1.474h17.61V0z" transform="translate(251.484 51.8)" fill="url(#paint31_linear)"/><path d="M6.263 0H0v1.474h6.263V0z" transform="translate(270.642 15.916)" fill="url(#paint32_linear)"/><path d="M6.263 0H0v1.474h6.263V0z" transform="translate(270.642 18.716)" fill="url(#paint33_linear)"/><path d="M6.263 0H0v1.474h6.263V0z" transform="translate(270.642 21.737)" fill="url(#paint34_linear)"/><path d="M2.137 0H0v1.474h2.137V0z" transform="translate(270.642 24.758)" fill="url(#paint35_linear)"/><path d="M2.137 0H0v1.474h2.137V0z" transform="translate(270.642 28.074)" fill="url(#paint36_linear)"/><path d="M17.61 0H0v1.474h17.61V0z" transform="translate(251.484 54.305)" fill="url(#paint37_linear)"/><path d="M17.61 0H0v1.474h17.61V0z" transform="translate(251.484 56.81)" fill="url(#paint38_linear)"/><path d="M35.147 0H0v1.253h35.147V0z" transform="translate(194.526 55.19)" fill="url(#paint39_linear)"/><path opacity=".56" d="M89.453 0H4.863A4.858 4.858 0 0 0 0 4.863v6.116h94.39V4.863C94.316 2.211 92.105 0 89.453 0z" transform="translate(185.611)" fill="url(#paint40_linear)"/><path opacity=".56" d="M2.358 4.716a2.358 2.358 0 1 0 0-4.716 2.358 2.358 0 0 0 0 4.716z" transform="translate(203.074 3.168)" fill="url(#paint41_linear)"/><path d="M1.4 2.8a1.4 1.4 0 1 0 0-2.8 1.4 1.4 0 0 0 0 2.8z" transform="translate(204.032 4.126)" fill="url(#paint42_linear)"/><path opacity=".56" d="M2.358 4.716a2.358 2.358 0 1 0 0-4.716 2.358 2.358 0 0 0 0 4.716z" transform="translate(196.442 3.168)" fill="url(#paint43_linear)"/><path d="M1.4 2.8a1.4 1.4 0 1 0 0-2.8 1.4 1.4 0 0 0 0 2.8z" transform="translate(197.4 4.126)" fill="url(#paint44_linear)"/><path opacity=".56" d="M2.358 4.716a2.358 2.358 0 1 0 0-4.716 2.358 2.358 0 0 0 0 4.716z" transform="translate(189.737 3.168)" fill="url(#paint45_linear)"/><path d="M1.4 2.8a1.4 1.4 0 1 0 0-2.8 1.4 1.4 0 0 0 0 2.8z" transform="translate(190.695 4.126)" fill="url(#paint46_linear)"/><path d="M89.453 0H4.863A4.858 4.858 0 0 0 0 4.863v.369A4.858 4.858 0 0 1 4.863.368h84.59a4.858 4.858 0 0 1 4.863 4.864v-.369c0-2.652-2.21-4.863-4.863-4.863z" transform="translate(185.611)" fill="url(#paint47_linear)"/><path d="M94.39 0H0v.221h94.39V0z" transform="translate(185.537 10.979)" fill="url(#paint48_linear)"/><path d="M0 34.41h74.568V0" transform="translate(194.526 15.916)" stroke="url(#paint49_linear)" stroke-width=".25" stroke-miterlimit="10" stroke-linecap="round" stroke-linejoin="round"/><path d="M0 28.33h70.663S60.79 2.1 51.726 1.214C42.663.33 38.832 21.92 30.506 22.288c-8.327.369-4.053-20.19-8.916-22.179-4.937-1.99-1.769 23.874-7.222 23.8-5.452-.073-.736-19.895-5.01-19.895-3.758 0-.737 16.506-5.01 19.895C.957 26.562 0 28.33 0 28.33z" transform="translate(195.558 18.975)" fill="url(#paint50_linear)"/><path opacity=".56" d="M76.632 67.863H5.674C2.579 67.863 0 65.358 0 62.19V5.674C0 2.579 2.505 0 5.674 0h70.958c3.094 0 5.673 2.505 5.673 5.674V62.19c0 3.094-2.505 5.673-5.673 5.673z" transform="translate(0 82.989)" fill="url(#paint51_linear)"/><path opacity=".56" d="M76.779 5.526H5.526C2.506 5.526 0 3.021 0 0v.221c0 3.021 2.505 5.526 5.526 5.526H76.78c3.021 0 5.526-2.505 5.526-5.526V0c0 3.095-2.431 5.526-5.526 5.526z" transform="translate(0 145.031)" fill="url(#paint52_linear)"/><path d="M15.621 0H0v2.8h15.621V0z" transform="translate(10.095 141.199)" fill="url(#paint53_linear)"/><path d="M7.147 0H0v2.8h7.147V0z" transform="translate(10.095 100.305)" fill="url(#paint54_linear)"/><path d="M7.147 0H0v2.8h7.147V0z" transform="translate(10.095 104.283)" fill="url(#paint55_linear)"/><path d="M7.147 0H0v.516h7.147V0z" transform="translate(10.095 108.262)" fill="url(#paint56_linear)"/><path d="M7.147 0H0v.516h7.147V0z" transform="translate(10.095 110.178)" fill="url(#paint57_linear)"/><path d="M7.147 0H0v.516h7.147V0z" transform="translate(10.095 112.094)" fill="url(#paint58_linear)"/><path d="M7.147 0H0v.516h7.147V0z" transform="translate(10.095 114.01)" fill="url(#paint59_linear)"/><path d="M7.147 0H0v.516h7.147V0z" transform="translate(10.095 115.999)" fill="url(#paint60_linear)"/><path d="M7.147 0H0v.516h7.147V0z" transform="translate(10.095 117.915)" fill="url(#paint61_linear)"/><path d="M7.147 0H0v.516h7.147V0z" transform="translate(10.095 119.831)" fill="url(#paint62_linear)"/><path d="M19.821 0H0v1.621h19.821V0z" transform="translate(50.253 141.199)" fill="url(#paint63_linear)"/><path d="M7 0H0v1.621h7V0z" transform="translate(71.842 100.894)" fill="url(#paint64_linear)"/><path d="M7 0H0v1.621h7V0z" transform="translate(71.842 104.062)" fill="url(#paint65_linear)"/><path d="M7 0H0v1.621h7V0z" transform="translate(71.842 107.452)" fill="url(#paint66_linear)"/><path d="M2.358 0H0v1.621h2.358V0z" transform="translate(71.842 110.841)" fill="url(#paint67_linear)"/><path d="M2.358 0H0v1.621h2.358V0z" transform="translate(71.842 114.525)" fill="url(#paint68_linear)"/><path d="M19.821 0H0v1.621h19.821V0z" transform="translate(50.253 143.999)" fill="url(#paint69_linear)"/><path d="M19.821 0H0v1.621h19.821V0z" transform="translate(50.253 146.873)" fill="url(#paint70_linear)"/><path d="M15.621 0H0v1.4h15.621V0z" transform="translate(10.095 145.031)" fill="url(#paint71_linear)"/><path opacity=".56" d="M76.779 0H5.526C2.506 0 0 2.505 0 5.526v6.853h82.305V5.526A5.519 5.519 0 0 0 76.78 0z" transform="translate(0 82.915)" fill="url(#paint72_linear)"/><path opacity=".56" d="M2.653 5.305a2.653 2.653 0 1 0 0-5.305 2.653 2.653 0 0 0 0 5.305z" transform="translate(19.747 86.452)" fill="url(#paint73_linear)"/><path d="M1.621 3.242a1.621 1.621 0 1 0 0-3.242 1.621 1.621 0 0 0 0 3.242z" transform="translate(20.779 87.483)" fill="url(#paint74_linear)"/><path opacity=".56" d="M2.653 5.305a2.653 2.653 0 1 0 0-5.305 2.653 2.653 0 0 0 0 5.305z" transform="translate(12.232 86.452)" fill="url(#paint75_linear)"/><path d="M1.621 3.242a1.621 1.621 0 1 0 0-3.242 1.621 1.621 0 0 0 0 3.242z" transform="translate(13.263 87.483)" fill="url(#paint76_linear)"/><path opacity=".56" d="M2.653 5.305a2.653 2.653 0 1 0 0-5.305 2.653 2.653 0 0 0 0 5.305z" transform="translate(4.79 86.452)" fill="url(#paint77_linear)"/><path d="M1.621 3.242a1.621 1.621 0 1 0 0-3.242 1.621 1.621 0 0 0 0 3.242z" transform="translate(5.821 87.483)" fill="url(#paint78_linear)"/><path d="M76.779 0H5.526C2.506 0 0 2.505 0 5.526v.442C0 2.948 2.505.442 5.526.442H76.78c3.021 0 5.526 2.505 5.526 5.526v-.442A5.519 5.519 0 0 0 76.78 0z" transform="translate(0 82.915)" fill="url(#paint79_linear)"/><path d="M82.305 0H0v.221h82.305V0z" transform="translate(0 95.294)" fill="url(#paint80_linear)"/><path d="M0 38.684h59.979V0" transform="translate(10.095 100.894)" stroke="url(#paint81_linear)" stroke-width=".25" stroke-miterlimit="10" stroke-linecap="round" stroke-linejoin="round"/><path d="M17.832 35.663c9.848 0 17.831-7.983 17.831-17.831C35.663 7.983 27.68 0 17.832 0 7.983 0 0 7.983 0 17.832c0 9.848 7.983 17.831 17.832 17.831z" transform="translate(19.674 100.82)" fill="url(#paint82_linear)"/><path d="M0 17.758c0 9.8 7.958 17.832 17.832 17.832V0C8.032 0 0 7.958 0 17.758z" transform="translate(19.674 100.894)" fill="url(#paint83_linear)"/><path d="M17.832 17.832V0H0c0 9.874 8.032 17.832 17.832 17.832z" transform="translate(19.674 118.652)" fill="url(#paint84_linear)"/><defs><linearGradient id="paint0_linear" x2="1" gradientUnits="userSpaceOnUse" gradientTransform="rotate(63.549 144.843 66.393) scale(220.563)"><stop stop-color="#7600C0" stop-opacity="0"/><stop offset=".208" stop-color="#6400A3" stop-opacity=".208"/><stop offset=".657" stop-color="#370059" stop-opacity=".657"/><stop offset="1" stop-color="#12001D"/></linearGradient><linearGradient id="paint1_linear" x2="1" gradientUnits="userSpaceOnUse" gradientTransform="rotate(-90 59.417 29.95) scale(89.381)"><stop stop-color="#00BFAC"/><stop offset=".293" stop-color="#00BAA8" stop-opacity=".765"/><stop offset=".621" stop-color="#00AD9A" stop-opacity=".503"/><stop offset=".965" stop-color="#009785" stop-opacity=".228"/><stop offset="1" stop-color="#009482" stop-opacity=".2"/></linearGradient><linearGradient id="paint2_linear" x2="1" gradientUnits="userSpaceOnUse" gradientTransform="rotate(-90 38.851 -31.745) scale(7.11952)"><stop stop-color="#006A5F"/><stop offset=".175" stop-color="#008275"/><stop offset=".739" stop-color="#00CCB8"/><stop offset="1" stop-color="#00E9D2"/></linearGradient><linearGradient id="paint3_linear" x2="1" gradientUnits="userSpaceOnUse" gradientTransform="rotate(-90 58.053 28.592) scale(86.5893)"><stop stop-color="#002A23"/><stop offset=".513" stop-color="#004D42"/><stop offset="1" stop-color="#006A5C"/></linearGradient><linearGradient id="paint4_linear" x2="1" gradientUnits="userSpaceOnUse" gradientTransform="rotate(-90 52.26 21.815) scale(77.6976)"><stop stop-color="#009471"/><stop offset=".185" stop-color="#009B78"/><stop offset=".464" stop-color="#00B08D"/><stop offset=".799" stop-color="#00D1AE"/><stop offset="1" stop-color="#00E9C5"/></linearGradient><linearGradient id="paint5_linear" x2="1" gradientUnits="userSpaceOnUse" gradientTransform="matrix(145.389 0 0 145.386 .022 -72.567)"><stop stop-color="#003D3F"/><stop offset=".138" stop-color="#004443"/><stop offset=".346" stop-color="#005950"/><stop offset=".597" stop-color="#007B64"/><stop offset=".88" stop-color="#00A97F"/><stop offset="1" stop-color="#00BF8C"/></linearGradient><linearGradient id="paint6_linear" x2="1" gradientUnits="userSpaceOnUse" gradientTransform="translate(.022 -53.93) scale(176.135)"><stop stop-color="#006A5F"/><stop offset=".302" stop-color="#007165"/><stop offset=".754" stop-color="#008676"/><stop offset="1" stop-color="#009482"/></linearGradient><linearGradient id="paint7_linear" x2="1" gradientUnits="userSpaceOnUse" gradientTransform="translate(-.008 -85.535) scale(176.132)"><stop stop-color="#00AAA2"/><stop offset=".185" stop-color="#04B1A5"/><stop offset=".464" stop-color="#0EC6AC"/><stop offset=".799" stop-color="#1EE7B8"/><stop offset="1" stop-color="#2AFFC0"/></linearGradient><linearGradient id="paint8_linear" x2="1" gradientUnits="userSpaceOnUse" gradientTransform="rotate(90 60.111 60.376) scale(64.7935)"><stop stop-color="#00AA94"/><stop offset=".487" stop-color="#00B19B"/><stop offset="1" stop-color="#00BFA7"/></linearGradient><linearGradient id="paint9_linear" x2="1" gradientUnits="userSpaceOnUse" gradientTransform="rotate(-37.165 23.52 95.439) scale(161.17)"><stop stop-color="#002A23" stop-opacity="0"/><stop offset=".126" stop-color="#003129" stop-opacity=".126"/><stop offset=".315" stop-color="#004639" stop-opacity=".315"/><stop offset=".543" stop-color="#006853" stop-opacity=".543"/><stop offset=".801" stop-color="#009677" stop-opacity=".801"/><stop offset="1" stop-color="#00BF97"/></linearGradient><linearGradient id="paint10_linear" x2="1" gradientUnits="userSpaceOnUse" gradientTransform="translate(-.024 -84.594) scale(176.135)"><stop stop-color="#007F64"/><stop offset=".14" stop-color="#018669"/><stop offset=".349" stop-color="#059B75"/><stop offset=".603" stop-color="#0ABD8A"/><stop offset=".889" stop-color="#12EBA7"/><stop offset="1" stop-color="#15FFB3"/></linearGradient><linearGradient id="paint11_linear" x2="1" gradientUnits="userSpaceOnUse" gradientTransform="rotate(-90 20.179 2.148) scale(24.3169)"><stop offset=".001" stop-color="#00AA7C" stop-opacity="0"/><stop offset=".439" stop-color="#00AA7F" stop-opacity=".439"/><stop offset=".777" stop-color="#00AA89" stop-opacity=".777"/><stop offset="1" stop-color="#00AA94"/></linearGradient><linearGradient id="paint12_linear" x2="1" gradientUnits="userSpaceOnUse" gradientTransform="matrix(60.3804 0 0 60.3802 0 -28.085)"><stop offset=".001" stop-color="#00AA7C" stop-opacity="0"/><stop offset=".264" stop-color="#00A77A" stop-opacity=".264"/><stop offset=".468" stop-color="#009D74" stop-opacity=".468"/><stop offset=".652" stop-color="#008D6A" stop-opacity=".652"/><stop offset=".824" stop-color="#00755B" stop-opacity=".824"/><stop offset=".987" stop-color="#005849" stop-opacity=".987"/><stop offset="1" stop-color="#005547"/></linearGradient><linearGradient id="paint13_linear" x2="1" gradientUnits="userSpaceOnUse" gradientTransform="matrix(59.6877 0 0 59.6861 -.007 -29.58)"><stop stop-color="#006A39"/><stop offset=".126" stop-color="#037140"/><stop offset=".315" stop-color="#0C8652"/><stop offset=".543" stop-color="#1AA86F"/><stop offset=".801" stop-color="#2ED698"/><stop offset="1" stop-color="#3FFFBC"/></linearGradient><linearGradient id="paint14_linear" x2="1" gradientUnits="userSpaceOnUse" gradientTransform="matrix(56.2402 0 0 56.2408 .028 -27.896)"><stop stop-color="#006A45"/><stop offset=".126" stop-color="#02714B"/><stop offset=".315" stop-color="#08865D"/><stop offset=".543" stop-color="#11A87A"/><stop offset=".801" stop-color="#1ED6A3"/><stop offset="1" stop-color="#2AFFC6"/></linearGradient><linearGradient id="paint15_linear" x2="1" gradientUnits="userSpaceOnUse" gradientTransform="rotate(-90 41.626 -10.752) scale(30.933)"><stop offset=".001" stop-color="#00D4A2" stop-opacity="0"/><stop offset=".463" stop-color="#00D1A2" stop-opacity=".463"/><stop offset=".82" stop-color="#00C7A1" stop-opacity=".82"/><stop offset="1" stop-color="#00BFA1"/></linearGradient><linearGradient id="paint16_linear" x2="1" gradientUnits="userSpaceOnUse" gradientTransform="matrix(120.11 0 0 120.113 .014 -59.742)"><stop stop-color="#006A59"/><stop offset=".159" stop-color="#00715E"/><stop offset=".398" stop-color="#00866B"/><stop offset=".687" stop-color="#00A880"/><stop offset="1" stop-color="#00D49C"/></linearGradient><linearGradient id="paint17_linear" x2="1" gradientUnits="userSpaceOnUse" gradientTransform="translate(-.016 -67.381) scale(140.351)"><stop offset=".001" stop-color="#005540" stop-opacity="0"/><stop offset=".24" stop-color="#005843" stop-opacity=".24"/><stop offset=".425" stop-color="#00624D" stop-opacity=".425"/><stop offset=".592" stop-color="#00725D" stop-opacity=".592"/><stop offset=".749" stop-color="#008975" stop-opacity=".749"/><stop offset=".896" stop-color="#00A692" stop-opacity=".896"/><stop offset="1" stop-color="#00BFAC"/></linearGradient><linearGradient id="paint18_linear" x2="1" gradientUnits="userSpaceOnUse" gradientTransform="matrix(138.178 0 0 138.177 -.013 -68.767)"><stop stop-color="#00554C"/><stop offset=".115" stop-color="#025C52"/><stop offset=".287" stop-color="#077161"/><stop offset=".496" stop-color="#0F937A"/><stop offset=".733" stop-color="#1BC29E"/><stop offset=".991" stop-color="#29FDCA"/><stop offset="1" stop-color="#2AFFCC"/></linearGradient><linearGradient id="paint19_linear" x2="1" gradientUnits="userSpaceOnUse" gradientTransform="matrix(32.9763 -39.0464 39.5223 32.9881 -8.985 14.31)"><stop stop-color="#007F4F"/><stop offset=".153" stop-color="#008656"/><stop offset=".383" stop-color="#009A6B"/><stop offset=".661" stop-color="#00B98D"/><stop offset=".975" stop-color="#00E5BB"/><stop offset="1" stop-color="#00E9BF"/></linearGradient><linearGradient id="paint20_linear" x2="1" gradientUnits="userSpaceOnUse" gradientTransform="rotate(-90 10.78 9.09) scale(19.8611)"><stop stop-color="#005540"/><stop offset="1" stop-color="#00BF91"/></linearGradient><linearGradient id="paint21_linear" x2="1" gradientUnits="userSpaceOnUse" gradientTransform="rotate(-90 6.663 -3.186) scale(3.54325)"><stop stop-color="#007F4B"/><stop offset=".14" stop-color="#028651"/><stop offset=".349" stop-color="#099B61"/><stop offset=".603" stop-color="#14BD7B"/><stop offset=".889" stop-color="#23EB9F"/><stop offset="1" stop-color="#2AFFAE"/></linearGradient><linearGradient id="paint22_linear" x2="1" gradientUnits="userSpaceOnUse" gradientTransform="rotate(-90 4.48 5.842) scale(10.3351)"><stop stop-color="#007F41"/><stop offset=".244" stop-color="#009555" stop-opacity=".853"/><stop offset=".749" stop-color="#00CC8A" stop-opacity=".548"/><stop offset=".994" stop-color="#00E9A5" stop-opacity=".4"/></linearGradient><linearGradient id="paint23_linear" x2="1" gradientUnits="userSpaceOnUse" gradientTransform="rotate(-90 2.756 .741) scale(3.58392)"><stop stop-color="#00946D"/><stop offset=".158" stop-color="#039B73"/><stop offset=".395" stop-color="#0BB083"/><stop offset=".683" stop-color="#18D29D"/><stop offset="1" stop-color="#2AFFC0"/></linearGradient><linearGradient id="paint24_linear" x2="1" gradientUnits="userSpaceOnUse" gradientTransform="rotate(-90 9.374 9.721) scale(19.5657)"><stop stop-color="#007F61"/><stop offset=".996" stop-color="#2AFFA9" stop-opacity=".2"/></linearGradient><linearGradient id="paint25_linear" x2="1" gradientUnits="userSpaceOnUse" gradientTransform="rotate(-90 7.087 2.396) scale(9.48765)"><stop stop-color="#00AA69"/><stop offset=".185" stop-color="#04B170"/><stop offset=".464" stop-color="#0EC684"/><stop offset=".799" stop-color="#1EE7A4"/><stop offset="1" stop-color="#2AFFBA"/></linearGradient><linearGradient id="paint26_linear" x2="1" gradientUnits="userSpaceOnUse" gradientTransform="matrix(0 -8.06039 8.06027 0 -3.921 8.127)"><stop stop-color="#00AA69"/><stop offset=".185" stop-color="#04B170"/><stop offset=".464" stop-color="#0EC684"/><stop offset=".799" stop-color="#1EE7A4"/><stop offset="1" stop-color="#2AFFBA"/></linearGradient><linearGradient id="paint27_linear" x2="1" gradientUnits="userSpaceOnUse" gradientTransform="matrix(0 -8.08006 8.08056 0 -3.946 8.052)"><stop stop-color="#00AA69"/><stop offset=".185" stop-color="#04B170"/><stop offset=".464" stop-color="#0EC684"/><stop offset=".799" stop-color="#1EE7A4"/><stop offset="1" stop-color="#2AFFBA"/></linearGradient><linearGradient id="paint28_linear" x2="1" gradientUnits="userSpaceOnUse" gradientTransform="rotate(-49.817 20.259 53.56) scale(117.894)"><stop stop-color="#007F61"/><stop offset=".202" stop-color="#008568"/><stop offset=".505" stop-color="#00977D"/><stop offset=".871" stop-color="#00B39E"/><stop offset="1" stop-color="#00BFAC"/></linearGradient><linearGradient id="paint29_linear" x2="1" gradientUnits="userSpaceOnUse" gradientTransform="rotate(-49.817 2.956 4.409) scale(71.9236)"><stop stop-color="#6B28E9"/><stop offset=".179" stop-color="#7226EA"/><stop offset=".449" stop-color="#8722EC"/><stop offset=".774" stop-color="#A81BF1"/><stop offset="1" stop-color="#C415F4"/></linearGradient><linearGradient id="paint30_linear" x2="1" gradientUnits="userSpaceOnUse" gradientTransform="rotate(-49.817 1.568 3.04) scale(28.1644)"><stop stop-color="#005537"/><stop offset=".188" stop-color="#005B3E"/><stop offset=".471" stop-color="#006A53"/><stop offset=".812" stop-color="#008474"/><stop offset="1" stop-color="#00948A"/></linearGradient><linearGradient id="paint31_linear" x2="1" gradientUnits="userSpaceOnUse" gradientTransform="rotate(-49.817 .835 1.7) scale(14.27)"><stop stop-color="#005537"/><stop offset=".188" stop-color="#005B3E"/><stop offset=".471" stop-color="#006A53"/><stop offset=".812" stop-color="#008474"/><stop offset="1" stop-color="#00948A"/></linearGradient><linearGradient id="paint32_linear" x2="1" gradientUnits="userSpaceOnUse" gradientTransform="rotate(-49.817 .58 1.48) scale(5.88713)"><stop stop-color="#005537"/><stop offset=".188" stop-color="#005B3E"/><stop offset=".471" stop-color="#006A53"/><stop offset=".812" stop-color="#008474"/><stop offset="1" stop-color="#00948A"/></linearGradient><linearGradient id="paint33_linear" x2="1" gradientUnits="userSpaceOnUse" gradientTransform="rotate(-49.817 .593 1.486) scale(5.88713)"><stop stop-color="#005537"/><stop offset=".188" stop-color="#005B3E"/><stop offset=".471" stop-color="#006A53"/><stop offset=".812" stop-color="#008474"/><stop offset="1" stop-color="#00948A"/></linearGradient><linearGradient id="paint34_linear" x2="1" gradientUnits="userSpaceOnUse" gradientTransform="rotate(-49.817 .593 1.487) scale(5.88713)"><stop stop-color="#005537"/><stop offset=".188" stop-color="#005B3E"/><stop offset=".471" stop-color="#006A53"/><stop offset=".812" stop-color="#008474"/><stop offset="1" stop-color="#00948A"/></linearGradient><linearGradient id="paint35_linear" x2="1" gradientUnits="userSpaceOnUse" gradientTransform="rotate(-49.817 .486 1.4) scale(2.84411)"><stop stop-color="#005537"/><stop offset=".188" stop-color="#005B3E"/><stop offset=".471" stop-color="#006A53"/><stop offset=".812" stop-color="#008474"/><stop offset="1" stop-color="#00948A"/></linearGradient><linearGradient id="paint36_linear" x2="1" gradientUnits="userSpaceOnUse" gradientTransform="rotate(-49.816 .42 1.37) scale(2.84405)"><stop stop-color="#005537"/><stop offset=".188" stop-color="#005B3E"/><stop offset=".471" stop-color="#006A53"/><stop offset=".812" stop-color="#008474"/><stop offset="1" stop-color="#00948A"/></linearGradient><linearGradient id="paint37_linear" x2="1" gradientUnits="userSpaceOnUse" gradientTransform="rotate(-49.817 .83 1.697) scale(14.27)"><stop stop-color="#005537"/><stop offset=".188" stop-color="#005B3E"/><stop offset=".471" stop-color="#006A53"/><stop offset=".812" stop-color="#008474"/><stop offset="1" stop-color="#00948A"/></linearGradient><linearGradient id="paint38_linear" x2="1" gradientUnits="userSpaceOnUse" gradientTransform="rotate(-49.817 .823 1.695) scale(14.27)"><stop stop-color="#005537"/><stop offset=".188" stop-color="#005B3E"/><stop offset=".471" stop-color="#006A53"/><stop offset=".812" stop-color="#008474"/><stop offset="1" stop-color="#00948A"/></linearGradient><linearGradient id="paint39_linear" x2="1" gradientUnits="userSpaceOnUse" gradientTransform="rotate(-49.817 1.234 1.903) scale(27.071)"><stop stop-color="#005537"/><stop offset=".188" stop-color="#005B3E"/><stop offset=".471" stop-color="#006A53"/><stop offset=".812" stop-color="#008474"/><stop offset="1" stop-color="#00948A"/></linearGradient><linearGradient id="paint40_linear" x2="1" gradientUnits="userSpaceOnUse" gradientTransform="rotate(-49.817 7.741 10.921) scale(77.0486)"><stop offset=".005" stop-color="#00BF81"/><stop offset=".032" stop-color="#00BC80"/><stop offset=".439" stop-color="#009B6F"/><stop offset=".776" stop-color="#008665"/><stop offset="1" stop-color="#007F61"/></linearGradient><linearGradient id="paint41_linear" x2="1" gradientUnits="userSpaceOnUse" gradientTransform="rotate(-49.817 2.036 2.78) scale(5.46809)"><stop offset=".005" stop-color="#00AA86"/><stop offset=".032" stop-color="#00A784"/><stop offset=".439" stop-color="#008670"/><stop offset=".776" stop-color="#007164"/><stop offset="1" stop-color="#006A5F"/></linearGradient><linearGradient id="paint42_linear" x2="1" gradientUnits="userSpaceOnUse" gradientTransform="rotate(-49.818 1.196 1.656) scale(3.2531)"><stop stop-color="#00AA86"/><stop offset="1" stop-color="#00E998"/></linearGradient><linearGradient id="paint43_linear" x2="1" gradientUnits="userSpaceOnUse" gradientTransform="rotate(-49.817 2.024 2.806) scale(5.46804)"><stop offset=".005" stop-color="#00AA86"/><stop offset=".032" stop-color="#00A784"/><stop offset=".439" stop-color="#008670"/><stop offset=".776" stop-color="#007164"/><stop offset="1" stop-color="#006A5F"/></linearGradient><linearGradient id="paint44_linear" x2="1" gradientUnits="userSpaceOnUse" gradientTransform="rotate(-49.818 1.185 1.681) scale(3.2531)"><stop stop-color="#00AA86"/><stop offset="1" stop-color="#00E998"/></linearGradient><linearGradient id="paint45_linear" x2="1" gradientUnits="userSpaceOnUse" gradientTransform="rotate(-49.817 2.05 2.751) scale(5.46807)"><stop offset=".005" stop-color="#00AA86"/><stop offset=".032" stop-color="#00A784"/><stop offset=".439" stop-color="#008670"/><stop offset=".776" stop-color="#007164"/><stop offset="1" stop-color="#006A5F"/></linearGradient><linearGradient id="paint46_linear" x2="1" gradientUnits="userSpaceOnUse" gradientTransform="rotate(-49.818 1.21 1.627) scale(3.2531)"><stop stop-color="#00AA86"/><stop offset="1" stop-color="#00E998"/></linearGradient><linearGradient id="paint47_linear" x2="1" gradientUnits="userSpaceOnUse" gradientTransform="rotate(-49.817 6.187 5.733) scale(72.0739)"><stop stop-color="#00AA86" stop-opacity=".5"/><stop offset=".432" stop-color="#00A37F" stop-opacity=".716"/><stop offset="1" stop-color="#00946D"/></linearGradient><linearGradient id="paint48_linear" x2="1" gradientUnits="userSpaceOnUse" gradientTransform="scale(69.9227 69.9217) rotate(-49.817 .037 .031)"><stop stop-color="#00BF91"/><stop offset="1" stop-color="#006A4B"/></linearGradient><linearGradient id="paint49_linear" x2="1" gradientUnits="userSpaceOnUse" gradientTransform="rotate(-49.817 27.616 21.746) scale(74.5814)"><stop stop-color="#007F64"/><stop offset=".258" stop-color="#008E72"/><stop offset=".703" stop-color="#00A384"/><stop offset="1" stop-color="#00AA8B"/></linearGradient><linearGradient id="paint50_linear" x2="1" gradientUnits="userSpaceOnUse" gradientTransform="rotate(-49.817 21.732 21.088) scale(63.2616)"><stop stop-color="#005537"/><stop offset=".188" stop-color="#005B3E"/><stop offset=".471" stop-color="#006A53"/><stop offset=".812" stop-color="#008474"/><stop offset="1" stop-color="#00948A"/></linearGradient><linearGradient id="paint51_linear" x2="1" gradientUnits="userSpaceOnUse" gradientTransform="rotate(-49.817 22.288 59.607) scale(114.878)"><stop stop-color="#00AA86"/><stop offset=".185" stop-color="#04B18B"/><stop offset=".464" stop-color="#0EC699"/><stop offset=".799" stop-color="#1EE7B0"/><stop offset="1" stop-color="#2AFFC0"/></linearGradient><linearGradient id="paint52_linear" x2="1" gradientUnits="userSpaceOnUse" gradientTransform="scale(63.2632 63.2634) rotate(-49.817 .044 .07)"><stop stop-color="#007F68"/><stop offset=".185" stop-color="#00866E"/><stop offset=".464" stop-color="#009B7D"/><stop offset=".799" stop-color="#00BC96"/><stop offset="1" stop-color="#00D4A8"/></linearGradient><linearGradient id="paint53_linear" x2="1" gradientUnits="userSpaceOnUse" gradientTransform="rotate(-49.817 1.2 2.909) scale(13.9989)"><stop stop-color="#005547"/><stop offset=".185" stop-color="#005C4C"/><stop offset=".464" stop-color="#00715A"/><stop offset=".799" stop-color="#009271"/><stop offset="1" stop-color="#00AA81"/></linearGradient><linearGradient id="paint54_linear" x2="1" gradientUnits="userSpaceOnUse" gradientTransform="rotate(-49.817 .932 2.708) scale(7.73674)"><stop offset=".001" stop-color="#007F53" stop-opacity="0"/><stop offset=".671" stop-color="#00D892" stop-opacity=".671"/><stop offset="1" stop-color="#00FFAD"/></linearGradient><linearGradient id="paint55_linear" x2="1" gradientUnits="userSpaceOnUse" gradientTransform="rotate(-49.817 .944 2.714) scale(7.73669)"><stop offset=".001" stop-color="#007F53" stop-opacity="0"/><stop offset=".671" stop-color="#00D892" stop-opacity=".671"/><stop offset="1" stop-color="#00FFAD"/></linearGradient><linearGradient id="paint56_linear" x2="1" gradientUnits="userSpaceOnUse" gradientTransform="matrix(3.68259 -4.3604 4.36033 3.68265 -.347 .454)"><stop offset=".001" stop-color="#007F53" stop-opacity="0"/><stop offset=".671" stop-color="#00D892" stop-opacity=".671"/><stop offset="1" stop-color="#00FFAD"/></linearGradient><linearGradient id="paint57_linear" x2="1" gradientUnits="userSpaceOnUse" gradientTransform="matrix(3.68259 -4.36049 4.36041 3.68265 -.347 .468)"><stop offset=".001" stop-color="#007F53" stop-opacity="0"/><stop offset=".671" stop-color="#00D892" stop-opacity=".671"/><stop offset="1" stop-color="#00FFAD"/></linearGradient><linearGradient id="paint58_linear" x2="1" gradientUnits="userSpaceOnUse" gradientTransform="scale(5.70736 5.70722) rotate(-49.817 .06 .108)"><stop offset=".001" stop-color="#007F53" stop-opacity="0"/><stop offset=".671" stop-color="#00D892" stop-opacity=".671"/><stop offset="1" stop-color="#00FFAD"/></linearGradient><linearGradient id="paint59_linear" x2="1" gradientUnits="userSpaceOnUse" gradientTransform="scale(5.70742 5.70727) rotate(-49.817 .063 .109)"><stop offset=".001" stop-color="#007F53" stop-opacity="0"/><stop offset=".671" stop-color="#00D892" stop-opacity=".671"/><stop offset="1" stop-color="#00FFAD"/></linearGradient><linearGradient id="paint60_linear" x2="1" gradientUnits="userSpaceOnUse" gradientTransform="matrix(3.68259 -4.3604 4.36033 3.68265 -.347 .434)"><stop offset=".001" stop-color="#007F53" stop-opacity="0"/><stop offset=".671" stop-color="#00D892" stop-opacity=".671"/><stop offset="1" stop-color="#00FFAD"/></linearGradient><linearGradient id="paint61_linear" x2="1" gradientUnits="userSpaceOnUse" gradientTransform="matrix(3.68259 -4.36049 4.36041 3.68265 -.347 .447)"><stop offset=".001" stop-color="#007F53" stop-opacity="0"/><stop offset=".671" stop-color="#00D892" stop-opacity=".671"/><stop offset="1" stop-color="#00FFAD"/></linearGradient><linearGradient id="paint62_linear" x2="1" gradientUnits="userSpaceOnUse" gradientTransform="scale(5.70736 5.70722) rotate(-49.817 .057 .106)"><stop offset=".001" stop-color="#007F53" stop-opacity="0"/><stop offset=".671" stop-color="#00D892" stop-opacity=".671"/><stop offset="1" stop-color="#00FFAD"/></linearGradient><linearGradient id="paint63_linear" x2="1" gradientUnits="userSpaceOnUse" gradientTransform="matrix(10.36585 -12.27352 12.27367 10.36572 -1.101 1.444)"><stop stop-color="#005547"/><stop offset=".185" stop-color="#005C4C"/><stop offset=".464" stop-color="#00715A"/><stop offset=".799" stop-color="#009271"/><stop offset="1" stop-color="#00AA81"/></linearGradient><linearGradient id="paint64_linear" x2="1" gradientUnits="userSpaceOnUse" gradientTransform="rotate(-49.817 .604 1.636) scale(6.62778)"><stop stop-color="#005547"/><stop offset=".185" stop-color="#005C4C"/><stop offset=".464" stop-color="#00715A"/><stop offset=".799" stop-color="#009271"/><stop offset="1" stop-color="#00AA81"/></linearGradient><linearGradient id="paint65_linear" x2="1" gradientUnits="userSpaceOnUse" gradientTransform="rotate(-49.817 .602 1.635) scale(6.62778)"><stop stop-color="#005547"/><stop offset=".185" stop-color="#005C4C"/><stop offset=".464" stop-color="#00715A"/><stop offset=".799" stop-color="#009271"/><stop offset="1" stop-color="#00AA81"/></linearGradient><linearGradient id="paint66_linear" x2="1" gradientUnits="userSpaceOnUse" gradientTransform="rotate(-49.817 .615 1.641) scale(6.62773)"><stop stop-color="#005547"/><stop offset=".185" stop-color="#005C4C"/><stop offset=".464" stop-color="#00715A"/><stop offset=".799" stop-color="#009271"/><stop offset="1" stop-color="#00AA81"/></linearGradient><linearGradient id="paint67_linear" x2="1" gradientUnits="userSpaceOnUse" gradientTransform="rotate(-49.817 .507 1.55) scale(3.20186)"><stop stop-color="#005547"/><stop offset=".185" stop-color="#005C4C"/><stop offset=".464" stop-color="#00715A"/><stop offset=".799" stop-color="#009271"/><stop offset="1" stop-color="#00AA81"/></linearGradient><linearGradient id="paint68_linear" x2="1" gradientUnits="userSpaceOnUse" gradientTransform="rotate(-49.817 .486 1.54) scale(3.20186)"><stop stop-color="#005547"/><stop offset=".185" stop-color="#005C4C"/><stop offset=".464" stop-color="#00715A"/><stop offset=".799" stop-color="#009271"/><stop offset="1" stop-color="#00AA81"/></linearGradient><linearGradient id="paint69_linear" x2="1" gradientUnits="userSpaceOnUse" gradientTransform="rotate(-49.817 1.019 1.914) scale(16.0652)"><stop stop-color="#005547"/><stop offset=".185" stop-color="#005C4C"/><stop offset=".464" stop-color="#00715A"/><stop offset=".799" stop-color="#009271"/><stop offset="1" stop-color="#00AA81"/></linearGradient><linearGradient id="paint70_linear" x2="1" gradientUnits="userSpaceOnUse" gradientTransform="rotate(-49.817 .954 1.885) scale(16.0653)"><stop stop-color="#005547"/><stop offset=".185" stop-color="#005C4C"/><stop offset=".464" stop-color="#00715A"/><stop offset=".799" stop-color="#009271"/><stop offset="1" stop-color="#00AA81"/></linearGradient><linearGradient id="paint71_linear" x2="1" gradientUnits="userSpaceOnUse" gradientTransform="scale(12.768 12.7681) rotate(-49.817 .063 .127)"><stop stop-color="#005547"/><stop offset=".185" stop-color="#005C4C"/><stop offset=".464" stop-color="#00715A"/><stop offset=".799" stop-color="#009271"/><stop offset="1" stop-color="#00AA81"/></linearGradient><linearGradient id="paint72_linear" x2="1" gradientUnits="userSpaceOnUse" gradientTransform="rotate(-49.817 8.144 11.704) scale(69.033)"><stop offset=".005" stop-color="#00E9D9"/><stop offset=".192" stop-color="#00D9C3"/><stop offset=".531" stop-color="#00BFA2"/><stop offset=".813" stop-color="#00B08D"/><stop offset="1" stop-color="#00AA86"/></linearGradient><linearGradient id="paint73_linear" x2="1" gradientUnits="userSpaceOnUse" gradientTransform="rotate(-49.817 2.338 3.154) scale(6.15604)"><stop offset=".005" stop-color="#0A9"/><stop offset=".23" stop-color="#00907D"/><stop offset=".553" stop-color="#00705C"/><stop offset=".821" stop-color="#005C47"/><stop offset="1" stop-color="#005540"/></linearGradient><linearGradient id="paint74_linear" x2="1" gradientUnits="userSpaceOnUse" gradientTransform="rotate(-49.817 1.467 1.86) scale(3.66236)"><stop stop-color="#00E9CC"/><stop offset=".038" stop-color="#00E6C8"/><stop offset=".442" stop-color="#00C5A7"/><stop offset=".777" stop-color="#00B192"/><stop offset="1" stop-color="#00AA8B"/></linearGradient><linearGradient id="paint75_linear" x2="1" gradientUnits="userSpaceOnUse" gradientTransform="rotate(-49.817 2.35 3.128) scale(6.15599)"><stop offset=".005" stop-color="#0A9"/><stop offset=".23" stop-color="#00907D"/><stop offset=".553" stop-color="#00705C"/><stop offset=".821" stop-color="#005C47"/><stop offset="1" stop-color="#005540"/></linearGradient><linearGradient id="paint76_linear" x2="1" gradientUnits="userSpaceOnUse" gradientTransform="rotate(-49.816 1.479 1.835) scale(3.6624)"><stop stop-color="#00E9CC"/><stop offset=".038" stop-color="#00E6C8"/><stop offset=".442" stop-color="#00C5A7"/><stop offset=".777" stop-color="#00B192"/><stop offset="1" stop-color="#00AA8B"/></linearGradient><linearGradient id="paint77_linear" x2="1" gradientUnits="userSpaceOnUse" gradientTransform="rotate(-49.817 2.325 3.182) scale(6.15599)"><stop offset=".005" stop-color="#0A9"/><stop offset=".23" stop-color="#00907D"/><stop offset=".553" stop-color="#00705C"/><stop offset=".821" stop-color="#005C47"/><stop offset="1" stop-color="#005540"/></linearGradient><linearGradient id="paint78_linear" x2="1" gradientUnits="userSpaceOnUse" gradientTransform="rotate(-49.817 1.454 1.89) scale(3.66236)"><stop stop-color="#00E9CC"/><stop offset=".038" stop-color="#00E6C8"/><stop offset=".442" stop-color="#00C5A7"/><stop offset=".777" stop-color="#00B192"/><stop offset="1" stop-color="#00AA8B"/></linearGradient><linearGradient id="paint79_linear" x2="1" gradientUnits="userSpaceOnUse" gradientTransform="rotate(-49.817 6.394 5.863) scale(63.4325)"><stop stop-color="#006A5C" stop-opacity=".5"/><stop offset=".185" stop-color="#00715F" stop-opacity=".593"/><stop offset=".464" stop-color="#008668" stop-opacity=".732"/><stop offset=".799" stop-color="#00A777" stop-opacity=".899"/><stop offset="1" stop-color="#00BF81"/></linearGradient><linearGradient id="paint80_linear" x2="1" gradientUnits="userSpaceOnUse" gradientTransform="scale(61.0107 61.0113) rotate(-49.817 .037 .032)"><stop stop-color="#00FFD0"/><stop offset=".258" stop-color="#00F7C1"/><stop offset=".703" stop-color="#00EDAC"/><stop offset="1" stop-color="#00E9A5"/></linearGradient><linearGradient id="paint81_linear" x2="1" gradientUnits="userSpaceOnUse" gradientTransform="rotate(-49.817 29.527 25.12) scale(68.477)"><stop stop-color="#00E99E"/><stop offset=".246" stop-color="#00DB98"/><stop offset=".698" stop-color="#00C68F"/><stop offset="1" stop-color="#00BF8C"/></linearGradient><linearGradient id="paint82_linear" x2="1" gradientUnits="userSpaceOnUse" gradientTransform="rotate(-49.817 15.786 20.602) scale(40.7825)"><stop stop-color="#005547"/><stop offset=".185" stop-color="#005C4C"/><stop offset=".464" stop-color="#00715A"/><stop offset=".799" stop-color="#009271"/><stop offset="1" stop-color="#00AA81"/></linearGradient><linearGradient id="paint83_linear" x2="1" gradientUnits="userSpaceOnUse" gradientTransform="rotate(-49.817 14.814 20.763) scale(35.9696)"><stop stop-color="#005547"/><stop offset=".185" stop-color="#005C4C"/><stop offset=".464" stop-color="#00715A"/><stop offset=".799" stop-color="#009271"/><stop offset="1" stop-color="#00AA81"/></linearGradient><linearGradient id="paint84_linear" x2="1" gradientUnits="userSpaceOnUse" gradientTransform="rotate(-49.817 2.112 34.8) scale(46.6262)"><stop stop-color="#005547"/><stop offset=".185" stop-color="#005C4C"/><stop offset=".464" stop-color="#00715A"/><stop offset=".799" stop-color="#009271"/><stop offset="1" stop-color="#00AA81"/></linearGradient></defs></svg>