<svg width="320" height="551" fill="none" xmlns="http://www.w3.org/2000/svg"><g opacity=".21"><g opacity=".21"><path opacity=".21" d="M106.567 0L0 61.513v123.109l106.567-61.513V0z" transform="rotate(120 -29.028 265.455)" fill="url(#paint0_linear)"/><path opacity=".21" d="M0 0v123.109l106.65 61.513V61.512L0 0z" transform="rotate(120 24.297 234.668)" fill="url(#paint1_linear)"/><path opacity=".21" d="M213.217 61.596L106.65 0 0 61.596l106.65 61.513 106.567-61.513z" transform="rotate(120 42.078 265.467)" fill="url(#paint2_linear)"/></g><g opacity=".21"><path opacity=".21" d="M69.742 0L0 40.316v80.548l69.742-40.232V0z" transform="rotate(120 -34.883 255.314)" fill="url(#paint3_linear)"/><path opacity=".21" d="M0 0v80.632l69.825 40.232V40.316L0 0z" transform="rotate(120 .03 235.157)" fill="url(#paint4_linear)"/><path opacity=".21" d="M139.568 40.233L69.825 0 0 40.233l69.825 40.316 69.743-40.316z" transform="rotate(120 11.644 255.274)" fill="url(#paint5_linear)"/></g></g><g opacity=".21"><g opacity=".21"><path opacity=".21" d="M19.618 0L0 11.305v22.61L19.618 22.61V0z" transform="rotate(120 41.99 97.05)" fill="url(#paint6_linear)"/><path opacity=".21" d="M0 0v22.61l19.535 11.305v-22.61L0 0z" transform="rotate(120 51.756 91.411)" fill="url(#paint7_linear)"/><path opacity=".21" d="M39.152 11.388L19.535 0 0 11.388l19.535 11.305 19.617-11.305z" transform="rotate(120 55.044 97.105)" fill="url(#paint8_linear)"/></g><g opacity=".21"><path opacity=".21" d="M12.884 0L0 7.398v14.797l12.884-7.399V0z" transform="rotate(120 40.909 95.18)" fill="url(#paint9_linear)"/><path opacity=".21" d="M0 0v14.796l12.801 7.399V7.398L0 0z" transform="rotate(120 47.31 91.485)" fill="url(#paint10_linear)"/><path opacity=".21" d="M25.686 7.481L12.8 0 0 7.481l12.801 7.399 12.885-7.4z" transform="rotate(120 49.47 95.225)" fill="url(#paint11_linear)"/></g></g><g opacity=".21"><g opacity=".21"><path opacity=".21" d="M28.761 0L0 16.708v33.25l28.761-16.625V0z" transform="rotate(120 12.185 49.364)" fill="url(#paint12_linear)"/><path opacity=".21" d="M0 0v33.333l28.845 16.625v-33.25L0 0z" transform="rotate(120 26.608 41.038)" fill="url(#paint13_linear)"/><path opacity=".21" d="M57.606 16.625L28.844 0 0 16.625l28.845 16.708 28.761-16.708z" transform="rotate(120 31.407 49.35)" fill="url(#paint14_linear)"/></g><g opacity=".21"><path opacity=".21" d="M18.87 0L0 10.89v21.86l18.87-10.889V0z" transform="rotate(120 10.602 46.621)" fill="url(#paint15_linear)"/><path opacity=".21" d="M0 0v21.862l18.953 10.89V10.888L0 0z" transform="rotate(120 20.078 41.15)" fill="url(#paint16_linear)"/><path opacity=".21" d="M37.822 10.89L18.952 0 0 10.89l18.953 10.889 18.87-10.89z" transform="rotate(120 23.222 46.594)" fill="url(#paint17_linear)"/></g></g><g opacity=".21"><g opacity=".21"><path opacity=".21" d="M19.618 0L0 11.388v22.61l19.618-11.305V0z" transform="rotate(120 1.968 111.622)" fill="url(#paint18_linear)"/><path opacity=".21" d="M0 0v22.693l19.618 11.305v-22.61L0 0z" transform="rotate(120 11.776 105.96)" fill="url(#paint19_linear)"/><path opacity=".21" d="M39.235 11.305L19.618 0 0 11.305l19.618 11.388 19.617-11.388z" transform="rotate(120 15.04 111.612)" fill="url(#paint20_linear)"/></g><g opacity=".21"><path opacity=".21" d="M12.801 0L0 7.398v14.88l12.801-7.398V0z" transform="rotate(120 .888 109.752)" fill="url(#paint21_linear)"/><path opacity=".21" d="M0 0v14.88l12.884 7.398V7.398L0 0z" transform="rotate(120 7.33 106.033)" fill="url(#paint22_linear)"/><path opacity=".21" d="M25.686 7.398L12.884 0 0 7.398l12.884 7.398 12.802-7.398z" transform="rotate(120 9.466 109.732)" fill="url(#paint23_linear)"/></g></g><g opacity=".21"><g opacity=".21"><path opacity=".21" d="M19.618 0L0 11.305v22.693L19.618 22.61V0z" transform="rotate(120 61.885 244.39)" fill="url(#paint24_linear)"/><path opacity=".21" d="M0 0v22.61l19.618 11.388V11.305L0 0z" transform="rotate(120 71.694 238.726)" fill="url(#paint25_linear)"/><path opacity=".21" d="M39.235 11.305L19.618 0 0 11.305 19.618 22.61l19.617-11.305z" transform="rotate(120 74.957 244.378)" fill="url(#paint26_linear)"/></g><g opacity=".21"><path opacity=".21" d="M12.801 0L0 7.398v14.797l12.801-7.399V0z" transform="rotate(120 60.805 242.518)" fill="url(#paint27_linear)"/><path opacity=".21" d="M0 0v14.796l12.884 7.399V7.398L0 0z" transform="rotate(120 67.247 238.8)" fill="url(#paint28_linear)"/><path opacity=".21" d="M25.686 7.398L12.884 0 0 7.398l12.884 7.398 12.802-7.398z" transform="rotate(120 69.383 242.498)" fill="url(#paint29_linear)"/></g></g><g opacity=".21"><g opacity=".21"><path opacity=".21" d="M19.618 0L0 11.305v22.61L19.618 22.61V0z" transform="rotate(120 -58.115 163.435)" fill="url(#paint30_linear)"/><path opacity=".21" d="M0 0v22.61l19.618 11.305v-22.61L0 0z" transform="rotate(120 -48.306 157.772)" fill="url(#paint31_linear)"/><path opacity=".21" d="M39.235 11.305L19.618 0 0 11.305 19.618 22.61l19.617-11.305z" transform="rotate(120 -45.043 163.425)" fill="url(#paint32_linear)"/></g><g opacity=".21"><path opacity=".21" d="M12.884 0L0 7.398v14.797l12.884-7.399V0z" transform="rotate(120 -59.195 161.565)" fill="url(#paint33_linear)"/><path opacity=".21" d="M0 0v14.796l12.801 7.399V7.398L0 0z" transform="rotate(120 -52.794 157.87)" fill="url(#paint34_linear)"/><path opacity=".21" d="M25.686 7.398L12.8 0 0 7.398l12.801 7.398 12.885-7.398z" transform="rotate(120 -50.659 161.569)" fill="url(#paint35_linear)"/></g></g><path d="M39.235 0L0 22.61v45.303L39.235 45.22V0z" transform="rotate(120 35.148 145)" fill="url(#paint36_linear)"/><path d="M0 0v45.22l39.152 22.694V22.61L0 0z" transform="rotate(120 54.724 133.699)" fill="url(#paint37_linear)"/><path d="M78.387 22.61L39.152 0 0 22.61l39.152 22.61 39.235-22.61z" transform="rotate(120 61.251 145.004)" fill="url(#paint38_linear)"/><path d="M25.686 0L0 14.796V44.39l25.686-14.796V0z" transform="rotate(120 32.989 141.26)" fill="url(#paint39_linear)"/><path d="M0 0v29.593l25.603 14.796V14.796L0 0z" transform="rotate(120 45.79 133.87)" fill="url(#paint40_linear)"/><path d="M51.288 14.88L25.603 0 0 14.88l25.603 14.796L51.288 14.88z" transform="rotate(120 50.086 141.31)" fill="url(#paint41_linear)"/><path d="M9.809 0L0 5.653v78.969l9.809-5.653V0z" transform="rotate(120 57.681 184.028)" fill="url(#paint42_linear)"/><path d="M0 0v78.97l9.809 5.652V5.652L0 0z" transform="rotate(120 62.586 181.196)" fill="url(#paint43_linear)"/><path d="M19.618 5.653L9.808 0 0 5.653l9.809 5.652 9.809-5.652z" transform="rotate(120 64.217 184.022)" fill="url(#paint44_linear)"/><path d="M67.415 52.535l.332-11.305L.332 0 0 11.388l67.415 41.147z" transform="rotate(120 18.355 132.807)" fill="url(#paint45_linear)"/><path d="M77.307 41.23L9.892 0 0 5.403l67.415 41.23 9.892-5.403z" transform="rotate(120 19.749 135.605)" fill="url(#paint46_linear)"/><path d="M0 16.708l9.975-5.403L10.225 0 .332 5.403 0 16.708z" transform="rotate(120 -25.695 134.354)" fill="url(#paint47_linear)"/><path d="M39.235 0L0 22.61v45.303L39.235 45.22V0z" transform="rotate(120 67.88 201.692)" fill="url(#paint48_linear)"/><path d="M0 0v45.22l39.152 22.694V22.61L0 0z" transform="rotate(120 87.455 190.39)" fill="url(#paint49_linear)"/><path d="M78.387 22.693L39.152 0 0 22.693l39.152 22.61 39.235-22.61z" transform="rotate(120 94.007 201.737)" fill="url(#paint50_linear)"/><path d="M25.686 0L0 14.88v29.592l25.686-14.796V0z" transform="rotate(120 65.744 197.993)" fill="url(#paint51_linear)"/><path d="M0 0v29.676l25.603 14.796V14.88L0 0z" transform="rotate(120 78.545 190.602)" fill="url(#paint52_linear)"/><path d="M51.288 14.796L25.603 0 0 14.796l25.603 14.88 25.685-14.88z" transform="rotate(120 82.816 198)" fill="url(#paint53_linear)"/><path d="M39.235 0L0 22.61v45.303l39.235-22.61V0z" transform="rotate(120 -27.88 142.376)" fill="url(#paint54_linear)"/><path d="M0 0v45.303l39.235 22.61V22.61L0 0z" transform="rotate(120 -8.262 131.05)" fill="url(#paint55_linear)"/><path d="M78.47 22.61L39.236 0 0 22.61l39.235 22.61 39.236-22.61z" transform="rotate(120 -1.735 142.355)" fill="url(#paint56_linear)"/><path d="M25.686 0L0 14.796v29.676l25.686-14.88V0z" transform="rotate(120 -30.04 138.636)" fill="url(#paint57_linear)"/><path d="M0 0v29.593l25.686 14.88V14.795L0 0z" transform="rotate(120 -17.196 131.221)" fill="url(#paint58_linear)"/><path d="M51.372 14.796L25.686 0 0 14.796l25.686 14.797 25.686-14.797z" transform="rotate(120 -12.925 138.619)" fill="url(#paint59_linear)"/><path d="M111.305 0L69.077 24.605 36.41 5.32 0 26.933" transform="rotate(120 26.006 79.733)" stroke="url(#paint60_linear)" stroke-miterlimit="10"/><path d="M0 0l19.7 10.723" transform="rotate(120 -57.26 125.37)" stroke="url(#paint61_linear)" stroke-miterlimit="10"/><path d="M0 48.047V0" transform="rotate(120 99.849 217.04)" stroke="url(#paint62_linear)" stroke-miterlimit="10"/><path d="M0 48.13V0" transform="rotate(120 94.558 225.248)" stroke="url(#paint63_linear)" stroke-miterlimit="10"/><path d="M87.824 75.604l-6.906 3.98.006 7.97 6.905-3.98-.005-7.97zM76.472 94.103l-6.947 4.052.006 7.97 6.977-3.939-.036-8.083zM4.577 244.563l-6.947 4.052.006 7.97 6.905-3.98.036-8.042z" fill="#fff"/><path d="M95.262 0L49.958 28.013 17.456 8.562 0 18.952" transform="rotate(120 13.219 80.91)" stroke="url(#paint64_linear)" stroke-miterlimit="10"/><path d="M33.333 0L0 21.446l48.795 27.182" transform="rotate(120 -25.335 98.79)" stroke="url(#paint65_linear)" stroke-miterlimit="10"/><path d="M0 23.109L39.235 0" transform="rotate(120 20.306 164.598)" stroke="url(#paint66_linear)" stroke-miterlimit="10"/><path d="M0 15.378L26.184 0" transform="rotate(120 32.131 163.867)" stroke="url(#paint67_linear)" stroke-miterlimit="10"/><path d="M0 23.109L39.152 0" transform="rotate(120 41.233 167.922)" stroke="url(#paint68_linear)" stroke-miterlimit="10"/><path d="M190.63 248.99l.026-7.856-6.84-3.949-.024 7.857 6.839 3.948zm-10.221-5.9l-.047-7.899-6.767-3.907-.025 7.857 6.839 3.948zm-23.679 19.73l-.046-7.898-6.767-3.907-.025 7.857 6.839 3.948z" fill="#fff"/><defs><linearGradient id="paint0_linear" x2="1" gradientUnits="userSpaceOnUse" gradientTransform="rotate(-90 61.363 111.485) scale(206.819)"><stop stop-color="#fff"/><stop offset="1" stop-color="#00AA8B" stop-opacity="0"/></linearGradient><linearGradient id="paint1_linear" x2="1" gradientUnits="userSpaceOnUse" gradientTransform="rotate(35.875 120.211 16.625) scale(234.317)"><stop stop-color="#fff"/><stop offset="1" stop-color="#00AA8B" stop-opacity="0"/></linearGradient><linearGradient id="paint2_linear" x2="1" gradientUnits="userSpaceOnUse" gradientTransform="rotate(90 208.22 135.042) scale(473.26)"><stop stop-color="#fff"/><stop offset="1" stop-color="#00AA8B" stop-opacity="0"/></linearGradient><linearGradient id="paint3_linear" x2="1" gradientUnits="userSpaceOnUse" gradientTransform="rotate(-90 40.18 72.993) scale(135.382)"><stop stop-color="#fff"/><stop offset="1" stop-color="#00AA8B" stop-opacity="0"/></linearGradient><linearGradient id="paint4_linear" x2="1" gradientUnits="userSpaceOnUse" gradientTransform="rotate(35.875 78.652 10.91) scale(153.382)"><stop stop-color="#fff"/><stop offset="1" stop-color="#00AA8B" stop-opacity="0"/></linearGradient><linearGradient id="paint5_linear" x2="1" gradientUnits="userSpaceOnUse" gradientTransform="rotate(90 136.334 88.371) scale(309.791)"><stop stop-color="#fff"/><stop offset="1" stop-color="#00AA8B" stop-opacity="0"/></linearGradient><linearGradient id="paint6_linear" x2="1" gradientUnits="userSpaceOnUse" gradientTransform="rotate(-90 11.285 20.467) scale(38.0284)"><stop stop-color="#fff"/><stop offset="1" stop-color="#00AA8B" stop-opacity="0"/></linearGradient><linearGradient id="paint7_linear" x2="1" gradientUnits="userSpaceOnUse" gradientTransform="rotate(35.875 22.128 2.978) scale(43.0847)"><stop stop-color="#fff"/><stop offset="1" stop-color="#00AA8B" stop-opacity="0"/></linearGradient><linearGradient id="paint8_linear" x2="1" gradientUnits="userSpaceOnUse" gradientTransform="rotate(90 38.249 24.827) scale(87.02)"><stop stop-color="#fff"/><stop offset="1" stop-color="#00AA8B" stop-opacity="0"/></linearGradient><linearGradient id="paint9_linear" x2="1" gradientUnits="userSpaceOnUse" gradientTransform="matrix(0 -24.8931 24.8931 0 -6 20.769)"><stop stop-color="#fff"/><stop offset="1" stop-color="#00AA8B" stop-opacity="0"/></linearGradient><linearGradient id="paint10_linear" x2="1" gradientUnits="userSpaceOnUse" gradientTransform="rotate(35.875 14.522 1.98) scale(28.2028)"><stop stop-color="#fff"/><stop offset="1" stop-color="#00AA8B" stop-opacity="0"/></linearGradient><linearGradient id="paint11_linear" x2="1" gradientUnits="userSpaceOnUse" gradientTransform="rotate(90 25.045 16.269) scale(56.9621)"><stop stop-color="#fff"/><stop offset="1" stop-color="#00AA8B" stop-opacity="0"/></linearGradient><linearGradient id="paint12_linear" x2="1" gradientUnits="userSpaceOnUse" gradientTransform="rotate(-90 16.593 30.182) scale(55.9363)"><stop stop-color="#fff"/><stop offset="1" stop-color="#00AA8B" stop-opacity="0"/></linearGradient><linearGradient id="paint13_linear" x2="1" gradientUnits="userSpaceOnUse" gradientTransform="rotate(35.875 32.456 4.458) scale(63.3734)"><stop stop-color="#fff"/><stop offset="1" stop-color="#00AA8B" stop-opacity="0"/></linearGradient><linearGradient id="paint14_linear" x2="1" gradientUnits="userSpaceOnUse" gradientTransform="rotate(90 56.303 36.503) scale(127.998)"><stop stop-color="#fff"/><stop offset="1" stop-color="#00AA8B" stop-opacity="0"/></linearGradient><linearGradient id="paint15_linear" x2="1" gradientUnits="userSpaceOnUse" gradientTransform="rotate(-90 10.863 19.77) scale(36.6153)"><stop stop-color="#fff"/><stop offset="1" stop-color="#00AA8B" stop-opacity="0"/></linearGradient><linearGradient id="paint16_linear" x2="1" gradientUnits="userSpaceOnUse" gradientTransform="rotate(35.875 21.25 3.017) scale(41.4836)"><stop stop-color="#fff"/><stop offset="1" stop-color="#00AA8B" stop-opacity="0"/></linearGradient><linearGradient id="paint17_linear" x2="1" gradientUnits="userSpaceOnUse" gradientTransform="rotate(90 36.873 23.935) scale(83.786)"><stop stop-color="#fff"/><stop offset="1" stop-color="#00AA8B" stop-opacity="0"/></linearGradient><linearGradient id="paint18_linear" x2="1" gradientUnits="userSpaceOnUse" gradientTransform="rotate(-90 11.292 20.522) scale(38.0285)"><stop stop-color="#fff"/><stop offset="1" stop-color="#00AA8B" stop-opacity="0"/></linearGradient><linearGradient id="paint19_linear" x2="1" gradientUnits="userSpaceOnUse" gradientTransform="rotate(35.875 22.05 3.063) scale(43.0847)"><stop stop-color="#fff"/><stop offset="1" stop-color="#00AA8B" stop-opacity="0"/></linearGradient><linearGradient id="paint20_linear" x2="1" gradientUnits="userSpaceOnUse" gradientTransform="rotate(90 38.277 24.833) scale(87.0196)"><stop stop-color="#fff"/><stop offset="1" stop-color="#00AA8B" stop-opacity="0"/></linearGradient><linearGradient id="paint21_linear" x2="1" gradientUnits="userSpaceOnUse" gradientTransform="rotate(-90 7.391 13.44) scale(24.8931)"><stop stop-color="#fff"/><stop offset="1" stop-color="#00AA8B" stop-opacity="0"/></linearGradient><linearGradient id="paint22_linear" x2="1" gradientUnits="userSpaceOnUse" gradientTransform="rotate(35.875 14.445 2.065) scale(28.2027)"><stop stop-color="#fff"/><stop offset="1" stop-color="#00AA8B" stop-opacity="0"/></linearGradient><linearGradient id="paint23_linear" x2="1" gradientUnits="userSpaceOnUse" gradientTransform="rotate(90 25.073 16.276) scale(56.9623)"><stop stop-color="#fff"/><stop offset="1" stop-color="#00AA8B" stop-opacity="0"/></linearGradient><linearGradient id="paint24_linear" x2="1" gradientUnits="userSpaceOnUse" gradientTransform="rotate(-90 11.286 20.511) scale(38.0285)"><stop stop-color="#fff"/><stop offset="1" stop-color="#00AA8B" stop-opacity="0"/></linearGradient><linearGradient id="paint25_linear" x2="1" gradientUnits="userSpaceOnUse" gradientTransform="rotate(35.875 22.079 3.062) scale(43.0846)"><stop stop-color="#fff"/><stop offset="1" stop-color="#00AA8B" stop-opacity="0"/></linearGradient><linearGradient id="paint26_linear" x2="1" gradientUnits="userSpaceOnUse" gradientTransform="rotate(90 38.288 24.827) scale(87.0196)"><stop stop-color="#fff"/><stop offset="1" stop-color="#00AA8B" stop-opacity="0"/></linearGradient><linearGradient id="paint27_linear" x2="1" gradientUnits="userSpaceOnUse" gradientTransform="rotate(-90 7.385 13.428) scale(24.8931)"><stop stop-color="#fff"/><stop offset="1" stop-color="#00AA8B" stop-opacity="0"/></linearGradient><linearGradient id="paint28_linear" x2="1" gradientUnits="userSpaceOnUse" gradientTransform="rotate(35.875 14.473 2.064) scale(28.2029)"><stop stop-color="#fff"/><stop offset="1" stop-color="#00AA8B" stop-opacity="0"/></linearGradient><linearGradient id="paint29_linear" x2="1" gradientUnits="userSpaceOnUse" gradientTransform="rotate(90 25.084 16.27) scale(56.9623)"><stop stop-color="#fff"/><stop offset="1" stop-color="#00AA8B" stop-opacity="0"/></linearGradient><linearGradient id="paint30_linear" x2="1" gradientUnits="userSpaceOnUse" gradientTransform="rotate(-90 11.287 20.488) scale(38.0284)"><stop stop-color="#fff"/><stop offset="1" stop-color="#00AA8B" stop-opacity="0"/></linearGradient><linearGradient id="paint31_linear" x2="1" gradientUnits="userSpaceOnUse" gradientTransform="rotate(35.875 22.126 3.087) scale(43.0847)"><stop stop-color="#fff"/><stop offset="1" stop-color="#00AA8B" stop-opacity="0"/></linearGradient><linearGradient id="paint32_linear" x2="1" gradientUnits="userSpaceOnUse" gradientTransform="rotate(90 38.311 24.828) scale(87.0195)"><stop stop-color="#fff"/><stop offset="1" stop-color="#00AA8B" stop-opacity="0"/></linearGradient><linearGradient id="paint33_linear" x2="1" gradientUnits="userSpaceOnUse" gradientTransform="rotate(-90 7.386 13.405) scale(24.8931)"><stop stop-color="#fff"/><stop offset="1" stop-color="#00AA8B" stop-opacity="0"/></linearGradient><linearGradient id="paint34_linear" x2="1" gradientUnits="userSpaceOnUse" gradientTransform="rotate(35.875 14.48 1.961) scale(28.2028)"><stop stop-color="#fff"/><stop offset="1" stop-color="#00AA8B" stop-opacity="0"/></linearGradient><linearGradient id="paint35_linear" x2="1" gradientUnits="userSpaceOnUse" gradientTransform="rotate(90 25.066 16.229) scale(56.9624)"><stop stop-color="#fff"/><stop offset="1" stop-color="#00AA8B" stop-opacity="0"/></linearGradient><linearGradient id="paint36_linear" x2="1" gradientUnits="userSpaceOnUse" gradientTransform="rotate(-90 22.575 40.98) scale(76.0598)"><stop stop-color="#fff"/><stop offset="1" stop-color="#007F5A" stop-opacity="0"/></linearGradient><linearGradient id="paint37_linear" x2="1" gradientUnits="userSpaceOnUse" gradientTransform="rotate(35.875 44.204 6.044) scale(86.1726)"><stop stop-color="#fff"/><stop offset="1" stop-color="#007F5A" stop-opacity="0"/></linearGradient><linearGradient id="paint38_linear" x2="1" gradientUnits="userSpaceOnUse" gradientTransform="rotate(90 76.58 49.615) scale(174.046)"><stop stop-color="#fff"/><stop offset="1" stop-color="#007F5A" stop-opacity="0"/></linearGradient><linearGradient id="paint39_linear" x2="1" gradientUnits="userSpaceOnUse" gradientTransform="rotate(-90 14.774 26.814) scale(49.7881)"><stop stop-color="#fff"/><stop offset="1" stop-color="#007F5A" stop-opacity="0"/></linearGradient><linearGradient id="paint40_linear" x2="1" gradientUnits="userSpaceOnUse" gradientTransform="rotate(35.875 28.951 3.92) scale(56.4078)"><stop stop-color="#fff"/><stop offset="1" stop-color="#007F5A" stop-opacity="0"/></linearGradient><linearGradient id="paint41_linear" x2="1" gradientUnits="userSpaceOnUse" gradientTransform="rotate(90 50.088 32.5) scale(113.929)"><stop stop-color="#fff"/><stop offset="1" stop-color="#007F5A" stop-opacity="0"/></linearGradient><linearGradient id="paint42_linear" x2="1" gradientUnits="userSpaceOnUse" gradientTransform="rotate(-90 18.367 60.853) scale(94.8193)"><stop stop-color="#fff"/><stop offset="1" stop-color="#007F5A" stop-opacity="0"/></linearGradient><linearGradient id="paint43_linear" x2="1" gradientUnits="userSpaceOnUse" gradientTransform="rotate(35.875 6.97 -4.33) scale(69.3012)"><stop stop-color="#fff"/><stop offset="1" stop-color="#007F5A" stop-opacity="0"/></linearGradient><linearGradient id="paint44_linear" x2="1" gradientUnits="userSpaceOnUse" gradientTransform="rotate(90 19.177 12.41) scale(43.5114)"><stop stop-color="#fff"/><stop offset="1" stop-color="#007F5A" stop-opacity="0"/></linearGradient><linearGradient id="paint45_linear" x2="1" gradientUnits="userSpaceOnUse" gradientTransform="rotate(31.439 72.904 31.43) scale(94.819)"><stop stop-color="#fff"/><stop offset="1" stop-color="#007F5A" stop-opacity="0"/></linearGradient><linearGradient id="paint46_linear" x2="1" gradientUnits="userSpaceOnUse" gradientTransform="rotate(157.314 36.78 29.594) scale(69.2989)"><stop stop-color="#fff"/><stop offset="1" stop-color="#007F5A" stop-opacity="0"/></linearGradient><linearGradient id="paint47_linear" x2="1" gradientUnits="userSpaceOnUse" gradientTransform="rotate(-148.561 6.872 16.083) scale(43.5116)"><stop stop-color="#fff"/><stop offset="1" stop-color="#007F5A" stop-opacity="0"/></linearGradient><linearGradient id="paint48_linear" x2="1" gradientUnits="userSpaceOnUse" gradientTransform="rotate(-90 22.563 40.968) scale(76.0598)"><stop stop-color="#fff"/><stop offset="1" stop-color="#007F5A" stop-opacity="0"/></linearGradient><linearGradient id="paint49_linear" x2="1" gradientUnits="userSpaceOnUse" gradientTransform="rotate(35.875 44.243 6.033) scale(86.1727)"><stop stop-color="#fff"/><stop offset="1" stop-color="#007F5A" stop-opacity="0"/></linearGradient><linearGradient id="paint50_linear" x2="1" gradientUnits="userSpaceOnUse" gradientTransform="rotate(90 76.552 49.645) scale(174.046)"><stop stop-color="#fff"/><stop offset="1" stop-color="#007F5A" stop-opacity="0"/></linearGradient><linearGradient id="paint51_linear" x2="1" gradientUnits="userSpaceOnUse" gradientTransform="rotate(-90 14.803 26.842) scale(49.788)"><stop stop-color="#fff"/><stop offset="1" stop-color="#007F5A" stop-opacity="0"/></linearGradient><linearGradient id="paint52_linear" x2="1" gradientUnits="userSpaceOnUse" gradientTransform="rotate(35.875 28.862 3.951) scale(56.4078)"><stop stop-color="#fff"/><stop offset="1" stop-color="#007F5A" stop-opacity="0"/></linearGradient><linearGradient id="paint53_linear" x2="1" gradientUnits="userSpaceOnUse" gradientTransform="rotate(90 50.101 32.488) scale(113.929)"><stop stop-color="#fff"/><stop offset="1" stop-color="#007F5A" stop-opacity="0"/></linearGradient><linearGradient id="paint54_linear" x2="1" gradientUnits="userSpaceOnUse" gradientTransform="rotate(-90 22.578 40.994) scale(76.0598)"><stop stop-color="#fff"/><stop offset="1" stop-color="#007F5A" stop-opacity="0"/></linearGradient><linearGradient id="paint55_linear" x2="1" gradientUnits="userSpaceOnUse" gradientTransform="rotate(35.875 44.215 6.164) scale(86.1725)"><stop stop-color="#fff"/><stop offset="1" stop-color="#007F5A" stop-opacity="0"/></linearGradient><linearGradient id="paint56_linear" x2="1" gradientUnits="userSpaceOnUse" gradientTransform="rotate(90 76.609 49.66) scale(174.046)"><stop stop-color="#fff"/><stop offset="1" stop-color="#007F5A" stop-opacity="0"/></linearGradient><linearGradient id="paint57_linear" x2="1" gradientUnits="userSpaceOnUse" gradientTransform="rotate(-90 14.777 26.827) scale(49.7881)"><stop stop-color="#fff"/><stop offset="1" stop-color="#007F5A" stop-opacity="0"/></linearGradient><linearGradient id="paint58_linear" x2="1" gradientUnits="userSpaceOnUse" gradientTransform="rotate(35.875 28.962 4.04) scale(56.4079)"><stop stop-color="#fff"/><stop offset="1" stop-color="#007F5A" stop-opacity="0"/></linearGradient><linearGradient id="paint59_linear" x2="1" gradientUnits="userSpaceOnUse" gradientTransform="rotate(90 50.158 32.503) scale(113.929)"><stop stop-color="#fff"/><stop offset="1" stop-color="#007F5A" stop-opacity="0"/></linearGradient><linearGradient id="paint60_linear" x2="1" gradientUnits="userSpaceOnUse" gradientTransform="translate(-.232 -42.43) scale(111.787)"><stop stop-color="#fff"/><stop offset="1" stop-color="#009479" stop-opacity="0"/></linearGradient><linearGradient id="paint61_linear" x2="1" gradientUnits="userSpaceOnUse" gradientTransform="translate(-.164 -4.658) scale(20.0611)"><stop stop-color="#006A54" stop-opacity="0"/><stop offset="1" stop-color="#fff"/></linearGradient><linearGradient id="paint62_linear" x2="1" gradientUnits="userSpaceOnUse" gradientTransform="scale(1 48.0465)"><stop stop-color="#fff"/><stop offset="1" stop-color="#006A5C" stop-opacity="0"/></linearGradient><linearGradient id="paint63_linear" x2="1" gradientUnits="userSpaceOnUse" gradientTransform="scale(1 48.1297)"><stop stop-color="#fff"/><stop offset="1" stop-color="#006A5C" stop-opacity="0"/></linearGradient><linearGradient id="paint64_linear" x2="1" gradientUnits="userSpaceOnUse" gradientTransform="translate(-.24 -33.822) scale(95.7453)"><stop stop-color="#fff"/><stop offset="1" stop-color="#009479" stop-opacity="0"/></linearGradient><linearGradient id="paint65_linear" x2="1" gradientUnits="userSpaceOnUse" gradientTransform="rotate(-93.08 24.412 25.86) scale(50.1213)"><stop stop-color="#fff"/><stop offset="1" stop-color="#009479" stop-opacity="0"/></linearGradient><linearGradient id="paint66_linear" x2="1" gradientUnits="userSpaceOnUse" gradientTransform="translate(-.218 -8.249) scale(39.6275)"><stop stop-color="#fff"/><stop offset="1" stop-color="#00554A" stop-opacity="0"/></linearGradient><linearGradient id="paint67_linear" x2="1" gradientUnits="userSpaceOnUse" gradientTransform="translate(-.228 -5.612) scale(26.5846)"><stop stop-color="#fff"/><stop offset="1" stop-color="#00554A" stop-opacity="0"/></linearGradient><linearGradient id="paint68_linear" x2="1" gradientUnits="userSpaceOnUse" gradientTransform="translate(-.252 -8.247) scale(39.6274)"><stop stop-color="#fff"/><stop offset="1" stop-color="#00554A" stop-opacity="0"/></linearGradient></defs></svg>