<svg width="20" height="20" fill="none" xmlns="http://www.w3.org/2000/svg"><path d="M18.321 9.54a8.3 8.3 0 0 0-7.716-7.716V.664H9.5v1.16a8.3 8.3 0 0 0-7.717 7.717H.623v1.105h1.16A8.3 8.3 0 0 0 9.5 18.362v1.16h1.105v-1.16a8.3 8.3 0 0 0 7.716-7.716h1.16V9.54h-1.16zM9.5 2.932v2.22a4.982 4.982 0 0 0-4.39 4.39H2.89A7.194 7.194 0 0 1 9.5 2.93zm0 14.324a7.194 7.194 0 0 1-6.61-6.61h2.22a4.982 4.982 0 0 0 4.39 4.39v2.22zm0-4.4v1.066a3.876 3.876 0 0 1-3.276-3.275H7.29V9.54H6.224A3.876 3.876 0 0 1 9.5 6.265V7.33h1.105V6.265a3.876 3.876 0 0 1 3.275 3.276h-1.065v1.105h1.065a3.876 3.876 0 0 1-3.275 3.275v-1.065H9.5zm1.105 4.4v-2.22a4.982 4.982 0 0 0 4.389-4.39h2.22a7.194 7.194 0 0 1-6.61 6.61zm4.389-7.714a4.982 4.982 0 0 0-4.39-4.39v-2.22a7.194 7.194 0 0 1 6.61 6.61h-2.22z" fill="#d84c4c"/><path d="M10.052 8.436a1.66 1.66 0 0 0-1.657 1.657 1.66 1.66 0 0 0 1.657 1.658 1.66 1.66 0 0 0 1.658-1.658 1.66 1.66 0 0 0-1.658-1.657zm0 2.21a.553.553 0 1 1 .001-1.107.553.553 0 0 1 0 1.107z" fill="#d84c4c"/></svg>