<svg width="20" height="20" viewBox="0 0 20 20" fill="none" xmlns="http://www.w3.org/2000/svg">
<path d="M17.6985 8.8771C17.4253 4.7466 14.1126 1.43397 9.98214 1.16073V0H8.8771V1.16073C4.7466 1.43397 1.43397 4.7466 1.16073 8.8771H0V9.98214H1.16073C1.43397 14.1126 4.7466 17.4253 8.8771 17.6985V18.8592H9.98214V17.6985C14.1126 17.4253 17.4253 14.1126 17.6985 9.98214H18.8592V8.8771H17.6985ZM8.8771 2.26793V4.48784C6.57572 4.74343 4.74343 6.57572 4.48784 8.8771H2.26793C2.53705 5.35606 5.35606 2.53705 8.8771 2.26793ZM8.8771 16.5913C5.35606 16.3222 2.53705 13.5032 2.26793 9.98214H4.48784C4.74343 12.2835 6.57572 14.1158 8.8771 14.3714V16.5913ZM8.8771 12.1922V13.2576C7.18581 13.0146 5.84463 11.6734 5.60164 9.98214H6.66704V8.8771H5.60164C5.84463 7.18581 7.18581 5.84463 8.8771 5.60164V6.66704H9.98214V5.60164C11.6734 5.84463 13.0146 7.18581 13.2576 8.8771H12.1922V9.98214H13.2576C13.0146 11.6734 11.6734 13.0146 9.98214 13.2576V12.1922H8.8771ZM9.98214 16.5913V14.3714C12.2835 14.1158 14.1158 12.2835 14.3714 9.98214H16.5913C16.3222 13.5032 13.5032 16.3222 9.98214 16.5913ZM14.3714 8.8771C14.1158 6.57572 12.2835 4.74343 9.98214 4.48784V2.26793C13.5032 2.53705 16.3222 5.35606 16.5913 8.8771H14.3714Z" transform="translate(0.622559 0.663452)" fill="black"/>
<path d="M1.65755 0C0.743577 0 0 0.743577 0 1.65755C0 2.57152 0.743577 3.3151 1.65755 3.3151C2.57152 3.3151 3.3151 2.57152 3.3151 1.65755C3.3151 0.743577 2.57152 0 1.65755 0ZM1.65755 2.21007C1.35289 2.21007 1.10503 1.96221 1.10503 1.65755C1.10503 1.35289 1.35289 1.10503 1.65755 1.10503C1.96221 1.10503 2.21007 1.35289 2.21007 1.65755C2.21007 1.96221 1.96221 2.21007 1.65755 2.21007Z" transform="translate(8.39465 8.43555)" fill="black"/>
</svg>
